%TF.GenerationSoftware,KiCad,Pcbnew,7.0.1-0*%
%TF.CreationDate,2023-10-24T00:04:38+02:00*%
%TF.ProjectId,SMT-32,534d542d-3332-42e6-9b69-6361645f7063,rev?*%
%TF.SameCoordinates,Original*%
%TF.FileFunction,Copper,L2,Inr*%
%TF.FilePolarity,Positive*%
%FSLAX46Y46*%
G04 Gerber Fmt 4.6, Leading zero omitted, Abs format (unit mm)*
G04 Created by KiCad (PCBNEW 7.0.1-0) date 2023-10-24 00:04:38*
%MOMM*%
%LPD*%
G01*
G04 APERTURE LIST*
%TA.AperFunction,ComponentPad*%
%ADD10O,1.700000X1.700000*%
%TD*%
%TA.AperFunction,ComponentPad*%
%ADD11R,1.700000X1.700000*%
%TD*%
%TA.AperFunction,ComponentPad*%
%ADD12O,1.800000X1.150000*%
%TD*%
%TA.AperFunction,ComponentPad*%
%ADD13O,2.000000X1.450000*%
%TD*%
%TA.AperFunction,ViaPad*%
%ADD14C,0.800000*%
%TD*%
%TA.AperFunction,ViaPad*%
%ADD15C,1.000000*%
%TD*%
G04 APERTURE END LIST*
D10*
%TO.N,/Pin 2*%
%TO.C,J8*%
X85852000Y-31242000D03*
%TO.N,/Pin 3*%
X83312000Y-31242000D03*
D11*
%TO.N,/Pin 4*%
X80772000Y-31242000D03*
%TD*%
%TO.N,/ADC_12*%
%TO.C,J5*%
X89916000Y-53086000D03*
D10*
%TO.N,/ADC_11*%
X87376000Y-53086000D03*
%TO.N,unconnected-(J5-Pin_3-Pad3)*%
X84836000Y-53086000D03*
%TD*%
D11*
%TO.N,GND*%
%TO.C,J7*%
X105180000Y-26100000D03*
D10*
%TO.N,/SPI_2_MOSI*%
X107720000Y-26100000D03*
%TO.N,/SPI_2_MISO*%
X110260000Y-26100000D03*
%TO.N,/SPI_2_SCK*%
X112800000Y-26100000D03*
%TO.N,+3.3V*%
X115340000Y-26100000D03*
%TD*%
D11*
%TO.N,GND*%
%TO.C,J6*%
X98820000Y-48400000D03*
D10*
%TO.N,/SPI_1_MOSI*%
X96280000Y-48400000D03*
%TO.N,/SPI_1_MISO*%
X93740000Y-48400000D03*
%TO.N,/SPI_1_SCK*%
X91200000Y-48400000D03*
%TO.N,+3.3V*%
X88660000Y-48400000D03*
%TD*%
D11*
%TO.N,+3.3V*%
%TO.C,J3*%
X88670000Y-26100000D03*
D10*
%TO.N,URAT_1_TX*%
X86130000Y-26100000D03*
%TO.N,URAT_1_RX*%
X83590000Y-26100000D03*
%TO.N,GND*%
X81050000Y-26100000D03*
%TD*%
D11*
%TO.N,+3.3V*%
%TO.C,J4*%
X94996000Y-53086000D03*
D10*
%TO.N,/I2C_SCL*%
X97536000Y-53086000D03*
%TO.N,/I2C_SDA*%
X100076000Y-53086000D03*
%TO.N,GND*%
X102616000Y-53086000D03*
%TD*%
D12*
%TO.N,unconnected-(J1-Shield-Pad6)*%
%TO.C,J1*%
X115050000Y-40725000D03*
D13*
X111250000Y-40575000D03*
X111250000Y-33125000D03*
D12*
X115050000Y-32975000D03*
%TD*%
D11*
%TO.N,+3.3V*%
%TO.C,J2*%
X100562000Y-26100000D03*
D10*
%TO.N,/SWDIO*%
X98022000Y-26100000D03*
%TO.N,/SWCLK*%
X95482000Y-26100000D03*
%TO.N,GND*%
X92942000Y-26100000D03*
%TD*%
D14*
%TO.N,GND*%
X102700000Y-43050000D03*
%TO.N,/I2C_SDA*%
X95750000Y-40600000D03*
%TO.N,+3.3V*%
X102950000Y-35200000D03*
X91500000Y-31500000D03*
%TO.N,GND*%
X93550000Y-30850000D03*
D15*
%TO.N,+3.3V*%
X113350000Y-47100000D03*
X94900000Y-50750000D03*
X114500000Y-28950000D03*
X116250000Y-28950000D03*
X102800000Y-25650000D03*
X90550000Y-25100000D03*
X90450000Y-27450000D03*
X102150000Y-28550000D03*
D14*
X108650000Y-49550000D03*
D15*
X110000000Y-52100000D03*
X107550000Y-52100000D03*
X106350000Y-53750000D03*
X111600000Y-53700000D03*
D14*
X106500000Y-34450000D03*
%TO.N,GND*%
X101450000Y-45650000D03*
%TO.N,/Pin 3*%
X97700000Y-37450000D03*
%TO.N,/Pin 4*%
X96600000Y-38400000D03*
%TO.N,/SW_Boot0*%
X101900000Y-32850000D03*
X115700000Y-50550000D03*
%TO.N,GND*%
X80250000Y-40000000D03*
X113150000Y-35800000D03*
X111150000Y-50100000D03*
X114200000Y-51650000D03*
X101200000Y-50900000D03*
X103000000Y-50900000D03*
X98850000Y-50700000D03*
X80700000Y-28400000D03*
X96600000Y-29450000D03*
X104300000Y-28750000D03*
X109350000Y-44700000D03*
%TO.N,+3.3V*%
X82500000Y-44900000D03*
%TO.N,/SPI_2_SCK*%
X106850000Y-38900000D03*
%TO.N,/SPI_2_MISO*%
X104300000Y-38500000D03*
X107700000Y-30450000D03*
%TO.N,/SPI_2_MOSI*%
X102250000Y-38400000D03*
%TO.N,/BOOT0*%
X100076000Y-33274000D03*
X96774000Y-35814000D03*
%TO.N,URAT_1_TX*%
X96774000Y-31496000D03*
%TO.N,GND*%
X94234000Y-39624000D03*
%TO.N,/NRST*%
X95504000Y-39116000D03*
%TO.N,GND*%
X90170000Y-42418000D03*
%TO.N,/NRST*%
X82296000Y-40386000D03*
%TO.N,/ADC_11*%
X93218000Y-40894000D03*
%TO.N,+3.3V*%
X86614000Y-35052000D03*
%TO.N,/I2C_SDA*%
X98806000Y-45720000D03*
%TO.N,GND*%
X102950000Y-34000000D03*
X88200000Y-34400000D03*
X98350000Y-36100000D03*
X97400000Y-39750000D03*
X94400000Y-36200000D03*
X87900000Y-42700000D03*
X84200000Y-43500000D03*
X84500000Y-42200000D03*
X113500000Y-44700000D03*
%TO.N,+3.3V*%
X114700000Y-42200000D03*
%TD*%
%TA.AperFunction,Conductor*%
%TO.N,GND*%
G36*
X104784739Y-23450503D02*
G01*
X117876416Y-23547240D01*
X117938028Y-23564157D01*
X117983040Y-23609502D01*
X117999500Y-23671237D01*
X117999500Y-55574393D01*
X117982785Y-55636570D01*
X117937145Y-55681984D01*
X117874887Y-55698390D01*
X97999999Y-55599999D01*
X82492542Y-55523230D01*
X78123886Y-55501603D01*
X78062146Y-55484787D01*
X78017011Y-55439428D01*
X78000500Y-55377605D01*
X78000500Y-53086000D01*
X83480340Y-53086000D01*
X83500936Y-53321407D01*
X83512690Y-53365273D01*
X83562097Y-53549663D01*
X83661965Y-53763830D01*
X83797505Y-53957401D01*
X83964599Y-54124495D01*
X84158170Y-54260035D01*
X84372337Y-54359903D01*
X84600592Y-54421063D01*
X84836000Y-54441659D01*
X85071408Y-54421063D01*
X85299663Y-54359903D01*
X85513830Y-54260035D01*
X85707401Y-54124495D01*
X85874495Y-53957401D01*
X86004426Y-53771839D01*
X86048743Y-53732975D01*
X86106000Y-53718964D01*
X86163257Y-53732975D01*
X86207573Y-53771839D01*
X86337505Y-53957401D01*
X86504599Y-54124495D01*
X86698170Y-54260035D01*
X86912337Y-54359903D01*
X87140592Y-54421063D01*
X87376000Y-54441659D01*
X87611408Y-54421063D01*
X87839663Y-54359903D01*
X88053830Y-54260035D01*
X88247401Y-54124495D01*
X88369329Y-54002566D01*
X88422072Y-53971273D01*
X88483365Y-53969084D01*
X88538209Y-53996537D01*
X88573189Y-54046916D01*
X88587292Y-54084727D01*
X88622204Y-54178331D01*
X88708454Y-54293546D01*
X88823669Y-54379796D01*
X88958517Y-54430091D01*
X89018127Y-54436500D01*
X90813872Y-54436499D01*
X90873483Y-54430091D01*
X91008331Y-54379796D01*
X91123546Y-54293546D01*
X91209796Y-54178331D01*
X91260091Y-54043483D01*
X91266500Y-53983873D01*
X91266500Y-53983869D01*
X93645500Y-53983869D01*
X93651909Y-54043484D01*
X93667292Y-54084727D01*
X93702204Y-54178331D01*
X93788454Y-54293546D01*
X93903669Y-54379796D01*
X94038517Y-54430091D01*
X94098127Y-54436500D01*
X95893872Y-54436499D01*
X95953483Y-54430091D01*
X96088331Y-54379796D01*
X96203546Y-54293546D01*
X96289796Y-54178331D01*
X96338810Y-54046916D01*
X96373789Y-53996537D01*
X96428634Y-53969084D01*
X96489927Y-53971273D01*
X96542673Y-54002569D01*
X96664599Y-54124495D01*
X96858170Y-54260035D01*
X97072337Y-54359903D01*
X97300592Y-54421063D01*
X97536000Y-54441659D01*
X97771408Y-54421063D01*
X97999663Y-54359903D01*
X98213830Y-54260035D01*
X98407401Y-54124495D01*
X98574495Y-53957401D01*
X98704426Y-53771839D01*
X98748743Y-53732975D01*
X98806000Y-53718964D01*
X98863257Y-53732975D01*
X98907573Y-53771839D01*
X99037505Y-53957401D01*
X99204599Y-54124495D01*
X99398170Y-54260035D01*
X99612337Y-54359903D01*
X99840592Y-54421063D01*
X100076000Y-54441659D01*
X100311408Y-54421063D01*
X100539663Y-54359903D01*
X100753830Y-54260035D01*
X100947401Y-54124495D01*
X101114495Y-53957401D01*
X101244732Y-53771402D01*
X101289048Y-53732539D01*
X101346305Y-53718528D01*
X101403562Y-53732539D01*
X101447880Y-53771404D01*
X101577893Y-53957081D01*
X101744918Y-54124106D01*
X101938423Y-54259600D01*
X102152507Y-54359430D01*
X102365999Y-54416635D01*
X102366000Y-54416636D01*
X102366000Y-53336000D01*
X102866000Y-53336000D01*
X102866000Y-54416635D01*
X103079492Y-54359430D01*
X103293576Y-54259600D01*
X103487081Y-54124106D01*
X103654106Y-53957081D01*
X103789600Y-53763576D01*
X103795931Y-53749999D01*
X105344659Y-53749999D01*
X105363976Y-53946133D01*
X105421185Y-54134726D01*
X105421186Y-54134727D01*
X105514090Y-54308538D01*
X105639117Y-54460883D01*
X105791462Y-54585910D01*
X105965273Y-54678814D01*
X106153868Y-54736024D01*
X106350000Y-54755341D01*
X106546132Y-54736024D01*
X106734727Y-54678814D01*
X106908538Y-54585910D01*
X107060883Y-54460883D01*
X107185910Y-54308538D01*
X107278814Y-54134727D01*
X107336024Y-53946132D01*
X107355341Y-53750000D01*
X107350417Y-53700000D01*
X110594659Y-53700000D01*
X110600921Y-53763576D01*
X110613976Y-53896133D01*
X110671185Y-54084726D01*
X110721218Y-54178330D01*
X110764090Y-54258538D01*
X110889117Y-54410883D01*
X111041462Y-54535910D01*
X111215273Y-54628814D01*
X111403868Y-54686024D01*
X111600000Y-54705341D01*
X111796132Y-54686024D01*
X111984727Y-54628814D01*
X112158538Y-54535910D01*
X112310883Y-54410883D01*
X112435910Y-54258538D01*
X112528814Y-54084727D01*
X112586024Y-53896132D01*
X112605341Y-53700000D01*
X112586024Y-53503868D01*
X112528814Y-53315273D01*
X112435910Y-53141462D01*
X112310883Y-52989117D01*
X112158538Y-52864090D01*
X112133285Y-52850592D01*
X111984726Y-52771185D01*
X111796133Y-52713976D01*
X111600000Y-52694659D01*
X111403866Y-52713976D01*
X111215273Y-52771185D01*
X111041463Y-52864089D01*
X110889117Y-52989117D01*
X110764089Y-53141463D01*
X110671185Y-53315273D01*
X110613976Y-53503866D01*
X110608641Y-53558032D01*
X110594659Y-53700000D01*
X107350417Y-53700000D01*
X107336024Y-53553868D01*
X107278814Y-53365273D01*
X107255367Y-53321407D01*
X107226445Y-53267297D01*
X107211952Y-53202759D01*
X107232701Y-53139953D01*
X107282786Y-53096749D01*
X107347957Y-53085441D01*
X107353863Y-53086022D01*
X107353868Y-53086024D01*
X107550000Y-53105341D01*
X107746132Y-53086024D01*
X107934727Y-53028814D01*
X108108538Y-52935910D01*
X108260883Y-52810883D01*
X108385910Y-52658538D01*
X108478814Y-52484727D01*
X108536024Y-52296132D01*
X108555341Y-52100000D01*
X108994659Y-52100000D01*
X109013976Y-52296133D01*
X109071185Y-52484726D01*
X109071186Y-52484727D01*
X109164090Y-52658538D01*
X109289117Y-52810883D01*
X109441462Y-52935910D01*
X109615273Y-53028814D01*
X109803868Y-53086024D01*
X110000000Y-53105341D01*
X110196132Y-53086024D01*
X110384727Y-53028814D01*
X110558538Y-52935910D01*
X110710883Y-52810883D01*
X110835910Y-52658538D01*
X110928814Y-52484727D01*
X110986024Y-52296132D01*
X111005341Y-52100000D01*
X110986024Y-51903868D01*
X110928814Y-51715273D01*
X110835910Y-51541462D01*
X110710883Y-51389117D01*
X110558538Y-51264090D01*
X110501499Y-51233602D01*
X110384726Y-51171185D01*
X110196133Y-51113976D01*
X110000000Y-51094659D01*
X109803866Y-51113976D01*
X109615273Y-51171185D01*
X109441463Y-51264089D01*
X109289117Y-51389117D01*
X109164089Y-51541463D01*
X109071185Y-51715273D01*
X109013976Y-51903866D01*
X108994659Y-52100000D01*
X108555341Y-52100000D01*
X108536024Y-51903868D01*
X108478814Y-51715273D01*
X108385910Y-51541462D01*
X108260883Y-51389117D01*
X108108538Y-51264090D01*
X108051499Y-51233602D01*
X107934726Y-51171185D01*
X107746133Y-51113976D01*
X107550000Y-51094659D01*
X107353866Y-51113976D01*
X107165273Y-51171185D01*
X106991463Y-51264089D01*
X106839117Y-51389117D01*
X106714089Y-51541463D01*
X106621185Y-51715273D01*
X106563976Y-51903866D01*
X106544659Y-52100000D01*
X106563976Y-52296133D01*
X106611705Y-52453472D01*
X106621186Y-52484727D01*
X106655748Y-52549388D01*
X106673555Y-52582703D01*
X106688047Y-52647240D01*
X106667298Y-52710046D01*
X106617213Y-52753250D01*
X106552042Y-52764558D01*
X106350000Y-52744659D01*
X106153866Y-52763976D01*
X105965273Y-52821185D01*
X105791463Y-52914089D01*
X105639117Y-53039117D01*
X105514089Y-53191463D01*
X105421185Y-53365273D01*
X105363976Y-53553866D01*
X105344659Y-53749999D01*
X103795931Y-53749999D01*
X103889430Y-53549492D01*
X103946636Y-53336000D01*
X102866000Y-53336000D01*
X102366000Y-53336000D01*
X102366000Y-51755364D01*
X102866000Y-51755364D01*
X102866000Y-52836000D01*
X103946636Y-52836000D01*
X103946635Y-52835999D01*
X103889430Y-52622507D01*
X103789599Y-52408421D01*
X103654109Y-52214921D01*
X103487081Y-52047893D01*
X103293576Y-51912399D01*
X103079492Y-51812569D01*
X102866000Y-51755364D01*
X102366000Y-51755364D01*
X102365999Y-51755364D01*
X102152507Y-51812569D01*
X101938421Y-51912400D01*
X101744921Y-52047890D01*
X101577893Y-52214918D01*
X101447880Y-52400596D01*
X101403562Y-52439461D01*
X101346305Y-52453472D01*
X101289048Y-52439461D01*
X101244730Y-52400595D01*
X101244425Y-52400159D01*
X101114495Y-52214599D01*
X100947401Y-52047505D01*
X100753830Y-51911965D01*
X100539663Y-51812097D01*
X100478502Y-51795709D01*
X100311407Y-51750936D01*
X100076000Y-51730340D01*
X99840592Y-51750936D01*
X99612336Y-51812097D01*
X99398170Y-51911965D01*
X99204598Y-52047505D01*
X99037505Y-52214598D01*
X98907575Y-52400159D01*
X98863257Y-52439025D01*
X98806000Y-52453036D01*
X98748743Y-52439025D01*
X98704425Y-52400159D01*
X98574494Y-52214598D01*
X98407404Y-52047508D01*
X98407401Y-52047505D01*
X98213830Y-51911965D01*
X97999663Y-51812097D01*
X97938502Y-51795709D01*
X97771407Y-51750936D01*
X97536000Y-51730340D01*
X97300592Y-51750936D01*
X97072336Y-51812097D01*
X96858170Y-51911965D01*
X96664601Y-52047503D01*
X96542673Y-52169431D01*
X96489926Y-52200726D01*
X96428634Y-52202915D01*
X96373789Y-52175462D01*
X96338810Y-52125082D01*
X96310019Y-52047890D01*
X96289796Y-51993669D01*
X96203546Y-51878454D01*
X96088331Y-51792204D01*
X95953483Y-51741909D01*
X95893873Y-51735500D01*
X95893869Y-51735500D01*
X95622818Y-51735500D01*
X95564365Y-51720858D01*
X95519716Y-51680391D01*
X95499415Y-51623655D01*
X95508257Y-51564048D01*
X95544153Y-51515647D01*
X95610883Y-51460883D01*
X95735910Y-51308538D01*
X95828814Y-51134727D01*
X95886024Y-50946132D01*
X95905341Y-50750000D01*
X95886024Y-50553868D01*
X95884851Y-50550000D01*
X114794540Y-50550000D01*
X114814326Y-50738257D01*
X114872820Y-50918284D01*
X114967466Y-51082216D01*
X115094129Y-51222889D01*
X115247265Y-51334149D01*
X115284134Y-51350564D01*
X115380281Y-51393372D01*
X115426053Y-51428421D01*
X115451029Y-51480381D01*
X115449811Y-51538019D01*
X115422660Y-51588877D01*
X115369266Y-51649148D01*
X115353696Y-51678814D01*
X115290209Y-51799775D01*
X115249500Y-51964945D01*
X115249500Y-52135055D01*
X115290209Y-52300224D01*
X115346865Y-52408171D01*
X115369266Y-52450852D01*
X115482071Y-52578183D01*
X115622070Y-52674818D01*
X115781128Y-52735140D01*
X115907628Y-52750500D01*
X115992371Y-52750500D01*
X115992372Y-52750500D01*
X116118872Y-52735140D01*
X116277930Y-52674818D01*
X116417929Y-52578183D01*
X116530734Y-52450852D01*
X116609790Y-52300225D01*
X116650500Y-52135056D01*
X116650500Y-51964944D01*
X116609790Y-51799775D01*
X116530734Y-51649148D01*
X116417929Y-51521817D01*
X116293562Y-51435972D01*
X116254557Y-51392209D01*
X116240013Y-51335418D01*
X116253183Y-51278293D01*
X116291120Y-51233604D01*
X116305871Y-51222888D01*
X116432533Y-51082216D01*
X116527179Y-50918284D01*
X116585674Y-50738256D01*
X116605460Y-50550000D01*
X116585674Y-50361744D01*
X116527179Y-50181716D01*
X116527179Y-50181715D01*
X116432533Y-50017783D01*
X116305871Y-49877112D01*
X116291120Y-49866395D01*
X116253182Y-49821704D01*
X116240013Y-49764579D01*
X116254557Y-49707789D01*
X116293562Y-49664027D01*
X116417929Y-49578183D01*
X116530734Y-49450852D01*
X116609790Y-49300225D01*
X116650500Y-49135056D01*
X116650500Y-48964944D01*
X116609790Y-48799775D01*
X116530734Y-48649148D01*
X116417929Y-48521817D01*
X116417928Y-48521816D01*
X116417927Y-48521815D01*
X116277930Y-48425182D01*
X116118872Y-48364860D01*
X115992372Y-48349500D01*
X115907628Y-48349500D01*
X115844377Y-48357180D01*
X115781127Y-48364860D01*
X115622069Y-48425182D01*
X115482072Y-48521815D01*
X115369265Y-48649149D01*
X115290209Y-48799775D01*
X115271148Y-48877112D01*
X115249500Y-48964944D01*
X115249500Y-49135056D01*
X115249873Y-49136568D01*
X115290209Y-49300224D01*
X115298584Y-49316181D01*
X115362780Y-49438495D01*
X115369267Y-49450853D01*
X115422660Y-49511122D01*
X115449811Y-49561979D01*
X115451029Y-49619617D01*
X115426053Y-49671577D01*
X115380280Y-49706627D01*
X115247269Y-49765848D01*
X115094129Y-49877110D01*
X114967466Y-50017783D01*
X114872820Y-50181715D01*
X114814326Y-50361742D01*
X114794540Y-50550000D01*
X95884851Y-50550000D01*
X95828814Y-50365273D01*
X95735910Y-50191462D01*
X95610883Y-50039117D01*
X95458538Y-49914090D01*
X95389357Y-49877112D01*
X95284726Y-49821185D01*
X95096133Y-49763976D01*
X94900000Y-49744659D01*
X94703866Y-49763976D01*
X94515273Y-49821185D01*
X94341463Y-49914089D01*
X94189117Y-50039117D01*
X94064089Y-50191463D01*
X93971185Y-50365273D01*
X93913976Y-50553866D01*
X93894659Y-50749999D01*
X93913976Y-50946133D01*
X93971185Y-51134726D01*
X94024036Y-51233602D01*
X94064090Y-51308538D01*
X94189117Y-51460883D01*
X94255849Y-51515649D01*
X94291744Y-51564047D01*
X94300586Y-51623654D01*
X94280286Y-51680390D01*
X94235637Y-51720858D01*
X94177184Y-51735500D01*
X94098130Y-51735500D01*
X94038515Y-51741909D01*
X93903669Y-51792204D01*
X93788454Y-51878454D01*
X93702204Y-51993668D01*
X93651909Y-52128516D01*
X93645500Y-52188130D01*
X93645500Y-53983869D01*
X91266500Y-53983869D01*
X91266499Y-52188128D01*
X91260091Y-52128517D01*
X91209796Y-51993669D01*
X91123546Y-51878454D01*
X91008331Y-51792204D01*
X90873483Y-51741909D01*
X90813873Y-51735500D01*
X90813869Y-51735500D01*
X89018130Y-51735500D01*
X88958515Y-51741909D01*
X88823669Y-51792204D01*
X88708454Y-51878454D01*
X88622204Y-51993669D01*
X88573189Y-52125083D01*
X88538209Y-52175462D01*
X88483365Y-52202915D01*
X88422072Y-52200726D01*
X88369326Y-52169430D01*
X88247404Y-52047508D01*
X88247401Y-52047505D01*
X88053830Y-51911965D01*
X87839663Y-51812097D01*
X87778502Y-51795709D01*
X87611407Y-51750936D01*
X87376000Y-51730340D01*
X87140592Y-51750936D01*
X86912336Y-51812097D01*
X86698170Y-51911965D01*
X86504598Y-52047505D01*
X86337505Y-52214598D01*
X86207575Y-52400159D01*
X86163257Y-52439025D01*
X86106000Y-52453036D01*
X86048743Y-52439025D01*
X86004425Y-52400159D01*
X85874494Y-52214598D01*
X85707404Y-52047508D01*
X85707401Y-52047505D01*
X85513830Y-51911965D01*
X85299663Y-51812097D01*
X85238502Y-51795709D01*
X85071407Y-51750936D01*
X84836000Y-51730340D01*
X84600592Y-51750936D01*
X84372336Y-51812097D01*
X84158170Y-51911965D01*
X83964598Y-52047505D01*
X83797505Y-52214598D01*
X83661965Y-52408170D01*
X83562097Y-52622336D01*
X83500936Y-52850592D01*
X83480340Y-53086000D01*
X78000500Y-53086000D01*
X78000500Y-48005999D01*
X79720531Y-48005999D01*
X79740364Y-48232689D01*
X79799261Y-48452497D01*
X79895432Y-48658735D01*
X80025953Y-48845140D01*
X80186859Y-49006046D01*
X80373264Y-49136567D01*
X80373265Y-49136567D01*
X80373266Y-49136568D01*
X80579504Y-49232739D01*
X80799308Y-49291635D01*
X80870049Y-49297824D01*
X80969214Y-49306500D01*
X80969216Y-49306500D01*
X81082784Y-49306500D01*
X81082786Y-49306500D01*
X81154519Y-49300224D01*
X81252692Y-49291635D01*
X81472496Y-49232739D01*
X81678734Y-49136568D01*
X81865139Y-49006047D01*
X82026047Y-48845139D01*
X82156568Y-48658734D01*
X82252739Y-48452496D01*
X82266805Y-48400000D01*
X87304340Y-48400000D01*
X87324936Y-48635407D01*
X87339258Y-48688856D01*
X87386097Y-48863663D01*
X87485965Y-49077830D01*
X87621505Y-49271401D01*
X87788599Y-49438495D01*
X87982170Y-49574035D01*
X88196337Y-49673903D01*
X88424592Y-49735063D01*
X88660000Y-49755659D01*
X88895408Y-49735063D01*
X89123663Y-49673903D01*
X89337830Y-49574035D01*
X89531401Y-49438495D01*
X89698495Y-49271401D01*
X89828426Y-49085839D01*
X89872743Y-49046975D01*
X89930000Y-49032964D01*
X89987257Y-49046975D01*
X90031573Y-49085839D01*
X90161505Y-49271401D01*
X90328599Y-49438495D01*
X90522170Y-49574035D01*
X90736337Y-49673903D01*
X90964592Y-49735063D01*
X91200000Y-49755659D01*
X91435408Y-49735063D01*
X91663663Y-49673903D01*
X91877830Y-49574035D01*
X92071401Y-49438495D01*
X92238495Y-49271401D01*
X92368426Y-49085839D01*
X92412743Y-49046975D01*
X92470000Y-49032964D01*
X92527257Y-49046975D01*
X92571573Y-49085839D01*
X92701505Y-49271401D01*
X92868599Y-49438495D01*
X93062170Y-49574035D01*
X93276337Y-49673903D01*
X93504592Y-49735063D01*
X93740000Y-49755659D01*
X93975408Y-49735063D01*
X94203663Y-49673903D01*
X94417830Y-49574035D01*
X94611401Y-49438495D01*
X94778495Y-49271401D01*
X94908426Y-49085839D01*
X94952743Y-49046975D01*
X95010000Y-49032964D01*
X95067257Y-49046975D01*
X95111573Y-49085839D01*
X95241505Y-49271401D01*
X95408599Y-49438495D01*
X95602170Y-49574035D01*
X95816337Y-49673903D01*
X96044592Y-49735063D01*
X96280000Y-49755659D01*
X96515408Y-49735063D01*
X96743663Y-49673903D01*
X96957830Y-49574035D01*
X97151401Y-49438495D01*
X97273717Y-49316178D01*
X97326460Y-49284885D01*
X97387752Y-49282696D01*
X97442597Y-49310149D01*
X97477577Y-49360528D01*
X97526647Y-49492088D01*
X97612811Y-49607188D01*
X97727910Y-49693352D01*
X97862624Y-49743597D01*
X97922176Y-49750000D01*
X98570000Y-49750000D01*
X98570000Y-48650000D01*
X99070000Y-48650000D01*
X99070000Y-49750000D01*
X99717824Y-49750000D01*
X99777375Y-49743597D01*
X99912089Y-49693352D01*
X100027188Y-49607188D01*
X100070000Y-49549999D01*
X107744540Y-49549999D01*
X107764326Y-49738257D01*
X107822820Y-49918284D01*
X107917466Y-50082216D01*
X108044129Y-50222889D01*
X108197269Y-50334151D01*
X108370197Y-50411144D01*
X108555352Y-50450500D01*
X108555354Y-50450500D01*
X108744646Y-50450500D01*
X108744648Y-50450500D01*
X108868083Y-50424262D01*
X108929803Y-50411144D01*
X109102730Y-50334151D01*
X109255871Y-50222888D01*
X109382533Y-50082216D01*
X109477179Y-49918284D01*
X109535674Y-49738256D01*
X109555460Y-49550000D01*
X109535674Y-49361744D01*
X109505332Y-49268363D01*
X109477179Y-49181715D01*
X109382533Y-49017783D01*
X109255870Y-48877110D01*
X109102730Y-48765848D01*
X108929802Y-48688855D01*
X108744648Y-48649500D01*
X108744646Y-48649500D01*
X108555354Y-48649500D01*
X108555352Y-48649500D01*
X108370197Y-48688855D01*
X108197269Y-48765848D01*
X108044129Y-48877110D01*
X107917466Y-49017783D01*
X107822820Y-49181715D01*
X107764326Y-49361742D01*
X107744540Y-49549999D01*
X100070000Y-49549999D01*
X100113352Y-49492089D01*
X100163597Y-49357375D01*
X100170000Y-49297824D01*
X100170000Y-48650000D01*
X99070000Y-48650000D01*
X98570000Y-48650000D01*
X98570000Y-47050000D01*
X99070000Y-47050000D01*
X99070000Y-48150000D01*
X100170000Y-48150000D01*
X100170000Y-47502176D01*
X100163597Y-47442624D01*
X100113352Y-47307910D01*
X100027188Y-47192811D01*
X99912089Y-47106647D01*
X99894265Y-47099999D01*
X112344659Y-47099999D01*
X112363976Y-47296133D01*
X112421185Y-47484726D01*
X112444636Y-47528599D01*
X112514090Y-47658538D01*
X112639117Y-47810883D01*
X112791462Y-47935910D01*
X112965273Y-48028814D01*
X113153868Y-48086024D01*
X113350000Y-48105341D01*
X113546132Y-48086024D01*
X113734727Y-48028814D01*
X113908538Y-47935910D01*
X114060883Y-47810883D01*
X114185910Y-47658538D01*
X114278814Y-47484727D01*
X114336024Y-47296132D01*
X114355341Y-47100000D01*
X114336024Y-46903868D01*
X114278814Y-46715273D01*
X114185910Y-46541462D01*
X114060883Y-46389117D01*
X113908538Y-46264090D01*
X113886091Y-46252091D01*
X113734726Y-46171185D01*
X113546133Y-46113976D01*
X113350000Y-46094659D01*
X113153866Y-46113976D01*
X112965273Y-46171185D01*
X112791463Y-46264089D01*
X112639117Y-46389117D01*
X112514089Y-46541463D01*
X112421185Y-46715273D01*
X112363976Y-46903866D01*
X112344659Y-47099999D01*
X99894265Y-47099999D01*
X99777375Y-47056402D01*
X99717824Y-47050000D01*
X99070000Y-47050000D01*
X98570000Y-47050000D01*
X97922176Y-47050000D01*
X97862624Y-47056402D01*
X97727910Y-47106647D01*
X97612811Y-47192811D01*
X97526646Y-47307913D01*
X97477576Y-47439472D01*
X97442597Y-47489850D01*
X97387753Y-47517303D01*
X97326460Y-47515114D01*
X97273714Y-47483818D01*
X97151404Y-47361508D01*
X97151404Y-47361507D01*
X97151401Y-47361505D01*
X96957830Y-47225965D01*
X96743663Y-47126097D01*
X96671074Y-47106647D01*
X96515407Y-47064936D01*
X96280000Y-47044340D01*
X96044592Y-47064936D01*
X95816336Y-47126097D01*
X95602170Y-47225965D01*
X95408598Y-47361505D01*
X95241505Y-47528598D01*
X95111575Y-47714159D01*
X95067257Y-47753025D01*
X95010000Y-47767036D01*
X94952743Y-47753025D01*
X94908425Y-47714159D01*
X94778494Y-47528598D01*
X94611404Y-47361508D01*
X94611404Y-47361507D01*
X94611401Y-47361505D01*
X94417830Y-47225965D01*
X94203663Y-47126097D01*
X94131074Y-47106647D01*
X93975407Y-47064936D01*
X93740000Y-47044340D01*
X93504592Y-47064936D01*
X93276336Y-47126097D01*
X93062170Y-47225965D01*
X92868598Y-47361505D01*
X92701505Y-47528598D01*
X92571575Y-47714159D01*
X92527257Y-47753025D01*
X92470000Y-47767036D01*
X92412743Y-47753025D01*
X92368425Y-47714159D01*
X92238494Y-47528598D01*
X92071404Y-47361508D01*
X92071404Y-47361507D01*
X92071401Y-47361505D01*
X91877830Y-47225965D01*
X91663663Y-47126097D01*
X91591074Y-47106647D01*
X91435407Y-47064936D01*
X91200000Y-47044340D01*
X90964592Y-47064936D01*
X90736336Y-47126097D01*
X90522170Y-47225965D01*
X90328598Y-47361505D01*
X90161505Y-47528598D01*
X90031575Y-47714159D01*
X89987257Y-47753025D01*
X89930000Y-47767036D01*
X89872743Y-47753025D01*
X89828425Y-47714159D01*
X89698494Y-47528598D01*
X89531404Y-47361508D01*
X89531404Y-47361507D01*
X89531401Y-47361505D01*
X89337830Y-47225965D01*
X89123663Y-47126097D01*
X89051074Y-47106647D01*
X88895407Y-47064936D01*
X88660000Y-47044340D01*
X88424592Y-47064936D01*
X88196336Y-47126097D01*
X87982170Y-47225965D01*
X87788598Y-47361505D01*
X87621505Y-47528598D01*
X87485965Y-47722170D01*
X87386097Y-47936336D01*
X87324936Y-48164592D01*
X87304340Y-48400000D01*
X82266805Y-48400000D01*
X82311635Y-48232692D01*
X82331468Y-48006000D01*
X82311635Y-47779308D01*
X82252739Y-47559504D01*
X82156568Y-47353266D01*
X82116563Y-47296133D01*
X82026046Y-47166859D01*
X81865140Y-47005953D01*
X81678735Y-46875432D01*
X81472497Y-46779261D01*
X81252689Y-46720364D01*
X81082786Y-46705500D01*
X81082784Y-46705500D01*
X80969216Y-46705500D01*
X80969214Y-46705500D01*
X80799310Y-46720364D01*
X80579502Y-46779261D01*
X80373264Y-46875432D01*
X80186859Y-47005953D01*
X80025953Y-47166859D01*
X79895432Y-47353264D01*
X79799261Y-47559502D01*
X79740364Y-47779310D01*
X79720531Y-48005999D01*
X78000500Y-48005999D01*
X78000500Y-44899999D01*
X81594540Y-44899999D01*
X81614326Y-45088257D01*
X81672820Y-45268284D01*
X81767466Y-45432216D01*
X81894129Y-45572889D01*
X82047269Y-45684151D01*
X82220197Y-45761144D01*
X82405352Y-45800500D01*
X82405354Y-45800500D01*
X82594646Y-45800500D01*
X82594648Y-45800500D01*
X82718084Y-45774262D01*
X82779803Y-45761144D01*
X82872213Y-45720000D01*
X97900540Y-45720000D01*
X97920326Y-45908257D01*
X97978820Y-46088284D01*
X98073466Y-46252216D01*
X98200129Y-46392889D01*
X98353269Y-46504151D01*
X98526197Y-46581144D01*
X98711352Y-46620500D01*
X98711354Y-46620500D01*
X98900646Y-46620500D01*
X98900648Y-46620500D01*
X99024083Y-46594262D01*
X99085803Y-46581144D01*
X99258730Y-46504151D01*
X99411871Y-46392888D01*
X99538533Y-46252216D01*
X99633179Y-46088284D01*
X99691674Y-45908256D01*
X99711460Y-45720000D01*
X99691674Y-45531744D01*
X99633179Y-45351716D01*
X99633179Y-45351715D01*
X99538533Y-45187783D01*
X99411870Y-45047110D01*
X99258730Y-44935848D01*
X99085802Y-44858855D01*
X98900648Y-44819500D01*
X98900646Y-44819500D01*
X98711354Y-44819500D01*
X98711352Y-44819500D01*
X98526197Y-44858855D01*
X98353269Y-44935848D01*
X98200129Y-45047110D01*
X98073466Y-45187783D01*
X97978820Y-45351715D01*
X97920326Y-45531742D01*
X97900540Y-45720000D01*
X82872213Y-45720000D01*
X82952730Y-45684151D01*
X83105871Y-45572888D01*
X83232533Y-45432216D01*
X83327179Y-45268284D01*
X83385674Y-45088256D01*
X83405460Y-44900000D01*
X83385674Y-44711744D01*
X83327179Y-44531716D01*
X83327179Y-44531715D01*
X83232533Y-44367783D01*
X83105870Y-44227110D01*
X82952730Y-44115848D01*
X82779802Y-44038855D01*
X82594648Y-43999500D01*
X82594646Y-43999500D01*
X82405354Y-43999500D01*
X82405352Y-43999500D01*
X82220197Y-44038855D01*
X82047269Y-44115848D01*
X81894129Y-44227110D01*
X81767466Y-44367783D01*
X81672820Y-44531715D01*
X81614326Y-44711742D01*
X81594540Y-44899999D01*
X78000500Y-44899999D01*
X78000500Y-40386000D01*
X81390540Y-40386000D01*
X81410326Y-40574257D01*
X81468820Y-40754284D01*
X81563466Y-40918216D01*
X81690129Y-41058889D01*
X81843269Y-41170151D01*
X82016197Y-41247144D01*
X82201352Y-41286500D01*
X82201354Y-41286500D01*
X82390646Y-41286500D01*
X82390648Y-41286500D01*
X82514083Y-41260262D01*
X82575803Y-41247144D01*
X82748730Y-41170151D01*
X82869708Y-41082256D01*
X82901870Y-41058889D01*
X83028533Y-40918216D01*
X83042514Y-40894000D01*
X92312540Y-40894000D01*
X92332326Y-41082257D01*
X92390820Y-41262284D01*
X92485466Y-41426216D01*
X92612129Y-41566889D01*
X92765269Y-41678151D01*
X92938197Y-41755144D01*
X93123352Y-41794500D01*
X93123354Y-41794500D01*
X93312646Y-41794500D01*
X93312648Y-41794500D01*
X93469730Y-41761111D01*
X93497803Y-41755144D01*
X93670730Y-41678151D01*
X93823871Y-41566888D01*
X93950533Y-41426216D01*
X94045179Y-41262284D01*
X94103674Y-41082256D01*
X94123460Y-40894000D01*
X94103674Y-40705744D01*
X94073332Y-40612363D01*
X94045179Y-40525715D01*
X93950533Y-40361783D01*
X93823870Y-40221110D01*
X93670730Y-40109848D01*
X93497802Y-40032855D01*
X93312648Y-39993500D01*
X93312646Y-39993500D01*
X93123354Y-39993500D01*
X93123352Y-39993500D01*
X92938197Y-40032855D01*
X92765269Y-40109848D01*
X92612129Y-40221110D01*
X92485466Y-40361783D01*
X92390820Y-40525715D01*
X92332326Y-40705742D01*
X92312540Y-40894000D01*
X83042514Y-40894000D01*
X83123179Y-40754284D01*
X83163495Y-40630204D01*
X83181674Y-40574256D01*
X83201460Y-40386000D01*
X83181674Y-40197744D01*
X83149366Y-40098311D01*
X83123179Y-40017715D01*
X83028533Y-39853783D01*
X82901870Y-39713110D01*
X82748730Y-39601848D01*
X82575802Y-39524855D01*
X82390648Y-39485500D01*
X82390646Y-39485500D01*
X82201354Y-39485500D01*
X82201352Y-39485500D01*
X82016197Y-39524855D01*
X81843269Y-39601848D01*
X81690129Y-39713110D01*
X81563466Y-39853783D01*
X81468820Y-40017715D01*
X81410326Y-40197742D01*
X81390540Y-40386000D01*
X78000500Y-40386000D01*
X78000500Y-39116000D01*
X94598540Y-39116000D01*
X94608308Y-39208938D01*
X94618326Y-39304257D01*
X94676820Y-39484284D01*
X94771466Y-39648216D01*
X94898129Y-39788888D01*
X95010665Y-39870650D01*
X95052750Y-39924515D01*
X95059897Y-39992497D01*
X95029933Y-40053937D01*
X95017467Y-40067782D01*
X94922820Y-40231715D01*
X94864326Y-40411742D01*
X94844540Y-40600000D01*
X94864326Y-40788257D01*
X94922820Y-40968284D01*
X95017466Y-41132216D01*
X95144129Y-41272889D01*
X95297269Y-41384151D01*
X95470197Y-41461144D01*
X95655352Y-41500500D01*
X95655354Y-41500500D01*
X95844646Y-41500500D01*
X95844648Y-41500500D01*
X95968083Y-41474262D01*
X96029803Y-41461144D01*
X96202730Y-41384151D01*
X96355871Y-41272888D01*
X96482533Y-41132216D01*
X96577179Y-40968284D01*
X96635674Y-40788256D01*
X96652286Y-40630202D01*
X109745785Y-40630202D01*
X109775397Y-40848803D01*
X109809977Y-40955231D01*
X109843564Y-41058599D01*
X109948097Y-41252853D01*
X110052804Y-41384151D01*
X110085635Y-41425320D01*
X110251758Y-41570457D01*
X110441126Y-41683600D01*
X110647653Y-41761111D01*
X110864702Y-41800500D01*
X110864703Y-41800500D01*
X111580029Y-41800500D01*
X111580032Y-41800500D01*
X111744706Y-41785679D01*
X111957350Y-41726993D01*
X112156098Y-41631281D01*
X112334563Y-41501619D01*
X112487007Y-41342175D01*
X112608531Y-41158073D01*
X112666330Y-41022845D01*
X112695230Y-40955232D01*
X112712685Y-40878756D01*
X112744317Y-40740168D01*
X112747307Y-40673593D01*
X113645832Y-40673593D01*
X113655605Y-40878756D01*
X113704029Y-41078362D01*
X113705808Y-41082257D01*
X113789354Y-41265199D01*
X113895732Y-41414584D01*
X113908494Y-41432506D01*
X113966994Y-41488285D01*
X114000062Y-41541960D01*
X114002464Y-41604958D01*
X113973579Y-41660995D01*
X113967467Y-41667783D01*
X113872820Y-41831715D01*
X113814326Y-42011742D01*
X113794540Y-42200000D01*
X113814326Y-42388257D01*
X113872820Y-42568284D01*
X113967466Y-42732216D01*
X114094129Y-42872889D01*
X114247269Y-42984151D01*
X114420197Y-43061144D01*
X114605352Y-43100500D01*
X114605354Y-43100500D01*
X114794646Y-43100500D01*
X114794648Y-43100500D01*
X114918084Y-43074262D01*
X114979803Y-43061144D01*
X115152730Y-42984151D01*
X115305871Y-42872888D01*
X115432533Y-42732216D01*
X115527179Y-42568284D01*
X115585674Y-42388256D01*
X115605460Y-42200000D01*
X115585674Y-42011744D01*
X115557560Y-41925221D01*
X115554453Y-41859972D01*
X115584938Y-41802194D01*
X115640554Y-41767930D01*
X115776541Y-41728001D01*
X115959104Y-41633884D01*
X116120556Y-41506916D01*
X116255061Y-41351689D01*
X116357759Y-41173811D01*
X116424937Y-40979712D01*
X116454168Y-40776407D01*
X116444395Y-40571244D01*
X116395971Y-40371638D01*
X116310647Y-40184804D01*
X116310646Y-40184803D01*
X116310645Y-40184800D01*
X116202445Y-40032856D01*
X116191506Y-40017494D01*
X116042854Y-39875755D01*
X115950056Y-39816117D01*
X115870065Y-39764709D01*
X115741177Y-39713110D01*
X115679382Y-39688371D01*
X115679381Y-39688370D01*
X115679379Y-39688370D01*
X115477698Y-39649500D01*
X114673768Y-39649500D01*
X114577996Y-39658644D01*
X114520531Y-39664132D01*
X114323460Y-39721998D01*
X114140893Y-39816117D01*
X113979445Y-39943082D01*
X113844937Y-40098312D01*
X113742241Y-40276187D01*
X113675062Y-40470287D01*
X113652070Y-40630204D01*
X113645832Y-40673593D01*
X112747307Y-40673593D01*
X112754214Y-40519796D01*
X112724603Y-40301198D01*
X112713904Y-40268270D01*
X112708513Y-40216990D01*
X112724446Y-40167951D01*
X112758944Y-40129635D01*
X112785876Y-40110068D01*
X112796734Y-40103018D01*
X112832216Y-40082533D01*
X112862654Y-40055125D01*
X112872740Y-40046958D01*
X112905871Y-40022888D01*
X112933284Y-39992441D01*
X112942441Y-39983284D01*
X112972888Y-39955871D01*
X112996958Y-39922739D01*
X113005125Y-39912654D01*
X113032533Y-39882216D01*
X113053018Y-39846734D01*
X113060071Y-39835872D01*
X113084151Y-39802730D01*
X113100811Y-39765307D01*
X113106700Y-39753753D01*
X113127179Y-39718284D01*
X113128860Y-39713110D01*
X113139836Y-39679324D01*
X113144477Y-39667234D01*
X113161144Y-39629803D01*
X113169658Y-39589741D01*
X113173012Y-39577220D01*
X113185674Y-39538256D01*
X113189956Y-39497503D01*
X113191980Y-39484726D01*
X113200500Y-39444646D01*
X113200500Y-39403692D01*
X113201179Y-39390731D01*
X113201894Y-39383929D01*
X113205460Y-39350000D01*
X113201178Y-39309267D01*
X113200500Y-39296308D01*
X113200500Y-39255354D01*
X113191986Y-39215300D01*
X113189955Y-39202485D01*
X113185674Y-39161744D01*
X113173014Y-39122782D01*
X113169660Y-39110267D01*
X113161144Y-39070197D01*
X113144483Y-39032778D01*
X113139831Y-39020658D01*
X113127179Y-38981717D01*
X113127179Y-38981716D01*
X113106696Y-38946239D01*
X113100805Y-38934677D01*
X113084151Y-38897270D01*
X113060078Y-38864136D01*
X113053015Y-38853260D01*
X113032531Y-38817781D01*
X113005127Y-38787347D01*
X112996957Y-38777258D01*
X112972889Y-38744130D01*
X112972887Y-38744128D01*
X112942442Y-38716715D01*
X112933274Y-38707546D01*
X112905871Y-38677112D01*
X112872739Y-38653041D01*
X112862662Y-38644881D01*
X112832216Y-38617467D01*
X112832215Y-38617466D01*
X112796740Y-38596984D01*
X112785860Y-38589918D01*
X112752732Y-38565850D01*
X112752728Y-38565848D01*
X112715308Y-38549187D01*
X112703755Y-38543300D01*
X112668284Y-38522821D01*
X112629331Y-38510164D01*
X112617213Y-38505512D01*
X112579805Y-38488856D01*
X112558011Y-38484224D01*
X112539739Y-38480340D01*
X112527209Y-38476982D01*
X112488255Y-38464325D01*
X112447519Y-38460043D01*
X112434706Y-38458014D01*
X112394646Y-38449500D01*
X112205354Y-38449500D01*
X112205351Y-38449500D01*
X112165292Y-38458013D01*
X112152483Y-38460042D01*
X112111744Y-38464325D01*
X112072794Y-38476981D01*
X112060258Y-38480340D01*
X112020198Y-38488854D01*
X111982780Y-38505514D01*
X111970668Y-38510163D01*
X111931715Y-38522820D01*
X111896241Y-38543301D01*
X111884681Y-38549191D01*
X111847270Y-38565848D01*
X111814137Y-38589919D01*
X111803260Y-38596983D01*
X111767782Y-38617467D01*
X111737347Y-38644871D01*
X111727264Y-38653036D01*
X111694128Y-38677111D01*
X111666722Y-38707548D01*
X111657548Y-38716722D01*
X111627111Y-38744128D01*
X111603036Y-38777264D01*
X111594871Y-38787347D01*
X111567467Y-38817782D01*
X111546983Y-38853260D01*
X111539919Y-38864137D01*
X111515848Y-38897270D01*
X111499191Y-38934681D01*
X111493301Y-38946241D01*
X111472820Y-38981715D01*
X111460163Y-39020668D01*
X111455514Y-39032780D01*
X111438854Y-39070198D01*
X111430340Y-39110258D01*
X111426981Y-39122794D01*
X111414325Y-39161744D01*
X111410042Y-39202483D01*
X111408013Y-39215292D01*
X111400366Y-39251276D01*
X111376791Y-39301839D01*
X111333435Y-39336950D01*
X111279075Y-39349500D01*
X110919968Y-39349500D01*
X110849393Y-39355851D01*
X110755290Y-39364321D01*
X110542651Y-39423006D01*
X110343900Y-39518719D01*
X110165440Y-39648378D01*
X110012990Y-39807828D01*
X109891468Y-39991928D01*
X109804769Y-40194767D01*
X109755683Y-40409831D01*
X109745785Y-40630202D01*
X96652286Y-40630202D01*
X96655460Y-40600000D01*
X96635674Y-40411744D01*
X96577179Y-40231716D01*
X96577179Y-40231715D01*
X96482533Y-40067783D01*
X96355870Y-39927110D01*
X96243333Y-39845348D01*
X96201247Y-39791480D01*
X96194102Y-39723495D01*
X96224067Y-39662060D01*
X96236533Y-39648216D01*
X96331179Y-39484284D01*
X96363787Y-39383927D01*
X96395579Y-39333048D01*
X96447538Y-39303050D01*
X96492321Y-39301486D01*
X96492321Y-39300500D01*
X96694648Y-39300500D01*
X96818084Y-39274262D01*
X96879803Y-39261144D01*
X97052730Y-39184151D01*
X97083572Y-39161743D01*
X97205870Y-39072889D01*
X97241985Y-39032780D01*
X97332533Y-38932216D01*
X97427179Y-38768284D01*
X97485674Y-38588256D01*
X97498992Y-38461536D01*
X97519512Y-38405160D01*
X97525244Y-38399999D01*
X101344540Y-38399999D01*
X101364326Y-38588257D01*
X101422820Y-38768284D01*
X101517466Y-38932216D01*
X101644129Y-39072889D01*
X101797269Y-39184151D01*
X101970197Y-39261144D01*
X102155352Y-39300500D01*
X102155354Y-39300500D01*
X102344646Y-39300500D01*
X102344648Y-39300500D01*
X102468084Y-39274262D01*
X102529803Y-39261144D01*
X102702730Y-39184151D01*
X102733572Y-39161743D01*
X102855870Y-39072889D01*
X102891985Y-39032780D01*
X102982533Y-38932216D01*
X103077179Y-38768284D01*
X103135674Y-38588256D01*
X103144950Y-38500000D01*
X103394540Y-38500000D01*
X103414326Y-38688257D01*
X103472820Y-38868284D01*
X103567466Y-39032216D01*
X103694129Y-39172889D01*
X103847269Y-39284151D01*
X104020197Y-39361144D01*
X104205352Y-39400500D01*
X104205354Y-39400500D01*
X104394646Y-39400500D01*
X104394648Y-39400500D01*
X104564856Y-39364321D01*
X104579803Y-39361144D01*
X104752730Y-39284151D01*
X104905871Y-39172888D01*
X105032533Y-39032216D01*
X105108868Y-38899999D01*
X105944540Y-38899999D01*
X105964326Y-39088257D01*
X106022820Y-39268284D01*
X106117466Y-39432216D01*
X106244129Y-39572889D01*
X106397269Y-39684151D01*
X106570197Y-39761144D01*
X106755352Y-39800500D01*
X106755354Y-39800500D01*
X106944646Y-39800500D01*
X106944648Y-39800500D01*
X107110142Y-39765323D01*
X107129803Y-39761144D01*
X107302730Y-39684151D01*
X107350423Y-39649500D01*
X107455870Y-39572889D01*
X107535652Y-39484283D01*
X107582533Y-39432216D01*
X107677179Y-39268284D01*
X107735674Y-39088256D01*
X107755460Y-38900000D01*
X107735674Y-38711744D01*
X107697331Y-38593737D01*
X107677179Y-38531715D01*
X107582533Y-38367783D01*
X107455870Y-38227110D01*
X107302730Y-38115848D01*
X107129802Y-38038855D01*
X106944648Y-37999500D01*
X106944646Y-37999500D01*
X106755354Y-37999500D01*
X106755352Y-37999500D01*
X106570197Y-38038855D01*
X106397269Y-38115848D01*
X106244129Y-38227110D01*
X106117466Y-38367783D01*
X106022820Y-38531715D01*
X105964326Y-38711742D01*
X105944540Y-38899999D01*
X105108868Y-38899999D01*
X105127179Y-38868284D01*
X105185674Y-38688256D01*
X105205460Y-38500000D01*
X105185674Y-38311744D01*
X105143826Y-38182949D01*
X105127179Y-38131715D01*
X105032533Y-37967783D01*
X104905870Y-37827110D01*
X104752730Y-37715848D01*
X104579802Y-37638855D01*
X104394648Y-37599500D01*
X104394646Y-37599500D01*
X104205354Y-37599500D01*
X104205352Y-37599500D01*
X104020197Y-37638855D01*
X103847269Y-37715848D01*
X103694129Y-37827110D01*
X103567466Y-37967783D01*
X103472820Y-38131715D01*
X103414326Y-38311742D01*
X103394540Y-38500000D01*
X103144950Y-38500000D01*
X103155460Y-38400000D01*
X103135674Y-38211744D01*
X103077179Y-38031716D01*
X103077179Y-38031715D01*
X102982533Y-37867783D01*
X102855870Y-37727110D01*
X102702730Y-37615848D01*
X102529802Y-37538855D01*
X102344648Y-37499500D01*
X102344646Y-37499500D01*
X102155354Y-37499500D01*
X102155352Y-37499500D01*
X101970197Y-37538855D01*
X101797269Y-37615848D01*
X101644129Y-37727110D01*
X101517466Y-37867783D01*
X101422820Y-38031715D01*
X101364326Y-38211742D01*
X101344540Y-38399999D01*
X97525244Y-38399999D01*
X97564099Y-38365014D01*
X97622313Y-38350500D01*
X97794648Y-38350500D01*
X97918084Y-38324262D01*
X97979803Y-38311144D01*
X98152730Y-38234151D01*
X98183571Y-38211744D01*
X98305870Y-38122889D01*
X98432533Y-37982216D01*
X98527179Y-37818284D01*
X98527178Y-37818284D01*
X98585674Y-37638256D01*
X98605460Y-37450000D01*
X98585674Y-37261744D01*
X98527179Y-37081716D01*
X98527179Y-37081715D01*
X98432533Y-36917783D01*
X98305870Y-36777110D01*
X98152730Y-36665848D01*
X97979802Y-36588855D01*
X97794648Y-36549500D01*
X97794646Y-36549500D01*
X97605354Y-36549500D01*
X97602004Y-36549500D01*
X97546869Y-36536568D01*
X97503234Y-36500469D01*
X97480200Y-36448733D01*
X97482573Y-36392152D01*
X97501235Y-36358206D01*
X97500017Y-36357503D01*
X97601179Y-36182284D01*
X97640540Y-36061144D01*
X97659674Y-36002256D01*
X97679460Y-35814000D01*
X97659674Y-35625744D01*
X97601179Y-35445716D01*
X97601179Y-35445715D01*
X97506533Y-35281783D01*
X97432895Y-35200000D01*
X102044540Y-35200000D01*
X102064326Y-35388257D01*
X102122820Y-35568284D01*
X102217466Y-35732216D01*
X102344129Y-35872889D01*
X102497269Y-35984151D01*
X102670197Y-36061144D01*
X102855352Y-36100500D01*
X102855354Y-36100500D01*
X103044646Y-36100500D01*
X103044648Y-36100500D01*
X103168084Y-36074262D01*
X103229803Y-36061144D01*
X103402730Y-35984151D01*
X103555871Y-35872888D01*
X103682533Y-35732216D01*
X103777179Y-35568284D01*
X103835674Y-35388256D01*
X103855460Y-35200000D01*
X103835674Y-35011744D01*
X103803752Y-34913500D01*
X103777179Y-34831715D01*
X103682533Y-34667783D01*
X103555870Y-34527110D01*
X103449735Y-34449999D01*
X105594540Y-34449999D01*
X105614326Y-34638257D01*
X105672820Y-34818284D01*
X105767466Y-34982216D01*
X105894129Y-35122889D01*
X106047269Y-35234151D01*
X106220197Y-35311144D01*
X106405352Y-35350500D01*
X106405354Y-35350500D01*
X106594646Y-35350500D01*
X106594648Y-35350500D01*
X106718083Y-35324262D01*
X106779803Y-35311144D01*
X106952730Y-35234151D01*
X106968053Y-35223018D01*
X107105870Y-35122889D01*
X107227665Y-34987623D01*
X107232533Y-34982216D01*
X107327179Y-34818284D01*
X107385674Y-34638256D01*
X107405460Y-34450000D01*
X107385674Y-34261744D01*
X107344539Y-34135144D01*
X107327179Y-34081715D01*
X107232533Y-33917783D01*
X107105870Y-33777110D01*
X106952730Y-33665848D01*
X106779802Y-33588855D01*
X106594648Y-33549500D01*
X106594646Y-33549500D01*
X106405354Y-33549500D01*
X106405352Y-33549500D01*
X106220197Y-33588855D01*
X106047269Y-33665848D01*
X105894129Y-33777110D01*
X105767466Y-33917783D01*
X105672820Y-34081715D01*
X105614326Y-34261742D01*
X105594540Y-34449999D01*
X103449735Y-34449999D01*
X103402730Y-34415848D01*
X103229802Y-34338855D01*
X103044648Y-34299500D01*
X103044646Y-34299500D01*
X102855354Y-34299500D01*
X102855352Y-34299500D01*
X102670197Y-34338855D01*
X102497269Y-34415848D01*
X102344129Y-34527110D01*
X102217466Y-34667783D01*
X102122820Y-34831715D01*
X102064326Y-35011742D01*
X102044540Y-35200000D01*
X97432895Y-35200000D01*
X97379870Y-35141110D01*
X97226730Y-35029848D01*
X97053802Y-34952855D01*
X96868648Y-34913500D01*
X96868646Y-34913500D01*
X96679354Y-34913500D01*
X96679352Y-34913500D01*
X96494197Y-34952855D01*
X96321269Y-35029848D01*
X96168129Y-35141110D01*
X96041466Y-35281783D01*
X95946820Y-35445715D01*
X95888326Y-35625742D01*
X95868540Y-35813999D01*
X95888326Y-36002257D01*
X95946820Y-36182284D01*
X96041466Y-36346216D01*
X96168129Y-36486889D01*
X96321269Y-36598151D01*
X96494197Y-36675144D01*
X96679352Y-36714500D01*
X96871996Y-36714500D01*
X96927131Y-36727432D01*
X96970766Y-36763531D01*
X96993800Y-36815267D01*
X96991427Y-36871848D01*
X96972764Y-36905793D01*
X96973983Y-36906497D01*
X96872820Y-37081715D01*
X96814326Y-37261742D01*
X96801008Y-37388462D01*
X96780488Y-37444840D01*
X96735901Y-37484986D01*
X96677687Y-37499500D01*
X96505352Y-37499500D01*
X96320197Y-37538855D01*
X96147269Y-37615848D01*
X95994129Y-37727110D01*
X95867466Y-37867783D01*
X95772820Y-38031715D01*
X95740213Y-38132071D01*
X95708422Y-38182949D01*
X95656468Y-38212948D01*
X95611678Y-38214515D01*
X95611678Y-38215500D01*
X95409352Y-38215500D01*
X95224197Y-38254855D01*
X95051269Y-38331848D01*
X94898129Y-38443110D01*
X94771466Y-38583783D01*
X94676820Y-38747715D01*
X94618326Y-38927742D01*
X94603354Y-39070196D01*
X94598540Y-39116000D01*
X78000500Y-39116000D01*
X78000500Y-36068000D01*
X79720531Y-36068000D01*
X79740364Y-36294689D01*
X79799261Y-36514497D01*
X79895432Y-36720735D01*
X80025953Y-36907140D01*
X80186859Y-37068046D01*
X80373264Y-37198567D01*
X80373265Y-37198567D01*
X80373266Y-37198568D01*
X80579504Y-37294739D01*
X80799308Y-37353635D01*
X80884262Y-37361067D01*
X80969214Y-37368500D01*
X80969216Y-37368500D01*
X81082784Y-37368500D01*
X81082786Y-37368500D01*
X81150747Y-37362553D01*
X81252692Y-37353635D01*
X81472496Y-37294739D01*
X81678734Y-37198568D01*
X81865139Y-37068047D01*
X82026047Y-36907139D01*
X82156568Y-36720734D01*
X82252739Y-36514496D01*
X82311635Y-36294692D01*
X82331468Y-36068000D01*
X82311635Y-35841308D01*
X82252739Y-35621504D01*
X82156568Y-35415266D01*
X82137656Y-35388257D01*
X82026046Y-35228859D01*
X81865140Y-35067953D01*
X81842355Y-35051999D01*
X85708540Y-35051999D01*
X85728326Y-35240257D01*
X85786820Y-35420284D01*
X85881466Y-35584216D01*
X86008129Y-35724889D01*
X86161269Y-35836151D01*
X86334197Y-35913144D01*
X86519352Y-35952500D01*
X86519354Y-35952500D01*
X86708646Y-35952500D01*
X86708648Y-35952500D01*
X86832084Y-35926262D01*
X86893803Y-35913144D01*
X87066730Y-35836151D01*
X87219871Y-35724888D01*
X87346533Y-35584216D01*
X87441179Y-35420284D01*
X87499674Y-35240256D01*
X87519460Y-35052000D01*
X87499674Y-34863744D01*
X87441179Y-34683716D01*
X87441179Y-34683715D01*
X87346533Y-34519783D01*
X87219870Y-34379110D01*
X87066730Y-34267848D01*
X86893802Y-34190855D01*
X86708648Y-34151500D01*
X86708646Y-34151500D01*
X86519354Y-34151500D01*
X86519352Y-34151500D01*
X86334197Y-34190855D01*
X86161269Y-34267848D01*
X86008129Y-34379110D01*
X85881466Y-34519783D01*
X85786820Y-34683715D01*
X85728326Y-34863742D01*
X85708540Y-35051999D01*
X81842355Y-35051999D01*
X81678735Y-34937432D01*
X81472497Y-34841261D01*
X81252689Y-34782364D01*
X81082786Y-34767500D01*
X81082784Y-34767500D01*
X80969216Y-34767500D01*
X80969214Y-34767500D01*
X80799310Y-34782364D01*
X80579502Y-34841261D01*
X80373264Y-34937432D01*
X80186859Y-35067953D01*
X80025953Y-35228859D01*
X79895432Y-35415264D01*
X79799261Y-35621502D01*
X79740364Y-35841310D01*
X79720531Y-36068000D01*
X78000500Y-36068000D01*
X78000500Y-33274000D01*
X99170540Y-33274000D01*
X99190326Y-33462257D01*
X99248820Y-33642284D01*
X99343466Y-33806216D01*
X99470129Y-33946889D01*
X99623269Y-34058151D01*
X99796197Y-34135144D01*
X99981352Y-34174500D01*
X99981354Y-34174500D01*
X100170646Y-34174500D01*
X100170648Y-34174500D01*
X100294083Y-34148262D01*
X100355803Y-34135144D01*
X100528730Y-34058151D01*
X100633934Y-33981716D01*
X100681870Y-33946889D01*
X100808533Y-33806216D01*
X100903179Y-33642284D01*
X100928014Y-33565849D01*
X100961674Y-33462256D01*
X100961674Y-33462254D01*
X100965701Y-33449861D01*
X100966101Y-33449991D01*
X100980226Y-33409423D01*
X101020687Y-33369798D01*
X101074547Y-33352296D01*
X101130572Y-33360568D01*
X101177076Y-33392888D01*
X101294129Y-33522888D01*
X101324486Y-33544944D01*
X101447269Y-33634151D01*
X101620197Y-33711144D01*
X101805352Y-33750500D01*
X101805354Y-33750500D01*
X101994646Y-33750500D01*
X101994648Y-33750500D01*
X102118084Y-33724262D01*
X102179803Y-33711144D01*
X102352730Y-33634151D01*
X102375695Y-33617466D01*
X102505870Y-33522889D01*
X102560464Y-33462257D01*
X102632533Y-33382216D01*
X102727179Y-33218284D01*
X102739553Y-33180202D01*
X109745785Y-33180202D01*
X109775397Y-33398803D01*
X109841318Y-33601689D01*
X109843564Y-33608599D01*
X109948097Y-33802853D01*
X110039751Y-33917783D01*
X110085635Y-33975320D01*
X110251758Y-34120457D01*
X110441126Y-34233600D01*
X110647653Y-34311111D01*
X110864702Y-34350500D01*
X110864703Y-34350500D01*
X111279075Y-34350500D01*
X111333433Y-34363050D01*
X111376789Y-34398159D01*
X111400366Y-34448720D01*
X111408014Y-34484703D01*
X111410043Y-34497519D01*
X111414325Y-34538255D01*
X111426982Y-34577209D01*
X111430342Y-34589746D01*
X111438856Y-34629805D01*
X111455512Y-34667213D01*
X111460164Y-34679331D01*
X111472821Y-34718284D01*
X111493300Y-34753755D01*
X111499187Y-34765308D01*
X111506782Y-34782365D01*
X111515850Y-34802732D01*
X111539918Y-34835860D01*
X111546984Y-34846740D01*
X111556800Y-34863742D01*
X111567467Y-34882216D01*
X111594867Y-34912647D01*
X111594877Y-34912657D01*
X111603041Y-34922739D01*
X111627112Y-34955871D01*
X111657544Y-34983272D01*
X111666720Y-34992447D01*
X111694130Y-35022889D01*
X111727258Y-35046957D01*
X111737347Y-35055127D01*
X111767781Y-35082531D01*
X111767783Y-35082532D01*
X111767784Y-35082533D01*
X111803266Y-35103019D01*
X111814136Y-35110078D01*
X111847270Y-35134151D01*
X111884683Y-35150808D01*
X111896239Y-35156696D01*
X111931716Y-35177179D01*
X111970666Y-35189834D01*
X111982778Y-35194483D01*
X112020197Y-35211144D01*
X112060267Y-35219660D01*
X112072782Y-35223014D01*
X112111744Y-35235674D01*
X112152485Y-35239955D01*
X112165294Y-35241985D01*
X112205354Y-35250500D01*
X112252808Y-35250500D01*
X112394643Y-35250500D01*
X112394646Y-35250500D01*
X112434726Y-35241980D01*
X112447503Y-35239956D01*
X112488256Y-35235674D01*
X112527220Y-35223012D01*
X112539741Y-35219658D01*
X112565860Y-35214107D01*
X112579799Y-35211145D01*
X112579799Y-35211144D01*
X112579803Y-35211144D01*
X112617234Y-35194477D01*
X112629324Y-35189836D01*
X112668284Y-35177179D01*
X112703757Y-35156698D01*
X112715307Y-35150811D01*
X112752730Y-35134151D01*
X112785872Y-35110071D01*
X112796734Y-35103018D01*
X112832216Y-35082533D01*
X112862654Y-35055125D01*
X112872740Y-35046958D01*
X112872741Y-35046957D01*
X112905871Y-35022888D01*
X112933284Y-34992441D01*
X112942441Y-34983284D01*
X112972888Y-34955871D01*
X112996958Y-34922739D01*
X113005125Y-34912654D01*
X113032533Y-34882216D01*
X113053018Y-34846734D01*
X113060071Y-34835872D01*
X113084151Y-34802730D01*
X113100811Y-34765307D01*
X113106700Y-34753753D01*
X113127179Y-34718284D01*
X113139834Y-34679332D01*
X113139835Y-34679331D01*
X113139836Y-34679324D01*
X113144477Y-34667234D01*
X113161144Y-34629803D01*
X113169658Y-34589741D01*
X113173016Y-34577209D01*
X113185674Y-34538256D01*
X113189956Y-34497503D01*
X113191980Y-34484726D01*
X113200500Y-34444646D01*
X113200500Y-34403692D01*
X113201179Y-34390731D01*
X113204088Y-34363050D01*
X113205460Y-34350000D01*
X113201178Y-34309267D01*
X113200500Y-34296308D01*
X113200500Y-34255354D01*
X113191986Y-34215300D01*
X113189955Y-34202480D01*
X113185674Y-34161744D01*
X113173014Y-34122782D01*
X113169660Y-34110267D01*
X113161144Y-34070197D01*
X113144483Y-34032778D01*
X113139831Y-34020658D01*
X113136897Y-34011629D01*
X113127179Y-33981716D01*
X113106696Y-33946239D01*
X113100805Y-33934677D01*
X113093284Y-33917784D01*
X113084151Y-33897270D01*
X113060078Y-33864136D01*
X113053015Y-33853260D01*
X113032531Y-33817781D01*
X113005127Y-33787347D01*
X112996957Y-33777258D01*
X112996849Y-33777110D01*
X112972888Y-33744129D01*
X112942442Y-33716715D01*
X112933274Y-33707546D01*
X112905871Y-33677112D01*
X112872739Y-33653041D01*
X112862662Y-33644881D01*
X112832216Y-33617467D01*
X112832215Y-33617466D01*
X112796740Y-33596984D01*
X112785861Y-33589918D01*
X112757763Y-33569505D01*
X112725162Y-33534372D01*
X112708320Y-33489499D01*
X112709753Y-33441598D01*
X112744317Y-33290168D01*
X112754214Y-33069796D01*
X112734410Y-32923593D01*
X113645832Y-32923593D01*
X113655605Y-33128756D01*
X113704029Y-33328362D01*
X113718737Y-33360568D01*
X113789354Y-33515199D01*
X113879852Y-33642284D01*
X113908494Y-33682506D01*
X114057146Y-33824245D01*
X114176807Y-33901147D01*
X114228980Y-33934677D01*
X114229936Y-33935291D01*
X114420618Y-34011629D01*
X114622302Y-34050500D01*
X115426227Y-34050500D01*
X115426232Y-34050500D01*
X115579466Y-34035868D01*
X115776541Y-33978001D01*
X115959104Y-33883884D01*
X116120556Y-33756916D01*
X116255061Y-33601689D01*
X116357759Y-33423811D01*
X116424937Y-33229712D01*
X116454168Y-33026407D01*
X116444395Y-32821244D01*
X116395971Y-32621638D01*
X116310647Y-32434804D01*
X116310646Y-32434803D01*
X116310645Y-32434800D01*
X116191507Y-32267496D01*
X116191506Y-32267494D01*
X116042854Y-32125755D01*
X115950056Y-32066117D01*
X115870065Y-32014709D01*
X115743121Y-31963888D01*
X115679382Y-31938371D01*
X115679381Y-31938370D01*
X115679379Y-31938370D01*
X115477698Y-31899500D01*
X114673768Y-31899500D01*
X114577996Y-31908645D01*
X114520531Y-31914132D01*
X114323460Y-31971998D01*
X114140893Y-32066117D01*
X113979445Y-32193082D01*
X113844937Y-32348312D01*
X113742241Y-32526187D01*
X113675062Y-32720287D01*
X113648402Y-32905715D01*
X113645832Y-32923593D01*
X112734410Y-32923593D01*
X112724603Y-32851198D01*
X112656436Y-32641401D01*
X112551903Y-32447147D01*
X112414365Y-32274680D01*
X112332225Y-32202917D01*
X112248241Y-32129542D01*
X112058873Y-32016399D01*
X111852346Y-31938888D01*
X111635298Y-31899500D01*
X111635297Y-31899500D01*
X110919968Y-31899500D01*
X110849393Y-31905851D01*
X110755290Y-31914321D01*
X110542651Y-31973006D01*
X110343900Y-32068719D01*
X110165440Y-32198378D01*
X110165437Y-32198380D01*
X110165437Y-32198381D01*
X110161100Y-32202917D01*
X110012990Y-32357828D01*
X109891468Y-32541928D01*
X109804769Y-32744767D01*
X109755683Y-32959831D01*
X109745785Y-33180202D01*
X102739553Y-33180202D01*
X102785674Y-33038256D01*
X102805460Y-32850000D01*
X102785674Y-32661744D01*
X102744751Y-32535796D01*
X102727179Y-32481715D01*
X102632533Y-32317783D01*
X102505870Y-32177110D01*
X102352730Y-32065848D01*
X102179802Y-31988855D01*
X101994648Y-31949500D01*
X101994646Y-31949500D01*
X101805354Y-31949500D01*
X101805352Y-31949500D01*
X101620197Y-31988855D01*
X101447269Y-32065848D01*
X101294129Y-32177110D01*
X101167466Y-32317783D01*
X101072820Y-32481715D01*
X101010299Y-32674139D01*
X101009898Y-32674008D01*
X100995768Y-32714583D01*
X100955306Y-32754204D01*
X100901448Y-32771703D01*
X100845425Y-32763430D01*
X100798923Y-32731111D01*
X100736464Y-32661744D01*
X100681871Y-32601112D01*
X100681869Y-32601111D01*
X100681867Y-32601108D01*
X100528730Y-32489848D01*
X100355802Y-32412855D01*
X100170648Y-32373500D01*
X100170646Y-32373500D01*
X99981354Y-32373500D01*
X99981352Y-32373500D01*
X99796197Y-32412855D01*
X99623269Y-32489848D01*
X99470129Y-32601110D01*
X99343466Y-32741783D01*
X99248820Y-32905715D01*
X99190326Y-33085742D01*
X99170540Y-33274000D01*
X78000500Y-33274000D01*
X78000500Y-32139869D01*
X79421500Y-32139869D01*
X79427909Y-32199484D01*
X79453056Y-32266906D01*
X79478204Y-32334331D01*
X79564454Y-32449546D01*
X79679669Y-32535796D01*
X79814517Y-32586091D01*
X79874127Y-32592500D01*
X81669872Y-32592499D01*
X81729483Y-32586091D01*
X81864331Y-32535796D01*
X81979546Y-32449546D01*
X82065796Y-32334331D01*
X82114810Y-32202916D01*
X82149789Y-32152537D01*
X82204634Y-32125084D01*
X82265927Y-32127273D01*
X82318673Y-32158569D01*
X82440599Y-32280495D01*
X82634170Y-32416035D01*
X82848337Y-32515903D01*
X83076592Y-32577063D01*
X83312000Y-32597659D01*
X83547408Y-32577063D01*
X83775663Y-32515903D01*
X83989830Y-32416035D01*
X84183401Y-32280495D01*
X84350495Y-32113401D01*
X84480426Y-31927839D01*
X84524743Y-31888975D01*
X84582000Y-31874964D01*
X84639257Y-31888975D01*
X84683573Y-31927839D01*
X84813505Y-32113401D01*
X84980599Y-32280495D01*
X85174170Y-32416035D01*
X85388337Y-32515903D01*
X85616592Y-32577063D01*
X85852000Y-32597659D01*
X86087408Y-32577063D01*
X86315663Y-32515903D01*
X86529830Y-32416035D01*
X86723401Y-32280495D01*
X86890495Y-32113401D01*
X87026035Y-31919830D01*
X87125903Y-31705663D01*
X87181010Y-31499999D01*
X90594540Y-31499999D01*
X90614326Y-31688257D01*
X90672820Y-31868284D01*
X90767466Y-32032216D01*
X90894129Y-32172889D01*
X91047269Y-32284151D01*
X91220197Y-32361144D01*
X91405352Y-32400500D01*
X91405354Y-32400500D01*
X91594646Y-32400500D01*
X91594648Y-32400500D01*
X91721672Y-32373500D01*
X91779803Y-32361144D01*
X91952730Y-32284151D01*
X91975654Y-32267496D01*
X92105870Y-32172889D01*
X92135602Y-32139869D01*
X92232533Y-32032216D01*
X92327179Y-31868284D01*
X92385674Y-31688256D01*
X92405460Y-31500000D01*
X92405040Y-31496000D01*
X95868540Y-31496000D01*
X95878433Y-31590128D01*
X95888326Y-31684257D01*
X95946820Y-31864284D01*
X96041466Y-32028216D01*
X96168129Y-32168889D01*
X96321269Y-32280151D01*
X96494197Y-32357144D01*
X96679352Y-32396500D01*
X96679354Y-32396500D01*
X96868646Y-32396500D01*
X96868648Y-32396500D01*
X97034984Y-32361144D01*
X97053803Y-32357144D01*
X97226730Y-32280151D01*
X97337759Y-32199484D01*
X97379870Y-32168889D01*
X97394594Y-32152537D01*
X97506533Y-32028216D01*
X97601179Y-31864284D01*
X97659674Y-31684256D01*
X97679460Y-31496000D01*
X97659674Y-31307744D01*
X97602479Y-31131716D01*
X97601179Y-31127715D01*
X97506533Y-30963783D01*
X97379870Y-30823110D01*
X97226730Y-30711848D01*
X97053802Y-30634855D01*
X96868648Y-30595500D01*
X96868646Y-30595500D01*
X96679354Y-30595500D01*
X96679352Y-30595500D01*
X96494197Y-30634855D01*
X96321269Y-30711848D01*
X96168129Y-30823110D01*
X96041466Y-30963783D01*
X95946820Y-31127715D01*
X95888326Y-31307742D01*
X95883832Y-31350500D01*
X95868540Y-31496000D01*
X92405040Y-31496000D01*
X92385674Y-31311744D01*
X92327179Y-31131716D01*
X92327179Y-31131715D01*
X92232533Y-30967783D01*
X92105870Y-30827110D01*
X91952730Y-30715848D01*
X91779802Y-30638855D01*
X91594648Y-30599500D01*
X91594646Y-30599500D01*
X91405354Y-30599500D01*
X91405352Y-30599500D01*
X91220197Y-30638855D01*
X91047269Y-30715848D01*
X90894129Y-30827110D01*
X90767466Y-30967783D01*
X90672820Y-31131715D01*
X90614326Y-31311742D01*
X90594540Y-31499999D01*
X87181010Y-31499999D01*
X87187063Y-31477408D01*
X87207659Y-31242000D01*
X87187063Y-31006592D01*
X87125903Y-30778337D01*
X87026035Y-30564171D01*
X86946091Y-30449999D01*
X106794540Y-30449999D01*
X106814326Y-30638257D01*
X106872820Y-30818284D01*
X106967466Y-30982216D01*
X107094129Y-31122889D01*
X107247269Y-31234151D01*
X107420197Y-31311144D01*
X107605352Y-31350500D01*
X107605354Y-31350500D01*
X107794646Y-31350500D01*
X107794648Y-31350500D01*
X107918084Y-31324262D01*
X107979803Y-31311144D01*
X108152730Y-31234151D01*
X108152729Y-31234151D01*
X108305870Y-31122889D01*
X108432533Y-30982216D01*
X108527179Y-30818284D01*
X108527178Y-30818284D01*
X108585674Y-30638256D01*
X108605460Y-30450000D01*
X108585674Y-30261744D01*
X108527179Y-30081716D01*
X108527179Y-30081715D01*
X108432533Y-29917783D01*
X108305870Y-29777110D01*
X108152730Y-29665848D01*
X107979802Y-29588855D01*
X107794648Y-29549500D01*
X107794646Y-29549500D01*
X107605354Y-29549500D01*
X107605352Y-29549500D01*
X107420197Y-29588855D01*
X107247269Y-29665848D01*
X107094129Y-29777110D01*
X106967466Y-29917783D01*
X106872820Y-30081715D01*
X106814326Y-30261742D01*
X106794540Y-30449999D01*
X86946091Y-30449999D01*
X86890495Y-30370599D01*
X86723401Y-30203505D01*
X86529830Y-30067965D01*
X86315663Y-29968097D01*
X86254502Y-29951709D01*
X86087407Y-29906936D01*
X85852000Y-29886340D01*
X85616592Y-29906936D01*
X85388336Y-29968097D01*
X85174170Y-30067965D01*
X84980598Y-30203505D01*
X84813505Y-30370598D01*
X84683575Y-30556159D01*
X84639257Y-30595025D01*
X84582000Y-30609036D01*
X84524743Y-30595025D01*
X84480425Y-30556159D01*
X84350494Y-30370598D01*
X84183404Y-30203508D01*
X84183401Y-30203505D01*
X83989830Y-30067965D01*
X83775663Y-29968097D01*
X83714502Y-29951709D01*
X83547407Y-29906936D01*
X83312000Y-29886340D01*
X83076592Y-29906936D01*
X82848336Y-29968097D01*
X82634170Y-30067965D01*
X82440601Y-30203503D01*
X82318673Y-30325431D01*
X82265926Y-30356726D01*
X82204634Y-30358915D01*
X82149789Y-30331462D01*
X82114810Y-30281082D01*
X82107596Y-30261742D01*
X82065796Y-30149669D01*
X81979546Y-30034454D01*
X81864331Y-29948204D01*
X81729483Y-29897909D01*
X81669873Y-29891500D01*
X81669869Y-29891500D01*
X79874130Y-29891500D01*
X79814515Y-29897909D01*
X79679669Y-29948204D01*
X79564454Y-30034454D01*
X79478204Y-30149668D01*
X79427909Y-30284516D01*
X79421500Y-30344130D01*
X79421500Y-32139869D01*
X78000500Y-32139869D01*
X78000500Y-28549999D01*
X101144659Y-28549999D01*
X101163976Y-28746133D01*
X101221185Y-28934726D01*
X101302092Y-29086091D01*
X101314090Y-29108538D01*
X101439117Y-29260883D01*
X101591462Y-29385910D01*
X101765273Y-29478814D01*
X101953868Y-29536024D01*
X102150000Y-29555341D01*
X102346132Y-29536024D01*
X102534727Y-29478814D01*
X102708538Y-29385910D01*
X102860883Y-29260883D01*
X102985910Y-29108538D01*
X103070650Y-28950000D01*
X113494659Y-28950000D01*
X113513976Y-29146133D01*
X113571185Y-29334726D01*
X113648202Y-29478814D01*
X113664090Y-29508538D01*
X113789117Y-29660883D01*
X113941462Y-29785910D01*
X114115273Y-29878814D01*
X114303868Y-29936024D01*
X114500000Y-29955341D01*
X114696132Y-29936024D01*
X114884727Y-29878814D01*
X115058538Y-29785910D01*
X115210883Y-29660883D01*
X115279148Y-29577702D01*
X115321983Y-29544273D01*
X115375000Y-29532368D01*
X115428017Y-29544273D01*
X115470851Y-29577702D01*
X115539117Y-29660883D01*
X115691462Y-29785910D01*
X115865273Y-29878814D01*
X116053868Y-29936024D01*
X116250000Y-29955341D01*
X116446132Y-29936024D01*
X116634727Y-29878814D01*
X116808538Y-29785910D01*
X116960883Y-29660883D01*
X117085910Y-29508538D01*
X117178814Y-29334727D01*
X117236024Y-29146132D01*
X117255341Y-28950000D01*
X117236024Y-28753868D01*
X117178814Y-28565273D01*
X117085910Y-28391462D01*
X116960883Y-28239117D01*
X116808538Y-28114090D01*
X116786091Y-28102092D01*
X116634726Y-28021185D01*
X116446133Y-27963976D01*
X116250000Y-27944659D01*
X116053866Y-27963976D01*
X115865273Y-28021185D01*
X115691463Y-28114089D01*
X115539119Y-28239115D01*
X115470853Y-28322297D01*
X115428016Y-28355726D01*
X115375000Y-28367631D01*
X115321984Y-28355726D01*
X115279147Y-28322297D01*
X115210883Y-28239117D01*
X115058538Y-28114090D01*
X115036091Y-28102092D01*
X114884726Y-28021185D01*
X114696133Y-27963976D01*
X114500000Y-27944659D01*
X114303866Y-27963976D01*
X114115273Y-28021185D01*
X113941463Y-28114089D01*
X113789117Y-28239117D01*
X113664089Y-28391463D01*
X113571185Y-28565273D01*
X113513976Y-28753866D01*
X113494659Y-28950000D01*
X103070650Y-28950000D01*
X103078814Y-28934727D01*
X103136024Y-28746132D01*
X103155341Y-28550000D01*
X103136024Y-28353868D01*
X103078814Y-28165273D01*
X102985910Y-27991462D01*
X102860883Y-27839117D01*
X102708538Y-27714090D01*
X102581398Y-27646132D01*
X102534726Y-27621185D01*
X102346133Y-27563976D01*
X102150000Y-27544659D01*
X101953866Y-27563976D01*
X101765273Y-27621185D01*
X101591463Y-27714089D01*
X101439117Y-27839117D01*
X101314089Y-27991463D01*
X101221185Y-28165273D01*
X101163976Y-28353866D01*
X101144659Y-28549999D01*
X78000500Y-28549999D01*
X78000500Y-26350000D01*
X79719364Y-26350000D01*
X79776569Y-26563492D01*
X79876399Y-26777576D01*
X80011893Y-26971081D01*
X80178918Y-27138106D01*
X80372423Y-27273600D01*
X80586507Y-27373430D01*
X80799999Y-27430635D01*
X80800000Y-27430636D01*
X80800000Y-27430635D01*
X81300000Y-27430635D01*
X81513492Y-27373430D01*
X81727576Y-27273600D01*
X81921081Y-27138106D01*
X82088109Y-26971078D01*
X82218119Y-26785405D01*
X82262437Y-26746539D01*
X82319694Y-26732528D01*
X82376951Y-26746539D01*
X82421267Y-26785402D01*
X82551505Y-26971401D01*
X82718599Y-27138495D01*
X82912170Y-27274035D01*
X83126337Y-27373903D01*
X83354592Y-27435063D01*
X83590000Y-27455659D01*
X83825408Y-27435063D01*
X84053663Y-27373903D01*
X84267830Y-27274035D01*
X84461401Y-27138495D01*
X84628495Y-26971401D01*
X84758426Y-26785839D01*
X84802743Y-26746975D01*
X84860000Y-26732964D01*
X84917257Y-26746975D01*
X84961573Y-26785839D01*
X85091505Y-26971401D01*
X85258599Y-27138495D01*
X85452170Y-27274035D01*
X85666337Y-27373903D01*
X85894592Y-27435063D01*
X86130000Y-27455659D01*
X86365408Y-27435063D01*
X86593663Y-27373903D01*
X86807830Y-27274035D01*
X87001401Y-27138495D01*
X87123329Y-27016566D01*
X87176072Y-26985273D01*
X87237365Y-26983084D01*
X87292209Y-27010537D01*
X87327189Y-27060916D01*
X87376204Y-27192331D01*
X87462454Y-27307546D01*
X87577669Y-27393796D01*
X87712517Y-27444091D01*
X87772127Y-27450500D01*
X89332320Y-27450499D01*
X89390773Y-27465141D01*
X89435422Y-27505608D01*
X89455723Y-27562344D01*
X89463976Y-27646133D01*
X89521185Y-27834726D01*
X89579946Y-27944659D01*
X89614090Y-28008538D01*
X89739117Y-28160883D01*
X89891462Y-28285910D01*
X90065273Y-28378814D01*
X90253868Y-28436024D01*
X90450000Y-28455341D01*
X90646132Y-28436024D01*
X90834727Y-28378814D01*
X91008538Y-28285910D01*
X91160883Y-28160883D01*
X91285910Y-28008538D01*
X91378814Y-27834727D01*
X91436024Y-27646132D01*
X91455341Y-27450000D01*
X91436024Y-27253868D01*
X91378814Y-27065273D01*
X91285910Y-26891462D01*
X91160883Y-26739117D01*
X91008538Y-26614090D01*
X90986091Y-26602092D01*
X90834726Y-26521185D01*
X90646133Y-26463976D01*
X90450000Y-26444659D01*
X90253869Y-26463975D01*
X90180494Y-26486234D01*
X90123300Y-26489747D01*
X90070632Y-26467171D01*
X90033739Y-26423325D01*
X90020499Y-26367573D01*
X90020499Y-26350000D01*
X91611364Y-26350000D01*
X91668569Y-26563492D01*
X91768399Y-26777576D01*
X91903893Y-26971081D01*
X92070918Y-27138106D01*
X92264423Y-27273600D01*
X92478507Y-27373430D01*
X92691999Y-27430635D01*
X92692000Y-27430636D01*
X92692000Y-27430635D01*
X93192000Y-27430635D01*
X93405492Y-27373430D01*
X93619576Y-27273600D01*
X93813081Y-27138106D01*
X93980109Y-26971078D01*
X94110119Y-26785405D01*
X94154437Y-26746539D01*
X94211694Y-26732528D01*
X94268951Y-26746539D01*
X94313267Y-26785402D01*
X94443505Y-26971401D01*
X94610599Y-27138495D01*
X94804170Y-27274035D01*
X95018337Y-27373903D01*
X95246592Y-27435063D01*
X95482000Y-27455659D01*
X95717408Y-27435063D01*
X95945663Y-27373903D01*
X96159830Y-27274035D01*
X96353401Y-27138495D01*
X96520495Y-26971401D01*
X96650426Y-26785839D01*
X96694743Y-26746975D01*
X96752000Y-26732964D01*
X96809257Y-26746975D01*
X96853573Y-26785839D01*
X96983505Y-26971401D01*
X97150599Y-27138495D01*
X97344170Y-27274035D01*
X97558337Y-27373903D01*
X97786592Y-27435063D01*
X98022000Y-27455659D01*
X98257408Y-27435063D01*
X98485663Y-27373903D01*
X98699830Y-27274035D01*
X98893401Y-27138495D01*
X99015329Y-27016566D01*
X99068072Y-26985273D01*
X99129365Y-26983084D01*
X99184209Y-27010537D01*
X99219189Y-27060916D01*
X99268204Y-27192331D01*
X99354454Y-27307546D01*
X99469669Y-27393796D01*
X99604517Y-27444091D01*
X99664127Y-27450500D01*
X101459872Y-27450499D01*
X101519483Y-27444091D01*
X101654331Y-27393796D01*
X101769546Y-27307546D01*
X101855796Y-27192331D01*
X101906091Y-27057483D01*
X101912500Y-26997873D01*
X101912499Y-26478110D01*
X101931737Y-26411772D01*
X101983482Y-26366017D01*
X102051678Y-26355045D01*
X102115163Y-26382258D01*
X102241462Y-26485910D01*
X102415273Y-26578814D01*
X102603868Y-26636024D01*
X102800000Y-26655341D01*
X102996132Y-26636024D01*
X103184727Y-26578814D01*
X103358538Y-26485910D01*
X103510883Y-26360883D01*
X103610147Y-26239929D01*
X103658548Y-26204034D01*
X103718155Y-26195192D01*
X103774891Y-26215493D01*
X103815358Y-26260142D01*
X103830000Y-26318595D01*
X103830000Y-26997824D01*
X103836402Y-27057375D01*
X103886647Y-27192089D01*
X103972811Y-27307188D01*
X104087910Y-27393352D01*
X104222624Y-27443597D01*
X104282176Y-27450000D01*
X104930000Y-27450000D01*
X105430000Y-27450000D01*
X106077824Y-27450000D01*
X106137375Y-27443597D01*
X106272089Y-27393352D01*
X106387188Y-27307188D01*
X106473352Y-27192089D01*
X106522422Y-27060528D01*
X106557401Y-27010149D01*
X106612246Y-26982696D01*
X106673539Y-26984885D01*
X106726285Y-27016181D01*
X106848599Y-27138495D01*
X107042170Y-27274035D01*
X107256337Y-27373903D01*
X107484592Y-27435063D01*
X107720000Y-27455659D01*
X107955408Y-27435063D01*
X108183663Y-27373903D01*
X108397830Y-27274035D01*
X108591401Y-27138495D01*
X108758495Y-26971401D01*
X108888426Y-26785839D01*
X108932743Y-26746975D01*
X108990000Y-26732964D01*
X109047257Y-26746975D01*
X109091573Y-26785839D01*
X109221505Y-26971401D01*
X109388599Y-27138495D01*
X109582170Y-27274035D01*
X109796337Y-27373903D01*
X110024592Y-27435063D01*
X110260000Y-27455659D01*
X110495408Y-27435063D01*
X110723663Y-27373903D01*
X110937830Y-27274035D01*
X111131401Y-27138495D01*
X111298495Y-26971401D01*
X111428426Y-26785839D01*
X111472743Y-26746975D01*
X111530000Y-26732964D01*
X111587257Y-26746975D01*
X111631573Y-26785839D01*
X111761505Y-26971401D01*
X111928599Y-27138495D01*
X112122170Y-27274035D01*
X112336337Y-27373903D01*
X112564592Y-27435063D01*
X112800000Y-27455659D01*
X113035408Y-27435063D01*
X113263663Y-27373903D01*
X113477830Y-27274035D01*
X113671401Y-27138495D01*
X113838495Y-26971401D01*
X113968426Y-26785839D01*
X114012743Y-26746975D01*
X114070000Y-26732964D01*
X114127257Y-26746975D01*
X114171573Y-26785839D01*
X114301505Y-26971401D01*
X114468599Y-27138495D01*
X114662170Y-27274035D01*
X114876337Y-27373903D01*
X115104592Y-27435063D01*
X115340000Y-27455659D01*
X115575408Y-27435063D01*
X115803663Y-27373903D01*
X116017830Y-27274035D01*
X116211401Y-27138495D01*
X116378495Y-26971401D01*
X116514035Y-26777830D01*
X116613903Y-26563663D01*
X116675063Y-26335408D01*
X116695659Y-26100000D01*
X116689527Y-26029918D01*
X116675063Y-25864592D01*
X116660672Y-25810883D01*
X116613903Y-25636337D01*
X116514035Y-25422171D01*
X116378495Y-25228599D01*
X116211401Y-25061505D01*
X116017830Y-24925965D01*
X115803663Y-24826097D01*
X115731074Y-24806647D01*
X115575407Y-24764936D01*
X115340000Y-24744340D01*
X115104592Y-24764936D01*
X114876336Y-24826097D01*
X114662170Y-24925965D01*
X114468598Y-25061505D01*
X114301505Y-25228598D01*
X114171575Y-25414159D01*
X114127257Y-25453025D01*
X114070000Y-25467036D01*
X114012743Y-25453025D01*
X113968425Y-25414159D01*
X113953449Y-25392771D01*
X113838495Y-25228599D01*
X113671401Y-25061505D01*
X113477830Y-24925965D01*
X113263663Y-24826097D01*
X113191074Y-24806647D01*
X113035407Y-24764936D01*
X112800000Y-24744340D01*
X112564592Y-24764936D01*
X112336336Y-24826097D01*
X112122170Y-24925965D01*
X111928598Y-25061505D01*
X111761505Y-25228598D01*
X111631575Y-25414159D01*
X111587257Y-25453025D01*
X111530000Y-25467036D01*
X111472743Y-25453025D01*
X111428425Y-25414159D01*
X111413449Y-25392771D01*
X111298495Y-25228599D01*
X111131401Y-25061505D01*
X110937830Y-24925965D01*
X110723663Y-24826097D01*
X110651074Y-24806647D01*
X110495407Y-24764936D01*
X110260000Y-24744340D01*
X110024592Y-24764936D01*
X109796336Y-24826097D01*
X109582170Y-24925965D01*
X109388598Y-25061505D01*
X109221505Y-25228598D01*
X109091575Y-25414159D01*
X109047257Y-25453025D01*
X108990000Y-25467036D01*
X108932743Y-25453025D01*
X108888425Y-25414159D01*
X108873449Y-25392771D01*
X108758495Y-25228599D01*
X108591401Y-25061505D01*
X108397830Y-24925965D01*
X108183663Y-24826097D01*
X108111074Y-24806647D01*
X107955407Y-24764936D01*
X107720000Y-24744340D01*
X107484592Y-24764936D01*
X107256336Y-24826097D01*
X107042170Y-24925965D01*
X106848601Y-25061503D01*
X106726285Y-25183819D01*
X106673539Y-25215114D01*
X106612246Y-25217303D01*
X106557401Y-25189850D01*
X106522422Y-25139471D01*
X106473352Y-25007911D01*
X106387188Y-24892811D01*
X106272089Y-24806647D01*
X106137375Y-24756402D01*
X106077824Y-24750000D01*
X105430000Y-24750000D01*
X105430000Y-27450000D01*
X104930000Y-27450000D01*
X104930000Y-24750000D01*
X104282176Y-24750000D01*
X104222624Y-24756402D01*
X104087910Y-24806647D01*
X103972811Y-24892811D01*
X103886646Y-25007913D01*
X103861256Y-25075984D01*
X103830054Y-25122952D01*
X103781278Y-25151246D01*
X103725017Y-25155016D01*
X103672903Y-25133481D01*
X103644041Y-25100588D01*
X103643658Y-25100903D01*
X103611643Y-25061893D01*
X103510883Y-24939117D01*
X103358538Y-24814090D01*
X103274862Y-24769364D01*
X103184726Y-24721185D01*
X102996133Y-24663976D01*
X102800000Y-24644659D01*
X102603866Y-24663976D01*
X102415273Y-24721185D01*
X102241463Y-24814089D01*
X102226256Y-24826569D01*
X102145975Y-24892455D01*
X102089116Y-24939118D01*
X102040595Y-24998240D01*
X101996505Y-25032254D01*
X101941976Y-25043543D01*
X101888004Y-25029832D01*
X101845477Y-24993885D01*
X101769546Y-24892454D01*
X101654331Y-24806204D01*
X101519483Y-24755909D01*
X101459873Y-24749500D01*
X101459869Y-24749500D01*
X99664130Y-24749500D01*
X99604515Y-24755909D01*
X99469669Y-24806204D01*
X99354454Y-24892454D01*
X99268204Y-25007669D01*
X99219189Y-25139083D01*
X99184209Y-25189462D01*
X99129365Y-25216915D01*
X99068072Y-25214726D01*
X99015326Y-25183430D01*
X98893404Y-25061508D01*
X98893401Y-25061505D01*
X98699830Y-24925965D01*
X98485663Y-24826097D01*
X98413074Y-24806647D01*
X98257407Y-24764936D01*
X98022000Y-24744340D01*
X97786592Y-24764936D01*
X97558336Y-24826097D01*
X97344170Y-24925965D01*
X97150598Y-25061505D01*
X96983505Y-25228598D01*
X96853575Y-25414159D01*
X96809257Y-25453025D01*
X96752000Y-25467036D01*
X96694743Y-25453025D01*
X96650425Y-25414159D01*
X96635449Y-25392771D01*
X96520495Y-25228599D01*
X96353401Y-25061505D01*
X96159830Y-24925965D01*
X95945663Y-24826097D01*
X95873074Y-24806647D01*
X95717407Y-24764936D01*
X95482000Y-24744340D01*
X95246592Y-24764936D01*
X95018336Y-24826097D01*
X94804170Y-24925965D01*
X94610598Y-25061505D01*
X94443508Y-25228595D01*
X94313269Y-25414596D01*
X94268951Y-25453461D01*
X94211694Y-25467472D01*
X94154437Y-25453461D01*
X94110119Y-25414595D01*
X93980109Y-25228921D01*
X93813081Y-25061893D01*
X93619576Y-24926399D01*
X93405492Y-24826569D01*
X93192000Y-24769364D01*
X93192000Y-27430635D01*
X92692000Y-27430635D01*
X92692000Y-26350000D01*
X91611364Y-26350000D01*
X90020499Y-26350000D01*
X90020499Y-26152092D01*
X90033739Y-26096340D01*
X90070632Y-26052494D01*
X90123300Y-26029918D01*
X90180492Y-26033430D01*
X90353868Y-26086024D01*
X90550000Y-26105341D01*
X90746132Y-26086024D01*
X90934727Y-26028814D01*
X91108538Y-25935910D01*
X91213219Y-25850000D01*
X91611364Y-25850000D01*
X92692000Y-25850000D01*
X92692000Y-24769364D01*
X92691999Y-24769364D01*
X92478507Y-24826569D01*
X92264421Y-24926400D01*
X92070921Y-25061890D01*
X91903890Y-25228921D01*
X91768401Y-25422419D01*
X91731694Y-25501137D01*
X91692815Y-25548598D01*
X91645795Y-25567624D01*
X91663024Y-25601852D01*
X91661887Y-25661445D01*
X91611364Y-25849999D01*
X91611364Y-25850000D01*
X91213219Y-25850000D01*
X91260883Y-25810883D01*
X91385910Y-25658538D01*
X91432756Y-25570893D01*
X91472659Y-25526626D01*
X91515906Y-25510751D01*
X91497919Y-25474025D01*
X91500651Y-25412737D01*
X91536024Y-25296132D01*
X91555341Y-25100000D01*
X91536024Y-24903868D01*
X91478814Y-24715273D01*
X91385910Y-24541462D01*
X91260883Y-24389117D01*
X91108538Y-24264090D01*
X91086091Y-24252092D01*
X90934726Y-24171185D01*
X90746133Y-24113976D01*
X90648066Y-24104317D01*
X90550000Y-24094659D01*
X90549999Y-24094659D01*
X90353866Y-24113976D01*
X90165273Y-24171185D01*
X89991463Y-24264089D01*
X89839117Y-24389117D01*
X89714090Y-24541461D01*
X89637926Y-24683954D01*
X89592317Y-24731858D01*
X89528568Y-24749500D01*
X87772130Y-24749500D01*
X87712515Y-24755909D01*
X87577669Y-24806204D01*
X87462454Y-24892454D01*
X87376204Y-25007669D01*
X87327189Y-25139083D01*
X87292209Y-25189462D01*
X87237365Y-25216915D01*
X87176072Y-25214726D01*
X87123326Y-25183430D01*
X87001404Y-25061508D01*
X87001401Y-25061505D01*
X86807830Y-24925965D01*
X86593663Y-24826097D01*
X86521074Y-24806647D01*
X86365407Y-24764936D01*
X86130000Y-24744340D01*
X85894592Y-24764936D01*
X85666336Y-24826097D01*
X85452170Y-24925965D01*
X85258598Y-25061505D01*
X85091505Y-25228598D01*
X84961575Y-25414159D01*
X84917257Y-25453025D01*
X84860000Y-25467036D01*
X84802743Y-25453025D01*
X84758425Y-25414159D01*
X84743449Y-25392771D01*
X84628495Y-25228599D01*
X84461401Y-25061505D01*
X84267830Y-24925965D01*
X84053663Y-24826097D01*
X83981074Y-24806647D01*
X83825407Y-24764936D01*
X83590000Y-24744340D01*
X83354592Y-24764936D01*
X83126336Y-24826097D01*
X82912170Y-24925965D01*
X82718598Y-25061505D01*
X82551508Y-25228595D01*
X82421269Y-25414596D01*
X82376951Y-25453461D01*
X82319694Y-25467472D01*
X82262437Y-25453461D01*
X82218119Y-25414595D01*
X82088109Y-25228921D01*
X81921081Y-25061893D01*
X81727576Y-24926399D01*
X81513492Y-24826569D01*
X81300000Y-24769364D01*
X81300000Y-27430635D01*
X80800000Y-27430635D01*
X80800000Y-26350000D01*
X79719364Y-26350000D01*
X78000500Y-26350000D01*
X78000500Y-25850000D01*
X79719364Y-25850000D01*
X80800000Y-25850000D01*
X80800000Y-24769364D01*
X80799999Y-24769364D01*
X80586507Y-24826569D01*
X80372421Y-24926400D01*
X80178921Y-25061890D01*
X80011890Y-25228921D01*
X79876400Y-25422421D01*
X79776569Y-25636507D01*
X79719364Y-25849999D01*
X79719364Y-25850000D01*
X78000500Y-25850000D01*
X78000500Y-23574500D01*
X78017113Y-23512500D01*
X78062500Y-23467113D01*
X78124500Y-23450500D01*
X104783823Y-23450500D01*
X104784739Y-23450503D01*
G37*
%TD.AperFunction*%
%TD*%
M02*
