M48
; DRILL file {KiCad 7.0.1-0} date 2023 October 24, Tuesday 00:05:58
; FORMAT={-:-/ absolute / inch / decimal}
; #@! TF.CreationDate,2023-10-24T00:05:58+02:00
; #@! TF.GenerationSoftware,Kicad,Pcbnew,7.0.1-0
; #@! TF.FileFunction,Plated,1,4,PTH
FMAT,2
INCH
; #@! TA.AperFunction,Plated,PTH,ViaDrill
T1C0.0157
; #@! TA.AperFunction,Plated,PTH,ComponentDrill
T2C0.0217
; #@! TA.AperFunction,Plated,PTH,ComponentDrill
T3C0.0335
; #@! TA.AperFunction,Plated,PTH,ComponentDrill
T4C0.0394
%
G90
G05
T1
X3.1594Y-1.5748
X3.1772Y-1.1181
X3.24Y-1.59
X3.248Y-1.7677
X3.315Y-1.7126
X3.3268Y-1.6614
X3.41Y-1.38
X3.4606Y-1.6811
X3.4724Y-1.3543
X3.55Y-1.67
X3.561Y-1.0807
X3.565Y-0.9882
X3.6024Y-1.2402
X3.67Y-1.61
X3.6831Y-1.2146
X3.71Y-1.56
X3.7165Y-1.4252
X3.7362Y-1.998
X3.76Y-1.54
X3.7697Y-1.5984
X3.8031Y-1.1594
X3.8031Y-1.5118
X3.81Y-1.24
X3.81Y-1.41
X3.8346Y-1.565
X3.8465Y-1.4744
X3.872Y-1.4213
X3.89Y-1.8
X3.8917Y-1.9961
X3.94Y-1.31
X3.9843Y-2.0039
X3.9941Y-1.7972
X4.0118Y-1.2933
X4.0217Y-1.124
X4.0256Y-1.5118
X4.0433Y-1.6949
X4.0472Y-1.0098
X4.0531Y-1.3386
X4.0531Y-1.3858
X4.0551Y-2.0039
X4.1063Y-1.1319
X4.1063Y-1.5157
X4.187Y-2.1161
X4.1929Y-1.3563
X4.2067Y-1.5315
X4.2343Y-2.0512
X4.2402Y-1.1988
X4.2776Y-1.9508
X4.3051Y-1.7598
X4.3307Y-2.0512
X4.376Y-1.9724
X4.3937Y-2.1142
X4.4547Y-1.4094
X4.4626Y-1.8543
X4.4685Y-1.7598
X4.4961Y-2.0335
X4.5079Y-1.1398
X4.5157Y-1.6614
X4.5551Y-1.9902
X4.5768Y-1.1398
T4
X3.18Y-1.23
X3.1909Y-1.0276
X3.28Y-1.23
X3.2909Y-1.0276
X3.34Y-2.09
X3.38Y-1.23
X3.3909Y-1.0276
X3.44Y-2.09
X3.4906Y-1.9055
X3.4909Y-1.0276
X3.54Y-2.09
X3.5906Y-1.9055
X3.6591Y-1.0276
X3.6906Y-1.9055
X3.74Y-2.09
X3.7591Y-1.0276
X3.7906Y-1.9055
X3.84Y-2.09
X3.8591Y-1.0276
X3.8906Y-1.9055
X3.94Y-2.09
X3.9591Y-1.0276
X4.04Y-2.09
X4.1409Y-1.0276
X4.2409Y-1.0276
X4.3409Y-1.0276
X4.4409Y-1.0276
X4.5409Y-1.0276
T2
G00X4.5167Y-1.2982
M15
G01X4.5423Y-1.2982
M16
G05
G00X4.5167Y-1.6033
M15
G01X4.5423Y-1.6033
M16
G05
T3
G00X4.3691Y-1.3041
M15
G01X4.3907Y-1.3041
M16
G05
G00X4.3691Y-1.5974
M15
G01X4.3907Y-1.5974
M16
G05
T0
M30
