%TF.GenerationSoftware,KiCad,Pcbnew,7.0.1-0*%
%TF.CreationDate,2023-10-24T00:04:38+02:00*%
%TF.ProjectId,SMT-32,534d542d-3332-42e6-9b69-6361645f7063,rev?*%
%TF.SameCoordinates,Original*%
%TF.FileFunction,Legend,Top*%
%TF.FilePolarity,Positive*%
%FSLAX46Y46*%
G04 Gerber Fmt 4.6, Leading zero omitted, Abs format (unit mm)*
G04 Created by KiCad (PCBNEW 7.0.1-0) date 2023-10-24 00:04:38*
%MOMM*%
%LPD*%
G01*
G04 APERTURE LIST*
%ADD10C,0.100000*%
%ADD11C,0.150000*%
%ADD12C,0.250000*%
%ADD13C,0.120000*%
G04 APERTURE END LIST*
D10*
X85845238Y-33236428D02*
X85869047Y-33212619D01*
X85869047Y-33212619D02*
X85916666Y-33188809D01*
X85916666Y-33188809D02*
X86035714Y-33188809D01*
X86035714Y-33188809D02*
X86083333Y-33212619D01*
X86083333Y-33212619D02*
X86107142Y-33236428D01*
X86107142Y-33236428D02*
X86130952Y-33284047D01*
X86130952Y-33284047D02*
X86130952Y-33331666D01*
X86130952Y-33331666D02*
X86107142Y-33403095D01*
X86107142Y-33403095D02*
X85821428Y-33688809D01*
X85821428Y-33688809D02*
X86130952Y-33688809D01*
X83071428Y-33188809D02*
X83380952Y-33188809D01*
X83380952Y-33188809D02*
X83214285Y-33379285D01*
X83214285Y-33379285D02*
X83285714Y-33379285D01*
X83285714Y-33379285D02*
X83333333Y-33403095D01*
X83333333Y-33403095D02*
X83357142Y-33426904D01*
X83357142Y-33426904D02*
X83380952Y-33474523D01*
X83380952Y-33474523D02*
X83380952Y-33593571D01*
X83380952Y-33593571D02*
X83357142Y-33641190D01*
X83357142Y-33641190D02*
X83333333Y-33665000D01*
X83333333Y-33665000D02*
X83285714Y-33688809D01*
X83285714Y-33688809D02*
X83142857Y-33688809D01*
X83142857Y-33688809D02*
X83095238Y-33665000D01*
X83095238Y-33665000D02*
X83071428Y-33641190D01*
X80283333Y-33305476D02*
X80283333Y-33638809D01*
X80164285Y-33115000D02*
X80045238Y-33472142D01*
X80045238Y-33472142D02*
X80354761Y-33472142D01*
X89930952Y-55488809D02*
X89645238Y-55488809D01*
X89788095Y-55488809D02*
X89788095Y-54988809D01*
X89788095Y-54988809D02*
X89740476Y-55060238D01*
X89740476Y-55060238D02*
X89692857Y-55107857D01*
X89692857Y-55107857D02*
X89645238Y-55131666D01*
X90121428Y-55036428D02*
X90145237Y-55012619D01*
X90145237Y-55012619D02*
X90192856Y-54988809D01*
X90192856Y-54988809D02*
X90311904Y-54988809D01*
X90311904Y-54988809D02*
X90359523Y-55012619D01*
X90359523Y-55012619D02*
X90383332Y-55036428D01*
X90383332Y-55036428D02*
X90407142Y-55084047D01*
X90407142Y-55084047D02*
X90407142Y-55131666D01*
X90407142Y-55131666D02*
X90383332Y-55203095D01*
X90383332Y-55203095D02*
X90097618Y-55488809D01*
X90097618Y-55488809D02*
X90407142Y-55488809D01*
X87080952Y-55488809D02*
X86795238Y-55488809D01*
X86938095Y-55488809D02*
X86938095Y-54988809D01*
X86938095Y-54988809D02*
X86890476Y-55060238D01*
X86890476Y-55060238D02*
X86842857Y-55107857D01*
X86842857Y-55107857D02*
X86795238Y-55131666D01*
X87557142Y-55488809D02*
X87271428Y-55488809D01*
X87414285Y-55488809D02*
X87414285Y-54988809D01*
X87414285Y-54988809D02*
X87366666Y-55060238D01*
X87366666Y-55060238D02*
X87319047Y-55107857D01*
X87319047Y-55107857D02*
X87271428Y-55131666D01*
X99645238Y-55365000D02*
X99716666Y-55388809D01*
X99716666Y-55388809D02*
X99835714Y-55388809D01*
X99835714Y-55388809D02*
X99883333Y-55365000D01*
X99883333Y-55365000D02*
X99907142Y-55341190D01*
X99907142Y-55341190D02*
X99930952Y-55293571D01*
X99930952Y-55293571D02*
X99930952Y-55245952D01*
X99930952Y-55245952D02*
X99907142Y-55198333D01*
X99907142Y-55198333D02*
X99883333Y-55174523D01*
X99883333Y-55174523D02*
X99835714Y-55150714D01*
X99835714Y-55150714D02*
X99740476Y-55126904D01*
X99740476Y-55126904D02*
X99692857Y-55103095D01*
X99692857Y-55103095D02*
X99669047Y-55079285D01*
X99669047Y-55079285D02*
X99645238Y-55031666D01*
X99645238Y-55031666D02*
X99645238Y-54984047D01*
X99645238Y-54984047D02*
X99669047Y-54936428D01*
X99669047Y-54936428D02*
X99692857Y-54912619D01*
X99692857Y-54912619D02*
X99740476Y-54888809D01*
X99740476Y-54888809D02*
X99859523Y-54888809D01*
X99859523Y-54888809D02*
X99930952Y-54912619D01*
X100145237Y-55388809D02*
X100145237Y-54888809D01*
X100145237Y-54888809D02*
X100264285Y-54888809D01*
X100264285Y-54888809D02*
X100335713Y-54912619D01*
X100335713Y-54912619D02*
X100383332Y-54960238D01*
X100383332Y-54960238D02*
X100407142Y-55007857D01*
X100407142Y-55007857D02*
X100430951Y-55103095D01*
X100430951Y-55103095D02*
X100430951Y-55174523D01*
X100430951Y-55174523D02*
X100407142Y-55269761D01*
X100407142Y-55269761D02*
X100383332Y-55317380D01*
X100383332Y-55317380D02*
X100335713Y-55365000D01*
X100335713Y-55365000D02*
X100264285Y-55388809D01*
X100264285Y-55388809D02*
X100145237Y-55388809D01*
X100621428Y-55245952D02*
X100859523Y-55245952D01*
X100573809Y-55388809D02*
X100740475Y-54888809D01*
X100740475Y-54888809D02*
X100907142Y-55388809D01*
X97045238Y-55365000D02*
X97116666Y-55388809D01*
X97116666Y-55388809D02*
X97235714Y-55388809D01*
X97235714Y-55388809D02*
X97283333Y-55365000D01*
X97283333Y-55365000D02*
X97307142Y-55341190D01*
X97307142Y-55341190D02*
X97330952Y-55293571D01*
X97330952Y-55293571D02*
X97330952Y-55245952D01*
X97330952Y-55245952D02*
X97307142Y-55198333D01*
X97307142Y-55198333D02*
X97283333Y-55174523D01*
X97283333Y-55174523D02*
X97235714Y-55150714D01*
X97235714Y-55150714D02*
X97140476Y-55126904D01*
X97140476Y-55126904D02*
X97092857Y-55103095D01*
X97092857Y-55103095D02*
X97069047Y-55079285D01*
X97069047Y-55079285D02*
X97045238Y-55031666D01*
X97045238Y-55031666D02*
X97045238Y-54984047D01*
X97045238Y-54984047D02*
X97069047Y-54936428D01*
X97069047Y-54936428D02*
X97092857Y-54912619D01*
X97092857Y-54912619D02*
X97140476Y-54888809D01*
X97140476Y-54888809D02*
X97259523Y-54888809D01*
X97259523Y-54888809D02*
X97330952Y-54912619D01*
X97830951Y-55341190D02*
X97807142Y-55365000D01*
X97807142Y-55365000D02*
X97735713Y-55388809D01*
X97735713Y-55388809D02*
X97688094Y-55388809D01*
X97688094Y-55388809D02*
X97616666Y-55365000D01*
X97616666Y-55365000D02*
X97569047Y-55317380D01*
X97569047Y-55317380D02*
X97545237Y-55269761D01*
X97545237Y-55269761D02*
X97521428Y-55174523D01*
X97521428Y-55174523D02*
X97521428Y-55103095D01*
X97521428Y-55103095D02*
X97545237Y-55007857D01*
X97545237Y-55007857D02*
X97569047Y-54960238D01*
X97569047Y-54960238D02*
X97616666Y-54912619D01*
X97616666Y-54912619D02*
X97688094Y-54888809D01*
X97688094Y-54888809D02*
X97735713Y-54888809D01*
X97735713Y-54888809D02*
X97807142Y-54912619D01*
X97807142Y-54912619D02*
X97830951Y-54936428D01*
X98283332Y-55388809D02*
X98045237Y-55388809D01*
X98045237Y-55388809D02*
X98045237Y-54888809D01*
X97395238Y-24115000D02*
X97466666Y-24138809D01*
X97466666Y-24138809D02*
X97585714Y-24138809D01*
X97585714Y-24138809D02*
X97633333Y-24115000D01*
X97633333Y-24115000D02*
X97657142Y-24091190D01*
X97657142Y-24091190D02*
X97680952Y-24043571D01*
X97680952Y-24043571D02*
X97680952Y-23995952D01*
X97680952Y-23995952D02*
X97657142Y-23948333D01*
X97657142Y-23948333D02*
X97633333Y-23924523D01*
X97633333Y-23924523D02*
X97585714Y-23900714D01*
X97585714Y-23900714D02*
X97490476Y-23876904D01*
X97490476Y-23876904D02*
X97442857Y-23853095D01*
X97442857Y-23853095D02*
X97419047Y-23829285D01*
X97419047Y-23829285D02*
X97395238Y-23781666D01*
X97395238Y-23781666D02*
X97395238Y-23734047D01*
X97395238Y-23734047D02*
X97419047Y-23686428D01*
X97419047Y-23686428D02*
X97442857Y-23662619D01*
X97442857Y-23662619D02*
X97490476Y-23638809D01*
X97490476Y-23638809D02*
X97609523Y-23638809D01*
X97609523Y-23638809D02*
X97680952Y-23662619D01*
X97847618Y-23638809D02*
X97966666Y-24138809D01*
X97966666Y-24138809D02*
X98061904Y-23781666D01*
X98061904Y-23781666D02*
X98157142Y-24138809D01*
X98157142Y-24138809D02*
X98276190Y-23638809D01*
X98466666Y-24138809D02*
X98466666Y-23638809D01*
X98466666Y-23638809D02*
X98585714Y-23638809D01*
X98585714Y-23638809D02*
X98657142Y-23662619D01*
X98657142Y-23662619D02*
X98704761Y-23710238D01*
X98704761Y-23710238D02*
X98728571Y-23757857D01*
X98728571Y-23757857D02*
X98752380Y-23853095D01*
X98752380Y-23853095D02*
X98752380Y-23924523D01*
X98752380Y-23924523D02*
X98728571Y-24019761D01*
X98728571Y-24019761D02*
X98704761Y-24067380D01*
X98704761Y-24067380D02*
X98657142Y-24115000D01*
X98657142Y-24115000D02*
X98585714Y-24138809D01*
X98585714Y-24138809D02*
X98466666Y-24138809D01*
X98966666Y-24138809D02*
X98966666Y-23638809D01*
X99299999Y-23638809D02*
X99395237Y-23638809D01*
X99395237Y-23638809D02*
X99442856Y-23662619D01*
X99442856Y-23662619D02*
X99490475Y-23710238D01*
X99490475Y-23710238D02*
X99514285Y-23805476D01*
X99514285Y-23805476D02*
X99514285Y-23972142D01*
X99514285Y-23972142D02*
X99490475Y-24067380D01*
X99490475Y-24067380D02*
X99442856Y-24115000D01*
X99442856Y-24115000D02*
X99395237Y-24138809D01*
X99395237Y-24138809D02*
X99299999Y-24138809D01*
X99299999Y-24138809D02*
X99252380Y-24115000D01*
X99252380Y-24115000D02*
X99204761Y-24067380D01*
X99204761Y-24067380D02*
X99180952Y-23972142D01*
X99180952Y-23972142D02*
X99180952Y-23805476D01*
X99180952Y-23805476D02*
X99204761Y-23710238D01*
X99204761Y-23710238D02*
X99252380Y-23662619D01*
X99252380Y-23662619D02*
X99299999Y-23638809D01*
X93945238Y-24115000D02*
X94016666Y-24138809D01*
X94016666Y-24138809D02*
X94135714Y-24138809D01*
X94135714Y-24138809D02*
X94183333Y-24115000D01*
X94183333Y-24115000D02*
X94207142Y-24091190D01*
X94207142Y-24091190D02*
X94230952Y-24043571D01*
X94230952Y-24043571D02*
X94230952Y-23995952D01*
X94230952Y-23995952D02*
X94207142Y-23948333D01*
X94207142Y-23948333D02*
X94183333Y-23924523D01*
X94183333Y-23924523D02*
X94135714Y-23900714D01*
X94135714Y-23900714D02*
X94040476Y-23876904D01*
X94040476Y-23876904D02*
X93992857Y-23853095D01*
X93992857Y-23853095D02*
X93969047Y-23829285D01*
X93969047Y-23829285D02*
X93945238Y-23781666D01*
X93945238Y-23781666D02*
X93945238Y-23734047D01*
X93945238Y-23734047D02*
X93969047Y-23686428D01*
X93969047Y-23686428D02*
X93992857Y-23662619D01*
X93992857Y-23662619D02*
X94040476Y-23638809D01*
X94040476Y-23638809D02*
X94159523Y-23638809D01*
X94159523Y-23638809D02*
X94230952Y-23662619D01*
X94397618Y-23638809D02*
X94516666Y-24138809D01*
X94516666Y-24138809D02*
X94611904Y-23781666D01*
X94611904Y-23781666D02*
X94707142Y-24138809D01*
X94707142Y-24138809D02*
X94826190Y-23638809D01*
X95302380Y-24091190D02*
X95278571Y-24115000D01*
X95278571Y-24115000D02*
X95207142Y-24138809D01*
X95207142Y-24138809D02*
X95159523Y-24138809D01*
X95159523Y-24138809D02*
X95088095Y-24115000D01*
X95088095Y-24115000D02*
X95040476Y-24067380D01*
X95040476Y-24067380D02*
X95016666Y-24019761D01*
X95016666Y-24019761D02*
X94992857Y-23924523D01*
X94992857Y-23924523D02*
X94992857Y-23853095D01*
X94992857Y-23853095D02*
X95016666Y-23757857D01*
X95016666Y-23757857D02*
X95040476Y-23710238D01*
X95040476Y-23710238D02*
X95088095Y-23662619D01*
X95088095Y-23662619D02*
X95159523Y-23638809D01*
X95159523Y-23638809D02*
X95207142Y-23638809D01*
X95207142Y-23638809D02*
X95278571Y-23662619D01*
X95278571Y-23662619D02*
X95302380Y-23686428D01*
X95754761Y-24138809D02*
X95516666Y-24138809D01*
X95516666Y-24138809D02*
X95516666Y-23638809D01*
X95921428Y-24138809D02*
X95921428Y-23638809D01*
X96207142Y-24138809D02*
X95992857Y-23853095D01*
X96207142Y-23638809D02*
X95921428Y-23924523D01*
X83454761Y-24138809D02*
X83288095Y-23900714D01*
X83169047Y-24138809D02*
X83169047Y-23638809D01*
X83169047Y-23638809D02*
X83359523Y-23638809D01*
X83359523Y-23638809D02*
X83407142Y-23662619D01*
X83407142Y-23662619D02*
X83430952Y-23686428D01*
X83430952Y-23686428D02*
X83454761Y-23734047D01*
X83454761Y-23734047D02*
X83454761Y-23805476D01*
X83454761Y-23805476D02*
X83430952Y-23853095D01*
X83430952Y-23853095D02*
X83407142Y-23876904D01*
X83407142Y-23876904D02*
X83359523Y-23900714D01*
X83359523Y-23900714D02*
X83169047Y-23900714D01*
X83621428Y-23638809D02*
X83954761Y-24138809D01*
X83954761Y-23638809D02*
X83621428Y-24138809D01*
X85747619Y-23688809D02*
X86033333Y-23688809D01*
X85890476Y-24188809D02*
X85890476Y-23688809D01*
X86152380Y-23688809D02*
X86485713Y-24188809D01*
X86485713Y-23688809D02*
X86152380Y-24188809D01*
D11*
X114838095Y-23896666D02*
X115600000Y-23896666D01*
X115219047Y-24277619D02*
X115219047Y-23515714D01*
X99988095Y-23946666D02*
X100750000Y-23946666D01*
X100369047Y-24327619D02*
X100369047Y-23565714D01*
X88188095Y-23796666D02*
X88950000Y-23796666D01*
X88569047Y-24177619D02*
X88569047Y-23415714D01*
X85788095Y-48396666D02*
X86550000Y-48396666D01*
X86169047Y-48777619D02*
X86169047Y-48015714D01*
X92238095Y-53296666D02*
X93000000Y-53296666D01*
X92619047Y-53677619D02*
X92619047Y-52915714D01*
D10*
X92969047Y-46488809D02*
X92969047Y-45988809D01*
X92969047Y-45988809D02*
X93135714Y-46345952D01*
X93135714Y-46345952D02*
X93302380Y-45988809D01*
X93302380Y-45988809D02*
X93302380Y-46488809D01*
X93540476Y-46488809D02*
X93540476Y-45988809D01*
X93754762Y-46465000D02*
X93826190Y-46488809D01*
X93826190Y-46488809D02*
X93945238Y-46488809D01*
X93945238Y-46488809D02*
X93992857Y-46465000D01*
X93992857Y-46465000D02*
X94016666Y-46441190D01*
X94016666Y-46441190D02*
X94040476Y-46393571D01*
X94040476Y-46393571D02*
X94040476Y-46345952D01*
X94040476Y-46345952D02*
X94016666Y-46298333D01*
X94016666Y-46298333D02*
X93992857Y-46274523D01*
X93992857Y-46274523D02*
X93945238Y-46250714D01*
X93945238Y-46250714D02*
X93850000Y-46226904D01*
X93850000Y-46226904D02*
X93802381Y-46203095D01*
X93802381Y-46203095D02*
X93778571Y-46179285D01*
X93778571Y-46179285D02*
X93754762Y-46131666D01*
X93754762Y-46131666D02*
X93754762Y-46084047D01*
X93754762Y-46084047D02*
X93778571Y-46036428D01*
X93778571Y-46036428D02*
X93802381Y-46012619D01*
X93802381Y-46012619D02*
X93850000Y-45988809D01*
X93850000Y-45988809D02*
X93969047Y-45988809D01*
X93969047Y-45988809D02*
X94040476Y-46012619D01*
X94349999Y-45988809D02*
X94445237Y-45988809D01*
X94445237Y-45988809D02*
X94492856Y-46012619D01*
X94492856Y-46012619D02*
X94540475Y-46060238D01*
X94540475Y-46060238D02*
X94564285Y-46155476D01*
X94564285Y-46155476D02*
X94564285Y-46322142D01*
X94564285Y-46322142D02*
X94540475Y-46417380D01*
X94540475Y-46417380D02*
X94492856Y-46465000D01*
X94492856Y-46465000D02*
X94445237Y-46488809D01*
X94445237Y-46488809D02*
X94349999Y-46488809D01*
X94349999Y-46488809D02*
X94302380Y-46465000D01*
X94302380Y-46465000D02*
X94254761Y-46417380D01*
X94254761Y-46417380D02*
X94230952Y-46322142D01*
X94230952Y-46322142D02*
X94230952Y-46155476D01*
X94230952Y-46155476D02*
X94254761Y-46060238D01*
X94254761Y-46060238D02*
X94302380Y-46012619D01*
X94302380Y-46012619D02*
X94349999Y-45988809D01*
X90695238Y-46415000D02*
X90766666Y-46438809D01*
X90766666Y-46438809D02*
X90885714Y-46438809D01*
X90885714Y-46438809D02*
X90933333Y-46415000D01*
X90933333Y-46415000D02*
X90957142Y-46391190D01*
X90957142Y-46391190D02*
X90980952Y-46343571D01*
X90980952Y-46343571D02*
X90980952Y-46295952D01*
X90980952Y-46295952D02*
X90957142Y-46248333D01*
X90957142Y-46248333D02*
X90933333Y-46224523D01*
X90933333Y-46224523D02*
X90885714Y-46200714D01*
X90885714Y-46200714D02*
X90790476Y-46176904D01*
X90790476Y-46176904D02*
X90742857Y-46153095D01*
X90742857Y-46153095D02*
X90719047Y-46129285D01*
X90719047Y-46129285D02*
X90695238Y-46081666D01*
X90695238Y-46081666D02*
X90695238Y-46034047D01*
X90695238Y-46034047D02*
X90719047Y-45986428D01*
X90719047Y-45986428D02*
X90742857Y-45962619D01*
X90742857Y-45962619D02*
X90790476Y-45938809D01*
X90790476Y-45938809D02*
X90909523Y-45938809D01*
X90909523Y-45938809D02*
X90980952Y-45962619D01*
X91480951Y-46391190D02*
X91457142Y-46415000D01*
X91457142Y-46415000D02*
X91385713Y-46438809D01*
X91385713Y-46438809D02*
X91338094Y-46438809D01*
X91338094Y-46438809D02*
X91266666Y-46415000D01*
X91266666Y-46415000D02*
X91219047Y-46367380D01*
X91219047Y-46367380D02*
X91195237Y-46319761D01*
X91195237Y-46319761D02*
X91171428Y-46224523D01*
X91171428Y-46224523D02*
X91171428Y-46153095D01*
X91171428Y-46153095D02*
X91195237Y-46057857D01*
X91195237Y-46057857D02*
X91219047Y-46010238D01*
X91219047Y-46010238D02*
X91266666Y-45962619D01*
X91266666Y-45962619D02*
X91338094Y-45938809D01*
X91338094Y-45938809D02*
X91385713Y-45938809D01*
X91385713Y-45938809D02*
X91457142Y-45962619D01*
X91457142Y-45962619D02*
X91480951Y-45986428D01*
X91695237Y-46438809D02*
X91695237Y-45938809D01*
X91980951Y-46438809D02*
X91766666Y-46153095D01*
X91980951Y-45938809D02*
X91695237Y-46224523D01*
X95469047Y-46438809D02*
X95469047Y-45938809D01*
X95469047Y-45938809D02*
X95635714Y-46295952D01*
X95635714Y-46295952D02*
X95802380Y-45938809D01*
X95802380Y-45938809D02*
X95802380Y-46438809D01*
X96135714Y-45938809D02*
X96230952Y-45938809D01*
X96230952Y-45938809D02*
X96278571Y-45962619D01*
X96278571Y-45962619D02*
X96326190Y-46010238D01*
X96326190Y-46010238D02*
X96350000Y-46105476D01*
X96350000Y-46105476D02*
X96350000Y-46272142D01*
X96350000Y-46272142D02*
X96326190Y-46367380D01*
X96326190Y-46367380D02*
X96278571Y-46415000D01*
X96278571Y-46415000D02*
X96230952Y-46438809D01*
X96230952Y-46438809D02*
X96135714Y-46438809D01*
X96135714Y-46438809D02*
X96088095Y-46415000D01*
X96088095Y-46415000D02*
X96040476Y-46367380D01*
X96040476Y-46367380D02*
X96016667Y-46272142D01*
X96016667Y-46272142D02*
X96016667Y-46105476D01*
X96016667Y-46105476D02*
X96040476Y-46010238D01*
X96040476Y-46010238D02*
X96088095Y-45962619D01*
X96088095Y-45962619D02*
X96135714Y-45938809D01*
X96540477Y-46415000D02*
X96611905Y-46438809D01*
X96611905Y-46438809D02*
X96730953Y-46438809D01*
X96730953Y-46438809D02*
X96778572Y-46415000D01*
X96778572Y-46415000D02*
X96802381Y-46391190D01*
X96802381Y-46391190D02*
X96826191Y-46343571D01*
X96826191Y-46343571D02*
X96826191Y-46295952D01*
X96826191Y-46295952D02*
X96802381Y-46248333D01*
X96802381Y-46248333D02*
X96778572Y-46224523D01*
X96778572Y-46224523D02*
X96730953Y-46200714D01*
X96730953Y-46200714D02*
X96635715Y-46176904D01*
X96635715Y-46176904D02*
X96588096Y-46153095D01*
X96588096Y-46153095D02*
X96564286Y-46129285D01*
X96564286Y-46129285D02*
X96540477Y-46081666D01*
X96540477Y-46081666D02*
X96540477Y-46034047D01*
X96540477Y-46034047D02*
X96564286Y-45986428D01*
X96564286Y-45986428D02*
X96588096Y-45962619D01*
X96588096Y-45962619D02*
X96635715Y-45938809D01*
X96635715Y-45938809D02*
X96754762Y-45938809D01*
X96754762Y-45938809D02*
X96826191Y-45962619D01*
X97040476Y-46438809D02*
X97040476Y-45938809D01*
X112245238Y-24165000D02*
X112316666Y-24188809D01*
X112316666Y-24188809D02*
X112435714Y-24188809D01*
X112435714Y-24188809D02*
X112483333Y-24165000D01*
X112483333Y-24165000D02*
X112507142Y-24141190D01*
X112507142Y-24141190D02*
X112530952Y-24093571D01*
X112530952Y-24093571D02*
X112530952Y-24045952D01*
X112530952Y-24045952D02*
X112507142Y-23998333D01*
X112507142Y-23998333D02*
X112483333Y-23974523D01*
X112483333Y-23974523D02*
X112435714Y-23950714D01*
X112435714Y-23950714D02*
X112340476Y-23926904D01*
X112340476Y-23926904D02*
X112292857Y-23903095D01*
X112292857Y-23903095D02*
X112269047Y-23879285D01*
X112269047Y-23879285D02*
X112245238Y-23831666D01*
X112245238Y-23831666D02*
X112245238Y-23784047D01*
X112245238Y-23784047D02*
X112269047Y-23736428D01*
X112269047Y-23736428D02*
X112292857Y-23712619D01*
X112292857Y-23712619D02*
X112340476Y-23688809D01*
X112340476Y-23688809D02*
X112459523Y-23688809D01*
X112459523Y-23688809D02*
X112530952Y-23712619D01*
X113030951Y-24141190D02*
X113007142Y-24165000D01*
X113007142Y-24165000D02*
X112935713Y-24188809D01*
X112935713Y-24188809D02*
X112888094Y-24188809D01*
X112888094Y-24188809D02*
X112816666Y-24165000D01*
X112816666Y-24165000D02*
X112769047Y-24117380D01*
X112769047Y-24117380D02*
X112745237Y-24069761D01*
X112745237Y-24069761D02*
X112721428Y-23974523D01*
X112721428Y-23974523D02*
X112721428Y-23903095D01*
X112721428Y-23903095D02*
X112745237Y-23807857D01*
X112745237Y-23807857D02*
X112769047Y-23760238D01*
X112769047Y-23760238D02*
X112816666Y-23712619D01*
X112816666Y-23712619D02*
X112888094Y-23688809D01*
X112888094Y-23688809D02*
X112935713Y-23688809D01*
X112935713Y-23688809D02*
X113007142Y-23712619D01*
X113007142Y-23712619D02*
X113030951Y-23736428D01*
X113245237Y-24188809D02*
X113245237Y-23688809D01*
X113530951Y-24188809D02*
X113316666Y-23903095D01*
X113530951Y-23688809D02*
X113245237Y-23974523D01*
X109569047Y-24188809D02*
X109569047Y-23688809D01*
X109569047Y-23688809D02*
X109735714Y-24045952D01*
X109735714Y-24045952D02*
X109902380Y-23688809D01*
X109902380Y-23688809D02*
X109902380Y-24188809D01*
X110140476Y-24188809D02*
X110140476Y-23688809D01*
X110354762Y-24165000D02*
X110426190Y-24188809D01*
X110426190Y-24188809D02*
X110545238Y-24188809D01*
X110545238Y-24188809D02*
X110592857Y-24165000D01*
X110592857Y-24165000D02*
X110616666Y-24141190D01*
X110616666Y-24141190D02*
X110640476Y-24093571D01*
X110640476Y-24093571D02*
X110640476Y-24045952D01*
X110640476Y-24045952D02*
X110616666Y-23998333D01*
X110616666Y-23998333D02*
X110592857Y-23974523D01*
X110592857Y-23974523D02*
X110545238Y-23950714D01*
X110545238Y-23950714D02*
X110450000Y-23926904D01*
X110450000Y-23926904D02*
X110402381Y-23903095D01*
X110402381Y-23903095D02*
X110378571Y-23879285D01*
X110378571Y-23879285D02*
X110354762Y-23831666D01*
X110354762Y-23831666D02*
X110354762Y-23784047D01*
X110354762Y-23784047D02*
X110378571Y-23736428D01*
X110378571Y-23736428D02*
X110402381Y-23712619D01*
X110402381Y-23712619D02*
X110450000Y-23688809D01*
X110450000Y-23688809D02*
X110569047Y-23688809D01*
X110569047Y-23688809D02*
X110640476Y-23712619D01*
X110949999Y-23688809D02*
X111045237Y-23688809D01*
X111045237Y-23688809D02*
X111092856Y-23712619D01*
X111092856Y-23712619D02*
X111140475Y-23760238D01*
X111140475Y-23760238D02*
X111164285Y-23855476D01*
X111164285Y-23855476D02*
X111164285Y-24022142D01*
X111164285Y-24022142D02*
X111140475Y-24117380D01*
X111140475Y-24117380D02*
X111092856Y-24165000D01*
X111092856Y-24165000D02*
X111045237Y-24188809D01*
X111045237Y-24188809D02*
X110949999Y-24188809D01*
X110949999Y-24188809D02*
X110902380Y-24165000D01*
X110902380Y-24165000D02*
X110854761Y-24117380D01*
X110854761Y-24117380D02*
X110830952Y-24022142D01*
X110830952Y-24022142D02*
X110830952Y-23855476D01*
X110830952Y-23855476D02*
X110854761Y-23760238D01*
X110854761Y-23760238D02*
X110902380Y-23712619D01*
X110902380Y-23712619D02*
X110949999Y-23688809D01*
X107119047Y-24138809D02*
X107119047Y-23638809D01*
X107119047Y-23638809D02*
X107285714Y-23995952D01*
X107285714Y-23995952D02*
X107452380Y-23638809D01*
X107452380Y-23638809D02*
X107452380Y-24138809D01*
X107785714Y-23638809D02*
X107880952Y-23638809D01*
X107880952Y-23638809D02*
X107928571Y-23662619D01*
X107928571Y-23662619D02*
X107976190Y-23710238D01*
X107976190Y-23710238D02*
X108000000Y-23805476D01*
X108000000Y-23805476D02*
X108000000Y-23972142D01*
X108000000Y-23972142D02*
X107976190Y-24067380D01*
X107976190Y-24067380D02*
X107928571Y-24115000D01*
X107928571Y-24115000D02*
X107880952Y-24138809D01*
X107880952Y-24138809D02*
X107785714Y-24138809D01*
X107785714Y-24138809D02*
X107738095Y-24115000D01*
X107738095Y-24115000D02*
X107690476Y-24067380D01*
X107690476Y-24067380D02*
X107666667Y-23972142D01*
X107666667Y-23972142D02*
X107666667Y-23805476D01*
X107666667Y-23805476D02*
X107690476Y-23710238D01*
X107690476Y-23710238D02*
X107738095Y-23662619D01*
X107738095Y-23662619D02*
X107785714Y-23638809D01*
X108190477Y-24115000D02*
X108261905Y-24138809D01*
X108261905Y-24138809D02*
X108380953Y-24138809D01*
X108380953Y-24138809D02*
X108428572Y-24115000D01*
X108428572Y-24115000D02*
X108452381Y-24091190D01*
X108452381Y-24091190D02*
X108476191Y-24043571D01*
X108476191Y-24043571D02*
X108476191Y-23995952D01*
X108476191Y-23995952D02*
X108452381Y-23948333D01*
X108452381Y-23948333D02*
X108428572Y-23924523D01*
X108428572Y-23924523D02*
X108380953Y-23900714D01*
X108380953Y-23900714D02*
X108285715Y-23876904D01*
X108285715Y-23876904D02*
X108238096Y-23853095D01*
X108238096Y-23853095D02*
X108214286Y-23829285D01*
X108214286Y-23829285D02*
X108190477Y-23781666D01*
X108190477Y-23781666D02*
X108190477Y-23734047D01*
X108190477Y-23734047D02*
X108214286Y-23686428D01*
X108214286Y-23686428D02*
X108238096Y-23662619D01*
X108238096Y-23662619D02*
X108285715Y-23638809D01*
X108285715Y-23638809D02*
X108404762Y-23638809D01*
X108404762Y-23638809D02*
X108476191Y-23662619D01*
X108690476Y-24138809D02*
X108690476Y-23638809D01*
D11*
X91538095Y-51127619D02*
X91538095Y-50127619D01*
X91966666Y-50222857D02*
X92014285Y-50175238D01*
X92014285Y-50175238D02*
X92109523Y-50127619D01*
X92109523Y-50127619D02*
X92347618Y-50127619D01*
X92347618Y-50127619D02*
X92442856Y-50175238D01*
X92442856Y-50175238D02*
X92490475Y-50222857D01*
X92490475Y-50222857D02*
X92538094Y-50318095D01*
X92538094Y-50318095D02*
X92538094Y-50413333D01*
X92538094Y-50413333D02*
X92490475Y-50556190D01*
X92490475Y-50556190D02*
X91919047Y-51127619D01*
X91919047Y-51127619D02*
X92538094Y-51127619D01*
X93538094Y-51032380D02*
X93490475Y-51080000D01*
X93490475Y-51080000D02*
X93347618Y-51127619D01*
X93347618Y-51127619D02*
X93252380Y-51127619D01*
X93252380Y-51127619D02*
X93109523Y-51080000D01*
X93109523Y-51080000D02*
X93014285Y-50984761D01*
X93014285Y-50984761D02*
X92966666Y-50889523D01*
X92966666Y-50889523D02*
X92919047Y-50699047D01*
X92919047Y-50699047D02*
X92919047Y-50556190D01*
X92919047Y-50556190D02*
X92966666Y-50365714D01*
X92966666Y-50365714D02*
X93014285Y-50270476D01*
X93014285Y-50270476D02*
X93109523Y-50175238D01*
X93109523Y-50175238D02*
X93252380Y-50127619D01*
X93252380Y-50127619D02*
X93347618Y-50127619D01*
X93347618Y-50127619D02*
X93490475Y-50175238D01*
X93490475Y-50175238D02*
X93538094Y-50222857D01*
X90790476Y-44880000D02*
X90933333Y-44927619D01*
X90933333Y-44927619D02*
X91171428Y-44927619D01*
X91171428Y-44927619D02*
X91266666Y-44880000D01*
X91266666Y-44880000D02*
X91314285Y-44832380D01*
X91314285Y-44832380D02*
X91361904Y-44737142D01*
X91361904Y-44737142D02*
X91361904Y-44641904D01*
X91361904Y-44641904D02*
X91314285Y-44546666D01*
X91314285Y-44546666D02*
X91266666Y-44499047D01*
X91266666Y-44499047D02*
X91171428Y-44451428D01*
X91171428Y-44451428D02*
X90980952Y-44403809D01*
X90980952Y-44403809D02*
X90885714Y-44356190D01*
X90885714Y-44356190D02*
X90838095Y-44308571D01*
X90838095Y-44308571D02*
X90790476Y-44213333D01*
X90790476Y-44213333D02*
X90790476Y-44118095D01*
X90790476Y-44118095D02*
X90838095Y-44022857D01*
X90838095Y-44022857D02*
X90885714Y-43975238D01*
X90885714Y-43975238D02*
X90980952Y-43927619D01*
X90980952Y-43927619D02*
X91219047Y-43927619D01*
X91219047Y-43927619D02*
X91361904Y-43975238D01*
X91790476Y-44927619D02*
X91790476Y-43927619D01*
X91790476Y-43927619D02*
X92171428Y-43927619D01*
X92171428Y-43927619D02*
X92266666Y-43975238D01*
X92266666Y-43975238D02*
X92314285Y-44022857D01*
X92314285Y-44022857D02*
X92361904Y-44118095D01*
X92361904Y-44118095D02*
X92361904Y-44260952D01*
X92361904Y-44260952D02*
X92314285Y-44356190D01*
X92314285Y-44356190D02*
X92266666Y-44403809D01*
X92266666Y-44403809D02*
X92171428Y-44451428D01*
X92171428Y-44451428D02*
X91790476Y-44451428D01*
X92790476Y-44927619D02*
X92790476Y-43927619D01*
X94552380Y-44927619D02*
X93980952Y-44927619D01*
X94266666Y-44927619D02*
X94266666Y-43927619D01*
X94266666Y-43927619D02*
X94171428Y-44070476D01*
X94171428Y-44070476D02*
X94076190Y-44165714D01*
X94076190Y-44165714D02*
X93980952Y-44213333D01*
X83240476Y-50491904D02*
X83716666Y-50491904D01*
X83145238Y-50777619D02*
X83478571Y-49777619D01*
X83478571Y-49777619D02*
X83811904Y-50777619D01*
X84145238Y-50777619D02*
X84145238Y-49777619D01*
X84145238Y-49777619D02*
X84383333Y-49777619D01*
X84383333Y-49777619D02*
X84526190Y-49825238D01*
X84526190Y-49825238D02*
X84621428Y-49920476D01*
X84621428Y-49920476D02*
X84669047Y-50015714D01*
X84669047Y-50015714D02*
X84716666Y-50206190D01*
X84716666Y-50206190D02*
X84716666Y-50349047D01*
X84716666Y-50349047D02*
X84669047Y-50539523D01*
X84669047Y-50539523D02*
X84621428Y-50634761D01*
X84621428Y-50634761D02*
X84526190Y-50730000D01*
X84526190Y-50730000D02*
X84383333Y-50777619D01*
X84383333Y-50777619D02*
X84145238Y-50777619D01*
X85716666Y-50682380D02*
X85669047Y-50730000D01*
X85669047Y-50730000D02*
X85526190Y-50777619D01*
X85526190Y-50777619D02*
X85430952Y-50777619D01*
X85430952Y-50777619D02*
X85288095Y-50730000D01*
X85288095Y-50730000D02*
X85192857Y-50634761D01*
X85192857Y-50634761D02*
X85145238Y-50539523D01*
X85145238Y-50539523D02*
X85097619Y-50349047D01*
X85097619Y-50349047D02*
X85097619Y-50206190D01*
X85097619Y-50206190D02*
X85145238Y-50015714D01*
X85145238Y-50015714D02*
X85192857Y-49920476D01*
X85192857Y-49920476D02*
X85288095Y-49825238D01*
X85288095Y-49825238D02*
X85430952Y-49777619D01*
X85430952Y-49777619D02*
X85526190Y-49777619D01*
X85526190Y-49777619D02*
X85669047Y-49825238D01*
X85669047Y-49825238D02*
X85716666Y-49872857D01*
X82538095Y-28177619D02*
X82538095Y-28987142D01*
X82538095Y-28987142D02*
X82585714Y-29082380D01*
X82585714Y-29082380D02*
X82633333Y-29130000D01*
X82633333Y-29130000D02*
X82728571Y-29177619D01*
X82728571Y-29177619D02*
X82919047Y-29177619D01*
X82919047Y-29177619D02*
X83014285Y-29130000D01*
X83014285Y-29130000D02*
X83061904Y-29082380D01*
X83061904Y-29082380D02*
X83109523Y-28987142D01*
X83109523Y-28987142D02*
X83109523Y-28177619D01*
X84157142Y-29177619D02*
X83823809Y-28701428D01*
X83585714Y-29177619D02*
X83585714Y-28177619D01*
X83585714Y-28177619D02*
X83966666Y-28177619D01*
X83966666Y-28177619D02*
X84061904Y-28225238D01*
X84061904Y-28225238D02*
X84109523Y-28272857D01*
X84109523Y-28272857D02*
X84157142Y-28368095D01*
X84157142Y-28368095D02*
X84157142Y-28510952D01*
X84157142Y-28510952D02*
X84109523Y-28606190D01*
X84109523Y-28606190D02*
X84061904Y-28653809D01*
X84061904Y-28653809D02*
X83966666Y-28701428D01*
X83966666Y-28701428D02*
X83585714Y-28701428D01*
X84538095Y-28891904D02*
X85014285Y-28891904D01*
X84442857Y-29177619D02*
X84776190Y-28177619D01*
X84776190Y-28177619D02*
X85109523Y-29177619D01*
X85300000Y-28177619D02*
X85871428Y-28177619D01*
X85585714Y-29177619D02*
X85585714Y-28177619D01*
D12*
X109490476Y-29280000D02*
X109633333Y-29327619D01*
X109633333Y-29327619D02*
X109871428Y-29327619D01*
X109871428Y-29327619D02*
X109966666Y-29280000D01*
X109966666Y-29280000D02*
X110014285Y-29232380D01*
X110014285Y-29232380D02*
X110061904Y-29137142D01*
X110061904Y-29137142D02*
X110061904Y-29041904D01*
X110061904Y-29041904D02*
X110014285Y-28946666D01*
X110014285Y-28946666D02*
X109966666Y-28899047D01*
X109966666Y-28899047D02*
X109871428Y-28851428D01*
X109871428Y-28851428D02*
X109680952Y-28803809D01*
X109680952Y-28803809D02*
X109585714Y-28756190D01*
X109585714Y-28756190D02*
X109538095Y-28708571D01*
X109538095Y-28708571D02*
X109490476Y-28613333D01*
X109490476Y-28613333D02*
X109490476Y-28518095D01*
X109490476Y-28518095D02*
X109538095Y-28422857D01*
X109538095Y-28422857D02*
X109585714Y-28375238D01*
X109585714Y-28375238D02*
X109680952Y-28327619D01*
X109680952Y-28327619D02*
X109919047Y-28327619D01*
X109919047Y-28327619D02*
X110061904Y-28375238D01*
X110490476Y-29327619D02*
X110490476Y-28327619D01*
X110490476Y-28327619D02*
X110871428Y-28327619D01*
X110871428Y-28327619D02*
X110966666Y-28375238D01*
X110966666Y-28375238D02*
X111014285Y-28422857D01*
X111014285Y-28422857D02*
X111061904Y-28518095D01*
X111061904Y-28518095D02*
X111061904Y-28660952D01*
X111061904Y-28660952D02*
X111014285Y-28756190D01*
X111014285Y-28756190D02*
X110966666Y-28803809D01*
X110966666Y-28803809D02*
X110871428Y-28851428D01*
X110871428Y-28851428D02*
X110490476Y-28851428D01*
X111490476Y-29327619D02*
X111490476Y-28327619D01*
X112680952Y-28422857D02*
X112728571Y-28375238D01*
X112728571Y-28375238D02*
X112823809Y-28327619D01*
X112823809Y-28327619D02*
X113061904Y-28327619D01*
X113061904Y-28327619D02*
X113157142Y-28375238D01*
X113157142Y-28375238D02*
X113204761Y-28422857D01*
X113204761Y-28422857D02*
X113252380Y-28518095D01*
X113252380Y-28518095D02*
X113252380Y-28613333D01*
X113252380Y-28613333D02*
X113204761Y-28756190D01*
X113204761Y-28756190D02*
X112633333Y-29327619D01*
X112633333Y-29327619D02*
X113252380Y-29327619D01*
D11*
%TO.C,C7*%
X88803333Y-45327380D02*
X88755714Y-45375000D01*
X88755714Y-45375000D02*
X88612857Y-45422619D01*
X88612857Y-45422619D02*
X88517619Y-45422619D01*
X88517619Y-45422619D02*
X88374762Y-45375000D01*
X88374762Y-45375000D02*
X88279524Y-45279761D01*
X88279524Y-45279761D02*
X88231905Y-45184523D01*
X88231905Y-45184523D02*
X88184286Y-44994047D01*
X88184286Y-44994047D02*
X88184286Y-44851190D01*
X88184286Y-44851190D02*
X88231905Y-44660714D01*
X88231905Y-44660714D02*
X88279524Y-44565476D01*
X88279524Y-44565476D02*
X88374762Y-44470238D01*
X88374762Y-44470238D02*
X88517619Y-44422619D01*
X88517619Y-44422619D02*
X88612857Y-44422619D01*
X88612857Y-44422619D02*
X88755714Y-44470238D01*
X88755714Y-44470238D02*
X88803333Y-44517857D01*
X89136667Y-44422619D02*
X89803333Y-44422619D01*
X89803333Y-44422619D02*
X89374762Y-45422619D01*
%TO.C,U2*%
X107388095Y-41962619D02*
X107388095Y-42772142D01*
X107388095Y-42772142D02*
X107435714Y-42867380D01*
X107435714Y-42867380D02*
X107483333Y-42915000D01*
X107483333Y-42915000D02*
X107578571Y-42962619D01*
X107578571Y-42962619D02*
X107769047Y-42962619D01*
X107769047Y-42962619D02*
X107864285Y-42915000D01*
X107864285Y-42915000D02*
X107911904Y-42867380D01*
X107911904Y-42867380D02*
X107959523Y-42772142D01*
X107959523Y-42772142D02*
X107959523Y-41962619D01*
X108388095Y-42057857D02*
X108435714Y-42010238D01*
X108435714Y-42010238D02*
X108530952Y-41962619D01*
X108530952Y-41962619D02*
X108769047Y-41962619D01*
X108769047Y-41962619D02*
X108864285Y-42010238D01*
X108864285Y-42010238D02*
X108911904Y-42057857D01*
X108911904Y-42057857D02*
X108959523Y-42153095D01*
X108959523Y-42153095D02*
X108959523Y-42248333D01*
X108959523Y-42248333D02*
X108911904Y-42391190D01*
X108911904Y-42391190D02*
X108340476Y-42962619D01*
X108340476Y-42962619D02*
X108959523Y-42962619D01*
%TO.C,R3*%
X115633333Y-45112619D02*
X115300000Y-44636428D01*
X115061905Y-45112619D02*
X115061905Y-44112619D01*
X115061905Y-44112619D02*
X115442857Y-44112619D01*
X115442857Y-44112619D02*
X115538095Y-44160238D01*
X115538095Y-44160238D02*
X115585714Y-44207857D01*
X115585714Y-44207857D02*
X115633333Y-44303095D01*
X115633333Y-44303095D02*
X115633333Y-44445952D01*
X115633333Y-44445952D02*
X115585714Y-44541190D01*
X115585714Y-44541190D02*
X115538095Y-44588809D01*
X115538095Y-44588809D02*
X115442857Y-44636428D01*
X115442857Y-44636428D02*
X115061905Y-44636428D01*
X115966667Y-44112619D02*
X116585714Y-44112619D01*
X116585714Y-44112619D02*
X116252381Y-44493571D01*
X116252381Y-44493571D02*
X116395238Y-44493571D01*
X116395238Y-44493571D02*
X116490476Y-44541190D01*
X116490476Y-44541190D02*
X116538095Y-44588809D01*
X116538095Y-44588809D02*
X116585714Y-44684047D01*
X116585714Y-44684047D02*
X116585714Y-44922142D01*
X116585714Y-44922142D02*
X116538095Y-45017380D01*
X116538095Y-45017380D02*
X116490476Y-45065000D01*
X116490476Y-45065000D02*
X116395238Y-45112619D01*
X116395238Y-45112619D02*
X116109524Y-45112619D01*
X116109524Y-45112619D02*
X116014286Y-45065000D01*
X116014286Y-45065000D02*
X115966667Y-45017380D01*
%TO.C,C12*%
X99957142Y-43167380D02*
X99909523Y-43215000D01*
X99909523Y-43215000D02*
X99766666Y-43262619D01*
X99766666Y-43262619D02*
X99671428Y-43262619D01*
X99671428Y-43262619D02*
X99528571Y-43215000D01*
X99528571Y-43215000D02*
X99433333Y-43119761D01*
X99433333Y-43119761D02*
X99385714Y-43024523D01*
X99385714Y-43024523D02*
X99338095Y-42834047D01*
X99338095Y-42834047D02*
X99338095Y-42691190D01*
X99338095Y-42691190D02*
X99385714Y-42500714D01*
X99385714Y-42500714D02*
X99433333Y-42405476D01*
X99433333Y-42405476D02*
X99528571Y-42310238D01*
X99528571Y-42310238D02*
X99671428Y-42262619D01*
X99671428Y-42262619D02*
X99766666Y-42262619D01*
X99766666Y-42262619D02*
X99909523Y-42310238D01*
X99909523Y-42310238D02*
X99957142Y-42357857D01*
X100909523Y-43262619D02*
X100338095Y-43262619D01*
X100623809Y-43262619D02*
X100623809Y-42262619D01*
X100623809Y-42262619D02*
X100528571Y-42405476D01*
X100528571Y-42405476D02*
X100433333Y-42500714D01*
X100433333Y-42500714D02*
X100338095Y-42548333D01*
X101290476Y-42357857D02*
X101338095Y-42310238D01*
X101338095Y-42310238D02*
X101433333Y-42262619D01*
X101433333Y-42262619D02*
X101671428Y-42262619D01*
X101671428Y-42262619D02*
X101766666Y-42310238D01*
X101766666Y-42310238D02*
X101814285Y-42357857D01*
X101814285Y-42357857D02*
X101861904Y-42453095D01*
X101861904Y-42453095D02*
X101861904Y-42548333D01*
X101861904Y-42548333D02*
X101814285Y-42691190D01*
X101814285Y-42691190D02*
X101242857Y-43262619D01*
X101242857Y-43262619D02*
X101861904Y-43262619D01*
D13*
%TO.C,Y2*%
X87650000Y-36500000D02*
X84350000Y-36500000D01*
X84350000Y-36500000D02*
X84350000Y-40500000D01*
%TO.C,C7*%
X89077836Y-44160000D02*
X88862164Y-44160000D01*
X89077836Y-43440000D02*
X88862164Y-43440000D01*
%TO.C,J8*%
X82042000Y-32572000D02*
X82042000Y-29912000D01*
X79442000Y-32572000D02*
X79442000Y-31242000D01*
X82042000Y-29912000D02*
X87182000Y-29912000D01*
X80772000Y-32572000D02*
X79442000Y-32572000D01*
X82042000Y-32572000D02*
X87182000Y-32572000D01*
X87182000Y-32572000D02*
X87182000Y-29912000D01*
%TO.C,J5*%
X83506000Y-51756000D02*
X83506000Y-54416000D01*
X88646000Y-51756000D02*
X83506000Y-51756000D01*
X89916000Y-51756000D02*
X91246000Y-51756000D01*
X88646000Y-54416000D02*
X83506000Y-54416000D01*
X91246000Y-51756000D02*
X91246000Y-53086000D01*
X88646000Y-51756000D02*
X88646000Y-54416000D01*
%TO.C,U2*%
X105590000Y-52560000D02*
X106850000Y-52560000D01*
X112410000Y-52560000D02*
X111150000Y-52560000D01*
X105590000Y-48800000D02*
X105590000Y-52560000D01*
X112410000Y-46550000D02*
X112410000Y-52560000D01*
%TO.C,J7*%
X106450000Y-24770000D02*
X116670000Y-24770000D01*
X103850000Y-27430000D02*
X103850000Y-26100000D01*
X106450000Y-27430000D02*
X116670000Y-27430000D01*
X116670000Y-27430000D02*
X116670000Y-24770000D01*
X106450000Y-27430000D02*
X106450000Y-24770000D01*
X105180000Y-27430000D02*
X103850000Y-27430000D01*
%TO.C,J6*%
X97550000Y-49730000D02*
X87330000Y-49730000D01*
X100150000Y-47070000D02*
X100150000Y-48400000D01*
X97550000Y-47070000D02*
X87330000Y-47070000D01*
X87330000Y-47070000D02*
X87330000Y-49730000D01*
X97550000Y-47070000D02*
X97550000Y-49730000D01*
X98820000Y-47070000D02*
X100150000Y-47070000D01*
%TO.C,J3*%
X87400000Y-27430000D02*
X79720000Y-27430000D01*
X88670000Y-24770000D02*
X90000000Y-24770000D01*
X79720000Y-24770000D02*
X79720000Y-27430000D01*
X87400000Y-24770000D02*
X87400000Y-27430000D01*
X90000000Y-24770000D02*
X90000000Y-26100000D01*
X87400000Y-24770000D02*
X79720000Y-24770000D01*
%TO.C,J4*%
X96266000Y-51756000D02*
X103946000Y-51756000D01*
X94996000Y-54416000D02*
X93666000Y-54416000D01*
X103946000Y-54416000D02*
X103946000Y-51756000D01*
X96266000Y-54416000D02*
X96266000Y-51756000D01*
X93666000Y-54416000D02*
X93666000Y-53086000D01*
X96266000Y-54416000D02*
X103946000Y-54416000D01*
%TO.C,SW1*%
X117350000Y-51950000D02*
X118640000Y-51950000D01*
X116340000Y-47100000D02*
X115550000Y-47100000D01*
X114500000Y-49150000D02*
X114500000Y-48950000D01*
X117350000Y-53400000D02*
X117350000Y-47700000D01*
X118850000Y-51750000D02*
X118850000Y-50850000D01*
X115550000Y-54000000D02*
X116340000Y-54000000D01*
X118640000Y-50650000D02*
X118850000Y-50850000D01*
X118640000Y-50650000D02*
X117350000Y-50650000D01*
X118640000Y-51950000D02*
X118850000Y-51750000D01*
X114500000Y-52150000D02*
X114500000Y-50450000D01*
%TO.C,C8*%
X86107836Y-43860000D02*
X85892164Y-43860000D01*
X86107836Y-43140000D02*
X85892164Y-43140000D01*
%TO.C,C6*%
X89556000Y-39488164D02*
X89556000Y-39703836D01*
X90276000Y-39488164D02*
X90276000Y-39703836D01*
%TO.C,C4*%
X98087836Y-44360000D02*
X97872164Y-44360000D01*
X98087836Y-43640000D02*
X97872164Y-43640000D01*
%TO.C,C11*%
X88860000Y-39432164D02*
X88860000Y-39647836D01*
X88140000Y-39432164D02*
X88140000Y-39647836D01*
%TO.C,C5*%
X102940580Y-47660000D02*
X102659420Y-47660000D01*
X102940580Y-46640000D02*
X102659420Y-46640000D01*
%TO.C,C3*%
X101440000Y-35007836D02*
X101440000Y-34792164D01*
X102160000Y-35007836D02*
X102160000Y-34792164D01*
%TO.C,FB1*%
X86300279Y-45960000D02*
X85974721Y-45960000D01*
X86300279Y-44940000D02*
X85974721Y-44940000D01*
%TO.C,R3*%
X111456359Y-44980000D02*
X111763641Y-44980000D01*
X111456359Y-44220000D02*
X111763641Y-44220000D01*
%TO.C,C13*%
X103061252Y-48465000D02*
X102538748Y-48465000D01*
X103061252Y-49935000D02*
X102538748Y-49935000D01*
%TO.C,C10*%
X88860000Y-37412164D02*
X88860000Y-37627836D01*
X88140000Y-37412164D02*
X88140000Y-37627836D01*
%TO.C,C9*%
X86360000Y-41672164D02*
X86360000Y-41887836D01*
X85640000Y-41672164D02*
X85640000Y-41887836D01*
%TO.C,C1*%
X89390000Y-35137836D02*
X89390000Y-34922164D01*
X90110000Y-35137836D02*
X90110000Y-34922164D01*
%TO.C,U1*%
X99360000Y-41772500D02*
X99360000Y-41322500D01*
X99360000Y-34552500D02*
X99360000Y-35002500D01*
X98910000Y-41772500D02*
X99360000Y-41772500D01*
X98910000Y-34552500D02*
X99360000Y-34552500D01*
X92590000Y-41772500D02*
X92140000Y-41772500D01*
X92590000Y-34552500D02*
X92140000Y-34552500D01*
X92140000Y-41772500D02*
X92140000Y-41322500D01*
X92140000Y-35002500D02*
X90850000Y-35002500D01*
X92140000Y-34552500D02*
X92140000Y-35002500D01*
D11*
%TO.C,J1*%
X112450000Y-41000000D02*
X113850000Y-41000000D01*
X116250000Y-41000000D02*
X116400000Y-41000000D01*
X116400000Y-41000000D02*
X116400000Y-40700000D01*
X116400000Y-40700000D02*
X116850000Y-40700000D01*
X110275000Y-38650000D02*
X110700000Y-38650000D01*
X110700000Y-38650000D02*
X110700000Y-39650000D01*
X110275000Y-37925000D02*
X110275000Y-38650000D01*
X110700000Y-35050000D02*
X110700000Y-34050000D01*
X116400000Y-33000000D02*
X116400000Y-32700000D01*
X116850000Y-33000000D02*
X116400000Y-33000000D01*
X113850000Y-32700000D02*
X112450000Y-32700000D01*
X116400000Y-32700000D02*
X116250000Y-32700000D01*
D13*
%TO.C,D1*%
X112612500Y-42365000D02*
X110327500Y-42365000D01*
X110327500Y-43835000D02*
X112612500Y-43835000D01*
X110327500Y-42365000D02*
X110327500Y-43835000D01*
%TO.C,J2*%
X101892000Y-24770000D02*
X101892000Y-26100000D01*
X100562000Y-24770000D02*
X101892000Y-24770000D01*
X99292000Y-24770000D02*
X91612000Y-24770000D01*
X99292000Y-24770000D02*
X99292000Y-27430000D01*
X91612000Y-24770000D02*
X91612000Y-27430000D01*
X99292000Y-27430000D02*
X91612000Y-27430000D01*
%TO.C,C12*%
X106011252Y-44165000D02*
X105488748Y-44165000D01*
X106011252Y-45635000D02*
X105488748Y-45635000D01*
%TO.C,R1*%
X100227641Y-31370000D02*
X99920359Y-31370000D01*
X100227641Y-32130000D02*
X99920359Y-32130000D01*
%TO.C,C2*%
X93392164Y-31640000D02*
X93607836Y-31640000D01*
X93392164Y-32360000D02*
X93607836Y-32360000D01*
%TO.C,R2*%
X106670000Y-36363641D02*
X106670000Y-36056359D01*
X107430000Y-36363641D02*
X107430000Y-36056359D01*
%TD*%
M02*
