%TF.GenerationSoftware,KiCad,Pcbnew,7.0.1-0*%
%TF.CreationDate,2023-10-24T00:04:38+02:00*%
%TF.ProjectId,SMT-32,534d542d-3332-42e6-9b69-6361645f7063,rev?*%
%TF.SameCoordinates,Original*%
%TF.FileFunction,Copper,L3,Inr*%
%TF.FilePolarity,Positive*%
%FSLAX46Y46*%
G04 Gerber Fmt 4.6, Leading zero omitted, Abs format (unit mm)*
G04 Created by KiCad (PCBNEW 7.0.1-0) date 2023-10-24 00:04:38*
%MOMM*%
%LPD*%
G01*
G04 APERTURE LIST*
%TA.AperFunction,ComponentPad*%
%ADD10O,1.700000X1.700000*%
%TD*%
%TA.AperFunction,ComponentPad*%
%ADD11R,1.700000X1.700000*%
%TD*%
%TA.AperFunction,ComponentPad*%
%ADD12O,1.800000X1.150000*%
%TD*%
%TA.AperFunction,ComponentPad*%
%ADD13O,2.000000X1.450000*%
%TD*%
%TA.AperFunction,ViaPad*%
%ADD14C,0.800000*%
%TD*%
%TA.AperFunction,ViaPad*%
%ADD15C,1.000000*%
%TD*%
G04 APERTURE END LIST*
D10*
%TO.N,/Pin 2*%
%TO.C,J8*%
X85852000Y-31242000D03*
%TO.N,/Pin 3*%
X83312000Y-31242000D03*
D11*
%TO.N,/Pin 4*%
X80772000Y-31242000D03*
%TD*%
%TO.N,/ADC_12*%
%TO.C,J5*%
X89916000Y-53086000D03*
D10*
%TO.N,/ADC_11*%
X87376000Y-53086000D03*
%TO.N,unconnected-(J5-Pin_3-Pad3)*%
X84836000Y-53086000D03*
%TD*%
D11*
%TO.N,GND*%
%TO.C,J7*%
X105180000Y-26100000D03*
D10*
%TO.N,/SPI_2_MOSI*%
X107720000Y-26100000D03*
%TO.N,/SPI_2_MISO*%
X110260000Y-26100000D03*
%TO.N,/SPI_2_SCK*%
X112800000Y-26100000D03*
%TO.N,+3.3V*%
X115340000Y-26100000D03*
%TD*%
D11*
%TO.N,GND*%
%TO.C,J6*%
X98820000Y-48400000D03*
D10*
%TO.N,/SPI_1_MOSI*%
X96280000Y-48400000D03*
%TO.N,/SPI_1_MISO*%
X93740000Y-48400000D03*
%TO.N,/SPI_1_SCK*%
X91200000Y-48400000D03*
%TO.N,+3.3V*%
X88660000Y-48400000D03*
%TD*%
D11*
%TO.N,+3.3V*%
%TO.C,J3*%
X88670000Y-26100000D03*
D10*
%TO.N,URAT_1_TX*%
X86130000Y-26100000D03*
%TO.N,URAT_1_RX*%
X83590000Y-26100000D03*
%TO.N,GND*%
X81050000Y-26100000D03*
%TD*%
D11*
%TO.N,+3.3V*%
%TO.C,J4*%
X94996000Y-53086000D03*
D10*
%TO.N,/I2C_SCL*%
X97536000Y-53086000D03*
%TO.N,/I2C_SDA*%
X100076000Y-53086000D03*
%TO.N,GND*%
X102616000Y-53086000D03*
%TD*%
D12*
%TO.N,unconnected-(J1-Shield-Pad6)*%
%TO.C,J1*%
X115050000Y-40725000D03*
D13*
X111250000Y-40575000D03*
X111250000Y-33125000D03*
D12*
X115050000Y-32975000D03*
%TD*%
D11*
%TO.N,+3.3V*%
%TO.C,J2*%
X100562000Y-26100000D03*
D10*
%TO.N,/SWDIO*%
X98022000Y-26100000D03*
%TO.N,/SWCLK*%
X95482000Y-26100000D03*
%TO.N,GND*%
X92942000Y-26100000D03*
%TD*%
D14*
%TO.N,GND*%
X102700000Y-43050000D03*
%TO.N,/I2C_SDA*%
X95750000Y-40600000D03*
%TO.N,+3.3V*%
X102950000Y-35200000D03*
X91500000Y-31500000D03*
%TO.N,GND*%
X93550000Y-30850000D03*
D15*
%TO.N,+3.3V*%
X113350000Y-47100000D03*
X94900000Y-50750000D03*
X114500000Y-28950000D03*
X116250000Y-28950000D03*
X102800000Y-25650000D03*
X90550000Y-25100000D03*
X90450000Y-27450000D03*
X102150000Y-28550000D03*
D14*
X108650000Y-49550000D03*
D15*
X110000000Y-52100000D03*
X107550000Y-52100000D03*
X106350000Y-53750000D03*
X111600000Y-53700000D03*
D14*
X106500000Y-34450000D03*
%TO.N,GND*%
X101450000Y-45650000D03*
%TO.N,/Pin 3*%
X97700000Y-37450000D03*
%TO.N,/Pin 4*%
X96600000Y-38400000D03*
%TO.N,/SW_Boot0*%
X101900000Y-32850000D03*
X115700000Y-50550000D03*
%TO.N,GND*%
X80250000Y-40000000D03*
X113150000Y-35800000D03*
X111150000Y-50100000D03*
X114200000Y-51650000D03*
X101200000Y-50900000D03*
X103000000Y-50900000D03*
X98850000Y-50700000D03*
X80700000Y-28400000D03*
X96600000Y-29450000D03*
X104300000Y-28750000D03*
X109350000Y-44700000D03*
%TO.N,+3.3V*%
X82500000Y-44900000D03*
%TO.N,/SPI_2_SCK*%
X106850000Y-38900000D03*
%TO.N,/SPI_2_MISO*%
X104300000Y-38500000D03*
X107700000Y-30450000D03*
%TO.N,/SPI_2_MOSI*%
X102250000Y-38400000D03*
%TO.N,/BOOT0*%
X100076000Y-33274000D03*
X96774000Y-35814000D03*
%TO.N,URAT_1_TX*%
X96774000Y-31496000D03*
%TO.N,GND*%
X94234000Y-39624000D03*
%TO.N,/NRST*%
X95504000Y-39116000D03*
%TO.N,GND*%
X90170000Y-42418000D03*
%TO.N,/NRST*%
X82296000Y-40386000D03*
%TO.N,/ADC_11*%
X93218000Y-40894000D03*
%TO.N,+3.3V*%
X86614000Y-35052000D03*
%TO.N,/I2C_SDA*%
X98806000Y-45720000D03*
%TO.N,GND*%
X102950000Y-34000000D03*
X88200000Y-34400000D03*
X98350000Y-36100000D03*
X97400000Y-39750000D03*
X94400000Y-36200000D03*
X87900000Y-42700000D03*
X84200000Y-43500000D03*
X84500000Y-42200000D03*
X113500000Y-44700000D03*
%TO.N,+3.3V*%
X114700000Y-42200000D03*
%TD*%
%TA.AperFunction,Conductor*%
%TO.N,+3.3V*%
G36*
X117937500Y-23467113D02*
G01*
X117982887Y-23512500D01*
X117999500Y-23574500D01*
X117999500Y-55819827D01*
X117982787Y-55882000D01*
X117937153Y-55927414D01*
X117874903Y-55943825D01*
X117272727Y-55940909D01*
X78123900Y-55751326D01*
X78062154Y-55734513D01*
X78017013Y-55689154D01*
X78000500Y-55627327D01*
X78000500Y-53086000D01*
X83480340Y-53086000D01*
X83500936Y-53321407D01*
X83545709Y-53488502D01*
X83562097Y-53549663D01*
X83661965Y-53763830D01*
X83797505Y-53957401D01*
X83964599Y-54124495D01*
X84158170Y-54260035D01*
X84372337Y-54359903D01*
X84600592Y-54421063D01*
X84836000Y-54441659D01*
X85071408Y-54421063D01*
X85299663Y-54359903D01*
X85513830Y-54260035D01*
X85707401Y-54124495D01*
X85874495Y-53957401D01*
X86004426Y-53771839D01*
X86048743Y-53732975D01*
X86106000Y-53718964D01*
X86163257Y-53732975D01*
X86207573Y-53771839D01*
X86337505Y-53957401D01*
X86504599Y-54124495D01*
X86698170Y-54260035D01*
X86912337Y-54359903D01*
X87140592Y-54421063D01*
X87376000Y-54441659D01*
X87611408Y-54421063D01*
X87839663Y-54359903D01*
X88053830Y-54260035D01*
X88247401Y-54124495D01*
X88369329Y-54002566D01*
X88422072Y-53971273D01*
X88483365Y-53969084D01*
X88538209Y-53996537D01*
X88573189Y-54046916D01*
X88622204Y-54178331D01*
X88708454Y-54293546D01*
X88823669Y-54379796D01*
X88958517Y-54430091D01*
X89018127Y-54436500D01*
X90813872Y-54436499D01*
X90873483Y-54430091D01*
X91008331Y-54379796D01*
X91123546Y-54293546D01*
X91209796Y-54178331D01*
X91260091Y-54043483D01*
X91266500Y-53983873D01*
X91266499Y-53336000D01*
X93646000Y-53336000D01*
X93646000Y-53983824D01*
X93652402Y-54043375D01*
X93702647Y-54178089D01*
X93788811Y-54293188D01*
X93903910Y-54379352D01*
X94038624Y-54429597D01*
X94098176Y-54436000D01*
X94746000Y-54436000D01*
X95246000Y-54436000D01*
X95893824Y-54436000D01*
X95953375Y-54429597D01*
X96088089Y-54379352D01*
X96203188Y-54293188D01*
X96289352Y-54178089D01*
X96338422Y-54046528D01*
X96373401Y-53996149D01*
X96428246Y-53968696D01*
X96489539Y-53970885D01*
X96542285Y-54002181D01*
X96664599Y-54124495D01*
X96858170Y-54260035D01*
X97072337Y-54359903D01*
X97300592Y-54421063D01*
X97536000Y-54441659D01*
X97771408Y-54421063D01*
X97999663Y-54359903D01*
X98213830Y-54260035D01*
X98407401Y-54124495D01*
X98574495Y-53957401D01*
X98704426Y-53771839D01*
X98748743Y-53732975D01*
X98806000Y-53718964D01*
X98863257Y-53732975D01*
X98907573Y-53771839D01*
X99037505Y-53957401D01*
X99204599Y-54124495D01*
X99398170Y-54260035D01*
X99612337Y-54359903D01*
X99840592Y-54421063D01*
X100076000Y-54441659D01*
X100311408Y-54421063D01*
X100539663Y-54359903D01*
X100753830Y-54260035D01*
X100947401Y-54124495D01*
X101114495Y-53957401D01*
X101244426Y-53771839D01*
X101288743Y-53732975D01*
X101346000Y-53718964D01*
X101403257Y-53732975D01*
X101447573Y-53771839D01*
X101577505Y-53957401D01*
X101744599Y-54124495D01*
X101938170Y-54260035D01*
X102152337Y-54359903D01*
X102380592Y-54421063D01*
X102616000Y-54441659D01*
X102851408Y-54421063D01*
X103079663Y-54359903D01*
X103293830Y-54260035D01*
X103487401Y-54124495D01*
X103654495Y-53957401D01*
X103790035Y-53763830D01*
X103889903Y-53549663D01*
X103951063Y-53321408D01*
X103971659Y-53086000D01*
X103951063Y-52850592D01*
X103889903Y-52622337D01*
X103790035Y-52408171D01*
X103654495Y-52214599D01*
X103487401Y-52047505D01*
X103336236Y-51941658D01*
X103294752Y-51891999D01*
X103283933Y-51828200D01*
X103306727Y-51767638D01*
X103356924Y-51726806D01*
X103452730Y-51684151D01*
X103452730Y-51684150D01*
X103452732Y-51684150D01*
X103499736Y-51650000D01*
X113294540Y-51650000D01*
X113314326Y-51838257D01*
X113372820Y-52018284D01*
X113467466Y-52182216D01*
X113594129Y-52322889D01*
X113747269Y-52434151D01*
X113920197Y-52511144D01*
X114105352Y-52550500D01*
X114105354Y-52550500D01*
X114294646Y-52550500D01*
X114294648Y-52550500D01*
X114418084Y-52524262D01*
X114479803Y-52511144D01*
X114652730Y-52434151D01*
X114805871Y-52322888D01*
X114932533Y-52182216D01*
X115010307Y-52047508D01*
X115018113Y-52033988D01*
X115063500Y-51988601D01*
X115125500Y-51971988D01*
X115187500Y-51988601D01*
X115232887Y-52033988D01*
X115249500Y-52095988D01*
X115249500Y-52135055D01*
X115290209Y-52300224D01*
X115346865Y-52408171D01*
X115369266Y-52450852D01*
X115482071Y-52578183D01*
X115622070Y-52674818D01*
X115781128Y-52735140D01*
X115907628Y-52750500D01*
X115992371Y-52750500D01*
X115992372Y-52750500D01*
X116118872Y-52735140D01*
X116277930Y-52674818D01*
X116417929Y-52578183D01*
X116530734Y-52450852D01*
X116609790Y-52300225D01*
X116650500Y-52135056D01*
X116650500Y-51964944D01*
X116609790Y-51799775D01*
X116530734Y-51649148D01*
X116417929Y-51521817D01*
X116293562Y-51435972D01*
X116254557Y-51392209D01*
X116240013Y-51335418D01*
X116253183Y-51278293D01*
X116291120Y-51233604D01*
X116305871Y-51222888D01*
X116432533Y-51082216D01*
X116527179Y-50918284D01*
X116585674Y-50738256D01*
X116605460Y-50550000D01*
X116585674Y-50361744D01*
X116541929Y-50227112D01*
X116527179Y-50181715D01*
X116432533Y-50017783D01*
X116305871Y-49877112D01*
X116291558Y-49866713D01*
X116291119Y-49866394D01*
X116253182Y-49821704D01*
X116240013Y-49764579D01*
X116254557Y-49707789D01*
X116293562Y-49664027D01*
X116417929Y-49578183D01*
X116530734Y-49450852D01*
X116609790Y-49300225D01*
X116650500Y-49135056D01*
X116650500Y-48964944D01*
X116609790Y-48799775D01*
X116530734Y-48649148D01*
X116417929Y-48521817D01*
X116417928Y-48521816D01*
X116417927Y-48521815D01*
X116277930Y-48425182D01*
X116118872Y-48364860D01*
X115992372Y-48349500D01*
X115907628Y-48349500D01*
X115844377Y-48357180D01*
X115781127Y-48364860D01*
X115622069Y-48425182D01*
X115482072Y-48521815D01*
X115369265Y-48649149D01*
X115290209Y-48799775D01*
X115274505Y-48863492D01*
X115249500Y-48964944D01*
X115249500Y-49135056D01*
X115249873Y-49136568D01*
X115290209Y-49300224D01*
X115298410Y-49315849D01*
X115362780Y-49438495D01*
X115369267Y-49450853D01*
X115422660Y-49511122D01*
X115449811Y-49561979D01*
X115451029Y-49619617D01*
X115426053Y-49671577D01*
X115380280Y-49706627D01*
X115247269Y-49765848D01*
X115094129Y-49877110D01*
X114967466Y-50017783D01*
X114872820Y-50181715D01*
X114814326Y-50361742D01*
X114794540Y-50550000D01*
X114813878Y-50733994D01*
X114803836Y-50797391D01*
X114763442Y-50847273D01*
X114703518Y-50870276D01*
X114640121Y-50860235D01*
X114611008Y-50847273D01*
X114479803Y-50788856D01*
X114479802Y-50788855D01*
X114479798Y-50788854D01*
X114294648Y-50749500D01*
X114294646Y-50749500D01*
X114105354Y-50749500D01*
X114105352Y-50749500D01*
X113920197Y-50788855D01*
X113747269Y-50865848D01*
X113594129Y-50977110D01*
X113467466Y-51117783D01*
X113372820Y-51281715D01*
X113314326Y-51461742D01*
X113294540Y-51650000D01*
X103499736Y-51650000D01*
X103605870Y-51572889D01*
X103732533Y-51432216D01*
X103827179Y-51268284D01*
X103841930Y-51222886D01*
X103885674Y-51088256D01*
X103905460Y-50900000D01*
X103885674Y-50711744D01*
X103833120Y-50550000D01*
X103827179Y-50531715D01*
X103732533Y-50367783D01*
X103605870Y-50227110D01*
X103452730Y-50115848D01*
X103417133Y-50099999D01*
X110244540Y-50099999D01*
X110264326Y-50288257D01*
X110322820Y-50468284D01*
X110417466Y-50632216D01*
X110544129Y-50772889D01*
X110697269Y-50884151D01*
X110870197Y-50961144D01*
X111055352Y-51000500D01*
X111055354Y-51000500D01*
X111244646Y-51000500D01*
X111244648Y-51000500D01*
X111368083Y-50974262D01*
X111429803Y-50961144D01*
X111602730Y-50884151D01*
X111652419Y-50848050D01*
X111755870Y-50772889D01*
X111882533Y-50632216D01*
X111977179Y-50468284D01*
X111977178Y-50468284D01*
X112035674Y-50288256D01*
X112055460Y-50100000D01*
X112035674Y-49911744D01*
X112001984Y-49808056D01*
X111977179Y-49731715D01*
X111882533Y-49567783D01*
X111755870Y-49427110D01*
X111602730Y-49315848D01*
X111429802Y-49238855D01*
X111244648Y-49199500D01*
X111244646Y-49199500D01*
X111055354Y-49199500D01*
X111055352Y-49199500D01*
X110870197Y-49238855D01*
X110697269Y-49315848D01*
X110544129Y-49427110D01*
X110417466Y-49567783D01*
X110322820Y-49731715D01*
X110264326Y-49911742D01*
X110244540Y-50099999D01*
X103417133Y-50099999D01*
X103279802Y-50038855D01*
X103094648Y-49999500D01*
X103094646Y-49999500D01*
X102905354Y-49999500D01*
X102905352Y-49999500D01*
X102720197Y-50038855D01*
X102547269Y-50115848D01*
X102394129Y-50227110D01*
X102267466Y-50367784D01*
X102207387Y-50471844D01*
X102162000Y-50517231D01*
X102100000Y-50533844D01*
X102038000Y-50517231D01*
X101992613Y-50471844D01*
X101932533Y-50367784D01*
X101805870Y-50227110D01*
X101652730Y-50115848D01*
X101479802Y-50038855D01*
X101294648Y-49999500D01*
X101294646Y-49999500D01*
X101105354Y-49999500D01*
X101105352Y-49999500D01*
X100920197Y-50038855D01*
X100747269Y-50115848D01*
X100594129Y-50227110D01*
X100467466Y-50367783D01*
X100372820Y-50531715D01*
X100314326Y-50711742D01*
X100294540Y-50900000D01*
X100314326Y-51088257D01*
X100372820Y-51268284D01*
X100467466Y-51432216D01*
X100594129Y-51572889D01*
X100606298Y-51581730D01*
X100648221Y-51635196D01*
X100655677Y-51702727D01*
X100626427Y-51764051D01*
X100569253Y-51800756D01*
X100501320Y-51801823D01*
X100311407Y-51750936D01*
X100076000Y-51730340D01*
X99840592Y-51750936D01*
X99612336Y-51812097D01*
X99398170Y-51911965D01*
X99204598Y-52047505D01*
X99037505Y-52214598D01*
X98907575Y-52400159D01*
X98863257Y-52439025D01*
X98806000Y-52453036D01*
X98748743Y-52439025D01*
X98704425Y-52400159D01*
X98574494Y-52214598D01*
X98407404Y-52047508D01*
X98407401Y-52047505D01*
X98213830Y-51911965D01*
X97999663Y-51812097D01*
X97927074Y-51792647D01*
X97771407Y-51750936D01*
X97536000Y-51730340D01*
X97300592Y-51750936D01*
X97072336Y-51812097D01*
X96858170Y-51911965D01*
X96664601Y-52047503D01*
X96542285Y-52169819D01*
X96489539Y-52201114D01*
X96428246Y-52203303D01*
X96373401Y-52175850D01*
X96338422Y-52125471D01*
X96289352Y-51993911D01*
X96203188Y-51878811D01*
X96088089Y-51792647D01*
X95953375Y-51742402D01*
X95893824Y-51736000D01*
X95246000Y-51736000D01*
X95246000Y-54436000D01*
X94746000Y-54436000D01*
X94746000Y-53336000D01*
X93646000Y-53336000D01*
X91266499Y-53336000D01*
X91266499Y-52836000D01*
X93646000Y-52836000D01*
X94746000Y-52836000D01*
X94746000Y-51736000D01*
X94098176Y-51736000D01*
X94038624Y-51742402D01*
X93903910Y-51792647D01*
X93788811Y-51878811D01*
X93702647Y-51993910D01*
X93652402Y-52128624D01*
X93646000Y-52188176D01*
X93646000Y-52836000D01*
X91266499Y-52836000D01*
X91266499Y-52188128D01*
X91260091Y-52128517D01*
X91209796Y-51993669D01*
X91123546Y-51878454D01*
X91008331Y-51792204D01*
X90873483Y-51741909D01*
X90813873Y-51735500D01*
X90813869Y-51735500D01*
X89018130Y-51735500D01*
X88958515Y-51741909D01*
X88823669Y-51792204D01*
X88708454Y-51878454D01*
X88622204Y-51993669D01*
X88573189Y-52125083D01*
X88538209Y-52175462D01*
X88483365Y-52202915D01*
X88422072Y-52200726D01*
X88369326Y-52169430D01*
X88247404Y-52047508D01*
X88247401Y-52047505D01*
X88053830Y-51911965D01*
X87839663Y-51812097D01*
X87767074Y-51792647D01*
X87611407Y-51750936D01*
X87376000Y-51730340D01*
X87140592Y-51750936D01*
X86912336Y-51812097D01*
X86698170Y-51911965D01*
X86504598Y-52047505D01*
X86337505Y-52214598D01*
X86207575Y-52400159D01*
X86163257Y-52439025D01*
X86106000Y-52453036D01*
X86048743Y-52439025D01*
X86004425Y-52400159D01*
X85874494Y-52214598D01*
X85707404Y-52047508D01*
X85707401Y-52047505D01*
X85513830Y-51911965D01*
X85299663Y-51812097D01*
X85227074Y-51792647D01*
X85071407Y-51750936D01*
X84836000Y-51730340D01*
X84600592Y-51750936D01*
X84372336Y-51812097D01*
X84158170Y-51911965D01*
X83964598Y-52047505D01*
X83797505Y-52214598D01*
X83661965Y-52408170D01*
X83562097Y-52622336D01*
X83500936Y-52850592D01*
X83480340Y-53086000D01*
X78000500Y-53086000D01*
X78000500Y-48005999D01*
X79720531Y-48005999D01*
X79740364Y-48232689D01*
X79799261Y-48452497D01*
X79895432Y-48658735D01*
X80025953Y-48845140D01*
X80186859Y-49006046D01*
X80373264Y-49136567D01*
X80373265Y-49136567D01*
X80373266Y-49136568D01*
X80579504Y-49232739D01*
X80799308Y-49291635D01*
X80870609Y-49297873D01*
X80969214Y-49306500D01*
X80969216Y-49306500D01*
X81082784Y-49306500D01*
X81082786Y-49306500D01*
X81154519Y-49300224D01*
X81252692Y-49291635D01*
X81472496Y-49232739D01*
X81678734Y-49136568D01*
X81865139Y-49006047D01*
X82026047Y-48845139D01*
X82156568Y-48658734D01*
X82160641Y-48650000D01*
X87329364Y-48650000D01*
X87386569Y-48863492D01*
X87486399Y-49077576D01*
X87621893Y-49271081D01*
X87788918Y-49438106D01*
X87982423Y-49573600D01*
X88196507Y-49673430D01*
X88409999Y-49730635D01*
X88410000Y-49730636D01*
X88410000Y-49730635D01*
X88910000Y-49730635D01*
X89123492Y-49673430D01*
X89337576Y-49573600D01*
X89531081Y-49438106D01*
X89698109Y-49271078D01*
X89828119Y-49085405D01*
X89872437Y-49046539D01*
X89929694Y-49032528D01*
X89986951Y-49046539D01*
X90031267Y-49085402D01*
X90161505Y-49271401D01*
X90328599Y-49438495D01*
X90522170Y-49574035D01*
X90736337Y-49673903D01*
X90964592Y-49735063D01*
X91200000Y-49755659D01*
X91435408Y-49735063D01*
X91663663Y-49673903D01*
X91877830Y-49574035D01*
X92071401Y-49438495D01*
X92238495Y-49271401D01*
X92368426Y-49085839D01*
X92412743Y-49046975D01*
X92470000Y-49032964D01*
X92527257Y-49046975D01*
X92571573Y-49085839D01*
X92701505Y-49271401D01*
X92868599Y-49438495D01*
X93062170Y-49574035D01*
X93276337Y-49673903D01*
X93504592Y-49735063D01*
X93740000Y-49755659D01*
X93975408Y-49735063D01*
X94203663Y-49673903D01*
X94417830Y-49574035D01*
X94611401Y-49438495D01*
X94778495Y-49271401D01*
X94908426Y-49085839D01*
X94952743Y-49046975D01*
X95010000Y-49032964D01*
X95067257Y-49046975D01*
X95111573Y-49085839D01*
X95241505Y-49271401D01*
X95408599Y-49438495D01*
X95602170Y-49574035D01*
X95816337Y-49673903D01*
X96044592Y-49735063D01*
X96280000Y-49755659D01*
X96515408Y-49735063D01*
X96743663Y-49673903D01*
X96957830Y-49574035D01*
X97151401Y-49438495D01*
X97273329Y-49316566D01*
X97326072Y-49285273D01*
X97387365Y-49283084D01*
X97442209Y-49310537D01*
X97477189Y-49360916D01*
X97526204Y-49492331D01*
X97612454Y-49607546D01*
X97727669Y-49693796D01*
X97862517Y-49744091D01*
X97922127Y-49750500D01*
X98243222Y-49750499D01*
X98302956Y-49765837D01*
X98347915Y-49808056D01*
X98366974Y-49866712D01*
X98355418Y-49927295D01*
X98316106Y-49974816D01*
X98244129Y-50027111D01*
X98117466Y-50167783D01*
X98022820Y-50331715D01*
X97964326Y-50511742D01*
X97944540Y-50699999D01*
X97964326Y-50888257D01*
X98022820Y-51068284D01*
X98117466Y-51232216D01*
X98244129Y-51372889D01*
X98397269Y-51484151D01*
X98570197Y-51561144D01*
X98755352Y-51600500D01*
X98755354Y-51600500D01*
X98944646Y-51600500D01*
X98944648Y-51600500D01*
X99074551Y-51572888D01*
X99129803Y-51561144D01*
X99302730Y-51484151D01*
X99333571Y-51461744D01*
X99455870Y-51372889D01*
X99582533Y-51232216D01*
X99677179Y-51068284D01*
X99699203Y-51000500D01*
X99735674Y-50888256D01*
X99755460Y-50700000D01*
X99735674Y-50511744D01*
X99677179Y-50331716D01*
X99677179Y-50331715D01*
X99582533Y-50167783D01*
X99455870Y-50027110D01*
X99383894Y-49974817D01*
X99344580Y-49927296D01*
X99333024Y-49866713D01*
X99352082Y-49808056D01*
X99397042Y-49765837D01*
X99456778Y-49750499D01*
X99717872Y-49750499D01*
X99777483Y-49744091D01*
X99912331Y-49693796D01*
X100027546Y-49607546D01*
X100113796Y-49492331D01*
X100164091Y-49357483D01*
X100170500Y-49297873D01*
X100170499Y-47502128D01*
X100164091Y-47442517D01*
X100113796Y-47307669D01*
X100027546Y-47192454D01*
X99912331Y-47106204D01*
X99777483Y-47055909D01*
X99717873Y-47049500D01*
X99717869Y-47049500D01*
X97922130Y-47049500D01*
X97862515Y-47055909D01*
X97727669Y-47106204D01*
X97612454Y-47192454D01*
X97526204Y-47307669D01*
X97477189Y-47439083D01*
X97442209Y-47489462D01*
X97387365Y-47516915D01*
X97326072Y-47514726D01*
X97273326Y-47483430D01*
X97151404Y-47361508D01*
X97151404Y-47361507D01*
X97151401Y-47361505D01*
X96957830Y-47225965D01*
X96743663Y-47126097D01*
X96682502Y-47109709D01*
X96515407Y-47064936D01*
X96280000Y-47044340D01*
X96044592Y-47064936D01*
X95816336Y-47126097D01*
X95602170Y-47225965D01*
X95408598Y-47361505D01*
X95241505Y-47528598D01*
X95111575Y-47714159D01*
X95067257Y-47753025D01*
X95010000Y-47767036D01*
X94952743Y-47753025D01*
X94908425Y-47714159D01*
X94778494Y-47528598D01*
X94611404Y-47361508D01*
X94611404Y-47361507D01*
X94611401Y-47361505D01*
X94417830Y-47225965D01*
X94203663Y-47126097D01*
X94142502Y-47109709D01*
X93975407Y-47064936D01*
X93740000Y-47044340D01*
X93504592Y-47064936D01*
X93276336Y-47126097D01*
X93062170Y-47225965D01*
X92868598Y-47361505D01*
X92701505Y-47528598D01*
X92571575Y-47714159D01*
X92527257Y-47753025D01*
X92470000Y-47767036D01*
X92412743Y-47753025D01*
X92368425Y-47714159D01*
X92238494Y-47528598D01*
X92071404Y-47361508D01*
X92071404Y-47361507D01*
X92071401Y-47361505D01*
X91877830Y-47225965D01*
X91663663Y-47126097D01*
X91602502Y-47109709D01*
X91435407Y-47064936D01*
X91200000Y-47044340D01*
X90964592Y-47064936D01*
X90736336Y-47126097D01*
X90522170Y-47225965D01*
X90328598Y-47361505D01*
X90161508Y-47528595D01*
X90031269Y-47714596D01*
X89986951Y-47753461D01*
X89929694Y-47767472D01*
X89872437Y-47753461D01*
X89828119Y-47714595D01*
X89698109Y-47528921D01*
X89531081Y-47361893D01*
X89337576Y-47226399D01*
X89123492Y-47126569D01*
X88910000Y-47069364D01*
X88910000Y-49730635D01*
X88410000Y-49730635D01*
X88410000Y-48650000D01*
X87329364Y-48650000D01*
X82160641Y-48650000D01*
X82252739Y-48452496D01*
X82311635Y-48232692D01*
X82318870Y-48150000D01*
X87329364Y-48150000D01*
X88410000Y-48150000D01*
X88410000Y-47069364D01*
X88409999Y-47069364D01*
X88196507Y-47126569D01*
X87982421Y-47226400D01*
X87788921Y-47361890D01*
X87621890Y-47528921D01*
X87486400Y-47722421D01*
X87386569Y-47936507D01*
X87329364Y-48149999D01*
X87329364Y-48150000D01*
X82318870Y-48150000D01*
X82331468Y-48006000D01*
X82311635Y-47779308D01*
X82252739Y-47559504D01*
X82156568Y-47353266D01*
X82067736Y-47226400D01*
X82026046Y-47166859D01*
X81865140Y-47005953D01*
X81678735Y-46875432D01*
X81472497Y-46779261D01*
X81252689Y-46720364D01*
X81082786Y-46705500D01*
X81082784Y-46705500D01*
X80969216Y-46705500D01*
X80969214Y-46705500D01*
X80799310Y-46720364D01*
X80579502Y-46779261D01*
X80373264Y-46875432D01*
X80186859Y-47005953D01*
X80025953Y-47166859D01*
X79895432Y-47353264D01*
X79799261Y-47559502D01*
X79740364Y-47779310D01*
X79720531Y-48005999D01*
X78000500Y-48005999D01*
X78000500Y-45720000D01*
X97900540Y-45720000D01*
X97920326Y-45908257D01*
X97978820Y-46088284D01*
X98073466Y-46252216D01*
X98200129Y-46392889D01*
X98353269Y-46504151D01*
X98526197Y-46581144D01*
X98711352Y-46620500D01*
X98711354Y-46620500D01*
X98900646Y-46620500D01*
X98900648Y-46620500D01*
X99024083Y-46594262D01*
X99085803Y-46581144D01*
X99258730Y-46504151D01*
X99411871Y-46392888D01*
X99538533Y-46252216D01*
X99633179Y-46088284D01*
X99691674Y-45908256D01*
X99711460Y-45720000D01*
X99704103Y-45649999D01*
X100544540Y-45649999D01*
X100564326Y-45838257D01*
X100622820Y-46018284D01*
X100717466Y-46182216D01*
X100844129Y-46322889D01*
X100997269Y-46434151D01*
X101170197Y-46511144D01*
X101355352Y-46550500D01*
X101355354Y-46550500D01*
X101544646Y-46550500D01*
X101544648Y-46550500D01*
X101668084Y-46524262D01*
X101729803Y-46511144D01*
X101902730Y-46434151D01*
X102055871Y-46322888D01*
X102182533Y-46182216D01*
X102277179Y-46018284D01*
X102335674Y-45838256D01*
X102355460Y-45650000D01*
X102335674Y-45461744D01*
X102277179Y-45281716D01*
X102277179Y-45281715D01*
X102182533Y-45117783D01*
X102055870Y-44977110D01*
X101902730Y-44865848D01*
X101729802Y-44788855D01*
X101544648Y-44749500D01*
X101544646Y-44749500D01*
X101355354Y-44749500D01*
X101355352Y-44749500D01*
X101170197Y-44788855D01*
X100997269Y-44865848D01*
X100844129Y-44977110D01*
X100717466Y-45117783D01*
X100622820Y-45281715D01*
X100564326Y-45461742D01*
X100544540Y-45649999D01*
X99704103Y-45649999D01*
X99691674Y-45531744D01*
X99633179Y-45351716D01*
X99633179Y-45351715D01*
X99538533Y-45187783D01*
X99411870Y-45047110D01*
X99258730Y-44935848D01*
X99085802Y-44858855D01*
X98900648Y-44819500D01*
X98900646Y-44819500D01*
X98711354Y-44819500D01*
X98711352Y-44819500D01*
X98526197Y-44858855D01*
X98353269Y-44935848D01*
X98200129Y-45047110D01*
X98073466Y-45187783D01*
X97978820Y-45351715D01*
X97920326Y-45531742D01*
X97900540Y-45720000D01*
X78000500Y-45720000D01*
X78000500Y-44700000D01*
X108444540Y-44700000D01*
X108464326Y-44888257D01*
X108522820Y-45068284D01*
X108617466Y-45232216D01*
X108744129Y-45372889D01*
X108897269Y-45484151D01*
X109070197Y-45561144D01*
X109255352Y-45600500D01*
X109255354Y-45600500D01*
X109444646Y-45600500D01*
X109444648Y-45600500D01*
X109568083Y-45574262D01*
X109629803Y-45561144D01*
X109802730Y-45484151D01*
X109833571Y-45461744D01*
X109955870Y-45372889D01*
X110082533Y-45232216D01*
X110177179Y-45068284D01*
X110184059Y-45047110D01*
X110235674Y-44888256D01*
X110255460Y-44700000D01*
X112594540Y-44700000D01*
X112614326Y-44888257D01*
X112672820Y-45068284D01*
X112767466Y-45232216D01*
X112894129Y-45372889D01*
X113047269Y-45484151D01*
X113220197Y-45561144D01*
X113405352Y-45600500D01*
X113405354Y-45600500D01*
X113594646Y-45600500D01*
X113594648Y-45600500D01*
X113718083Y-45574262D01*
X113779803Y-45561144D01*
X113952730Y-45484151D01*
X113983571Y-45461744D01*
X114105870Y-45372889D01*
X114232533Y-45232216D01*
X114327179Y-45068284D01*
X114334059Y-45047110D01*
X114385674Y-44888256D01*
X114405460Y-44700000D01*
X114385674Y-44511744D01*
X114327179Y-44331716D01*
X114327179Y-44331715D01*
X114232533Y-44167783D01*
X114105870Y-44027110D01*
X113952730Y-43915848D01*
X113779802Y-43838855D01*
X113594648Y-43799500D01*
X113594646Y-43799500D01*
X113405354Y-43799500D01*
X113405352Y-43799500D01*
X113220197Y-43838855D01*
X113047269Y-43915848D01*
X112894129Y-44027110D01*
X112767466Y-44167783D01*
X112672820Y-44331715D01*
X112614326Y-44511742D01*
X112594540Y-44700000D01*
X110255460Y-44700000D01*
X110235674Y-44511744D01*
X110177179Y-44331716D01*
X110177179Y-44331715D01*
X110082533Y-44167783D01*
X109955870Y-44027110D01*
X109802730Y-43915848D01*
X109629802Y-43838855D01*
X109444648Y-43799500D01*
X109444646Y-43799500D01*
X109255354Y-43799500D01*
X109255352Y-43799500D01*
X109070197Y-43838855D01*
X108897269Y-43915848D01*
X108744129Y-44027110D01*
X108617466Y-44167783D01*
X108522820Y-44331715D01*
X108464326Y-44511742D01*
X108444540Y-44700000D01*
X78000500Y-44700000D01*
X78000500Y-43500000D01*
X83294540Y-43500000D01*
X83314326Y-43688257D01*
X83372820Y-43868284D01*
X83467466Y-44032216D01*
X83594129Y-44172889D01*
X83747269Y-44284151D01*
X83920197Y-44361144D01*
X84105352Y-44400500D01*
X84105354Y-44400500D01*
X84294646Y-44400500D01*
X84294648Y-44400500D01*
X84418084Y-44374262D01*
X84479803Y-44361144D01*
X84652730Y-44284151D01*
X84805871Y-44172888D01*
X84932533Y-44032216D01*
X85027179Y-43868284D01*
X85085674Y-43688256D01*
X85105460Y-43500000D01*
X85085674Y-43311744D01*
X85027179Y-43131716D01*
X85000983Y-43086344D01*
X84984446Y-43028672D01*
X84996920Y-42969986D01*
X85035484Y-42924026D01*
X85105871Y-42872888D01*
X85232533Y-42732216D01*
X85251133Y-42699999D01*
X86994540Y-42699999D01*
X87014326Y-42888257D01*
X87072820Y-43068284D01*
X87167466Y-43232216D01*
X87294129Y-43372889D01*
X87447269Y-43484151D01*
X87620197Y-43561144D01*
X87805352Y-43600500D01*
X87805354Y-43600500D01*
X87994646Y-43600500D01*
X87994648Y-43600500D01*
X88118083Y-43574262D01*
X88179803Y-43561144D01*
X88352730Y-43484151D01*
X88505871Y-43372888D01*
X88632533Y-43232216D01*
X88727179Y-43068284D01*
X88785674Y-42888256D01*
X88805460Y-42700000D01*
X88785674Y-42511744D01*
X88755215Y-42418000D01*
X89264540Y-42418000D01*
X89284326Y-42606257D01*
X89342820Y-42786284D01*
X89437466Y-42950216D01*
X89564129Y-43090889D01*
X89717269Y-43202151D01*
X89890197Y-43279144D01*
X90075352Y-43318500D01*
X90075354Y-43318500D01*
X90264646Y-43318500D01*
X90264648Y-43318500D01*
X90388083Y-43292262D01*
X90449803Y-43279144D01*
X90622730Y-43202151D01*
X90775871Y-43090888D01*
X90812687Y-43050000D01*
X101794540Y-43050000D01*
X101803128Y-43131714D01*
X101814326Y-43238257D01*
X101872820Y-43418284D01*
X101967466Y-43582216D01*
X102094129Y-43722889D01*
X102247269Y-43834151D01*
X102420197Y-43911144D01*
X102605352Y-43950500D01*
X102605354Y-43950500D01*
X102794646Y-43950500D01*
X102794648Y-43950500D01*
X102918084Y-43924262D01*
X102979803Y-43911144D01*
X103152730Y-43834151D01*
X103305871Y-43722888D01*
X103432533Y-43582216D01*
X103527179Y-43418284D01*
X103585674Y-43238256D01*
X103605460Y-43050000D01*
X103585674Y-42861744D01*
X103527179Y-42681716D01*
X103527179Y-42681715D01*
X103432533Y-42517783D01*
X103305870Y-42377110D01*
X103152730Y-42265848D01*
X102979802Y-42188855D01*
X102794648Y-42149500D01*
X102794646Y-42149500D01*
X102605354Y-42149500D01*
X102605352Y-42149500D01*
X102420197Y-42188855D01*
X102247269Y-42265848D01*
X102094129Y-42377110D01*
X101967466Y-42517783D01*
X101872820Y-42681715D01*
X101814326Y-42861742D01*
X101794540Y-43049999D01*
X101794540Y-43050000D01*
X90812687Y-43050000D01*
X90902533Y-42950216D01*
X90997179Y-42786284D01*
X91055674Y-42606256D01*
X91075460Y-42418000D01*
X91055674Y-42229744D01*
X90997179Y-42049716D01*
X90997179Y-42049715D01*
X90902533Y-41885783D01*
X90775870Y-41745110D01*
X90622730Y-41633848D01*
X90449802Y-41556855D01*
X90264648Y-41517500D01*
X90264646Y-41517500D01*
X90075354Y-41517500D01*
X90075352Y-41517500D01*
X89890197Y-41556855D01*
X89717269Y-41633848D01*
X89564129Y-41745110D01*
X89437466Y-41885783D01*
X89342820Y-42049715D01*
X89284326Y-42229742D01*
X89264540Y-42418000D01*
X88755215Y-42418000D01*
X88727179Y-42331715D01*
X88632533Y-42167783D01*
X88505870Y-42027110D01*
X88352730Y-41915848D01*
X88179802Y-41838855D01*
X87994648Y-41799500D01*
X87994646Y-41799500D01*
X87805354Y-41799500D01*
X87805352Y-41799500D01*
X87620197Y-41838855D01*
X87447269Y-41915848D01*
X87294129Y-42027110D01*
X87167466Y-42167783D01*
X87072820Y-42331715D01*
X87014326Y-42511742D01*
X86994540Y-42699999D01*
X85251133Y-42699999D01*
X85327179Y-42568284D01*
X85385674Y-42388256D01*
X85405460Y-42200000D01*
X85385674Y-42011744D01*
X85327179Y-41831716D01*
X85327179Y-41831715D01*
X85232533Y-41667783D01*
X85105870Y-41527110D01*
X84952730Y-41415848D01*
X84779802Y-41338855D01*
X84594648Y-41299500D01*
X84594646Y-41299500D01*
X84405354Y-41299500D01*
X84405352Y-41299500D01*
X84220197Y-41338855D01*
X84047269Y-41415848D01*
X83894129Y-41527110D01*
X83767466Y-41667783D01*
X83672820Y-41831715D01*
X83614326Y-42011742D01*
X83594540Y-42200000D01*
X83614326Y-42388257D01*
X83672820Y-42568284D01*
X83699016Y-42613656D01*
X83715553Y-42671329D01*
X83703079Y-42730014D01*
X83664514Y-42775974D01*
X83594129Y-42827110D01*
X83467466Y-42967783D01*
X83372820Y-43131715D01*
X83314326Y-43311742D01*
X83294540Y-43500000D01*
X78000500Y-43500000D01*
X78000500Y-40000000D01*
X79344540Y-40000000D01*
X79364326Y-40188257D01*
X79422820Y-40368284D01*
X79517466Y-40532216D01*
X79644129Y-40672889D01*
X79797269Y-40784151D01*
X79970197Y-40861144D01*
X80155352Y-40900500D01*
X80155354Y-40900500D01*
X80344646Y-40900500D01*
X80344648Y-40900500D01*
X80468084Y-40874262D01*
X80529803Y-40861144D01*
X80702730Y-40784151D01*
X80763268Y-40740168D01*
X80855870Y-40672889D01*
X80982533Y-40532216D01*
X81066951Y-40386000D01*
X81390540Y-40386000D01*
X81410326Y-40574257D01*
X81468820Y-40754284D01*
X81563466Y-40918216D01*
X81690129Y-41058889D01*
X81843269Y-41170151D01*
X82016197Y-41247144D01*
X82201352Y-41286500D01*
X82201354Y-41286500D01*
X82390646Y-41286500D01*
X82390648Y-41286500D01*
X82514083Y-41260262D01*
X82575803Y-41247144D01*
X82748730Y-41170151D01*
X82869708Y-41082256D01*
X82901870Y-41058889D01*
X83028533Y-40918216D01*
X83042514Y-40894000D01*
X92312540Y-40894000D01*
X92332326Y-41082257D01*
X92390820Y-41262284D01*
X92485466Y-41426216D01*
X92612129Y-41566889D01*
X92765269Y-41678151D01*
X92938197Y-41755144D01*
X93123352Y-41794500D01*
X93123354Y-41794500D01*
X93312646Y-41794500D01*
X93312648Y-41794500D01*
X93469730Y-41761111D01*
X93497803Y-41755144D01*
X93670730Y-41678151D01*
X93823871Y-41566888D01*
X93950533Y-41426216D01*
X94045179Y-41262284D01*
X94103674Y-41082256D01*
X94123460Y-40894000D01*
X94103674Y-40705744D01*
X94097523Y-40686815D01*
X94092982Y-40629103D01*
X94115137Y-40575615D01*
X94159160Y-40538015D01*
X94215455Y-40524500D01*
X94328648Y-40524500D01*
X94452083Y-40498262D01*
X94513803Y-40485144D01*
X94677233Y-40412379D01*
X94740631Y-40402337D01*
X94800555Y-40425339D01*
X94840949Y-40475222D01*
X94850991Y-40538618D01*
X94847103Y-40575615D01*
X94844540Y-40600000D01*
X94849848Y-40650500D01*
X94864326Y-40788257D01*
X94922820Y-40968284D01*
X95017466Y-41132216D01*
X95144129Y-41272889D01*
X95297269Y-41384151D01*
X95470197Y-41461144D01*
X95655352Y-41500500D01*
X95655354Y-41500500D01*
X95844646Y-41500500D01*
X95844648Y-41500500D01*
X95968083Y-41474262D01*
X96029803Y-41461144D01*
X96202730Y-41384151D01*
X96260511Y-41342171D01*
X96355870Y-41272889D01*
X96482533Y-41132216D01*
X96577179Y-40968284D01*
X96601315Y-40894000D01*
X96635674Y-40788256D01*
X96655460Y-40600000D01*
X96652953Y-40576150D01*
X96660049Y-40519967D01*
X96691388Y-40472797D01*
X96740432Y-40444481D01*
X96796951Y-40440924D01*
X96849158Y-40462870D01*
X96947269Y-40534151D01*
X97120197Y-40611144D01*
X97305352Y-40650500D01*
X97305354Y-40650500D01*
X97494646Y-40650500D01*
X97494648Y-40650500D01*
X97590139Y-40630202D01*
X109745785Y-40630202D01*
X109775397Y-40848803D01*
X109809977Y-40955231D01*
X109843564Y-41058599D01*
X109948097Y-41252853D01*
X110052804Y-41384151D01*
X110085635Y-41425320D01*
X110251758Y-41570457D01*
X110441126Y-41683600D01*
X110647653Y-41761111D01*
X110864702Y-41800500D01*
X110864703Y-41800500D01*
X111580029Y-41800500D01*
X111580032Y-41800500D01*
X111744706Y-41785679D01*
X111957350Y-41726993D01*
X112156098Y-41631281D01*
X112334563Y-41501619D01*
X112487007Y-41342175D01*
X112608531Y-41158073D01*
X112666330Y-41022845D01*
X112695230Y-40955232D01*
X112716705Y-40861144D01*
X112744317Y-40740168D01*
X112747307Y-40673593D01*
X113645832Y-40673593D01*
X113655605Y-40878756D01*
X113704029Y-41078362D01*
X113705808Y-41082257D01*
X113789354Y-41265199D01*
X113895732Y-41414584D01*
X113908494Y-41432506D01*
X114057146Y-41574245D01*
X114149946Y-41633884D01*
X114227304Y-41683600D01*
X114229936Y-41685291D01*
X114420618Y-41761629D01*
X114622302Y-41800500D01*
X115426227Y-41800500D01*
X115426232Y-41800500D01*
X115579466Y-41785868D01*
X115776541Y-41728001D01*
X115959104Y-41633884D01*
X116120556Y-41506916D01*
X116255061Y-41351689D01*
X116357759Y-41173811D01*
X116424937Y-40979712D01*
X116454168Y-40776407D01*
X116444395Y-40571244D01*
X116395971Y-40371638D01*
X116310647Y-40184804D01*
X116310646Y-40184803D01*
X116310645Y-40184800D01*
X116202445Y-40032856D01*
X116191506Y-40017494D01*
X116042854Y-39875755D01*
X115950056Y-39816117D01*
X115870065Y-39764709D01*
X115741177Y-39713110D01*
X115679382Y-39688371D01*
X115679381Y-39688370D01*
X115679379Y-39688370D01*
X115477698Y-39649500D01*
X114673768Y-39649500D01*
X114577996Y-39658644D01*
X114520531Y-39664132D01*
X114323460Y-39721998D01*
X114140893Y-39816117D01*
X113979445Y-39943082D01*
X113844937Y-40098312D01*
X113742241Y-40276187D01*
X113675062Y-40470287D01*
X113652070Y-40630204D01*
X113645832Y-40673593D01*
X112747307Y-40673593D01*
X112754214Y-40519796D01*
X112724603Y-40301198D01*
X112713904Y-40268270D01*
X112708513Y-40216990D01*
X112724446Y-40167951D01*
X112758944Y-40129635D01*
X112785876Y-40110068D01*
X112796734Y-40103018D01*
X112832216Y-40082533D01*
X112862654Y-40055125D01*
X112872740Y-40046958D01*
X112905871Y-40022888D01*
X112933284Y-39992441D01*
X112942441Y-39983284D01*
X112972888Y-39955871D01*
X112996958Y-39922739D01*
X113005125Y-39912654D01*
X113032533Y-39882216D01*
X113053018Y-39846734D01*
X113060071Y-39835872D01*
X113084151Y-39802730D01*
X113100811Y-39765307D01*
X113106700Y-39753753D01*
X113108868Y-39749999D01*
X113127179Y-39718284D01*
X113139836Y-39679324D01*
X113144477Y-39667234D01*
X113161144Y-39629803D01*
X113169658Y-39589741D01*
X113173012Y-39577220D01*
X113185674Y-39538256D01*
X113189956Y-39497503D01*
X113191980Y-39484726D01*
X113200500Y-39444646D01*
X113200500Y-39403692D01*
X113201179Y-39390731D01*
X113205460Y-39350000D01*
X113201178Y-39309267D01*
X113200500Y-39296308D01*
X113200500Y-39255354D01*
X113192103Y-39215849D01*
X113191985Y-39215292D01*
X113189955Y-39202485D01*
X113185674Y-39161744D01*
X113173014Y-39122782D01*
X113169660Y-39110267D01*
X113161144Y-39070197D01*
X113144483Y-39032778D01*
X113139831Y-39020658D01*
X113127179Y-38981717D01*
X113127179Y-38981716D01*
X113106696Y-38946239D01*
X113100805Y-38934677D01*
X113084151Y-38897270D01*
X113060078Y-38864136D01*
X113053015Y-38853260D01*
X113050844Y-38849500D01*
X113032533Y-38817784D01*
X113032532Y-38817783D01*
X113032531Y-38817781D01*
X113005127Y-38787347D01*
X112996957Y-38777258D01*
X112993199Y-38772086D01*
X112972888Y-38744129D01*
X112942442Y-38716715D01*
X112933274Y-38707546D01*
X112905871Y-38677112D01*
X112872739Y-38653041D01*
X112862662Y-38644881D01*
X112832216Y-38617467D01*
X112832215Y-38617466D01*
X112796740Y-38596984D01*
X112785860Y-38589918D01*
X112752732Y-38565850D01*
X112752728Y-38565848D01*
X112715308Y-38549187D01*
X112703755Y-38543300D01*
X112668284Y-38522821D01*
X112629331Y-38510164D01*
X112617213Y-38505512D01*
X112579805Y-38488856D01*
X112558011Y-38484224D01*
X112539739Y-38480340D01*
X112527209Y-38476982D01*
X112488255Y-38464325D01*
X112447519Y-38460043D01*
X112434706Y-38458014D01*
X112394646Y-38449500D01*
X112205354Y-38449500D01*
X112205351Y-38449500D01*
X112165292Y-38458013D01*
X112152483Y-38460042D01*
X112111744Y-38464325D01*
X112072794Y-38476981D01*
X112060258Y-38480340D01*
X112020198Y-38488854D01*
X111982780Y-38505514D01*
X111970668Y-38510163D01*
X111931715Y-38522820D01*
X111896241Y-38543301D01*
X111884681Y-38549191D01*
X111847270Y-38565848D01*
X111814137Y-38589919D01*
X111803260Y-38596983D01*
X111767782Y-38617467D01*
X111737347Y-38644871D01*
X111727264Y-38653036D01*
X111694128Y-38677111D01*
X111666722Y-38707548D01*
X111657548Y-38716722D01*
X111627111Y-38744128D01*
X111603036Y-38777264D01*
X111594871Y-38787347D01*
X111567467Y-38817782D01*
X111546983Y-38853260D01*
X111539919Y-38864137D01*
X111515848Y-38897270D01*
X111499191Y-38934681D01*
X111493301Y-38946241D01*
X111472820Y-38981715D01*
X111460163Y-39020668D01*
X111455514Y-39032780D01*
X111438854Y-39070198D01*
X111430340Y-39110258D01*
X111426981Y-39122794D01*
X111414325Y-39161744D01*
X111410042Y-39202483D01*
X111408013Y-39215292D01*
X111400366Y-39251276D01*
X111376791Y-39301839D01*
X111333435Y-39336950D01*
X111279075Y-39349500D01*
X110919968Y-39349500D01*
X110849393Y-39355851D01*
X110755290Y-39364321D01*
X110542651Y-39423006D01*
X110343900Y-39518719D01*
X110165440Y-39648378D01*
X110012990Y-39807828D01*
X109891468Y-39991928D01*
X109804769Y-40194767D01*
X109755683Y-40409831D01*
X109745785Y-40630202D01*
X97590139Y-40630202D01*
X97618083Y-40624262D01*
X97679803Y-40611144D01*
X97852730Y-40534151D01*
X97940632Y-40470287D01*
X98005870Y-40422889D01*
X98132533Y-40282216D01*
X98227179Y-40118284D01*
X98238795Y-40082533D01*
X98285674Y-39938256D01*
X98305460Y-39750000D01*
X98285674Y-39561744D01*
X98243588Y-39432216D01*
X98227179Y-39381715D01*
X98132533Y-39217783D01*
X98005870Y-39077110D01*
X97852730Y-38965848D01*
X97679802Y-38888855D01*
X97541560Y-38859471D01*
X97481203Y-38827379D01*
X97447024Y-38768179D01*
X97449410Y-38699863D01*
X97485674Y-38588256D01*
X97498992Y-38461536D01*
X97519512Y-38405160D01*
X97525244Y-38399999D01*
X101344540Y-38399999D01*
X101364326Y-38588257D01*
X101422820Y-38768284D01*
X101517466Y-38932216D01*
X101644129Y-39072889D01*
X101797269Y-39184151D01*
X101970197Y-39261144D01*
X102155352Y-39300500D01*
X102155354Y-39300500D01*
X102344646Y-39300500D01*
X102344648Y-39300500D01*
X102468084Y-39274262D01*
X102529803Y-39261144D01*
X102702730Y-39184151D01*
X102733572Y-39161743D01*
X102855870Y-39072889D01*
X102891985Y-39032780D01*
X102982533Y-38932216D01*
X103077179Y-38768284D01*
X103135674Y-38588256D01*
X103144950Y-38500000D01*
X103394540Y-38500000D01*
X103414326Y-38688257D01*
X103472820Y-38868284D01*
X103567466Y-39032216D01*
X103694129Y-39172889D01*
X103847269Y-39284151D01*
X104020197Y-39361144D01*
X104205352Y-39400500D01*
X104205354Y-39400500D01*
X104394646Y-39400500D01*
X104394648Y-39400500D01*
X104564856Y-39364321D01*
X104579803Y-39361144D01*
X104752730Y-39284151D01*
X104846740Y-39215849D01*
X104905870Y-39172889D01*
X104936515Y-39138855D01*
X105032533Y-39032216D01*
X105108868Y-38899999D01*
X105944540Y-38899999D01*
X105964326Y-39088257D01*
X106022820Y-39268284D01*
X106117466Y-39432216D01*
X106244129Y-39572889D01*
X106397269Y-39684151D01*
X106570197Y-39761144D01*
X106755352Y-39800500D01*
X106755354Y-39800500D01*
X106944646Y-39800500D01*
X106944648Y-39800500D01*
X107110142Y-39765323D01*
X107129803Y-39761144D01*
X107302730Y-39684151D01*
X107350423Y-39649500D01*
X107455870Y-39572889D01*
X107582533Y-39432216D01*
X107677179Y-39268284D01*
X107682705Y-39251276D01*
X107735674Y-39088256D01*
X107755460Y-38900000D01*
X107735674Y-38711744D01*
X107697331Y-38593737D01*
X107677179Y-38531715D01*
X107582533Y-38367783D01*
X107455870Y-38227110D01*
X107302730Y-38115848D01*
X107129802Y-38038855D01*
X106944648Y-37999500D01*
X106944646Y-37999500D01*
X106755354Y-37999500D01*
X106755352Y-37999500D01*
X106570197Y-38038855D01*
X106397269Y-38115848D01*
X106244129Y-38227110D01*
X106117466Y-38367783D01*
X106022820Y-38531715D01*
X105964326Y-38711742D01*
X105944540Y-38899999D01*
X105108868Y-38899999D01*
X105127179Y-38868284D01*
X105185674Y-38688256D01*
X105205460Y-38500000D01*
X105185674Y-38311744D01*
X105143826Y-38182949D01*
X105127179Y-38131715D01*
X105032533Y-37967783D01*
X104905870Y-37827110D01*
X104752730Y-37715848D01*
X104579802Y-37638855D01*
X104394648Y-37599500D01*
X104394646Y-37599500D01*
X104205354Y-37599500D01*
X104205352Y-37599500D01*
X104020197Y-37638855D01*
X103847269Y-37715848D01*
X103694129Y-37827110D01*
X103567466Y-37967783D01*
X103472820Y-38131715D01*
X103414326Y-38311742D01*
X103394540Y-38500000D01*
X103144950Y-38500000D01*
X103155460Y-38400000D01*
X103135674Y-38211744D01*
X103077179Y-38031716D01*
X103077179Y-38031715D01*
X102982533Y-37867783D01*
X102855870Y-37727110D01*
X102702730Y-37615848D01*
X102529802Y-37538855D01*
X102344648Y-37499500D01*
X102344646Y-37499500D01*
X102155354Y-37499500D01*
X102155352Y-37499500D01*
X101970197Y-37538855D01*
X101797269Y-37615848D01*
X101644129Y-37727110D01*
X101517466Y-37867783D01*
X101422820Y-38031715D01*
X101364326Y-38211742D01*
X101344540Y-38399999D01*
X97525244Y-38399999D01*
X97564099Y-38365014D01*
X97622313Y-38350500D01*
X97794648Y-38350500D01*
X97918084Y-38324262D01*
X97979803Y-38311144D01*
X98152730Y-38234151D01*
X98183571Y-38211744D01*
X98305870Y-38122889D01*
X98432533Y-37982216D01*
X98527179Y-37818284D01*
X98527178Y-37818284D01*
X98585674Y-37638256D01*
X98605460Y-37450000D01*
X98585674Y-37261744D01*
X98539719Y-37120312D01*
X98537335Y-37051996D01*
X98571515Y-36992795D01*
X98618504Y-36967811D01*
X98617896Y-36966446D01*
X98802730Y-36884151D01*
X98955870Y-36772889D01*
X99082533Y-36632216D01*
X99177179Y-36468284D01*
X99177178Y-36468284D01*
X99235674Y-36288256D01*
X99255460Y-36100000D01*
X99235674Y-35911744D01*
X99177179Y-35731716D01*
X99177179Y-35731715D01*
X99082533Y-35567783D01*
X98955870Y-35427110D01*
X98802730Y-35315848D01*
X98629802Y-35238855D01*
X98444648Y-35199500D01*
X98444646Y-35199500D01*
X98255354Y-35199500D01*
X98255352Y-35199500D01*
X98070197Y-35238855D01*
X97897269Y-35315848D01*
X97747269Y-35424829D01*
X97683033Y-35448209D01*
X97616169Y-35433996D01*
X97566997Y-35386511D01*
X97506533Y-35281783D01*
X97379870Y-35141110D01*
X97226730Y-35029848D01*
X97053802Y-34952855D01*
X96868648Y-34913500D01*
X96868646Y-34913500D01*
X96679354Y-34913500D01*
X96679352Y-34913500D01*
X96494197Y-34952855D01*
X96321269Y-35029848D01*
X96168129Y-35141110D01*
X96041466Y-35281783D01*
X95946820Y-35445715D01*
X95888326Y-35625742D01*
X95868540Y-35813999D01*
X95888326Y-36002257D01*
X95946820Y-36182284D01*
X96041466Y-36346216D01*
X96168129Y-36486889D01*
X96321269Y-36598151D01*
X96494197Y-36675144D01*
X96679352Y-36714500D01*
X96871996Y-36714500D01*
X96927131Y-36727432D01*
X96970766Y-36763531D01*
X96993800Y-36815267D01*
X96991427Y-36871848D01*
X96972764Y-36905793D01*
X96973983Y-36906497D01*
X96872820Y-37081715D01*
X96814326Y-37261742D01*
X96801008Y-37388462D01*
X96780488Y-37444840D01*
X96735901Y-37484986D01*
X96677687Y-37499500D01*
X96505352Y-37499500D01*
X96320197Y-37538855D01*
X96147269Y-37615848D01*
X95994129Y-37727110D01*
X95867466Y-37867783D01*
X95772820Y-38031715D01*
X95740213Y-38132071D01*
X95708422Y-38182949D01*
X95656468Y-38212948D01*
X95611678Y-38214515D01*
X95611678Y-38215500D01*
X95409352Y-38215500D01*
X95224197Y-38254855D01*
X95051269Y-38331848D01*
X94898129Y-38443110D01*
X94771466Y-38583783D01*
X94692357Y-38720806D01*
X94650680Y-38763964D01*
X94593621Y-38782504D01*
X94534536Y-38772086D01*
X94513803Y-38762855D01*
X94328648Y-38723500D01*
X94328646Y-38723500D01*
X94139354Y-38723500D01*
X94139352Y-38723500D01*
X93954197Y-38762855D01*
X93781269Y-38839848D01*
X93628129Y-38951110D01*
X93501466Y-39091783D01*
X93406820Y-39255715D01*
X93348326Y-39435742D01*
X93342512Y-39491061D01*
X93328540Y-39624000D01*
X93348326Y-39812256D01*
X93354476Y-39831184D01*
X93359018Y-39888897D01*
X93336863Y-39942385D01*
X93292840Y-39979985D01*
X93236545Y-39993500D01*
X93123352Y-39993500D01*
X92938197Y-40032855D01*
X92765269Y-40109848D01*
X92612129Y-40221110D01*
X92485466Y-40361783D01*
X92390820Y-40525715D01*
X92332326Y-40705742D01*
X92312540Y-40894000D01*
X83042514Y-40894000D01*
X83123179Y-40754284D01*
X83149626Y-40672888D01*
X83181674Y-40574256D01*
X83201460Y-40386000D01*
X83181674Y-40197744D01*
X83149366Y-40098311D01*
X83123179Y-40017715D01*
X83028533Y-39853783D01*
X82901870Y-39713110D01*
X82748730Y-39601848D01*
X82575802Y-39524855D01*
X82390648Y-39485500D01*
X82390646Y-39485500D01*
X82201354Y-39485500D01*
X82201352Y-39485500D01*
X82016197Y-39524855D01*
X81843269Y-39601848D01*
X81690129Y-39713110D01*
X81563466Y-39853783D01*
X81468820Y-40017715D01*
X81410326Y-40197742D01*
X81390540Y-40386000D01*
X81066951Y-40386000D01*
X81077179Y-40368284D01*
X81079291Y-40361783D01*
X81135674Y-40188256D01*
X81155460Y-40000000D01*
X81135674Y-39811744D01*
X81103626Y-39713110D01*
X81077179Y-39631715D01*
X80982533Y-39467783D01*
X80855870Y-39327110D01*
X80702730Y-39215848D01*
X80529802Y-39138855D01*
X80344648Y-39099500D01*
X80344646Y-39099500D01*
X80155354Y-39099500D01*
X80155352Y-39099500D01*
X79970197Y-39138855D01*
X79797269Y-39215848D01*
X79644129Y-39327110D01*
X79517466Y-39467783D01*
X79422820Y-39631715D01*
X79364326Y-39811742D01*
X79344540Y-40000000D01*
X78000500Y-40000000D01*
X78000500Y-36068000D01*
X79720531Y-36068000D01*
X79740364Y-36294689D01*
X79799261Y-36514497D01*
X79895432Y-36720735D01*
X80025953Y-36907140D01*
X80186859Y-37068046D01*
X80373264Y-37198567D01*
X80373265Y-37198567D01*
X80373266Y-37198568D01*
X80579504Y-37294739D01*
X80799308Y-37353635D01*
X80884262Y-37361067D01*
X80969214Y-37368500D01*
X80969216Y-37368500D01*
X81082784Y-37368500D01*
X81082786Y-37368500D01*
X81150747Y-37362553D01*
X81252692Y-37353635D01*
X81472496Y-37294739D01*
X81678734Y-37198568D01*
X81865139Y-37068047D01*
X82026047Y-36907139D01*
X82156568Y-36720734D01*
X82252739Y-36514496D01*
X82311635Y-36294692D01*
X82319920Y-36199999D01*
X93494540Y-36199999D01*
X93514326Y-36388257D01*
X93572820Y-36568284D01*
X93667466Y-36732216D01*
X93794129Y-36872889D01*
X93947269Y-36984151D01*
X94120197Y-37061144D01*
X94305352Y-37100500D01*
X94305354Y-37100500D01*
X94494646Y-37100500D01*
X94494648Y-37100500D01*
X94618084Y-37074262D01*
X94679803Y-37061144D01*
X94852730Y-36984151D01*
X94958727Y-36907140D01*
X95005870Y-36872889D01*
X95132533Y-36732216D01*
X95227179Y-36568284D01*
X95231090Y-36556247D01*
X95285674Y-36388256D01*
X95305460Y-36200000D01*
X95285674Y-36011744D01*
X95253181Y-35911742D01*
X95227179Y-35831715D01*
X95132533Y-35667783D01*
X95005870Y-35527110D01*
X94852730Y-35415848D01*
X94679802Y-35338855D01*
X94494648Y-35299500D01*
X94494646Y-35299500D01*
X94305354Y-35299500D01*
X94305352Y-35299500D01*
X94120197Y-35338855D01*
X93947269Y-35415848D01*
X93794129Y-35527110D01*
X93667466Y-35667783D01*
X93572820Y-35831715D01*
X93514326Y-36011742D01*
X93494540Y-36199999D01*
X82319920Y-36199999D01*
X82331468Y-36068000D01*
X82311635Y-35841308D01*
X82252739Y-35621504D01*
X82156568Y-35415266D01*
X82128027Y-35374505D01*
X82026046Y-35228859D01*
X81865140Y-35067953D01*
X81678735Y-34937432D01*
X81472497Y-34841261D01*
X81252689Y-34782364D01*
X81082786Y-34767500D01*
X81082784Y-34767500D01*
X80969216Y-34767500D01*
X80969214Y-34767500D01*
X80799310Y-34782364D01*
X80579502Y-34841261D01*
X80373264Y-34937432D01*
X80186859Y-35067953D01*
X80025953Y-35228859D01*
X79895432Y-35415264D01*
X79799261Y-35621502D01*
X79740364Y-35841310D01*
X79720531Y-36068000D01*
X78000500Y-36068000D01*
X78000500Y-34400000D01*
X87294540Y-34400000D01*
X87314326Y-34588257D01*
X87372820Y-34768284D01*
X87467466Y-34932216D01*
X87594129Y-35072889D01*
X87747269Y-35184151D01*
X87920197Y-35261144D01*
X88105352Y-35300500D01*
X88105354Y-35300500D01*
X88294646Y-35300500D01*
X88294648Y-35300500D01*
X88418084Y-35274262D01*
X88479803Y-35261144D01*
X88652730Y-35184151D01*
X88690516Y-35156698D01*
X88805870Y-35072889D01*
X88810315Y-35067953D01*
X88932533Y-34932216D01*
X89027179Y-34768284D01*
X89085674Y-34588256D01*
X89105460Y-34400000D01*
X89085674Y-34211744D01*
X89039682Y-34070196D01*
X89027179Y-34031715D01*
X88932533Y-33867783D01*
X88805870Y-33727110D01*
X88652730Y-33615848D01*
X88479802Y-33538855D01*
X88294648Y-33499500D01*
X88294646Y-33499500D01*
X88105354Y-33499500D01*
X88105352Y-33499500D01*
X87920197Y-33538855D01*
X87747269Y-33615848D01*
X87594129Y-33727110D01*
X87467466Y-33867783D01*
X87372820Y-34031715D01*
X87314326Y-34211742D01*
X87294540Y-34400000D01*
X78000500Y-34400000D01*
X78000500Y-33274000D01*
X99170540Y-33274000D01*
X99190326Y-33462257D01*
X99248820Y-33642284D01*
X99343466Y-33806216D01*
X99470129Y-33946889D01*
X99623269Y-34058151D01*
X99796197Y-34135144D01*
X99981352Y-34174500D01*
X99981354Y-34174500D01*
X100170646Y-34174500D01*
X100170648Y-34174500D01*
X100294083Y-34148262D01*
X100355803Y-34135144D01*
X100528730Y-34058151D01*
X100592762Y-34011629D01*
X100681870Y-33946889D01*
X100808533Y-33806216D01*
X100903179Y-33642284D01*
X100939072Y-33531817D01*
X100961674Y-33462256D01*
X100961674Y-33462254D01*
X100965701Y-33449861D01*
X100966101Y-33449991D01*
X100980226Y-33409423D01*
X101020687Y-33369798D01*
X101074547Y-33352296D01*
X101130572Y-33360568D01*
X101177076Y-33392888D01*
X101294129Y-33522888D01*
X101316106Y-33538855D01*
X101447269Y-33634151D01*
X101620197Y-33711144D01*
X101805352Y-33750500D01*
X101933048Y-33750500D01*
X101998758Y-33769342D01*
X102044499Y-33820142D01*
X102056368Y-33887458D01*
X102047134Y-33975320D01*
X102044540Y-34000000D01*
X102064326Y-34188257D01*
X102122820Y-34368284D01*
X102217466Y-34532216D01*
X102344129Y-34672889D01*
X102497269Y-34784151D01*
X102670197Y-34861144D01*
X102855352Y-34900500D01*
X102855354Y-34900500D01*
X103044646Y-34900500D01*
X103044648Y-34900500D01*
X103168084Y-34874262D01*
X103229803Y-34861144D01*
X103402730Y-34784151D01*
X103547003Y-34679331D01*
X103555870Y-34672889D01*
X103682533Y-34532216D01*
X103777179Y-34368284D01*
X103796354Y-34309269D01*
X103835674Y-34188256D01*
X103855460Y-34000000D01*
X103835674Y-33811744D01*
X103782867Y-33649221D01*
X103777179Y-33631715D01*
X103682533Y-33467783D01*
X103555870Y-33327110D01*
X103402730Y-33215848D01*
X103322668Y-33180202D01*
X109745785Y-33180202D01*
X109775397Y-33398803D01*
X109841318Y-33601689D01*
X109843564Y-33608599D01*
X109948097Y-33802853D01*
X110053223Y-33934677D01*
X110085635Y-33975320D01*
X110251758Y-34120457D01*
X110441126Y-34233600D01*
X110647653Y-34311111D01*
X110864702Y-34350500D01*
X110864703Y-34350500D01*
X111279075Y-34350500D01*
X111333433Y-34363050D01*
X111376789Y-34398159D01*
X111400366Y-34448720D01*
X111408014Y-34484703D01*
X111410043Y-34497519D01*
X111414325Y-34538255D01*
X111426982Y-34577209D01*
X111430342Y-34589746D01*
X111438856Y-34629805D01*
X111455512Y-34667213D01*
X111460164Y-34679331D01*
X111472821Y-34718284D01*
X111493300Y-34753755D01*
X111499187Y-34765308D01*
X111506782Y-34782365D01*
X111515850Y-34802732D01*
X111539918Y-34835860D01*
X111546984Y-34846740D01*
X111567466Y-34882215D01*
X111594877Y-34912657D01*
X111603041Y-34922739D01*
X111627112Y-34955871D01*
X111657546Y-34983274D01*
X111666720Y-34992447D01*
X111694130Y-35022889D01*
X111727258Y-35046957D01*
X111737347Y-35055127D01*
X111767781Y-35082531D01*
X111767783Y-35082532D01*
X111767784Y-35082533D01*
X111803266Y-35103019D01*
X111814136Y-35110078D01*
X111847270Y-35134151D01*
X111884683Y-35150808D01*
X111896239Y-35156696D01*
X111931716Y-35177179D01*
X111970666Y-35189834D01*
X111982778Y-35194483D01*
X112020197Y-35211144D01*
X112060267Y-35219660D01*
X112072782Y-35223014D01*
X112111744Y-35235674D01*
X112152485Y-35239955D01*
X112165294Y-35241985D01*
X112205354Y-35250500D01*
X112212672Y-35250500D01*
X112274674Y-35267114D01*
X112320061Y-35312503D01*
X112336672Y-35374505D01*
X112324836Y-35418667D01*
X112326848Y-35419321D01*
X112264326Y-35611742D01*
X112244540Y-35800000D01*
X112264326Y-35988257D01*
X112322820Y-36168284D01*
X112417466Y-36332216D01*
X112544129Y-36472889D01*
X112697269Y-36584151D01*
X112870197Y-36661144D01*
X113055352Y-36700500D01*
X113055354Y-36700500D01*
X113244646Y-36700500D01*
X113244648Y-36700500D01*
X113368084Y-36674262D01*
X113429803Y-36661144D01*
X113602730Y-36584151D01*
X113698601Y-36514497D01*
X113755870Y-36472889D01*
X113882533Y-36332216D01*
X113977179Y-36168284D01*
X114028042Y-36011744D01*
X114035674Y-35988256D01*
X114055460Y-35800000D01*
X114035674Y-35611744D01*
X113977179Y-35431716D01*
X113977179Y-35431715D01*
X113882533Y-35267783D01*
X113755870Y-35127110D01*
X113602730Y-35015848D01*
X113429802Y-34938855D01*
X113244648Y-34899500D01*
X113244646Y-34899500D01*
X113237328Y-34899500D01*
X113175326Y-34882886D01*
X113129939Y-34837497D01*
X113113328Y-34775495D01*
X113125162Y-34731336D01*
X113123151Y-34730683D01*
X113139834Y-34679332D01*
X113139835Y-34679331D01*
X113139836Y-34679324D01*
X113144477Y-34667234D01*
X113161144Y-34629803D01*
X113169658Y-34589741D01*
X113173016Y-34577209D01*
X113185674Y-34538256D01*
X113189956Y-34497503D01*
X113191980Y-34484726D01*
X113200500Y-34444646D01*
X113200500Y-34403692D01*
X113201179Y-34390731D01*
X113204088Y-34363050D01*
X113205460Y-34350000D01*
X113201178Y-34309267D01*
X113200500Y-34296308D01*
X113200500Y-34255354D01*
X113191986Y-34215300D01*
X113189955Y-34202480D01*
X113188460Y-34188256D01*
X113185674Y-34161744D01*
X113173014Y-34122782D01*
X113169660Y-34110267D01*
X113161144Y-34070197D01*
X113144483Y-34032778D01*
X113139831Y-34020658D01*
X113136897Y-34011629D01*
X113127179Y-33981716D01*
X113106696Y-33946239D01*
X113100805Y-33934677D01*
X113084151Y-33897270D01*
X113060078Y-33864136D01*
X113053015Y-33853260D01*
X113032531Y-33817781D01*
X113005127Y-33787347D01*
X112996957Y-33777258D01*
X112972889Y-33744130D01*
X112953989Y-33727112D01*
X112942442Y-33716715D01*
X112933274Y-33707546D01*
X112905871Y-33677112D01*
X112872739Y-33653041D01*
X112862662Y-33644881D01*
X112832216Y-33617467D01*
X112832215Y-33617466D01*
X112796740Y-33596984D01*
X112785861Y-33589918D01*
X112757763Y-33569505D01*
X112725162Y-33534372D01*
X112708320Y-33489499D01*
X112709753Y-33441598D01*
X112744317Y-33290168D01*
X112754214Y-33069796D01*
X112734410Y-32923593D01*
X113645832Y-32923593D01*
X113655605Y-33128756D01*
X113704029Y-33328362D01*
X113718737Y-33360568D01*
X113789354Y-33515199D01*
X113879852Y-33642284D01*
X113908494Y-33682506D01*
X114057146Y-33824245D01*
X114176807Y-33901147D01*
X114228980Y-33934677D01*
X114229936Y-33935291D01*
X114420618Y-34011629D01*
X114622302Y-34050500D01*
X115426227Y-34050500D01*
X115426232Y-34050500D01*
X115579466Y-34035868D01*
X115776541Y-33978001D01*
X115959104Y-33883884D01*
X116120556Y-33756916D01*
X116255061Y-33601689D01*
X116357759Y-33423811D01*
X116424937Y-33229712D01*
X116454168Y-33026407D01*
X116444395Y-32821244D01*
X116395971Y-32621638D01*
X116310647Y-32434804D01*
X116310646Y-32434803D01*
X116310645Y-32434800D01*
X116191507Y-32267496D01*
X116191506Y-32267494D01*
X116042854Y-32125755D01*
X115950056Y-32066117D01*
X115870065Y-32014709D01*
X115743121Y-31963888D01*
X115679382Y-31938371D01*
X115679381Y-31938370D01*
X115679379Y-31938370D01*
X115477698Y-31899500D01*
X114673768Y-31899500D01*
X114577996Y-31908645D01*
X114520531Y-31914132D01*
X114323460Y-31971998D01*
X114140893Y-32066117D01*
X113979445Y-32193082D01*
X113844937Y-32348312D01*
X113742241Y-32526187D01*
X113675062Y-32720287D01*
X113648402Y-32905715D01*
X113645832Y-32923593D01*
X112734410Y-32923593D01*
X112724603Y-32851198D01*
X112656436Y-32641401D01*
X112551903Y-32447147D01*
X112414365Y-32274680D01*
X112332225Y-32202917D01*
X112248241Y-32129542D01*
X112058873Y-32016399D01*
X111852346Y-31938888D01*
X111635298Y-31899500D01*
X111635297Y-31899500D01*
X110919968Y-31899500D01*
X110849393Y-31905851D01*
X110755290Y-31914321D01*
X110542651Y-31973006D01*
X110343900Y-32068719D01*
X110165440Y-32198378D01*
X110165437Y-32198380D01*
X110165437Y-32198381D01*
X110161100Y-32202917D01*
X110012990Y-32357828D01*
X109891468Y-32541928D01*
X109804769Y-32744767D01*
X109755683Y-32959831D01*
X109745785Y-33180202D01*
X103322668Y-33180202D01*
X103229802Y-33138855D01*
X103044648Y-33099500D01*
X103044646Y-33099500D01*
X102916953Y-33099500D01*
X102851243Y-33080658D01*
X102805503Y-33029858D01*
X102793632Y-32962539D01*
X102799604Y-32905715D01*
X102805460Y-32850000D01*
X102785674Y-32661744D01*
X102744751Y-32535796D01*
X102727179Y-32481715D01*
X102632533Y-32317783D01*
X102505870Y-32177110D01*
X102352730Y-32065848D01*
X102179802Y-31988855D01*
X101994648Y-31949500D01*
X101994646Y-31949500D01*
X101805354Y-31949500D01*
X101805352Y-31949500D01*
X101620197Y-31988855D01*
X101447269Y-32065848D01*
X101294129Y-32177110D01*
X101167466Y-32317783D01*
X101072820Y-32481715D01*
X101010299Y-32674139D01*
X101009898Y-32674008D01*
X100995768Y-32714583D01*
X100955306Y-32754204D01*
X100901448Y-32771703D01*
X100845425Y-32763430D01*
X100798923Y-32731111D01*
X100736464Y-32661744D01*
X100681871Y-32601112D01*
X100681869Y-32601111D01*
X100681867Y-32601108D01*
X100528730Y-32489848D01*
X100355802Y-32412855D01*
X100170648Y-32373500D01*
X100170646Y-32373500D01*
X99981354Y-32373500D01*
X99981352Y-32373500D01*
X99796197Y-32412855D01*
X99623269Y-32489848D01*
X99470129Y-32601110D01*
X99343466Y-32741783D01*
X99248820Y-32905715D01*
X99190326Y-33085742D01*
X99170540Y-33274000D01*
X78000500Y-33274000D01*
X78000500Y-32139869D01*
X79421500Y-32139869D01*
X79427909Y-32199484D01*
X79453056Y-32266906D01*
X79478204Y-32334331D01*
X79564454Y-32449546D01*
X79679669Y-32535796D01*
X79814517Y-32586091D01*
X79874127Y-32592500D01*
X81669872Y-32592499D01*
X81729483Y-32586091D01*
X81864331Y-32535796D01*
X81979546Y-32449546D01*
X82065796Y-32334331D01*
X82114810Y-32202916D01*
X82149789Y-32152537D01*
X82204634Y-32125084D01*
X82265927Y-32127273D01*
X82318673Y-32158569D01*
X82440599Y-32280495D01*
X82634170Y-32416035D01*
X82848337Y-32515903D01*
X83076592Y-32577063D01*
X83312000Y-32597659D01*
X83547408Y-32577063D01*
X83775663Y-32515903D01*
X83989830Y-32416035D01*
X84183401Y-32280495D01*
X84350495Y-32113401D01*
X84480426Y-31927839D01*
X84524743Y-31888975D01*
X84582000Y-31874964D01*
X84639257Y-31888975D01*
X84683573Y-31927839D01*
X84813505Y-32113401D01*
X84980599Y-32280495D01*
X85174170Y-32416035D01*
X85388337Y-32515903D01*
X85616592Y-32577063D01*
X85852000Y-32597659D01*
X86087408Y-32577063D01*
X86315663Y-32515903D01*
X86529830Y-32416035D01*
X86723401Y-32280495D01*
X86890495Y-32113401D01*
X87026035Y-31919830D01*
X87125903Y-31705663D01*
X87187063Y-31477408D01*
X87207659Y-31242000D01*
X87187063Y-31006592D01*
X87145105Y-30850000D01*
X92644540Y-30850000D01*
X92664326Y-31038257D01*
X92722820Y-31218284D01*
X92817466Y-31382216D01*
X92944129Y-31522889D01*
X93097269Y-31634151D01*
X93270197Y-31711144D01*
X93455352Y-31750500D01*
X93455354Y-31750500D01*
X93644646Y-31750500D01*
X93644648Y-31750500D01*
X93768083Y-31724262D01*
X93829803Y-31711144D01*
X94002730Y-31634151D01*
X94155871Y-31522888D01*
X94180082Y-31495999D01*
X95868540Y-31495999D01*
X95888326Y-31684257D01*
X95946820Y-31864284D01*
X96041466Y-32028216D01*
X96168129Y-32168889D01*
X96321269Y-32280151D01*
X96494197Y-32357144D01*
X96679352Y-32396500D01*
X96679354Y-32396500D01*
X96868646Y-32396500D01*
X96868648Y-32396500D01*
X96992083Y-32370262D01*
X97053803Y-32357144D01*
X97226730Y-32280151D01*
X97337759Y-32199484D01*
X97379870Y-32168889D01*
X97394594Y-32152537D01*
X97506533Y-32028216D01*
X97601179Y-31864284D01*
X97659674Y-31684256D01*
X97679460Y-31496000D01*
X97659674Y-31307744D01*
X97601179Y-31127716D01*
X97601179Y-31127715D01*
X97506533Y-30963783D01*
X97379870Y-30823110D01*
X97226730Y-30711848D01*
X97053802Y-30634855D01*
X96868648Y-30595500D01*
X96868646Y-30595500D01*
X96721793Y-30595500D01*
X96693199Y-30588370D01*
X96677988Y-30595790D01*
X96494197Y-30634855D01*
X96321269Y-30711848D01*
X96168129Y-30823110D01*
X96041466Y-30963783D01*
X95946820Y-31127715D01*
X95888326Y-31307742D01*
X95868540Y-31495999D01*
X94180082Y-31495999D01*
X94282533Y-31382216D01*
X94377179Y-31218284D01*
X94435674Y-31038256D01*
X94455460Y-30850000D01*
X94435674Y-30661744D01*
X94377179Y-30481716D01*
X94377179Y-30481715D01*
X94358868Y-30449999D01*
X106794540Y-30449999D01*
X106814326Y-30638257D01*
X106872820Y-30818284D01*
X106967466Y-30982216D01*
X107094129Y-31122889D01*
X107247269Y-31234151D01*
X107420197Y-31311144D01*
X107605352Y-31350500D01*
X107605354Y-31350500D01*
X107794646Y-31350500D01*
X107794648Y-31350500D01*
X107918084Y-31324262D01*
X107979803Y-31311144D01*
X108152730Y-31234151D01*
X108299226Y-31127716D01*
X108305870Y-31122889D01*
X108432533Y-30982216D01*
X108527179Y-30818284D01*
X108527178Y-30818284D01*
X108585674Y-30638256D01*
X108605460Y-30450000D01*
X108585674Y-30261744D01*
X108527179Y-30081716D01*
X108527179Y-30081715D01*
X108432533Y-29917783D01*
X108305870Y-29777110D01*
X108152730Y-29665848D01*
X107979802Y-29588855D01*
X107794648Y-29549500D01*
X107794646Y-29549500D01*
X107605354Y-29549500D01*
X107605352Y-29549500D01*
X107420197Y-29588855D01*
X107247269Y-29665848D01*
X107094129Y-29777110D01*
X106967466Y-29917783D01*
X106872820Y-30081715D01*
X106814326Y-30261742D01*
X106794540Y-30449999D01*
X94358868Y-30449999D01*
X94282533Y-30317783D01*
X94155870Y-30177110D01*
X94002730Y-30065848D01*
X93829802Y-29988855D01*
X93644648Y-29949500D01*
X93644646Y-29949500D01*
X93455354Y-29949500D01*
X93455352Y-29949500D01*
X93270197Y-29988855D01*
X93097269Y-30065848D01*
X92944129Y-30177110D01*
X92817466Y-30317783D01*
X92722820Y-30481715D01*
X92664326Y-30661742D01*
X92644540Y-30850000D01*
X87145105Y-30850000D01*
X87125903Y-30778337D01*
X87026035Y-30564171D01*
X86890495Y-30370599D01*
X86723401Y-30203505D01*
X86529830Y-30067965D01*
X86315663Y-29968097D01*
X86246257Y-29949500D01*
X86087407Y-29906936D01*
X85852000Y-29886340D01*
X85616592Y-29906936D01*
X85388336Y-29968097D01*
X85174170Y-30067965D01*
X84980598Y-30203505D01*
X84813505Y-30370598D01*
X84683575Y-30556159D01*
X84639257Y-30595025D01*
X84582000Y-30609036D01*
X84524743Y-30595025D01*
X84480425Y-30556159D01*
X84350494Y-30370598D01*
X84183404Y-30203508D01*
X84183401Y-30203505D01*
X83989830Y-30067965D01*
X83775663Y-29968097D01*
X83706257Y-29949500D01*
X83547407Y-29906936D01*
X83312000Y-29886340D01*
X83076592Y-29906936D01*
X82848336Y-29968097D01*
X82634170Y-30067965D01*
X82440601Y-30203503D01*
X82318673Y-30325431D01*
X82265926Y-30356726D01*
X82204634Y-30358915D01*
X82149789Y-30331462D01*
X82114810Y-30281082D01*
X82107596Y-30261742D01*
X82065796Y-30149669D01*
X81979546Y-30034454D01*
X81864331Y-29948204D01*
X81729483Y-29897909D01*
X81669873Y-29891500D01*
X81669869Y-29891500D01*
X79874130Y-29891500D01*
X79814515Y-29897909D01*
X79679669Y-29948204D01*
X79564454Y-30034454D01*
X79478204Y-30149668D01*
X79436402Y-30261744D01*
X79427909Y-30284517D01*
X79424333Y-30317783D01*
X79421500Y-30344130D01*
X79421500Y-32139869D01*
X78000500Y-32139869D01*
X78000500Y-29449999D01*
X95694540Y-29449999D01*
X95714326Y-29638257D01*
X95772820Y-29818284D01*
X95867466Y-29982216D01*
X95994129Y-30122889D01*
X96147269Y-30234151D01*
X96320197Y-30311144D01*
X96505352Y-30350500D01*
X96652207Y-30350500D01*
X96680800Y-30357629D01*
X96696012Y-30350210D01*
X96812587Y-30325431D01*
X96879803Y-30311144D01*
X97052730Y-30234151D01*
X97169010Y-30149669D01*
X97205870Y-30122889D01*
X97242943Y-30081716D01*
X97332533Y-29982216D01*
X97427179Y-29818284D01*
X97485674Y-29638256D01*
X97505460Y-29450000D01*
X97485674Y-29261744D01*
X97427179Y-29081716D01*
X97427179Y-29081715D01*
X97332533Y-28917783D01*
X97205870Y-28777110D01*
X97168556Y-28750000D01*
X103394540Y-28750000D01*
X103414326Y-28938257D01*
X103472820Y-29118284D01*
X103567466Y-29282216D01*
X103694129Y-29422889D01*
X103847269Y-29534151D01*
X104020197Y-29611144D01*
X104205352Y-29650500D01*
X104205354Y-29650500D01*
X104394646Y-29650500D01*
X104394648Y-29650500D01*
X104518083Y-29624262D01*
X104579803Y-29611144D01*
X104752730Y-29534151D01*
X104752729Y-29534151D01*
X104905870Y-29422889D01*
X105032533Y-29282216D01*
X105127179Y-29118284D01*
X105141929Y-29072888D01*
X105185674Y-28938256D01*
X105205460Y-28750000D01*
X105185674Y-28561744D01*
X105127179Y-28381716D01*
X105127179Y-28381715D01*
X105032533Y-28217783D01*
X104905870Y-28077110D01*
X104752730Y-27965848D01*
X104579802Y-27888855D01*
X104394648Y-27849500D01*
X104394646Y-27849500D01*
X104205354Y-27849500D01*
X104205352Y-27849500D01*
X104020197Y-27888855D01*
X103847269Y-27965848D01*
X103694129Y-28077110D01*
X103567466Y-28217783D01*
X103472820Y-28381715D01*
X103414326Y-28561742D01*
X103394540Y-28750000D01*
X97168556Y-28750000D01*
X97052730Y-28665848D01*
X96879802Y-28588855D01*
X96694648Y-28549500D01*
X96694646Y-28549500D01*
X96505354Y-28549500D01*
X96505352Y-28549500D01*
X96320197Y-28588855D01*
X96147269Y-28665848D01*
X95994129Y-28777110D01*
X95867466Y-28917783D01*
X95772820Y-29081715D01*
X95714326Y-29261742D01*
X95694540Y-29449999D01*
X78000500Y-29449999D01*
X78000500Y-26099999D01*
X79694340Y-26099999D01*
X79714936Y-26335407D01*
X79759709Y-26502501D01*
X79776097Y-26563663D01*
X79875965Y-26777830D01*
X80011505Y-26971401D01*
X80178599Y-27138495D01*
X80372170Y-27274035D01*
X80441425Y-27306329D01*
X80488826Y-27345124D01*
X80511873Y-27401875D01*
X80504943Y-27462734D01*
X80469728Y-27512852D01*
X80431337Y-27531831D01*
X80432104Y-27533554D01*
X80247269Y-27615848D01*
X80094129Y-27727110D01*
X79967466Y-27867783D01*
X79872820Y-28031715D01*
X79814326Y-28211742D01*
X79794540Y-28400000D01*
X79814326Y-28588257D01*
X79872820Y-28768284D01*
X79967466Y-28932216D01*
X80094129Y-29072889D01*
X80247269Y-29184151D01*
X80420197Y-29261144D01*
X80605352Y-29300500D01*
X80605354Y-29300500D01*
X80794646Y-29300500D01*
X80794648Y-29300500D01*
X80918083Y-29274262D01*
X80979803Y-29261144D01*
X81152730Y-29184151D01*
X81243389Y-29118284D01*
X81305870Y-29072889D01*
X81432533Y-28932216D01*
X81527179Y-28768284D01*
X81560462Y-28665849D01*
X81585674Y-28588256D01*
X81605460Y-28400000D01*
X81585674Y-28211744D01*
X81541929Y-28077112D01*
X81527179Y-28031715D01*
X81432533Y-27867783D01*
X81305872Y-27727112D01*
X81213216Y-27659794D01*
X81174842Y-27614222D01*
X81162150Y-27556013D01*
X81178072Y-27498603D01*
X81218932Y-27455245D01*
X81275297Y-27435948D01*
X81283522Y-27435227D01*
X81285408Y-27435063D01*
X81513663Y-27373903D01*
X81727830Y-27274035D01*
X81921401Y-27138495D01*
X82088495Y-26971401D01*
X82218426Y-26785839D01*
X82262743Y-26746975D01*
X82320000Y-26732964D01*
X82377257Y-26746975D01*
X82421573Y-26785839D01*
X82551505Y-26971401D01*
X82718599Y-27138495D01*
X82912170Y-27274035D01*
X83126337Y-27373903D01*
X83354592Y-27435063D01*
X83590000Y-27455659D01*
X83825408Y-27435063D01*
X84053663Y-27373903D01*
X84267830Y-27274035D01*
X84461401Y-27138495D01*
X84628495Y-26971401D01*
X84758426Y-26785839D01*
X84802743Y-26746975D01*
X84860000Y-26732964D01*
X84917257Y-26746975D01*
X84961573Y-26785839D01*
X85091505Y-26971401D01*
X85258599Y-27138495D01*
X85452170Y-27274035D01*
X85666337Y-27373903D01*
X85894592Y-27435063D01*
X86130000Y-27455659D01*
X86365408Y-27435063D01*
X86593663Y-27373903D01*
X86807830Y-27274035D01*
X87001401Y-27138495D01*
X87123717Y-27016178D01*
X87176460Y-26984885D01*
X87237752Y-26982696D01*
X87292597Y-27010149D01*
X87327577Y-27060528D01*
X87376647Y-27192088D01*
X87462811Y-27307188D01*
X87577910Y-27393352D01*
X87712624Y-27443597D01*
X87772176Y-27450000D01*
X88420000Y-27450000D01*
X88420000Y-26350000D01*
X88920000Y-26350000D01*
X88920000Y-27450000D01*
X89567824Y-27450000D01*
X89627375Y-27443597D01*
X89762089Y-27393352D01*
X89877188Y-27307188D01*
X89963352Y-27192089D01*
X90013597Y-27057375D01*
X90020000Y-26997824D01*
X90020000Y-26350000D01*
X88920000Y-26350000D01*
X88420000Y-26350000D01*
X88420000Y-26099999D01*
X91586340Y-26099999D01*
X91606936Y-26335407D01*
X91651709Y-26502501D01*
X91668097Y-26563663D01*
X91767965Y-26777830D01*
X91903505Y-26971401D01*
X92070599Y-27138495D01*
X92264170Y-27274035D01*
X92478337Y-27373903D01*
X92706592Y-27435063D01*
X92942000Y-27455659D01*
X93177408Y-27435063D01*
X93405663Y-27373903D01*
X93619830Y-27274035D01*
X93813401Y-27138495D01*
X93980495Y-26971401D01*
X94110426Y-26785839D01*
X94154743Y-26746975D01*
X94212000Y-26732964D01*
X94269257Y-26746975D01*
X94313573Y-26785839D01*
X94443505Y-26971401D01*
X94610599Y-27138495D01*
X94804170Y-27274035D01*
X95018337Y-27373903D01*
X95246592Y-27435063D01*
X95482000Y-27455659D01*
X95717408Y-27435063D01*
X95945663Y-27373903D01*
X96159830Y-27274035D01*
X96353401Y-27138495D01*
X96520495Y-26971401D01*
X96650426Y-26785839D01*
X96694743Y-26746975D01*
X96752000Y-26732964D01*
X96809257Y-26746975D01*
X96853573Y-26785839D01*
X96983505Y-26971401D01*
X97150599Y-27138495D01*
X97344170Y-27274035D01*
X97558337Y-27373903D01*
X97786592Y-27435063D01*
X98022000Y-27455659D01*
X98257408Y-27435063D01*
X98485663Y-27373903D01*
X98699830Y-27274035D01*
X98893401Y-27138495D01*
X99015717Y-27016178D01*
X99068460Y-26984885D01*
X99129752Y-26982696D01*
X99184597Y-27010149D01*
X99219577Y-27060528D01*
X99268647Y-27192088D01*
X99354811Y-27307188D01*
X99469910Y-27393352D01*
X99604624Y-27443597D01*
X99664176Y-27450000D01*
X100312000Y-27450000D01*
X100312000Y-26350000D01*
X100812000Y-26350000D01*
X100812000Y-27450000D01*
X101459824Y-27450000D01*
X101519375Y-27443597D01*
X101654089Y-27393352D01*
X101769188Y-27307188D01*
X101855352Y-27192089D01*
X101905597Y-27057375D01*
X101911995Y-26997869D01*
X103829500Y-26997869D01*
X103835909Y-27057484D01*
X103861056Y-27124907D01*
X103886204Y-27192331D01*
X103972454Y-27307546D01*
X104087669Y-27393796D01*
X104222517Y-27444091D01*
X104282127Y-27450500D01*
X106077872Y-27450499D01*
X106137483Y-27444091D01*
X106272331Y-27393796D01*
X106387546Y-27307546D01*
X106473796Y-27192331D01*
X106522810Y-27060916D01*
X106557789Y-27010537D01*
X106612634Y-26983084D01*
X106673927Y-26985273D01*
X106726673Y-27016568D01*
X106848599Y-27138495D01*
X107042170Y-27274035D01*
X107256337Y-27373903D01*
X107484592Y-27435063D01*
X107720000Y-27455659D01*
X107955408Y-27435063D01*
X108183663Y-27373903D01*
X108397830Y-27274035D01*
X108591401Y-27138495D01*
X108758495Y-26971401D01*
X108888426Y-26785839D01*
X108932743Y-26746975D01*
X108990000Y-26732964D01*
X109047257Y-26746975D01*
X109091573Y-26785839D01*
X109221505Y-26971401D01*
X109388599Y-27138495D01*
X109582170Y-27274035D01*
X109796337Y-27373903D01*
X110024592Y-27435063D01*
X110260000Y-27455659D01*
X110495408Y-27435063D01*
X110723663Y-27373903D01*
X110937830Y-27274035D01*
X111131401Y-27138495D01*
X111298495Y-26971401D01*
X111428426Y-26785839D01*
X111472743Y-26746975D01*
X111530000Y-26732964D01*
X111587257Y-26746975D01*
X111631573Y-26785839D01*
X111761505Y-26971401D01*
X111928599Y-27138495D01*
X112122170Y-27274035D01*
X112336337Y-27373903D01*
X112564592Y-27435063D01*
X112800000Y-27455659D01*
X113035408Y-27435063D01*
X113263663Y-27373903D01*
X113477830Y-27274035D01*
X113671401Y-27138495D01*
X113838495Y-26971401D01*
X113968732Y-26785402D01*
X114013048Y-26746539D01*
X114070305Y-26732528D01*
X114127562Y-26746539D01*
X114171880Y-26785404D01*
X114301893Y-26971081D01*
X114468918Y-27138106D01*
X114662423Y-27273600D01*
X114876507Y-27373430D01*
X115089999Y-27430635D01*
X115090000Y-27430636D01*
X115090000Y-26350000D01*
X115590000Y-26350000D01*
X115590000Y-27430635D01*
X115803492Y-27373430D01*
X116017576Y-27273600D01*
X116211081Y-27138106D01*
X116378106Y-26971081D01*
X116513600Y-26777576D01*
X116613430Y-26563492D01*
X116670636Y-26350000D01*
X115590000Y-26350000D01*
X115090000Y-26350000D01*
X115090000Y-24769364D01*
X115590000Y-24769364D01*
X115590000Y-25850000D01*
X116670636Y-25850000D01*
X116670635Y-25849999D01*
X116613430Y-25636507D01*
X116513599Y-25422421D01*
X116378109Y-25228921D01*
X116211081Y-25061893D01*
X116017576Y-24926399D01*
X115803492Y-24826569D01*
X115590000Y-24769364D01*
X115090000Y-24769364D01*
X115089999Y-24769364D01*
X114876507Y-24826569D01*
X114662421Y-24926400D01*
X114468921Y-25061890D01*
X114301893Y-25228918D01*
X114171880Y-25414596D01*
X114127562Y-25453461D01*
X114070305Y-25467472D01*
X114013048Y-25453461D01*
X113968730Y-25414595D01*
X113838494Y-25228598D01*
X113671404Y-25061508D01*
X113671401Y-25061505D01*
X113477830Y-24925965D01*
X113263663Y-24826097D01*
X113191074Y-24806647D01*
X113035407Y-24764936D01*
X112800000Y-24744340D01*
X112564592Y-24764936D01*
X112336336Y-24826097D01*
X112122170Y-24925965D01*
X111928598Y-25061505D01*
X111761505Y-25228598D01*
X111631575Y-25414159D01*
X111587257Y-25453025D01*
X111530000Y-25467036D01*
X111472743Y-25453025D01*
X111428425Y-25414159D01*
X111298494Y-25228598D01*
X111131404Y-25061508D01*
X111131401Y-25061505D01*
X110937830Y-24925965D01*
X110723663Y-24826097D01*
X110651074Y-24806647D01*
X110495407Y-24764936D01*
X110260000Y-24744340D01*
X110024592Y-24764936D01*
X109796336Y-24826097D01*
X109582170Y-24925965D01*
X109388598Y-25061505D01*
X109221505Y-25228598D01*
X109091575Y-25414159D01*
X109047257Y-25453025D01*
X108990000Y-25467036D01*
X108932743Y-25453025D01*
X108888425Y-25414159D01*
X108758494Y-25228598D01*
X108591404Y-25061508D01*
X108591401Y-25061505D01*
X108397830Y-24925965D01*
X108183663Y-24826097D01*
X108111074Y-24806647D01*
X107955407Y-24764936D01*
X107720000Y-24744340D01*
X107484592Y-24764936D01*
X107256336Y-24826097D01*
X107042170Y-24925965D01*
X106848601Y-25061503D01*
X106726673Y-25183431D01*
X106673926Y-25214726D01*
X106612634Y-25216915D01*
X106557789Y-25189462D01*
X106522810Y-25139082D01*
X106494019Y-25061890D01*
X106473796Y-25007669D01*
X106387546Y-24892454D01*
X106272331Y-24806204D01*
X106137483Y-24755909D01*
X106077873Y-24749500D01*
X106077869Y-24749500D01*
X104282130Y-24749500D01*
X104222515Y-24755909D01*
X104087669Y-24806204D01*
X103972454Y-24892454D01*
X103886204Y-25007668D01*
X103835909Y-25142516D01*
X103829500Y-25202130D01*
X103829500Y-26997869D01*
X101911995Y-26997869D01*
X101912000Y-26997824D01*
X101912000Y-26350000D01*
X100812000Y-26350000D01*
X100312000Y-26350000D01*
X100312000Y-24750000D01*
X100812000Y-24750000D01*
X100812000Y-25850000D01*
X101912000Y-25850000D01*
X101912000Y-25202176D01*
X101905597Y-25142624D01*
X101855352Y-25007910D01*
X101769188Y-24892811D01*
X101654089Y-24806647D01*
X101519375Y-24756402D01*
X101459824Y-24750000D01*
X100812000Y-24750000D01*
X100312000Y-24750000D01*
X99664176Y-24750000D01*
X99604624Y-24756402D01*
X99469910Y-24806647D01*
X99354811Y-24892811D01*
X99268646Y-25007913D01*
X99219576Y-25139472D01*
X99184597Y-25189850D01*
X99129753Y-25217303D01*
X99068460Y-25215114D01*
X99015714Y-25183818D01*
X98893404Y-25061508D01*
X98893401Y-25061505D01*
X98699830Y-24925965D01*
X98485663Y-24826097D01*
X98413074Y-24806647D01*
X98257407Y-24764936D01*
X98022000Y-24744340D01*
X97786592Y-24764936D01*
X97558336Y-24826097D01*
X97344170Y-24925965D01*
X97150598Y-25061505D01*
X96983505Y-25228598D01*
X96853575Y-25414159D01*
X96809257Y-25453025D01*
X96752000Y-25467036D01*
X96694743Y-25453025D01*
X96650425Y-25414159D01*
X96520494Y-25228598D01*
X96353404Y-25061508D01*
X96353401Y-25061505D01*
X96159830Y-24925965D01*
X95945663Y-24826097D01*
X95873074Y-24806647D01*
X95717407Y-24764936D01*
X95482000Y-24744340D01*
X95246592Y-24764936D01*
X95018336Y-24826097D01*
X94804170Y-24925965D01*
X94610598Y-25061505D01*
X94443505Y-25228598D01*
X94313575Y-25414159D01*
X94269257Y-25453025D01*
X94212000Y-25467036D01*
X94154743Y-25453025D01*
X94110425Y-25414159D01*
X93980494Y-25228598D01*
X93813404Y-25061508D01*
X93813401Y-25061505D01*
X93619830Y-24925965D01*
X93405663Y-24826097D01*
X93333074Y-24806647D01*
X93177407Y-24764936D01*
X92942000Y-24744340D01*
X92706592Y-24764936D01*
X92478336Y-24826097D01*
X92264170Y-24925965D01*
X92070598Y-25061505D01*
X91903505Y-25228598D01*
X91767965Y-25422170D01*
X91668097Y-25636336D01*
X91606936Y-25864592D01*
X91586340Y-26099999D01*
X88420000Y-26099999D01*
X88420000Y-24750000D01*
X88920000Y-24750000D01*
X88920000Y-25850000D01*
X90020000Y-25850000D01*
X90020000Y-25202176D01*
X90013597Y-25142624D01*
X89963352Y-25007910D01*
X89877188Y-24892811D01*
X89762089Y-24806647D01*
X89627375Y-24756402D01*
X89567824Y-24750000D01*
X88920000Y-24750000D01*
X88420000Y-24750000D01*
X87772176Y-24750000D01*
X87712624Y-24756402D01*
X87577910Y-24806647D01*
X87462811Y-24892811D01*
X87376646Y-25007913D01*
X87327576Y-25139472D01*
X87292597Y-25189850D01*
X87237753Y-25217303D01*
X87176460Y-25215114D01*
X87123714Y-25183818D01*
X87001404Y-25061508D01*
X87001401Y-25061505D01*
X86807830Y-24925965D01*
X86593663Y-24826097D01*
X86521074Y-24806647D01*
X86365407Y-24764936D01*
X86130000Y-24744340D01*
X85894592Y-24764936D01*
X85666336Y-24826097D01*
X85452170Y-24925965D01*
X85258598Y-25061505D01*
X85091505Y-25228598D01*
X84961575Y-25414159D01*
X84917257Y-25453025D01*
X84860000Y-25467036D01*
X84802743Y-25453025D01*
X84758425Y-25414159D01*
X84628494Y-25228598D01*
X84461404Y-25061508D01*
X84461401Y-25061505D01*
X84267830Y-24925965D01*
X84053663Y-24826097D01*
X83981074Y-24806647D01*
X83825407Y-24764936D01*
X83590000Y-24744340D01*
X83354592Y-24764936D01*
X83126336Y-24826097D01*
X82912170Y-24925965D01*
X82718598Y-25061505D01*
X82551505Y-25228598D01*
X82421575Y-25414159D01*
X82377257Y-25453025D01*
X82320000Y-25467036D01*
X82262743Y-25453025D01*
X82218425Y-25414159D01*
X82088494Y-25228598D01*
X81921404Y-25061508D01*
X81921401Y-25061505D01*
X81727830Y-24925965D01*
X81513663Y-24826097D01*
X81441074Y-24806647D01*
X81285407Y-24764936D01*
X81050000Y-24744340D01*
X80814592Y-24764936D01*
X80586336Y-24826097D01*
X80372170Y-24925965D01*
X80178598Y-25061505D01*
X80011505Y-25228598D01*
X79875965Y-25422170D01*
X79776097Y-25636336D01*
X79714936Y-25864592D01*
X79694340Y-26099999D01*
X78000500Y-26099999D01*
X78000500Y-23574500D01*
X78017113Y-23512500D01*
X78062500Y-23467113D01*
X78124500Y-23450500D01*
X117875500Y-23450500D01*
X117937500Y-23467113D01*
G37*
%TD.AperFunction*%
%TD*%
M02*
