%TF.GenerationSoftware,KiCad,Pcbnew,7.0.1-0*%
%TF.CreationDate,2023-10-24T00:06:01+02:00*%
%TF.ProjectId,SMT-32,534d542d-3332-42e6-9b69-6361645f7063,rev?*%
%TF.SameCoordinates,Original*%
%TF.FileFunction,Drillmap*%
%TF.FilePolarity,Positive*%
%FSLAX45Y45*%
G04 Gerber Fmt 4.5, Leading zero omitted, Abs format (unit mm)*
G04 Created by KiCad (PCBNEW 7.0.1-0) date 2023-10-24 00:06:01*
%MOMM*%
%LPD*%
G01*
G04 APERTURE LIST*
%ADD10C,0.100000*%
%ADD11C,0.200000*%
%ADD12C,0.080000*%
%ADD13C,0.090000*%
%ADD14C,0.210000*%
G04 APERTURE END LIST*
D10*
X7800000Y-2345000D02*
X11800000Y-2345000D01*
X11800000Y-5600000D01*
X7800000Y-5600000D01*
X7800000Y-2345000D01*
D11*
D12*
X11190000Y-3395000D02*
X11270000Y-3475000D01*
X11270000Y-3395000D02*
X11190000Y-3475000D01*
X11190000Y-3895000D02*
X11270000Y-3975000D01*
X11270000Y-3895000D02*
X11190000Y-3975000D01*
D13*
X11640000Y-4905000D02*
G75*
G03*
X11640000Y-4905000I-45000J0D01*
G01*
X11640000Y-5205000D02*
G75*
G03*
X11640000Y-5205000I-45000J0D01*
G01*
D14*
X8102600Y-3501800D02*
X8102600Y-3711800D01*
X7997600Y-3606800D02*
X8207600Y-3606800D01*
X8102600Y-4695600D02*
X8102600Y-4905600D01*
X7997600Y-4800600D02*
X8207600Y-4800600D01*
D11*
X8042619Y-5917524D02*
X8042619Y-5717524D01*
X8042619Y-5717524D02*
X8090238Y-5717524D01*
X8090238Y-5717524D02*
X8118809Y-5727048D01*
X8118809Y-5727048D02*
X8137857Y-5746095D01*
X8137857Y-5746095D02*
X8147381Y-5765143D01*
X8147381Y-5765143D02*
X8156905Y-5803238D01*
X8156905Y-5803238D02*
X8156905Y-5831809D01*
X8156905Y-5831809D02*
X8147381Y-5869905D01*
X8147381Y-5869905D02*
X8137857Y-5888952D01*
X8137857Y-5888952D02*
X8118809Y-5908000D01*
X8118809Y-5908000D02*
X8090238Y-5917524D01*
X8090238Y-5917524D02*
X8042619Y-5917524D01*
X8242619Y-5917524D02*
X8242619Y-5784190D01*
X8242619Y-5822286D02*
X8252143Y-5803238D01*
X8252143Y-5803238D02*
X8261667Y-5793714D01*
X8261667Y-5793714D02*
X8280714Y-5784190D01*
X8280714Y-5784190D02*
X8299762Y-5784190D01*
X8366428Y-5917524D02*
X8366428Y-5784190D01*
X8366428Y-5717524D02*
X8356905Y-5727048D01*
X8356905Y-5727048D02*
X8366428Y-5736571D01*
X8366428Y-5736571D02*
X8375952Y-5727048D01*
X8375952Y-5727048D02*
X8366428Y-5717524D01*
X8366428Y-5717524D02*
X8366428Y-5736571D01*
X8490238Y-5917524D02*
X8471190Y-5908000D01*
X8471190Y-5908000D02*
X8461667Y-5888952D01*
X8461667Y-5888952D02*
X8461667Y-5717524D01*
X8595000Y-5917524D02*
X8575952Y-5908000D01*
X8575952Y-5908000D02*
X8566429Y-5888952D01*
X8566429Y-5888952D02*
X8566429Y-5717524D01*
X8823571Y-5917524D02*
X8823571Y-5717524D01*
X8823571Y-5717524D02*
X8890238Y-5860381D01*
X8890238Y-5860381D02*
X8956905Y-5717524D01*
X8956905Y-5717524D02*
X8956905Y-5917524D01*
X9137857Y-5917524D02*
X9137857Y-5812762D01*
X9137857Y-5812762D02*
X9128333Y-5793714D01*
X9128333Y-5793714D02*
X9109286Y-5784190D01*
X9109286Y-5784190D02*
X9071190Y-5784190D01*
X9071190Y-5784190D02*
X9052143Y-5793714D01*
X9137857Y-5908000D02*
X9118810Y-5917524D01*
X9118810Y-5917524D02*
X9071190Y-5917524D01*
X9071190Y-5917524D02*
X9052143Y-5908000D01*
X9052143Y-5908000D02*
X9042619Y-5888952D01*
X9042619Y-5888952D02*
X9042619Y-5869905D01*
X9042619Y-5869905D02*
X9052143Y-5850857D01*
X9052143Y-5850857D02*
X9071190Y-5841333D01*
X9071190Y-5841333D02*
X9118810Y-5841333D01*
X9118810Y-5841333D02*
X9137857Y-5831809D01*
X9233095Y-5784190D02*
X9233095Y-5984190D01*
X9233095Y-5793714D02*
X9252143Y-5784190D01*
X9252143Y-5784190D02*
X9290238Y-5784190D01*
X9290238Y-5784190D02*
X9309286Y-5793714D01*
X9309286Y-5793714D02*
X9318810Y-5803238D01*
X9318810Y-5803238D02*
X9328333Y-5822286D01*
X9328333Y-5822286D02*
X9328333Y-5879428D01*
X9328333Y-5879428D02*
X9318810Y-5898476D01*
X9318810Y-5898476D02*
X9309286Y-5908000D01*
X9309286Y-5908000D02*
X9290238Y-5917524D01*
X9290238Y-5917524D02*
X9252143Y-5917524D01*
X9252143Y-5917524D02*
X9233095Y-5908000D01*
X9414048Y-5898476D02*
X9423571Y-5908000D01*
X9423571Y-5908000D02*
X9414048Y-5917524D01*
X9414048Y-5917524D02*
X9404524Y-5908000D01*
X9404524Y-5908000D02*
X9414048Y-5898476D01*
X9414048Y-5898476D02*
X9414048Y-5917524D01*
X9414048Y-5793714D02*
X9423571Y-5803238D01*
X9423571Y-5803238D02*
X9414048Y-5812762D01*
X9414048Y-5812762D02*
X9404524Y-5803238D01*
X9404524Y-5803238D02*
X9414048Y-5793714D01*
X9414048Y-5793714D02*
X9414048Y-5812762D01*
D12*
X7715000Y-6205000D02*
X7795000Y-6285000D01*
X7795000Y-6205000D02*
X7715000Y-6285000D01*
D11*
X8080714Y-6137524D02*
X8099762Y-6137524D01*
X8099762Y-6137524D02*
X8118809Y-6147048D01*
X8118809Y-6147048D02*
X8128333Y-6156571D01*
X8128333Y-6156571D02*
X8137857Y-6175619D01*
X8137857Y-6175619D02*
X8147381Y-6213714D01*
X8147381Y-6213714D02*
X8147381Y-6261333D01*
X8147381Y-6261333D02*
X8137857Y-6299428D01*
X8137857Y-6299428D02*
X8128333Y-6318476D01*
X8128333Y-6318476D02*
X8118809Y-6328000D01*
X8118809Y-6328000D02*
X8099762Y-6337524D01*
X8099762Y-6337524D02*
X8080714Y-6337524D01*
X8080714Y-6337524D02*
X8061667Y-6328000D01*
X8061667Y-6328000D02*
X8052143Y-6318476D01*
X8052143Y-6318476D02*
X8042619Y-6299428D01*
X8042619Y-6299428D02*
X8033095Y-6261333D01*
X8033095Y-6261333D02*
X8033095Y-6213714D01*
X8033095Y-6213714D02*
X8042619Y-6175619D01*
X8042619Y-6175619D02*
X8052143Y-6156571D01*
X8052143Y-6156571D02*
X8061667Y-6147048D01*
X8061667Y-6147048D02*
X8080714Y-6137524D01*
X8233095Y-6318476D02*
X8242619Y-6328000D01*
X8242619Y-6328000D02*
X8233095Y-6337524D01*
X8233095Y-6337524D02*
X8223571Y-6328000D01*
X8223571Y-6328000D02*
X8233095Y-6318476D01*
X8233095Y-6318476D02*
X8233095Y-6337524D01*
X8356905Y-6223238D02*
X8337857Y-6213714D01*
X8337857Y-6213714D02*
X8328333Y-6204190D01*
X8328333Y-6204190D02*
X8318809Y-6185143D01*
X8318809Y-6185143D02*
X8318809Y-6175619D01*
X8318809Y-6175619D02*
X8328333Y-6156571D01*
X8328333Y-6156571D02*
X8337857Y-6147048D01*
X8337857Y-6147048D02*
X8356905Y-6137524D01*
X8356905Y-6137524D02*
X8395000Y-6137524D01*
X8395000Y-6137524D02*
X8414048Y-6147048D01*
X8414048Y-6147048D02*
X8423571Y-6156571D01*
X8423571Y-6156571D02*
X8433095Y-6175619D01*
X8433095Y-6175619D02*
X8433095Y-6185143D01*
X8433095Y-6185143D02*
X8423571Y-6204190D01*
X8423571Y-6204190D02*
X8414048Y-6213714D01*
X8414048Y-6213714D02*
X8395000Y-6223238D01*
X8395000Y-6223238D02*
X8356905Y-6223238D01*
X8356905Y-6223238D02*
X8337857Y-6232762D01*
X8337857Y-6232762D02*
X8328333Y-6242286D01*
X8328333Y-6242286D02*
X8318809Y-6261333D01*
X8318809Y-6261333D02*
X8318809Y-6299428D01*
X8318809Y-6299428D02*
X8328333Y-6318476D01*
X8328333Y-6318476D02*
X8337857Y-6328000D01*
X8337857Y-6328000D02*
X8356905Y-6337524D01*
X8356905Y-6337524D02*
X8395000Y-6337524D01*
X8395000Y-6337524D02*
X8414048Y-6328000D01*
X8414048Y-6328000D02*
X8423571Y-6318476D01*
X8423571Y-6318476D02*
X8433095Y-6299428D01*
X8433095Y-6299428D02*
X8433095Y-6261333D01*
X8433095Y-6261333D02*
X8423571Y-6242286D01*
X8423571Y-6242286D02*
X8414048Y-6232762D01*
X8414048Y-6232762D02*
X8395000Y-6223238D01*
X8556905Y-6137524D02*
X8575952Y-6137524D01*
X8575952Y-6137524D02*
X8595000Y-6147048D01*
X8595000Y-6147048D02*
X8604524Y-6156571D01*
X8604524Y-6156571D02*
X8614048Y-6175619D01*
X8614048Y-6175619D02*
X8623571Y-6213714D01*
X8623571Y-6213714D02*
X8623571Y-6261333D01*
X8623571Y-6261333D02*
X8614048Y-6299428D01*
X8614048Y-6299428D02*
X8604524Y-6318476D01*
X8604524Y-6318476D02*
X8595000Y-6328000D01*
X8595000Y-6328000D02*
X8575952Y-6337524D01*
X8575952Y-6337524D02*
X8556905Y-6337524D01*
X8556905Y-6337524D02*
X8537857Y-6328000D01*
X8537857Y-6328000D02*
X8528333Y-6318476D01*
X8528333Y-6318476D02*
X8518810Y-6299428D01*
X8518810Y-6299428D02*
X8509286Y-6261333D01*
X8509286Y-6261333D02*
X8509286Y-6213714D01*
X8509286Y-6213714D02*
X8518810Y-6175619D01*
X8518810Y-6175619D02*
X8528333Y-6156571D01*
X8528333Y-6156571D02*
X8537857Y-6147048D01*
X8537857Y-6147048D02*
X8556905Y-6137524D01*
X8747381Y-6137524D02*
X8766429Y-6137524D01*
X8766429Y-6137524D02*
X8785476Y-6147048D01*
X8785476Y-6147048D02*
X8795000Y-6156571D01*
X8795000Y-6156571D02*
X8804524Y-6175619D01*
X8804524Y-6175619D02*
X8814048Y-6213714D01*
X8814048Y-6213714D02*
X8814048Y-6261333D01*
X8814048Y-6261333D02*
X8804524Y-6299428D01*
X8804524Y-6299428D02*
X8795000Y-6318476D01*
X8795000Y-6318476D02*
X8785476Y-6328000D01*
X8785476Y-6328000D02*
X8766429Y-6337524D01*
X8766429Y-6337524D02*
X8747381Y-6337524D01*
X8747381Y-6337524D02*
X8728333Y-6328000D01*
X8728333Y-6328000D02*
X8718810Y-6318476D01*
X8718810Y-6318476D02*
X8709286Y-6299428D01*
X8709286Y-6299428D02*
X8699762Y-6261333D01*
X8699762Y-6261333D02*
X8699762Y-6213714D01*
X8699762Y-6213714D02*
X8709286Y-6175619D01*
X8709286Y-6175619D02*
X8718810Y-6156571D01*
X8718810Y-6156571D02*
X8728333Y-6147048D01*
X8728333Y-6147048D02*
X8747381Y-6137524D01*
X8899762Y-6337524D02*
X8899762Y-6204190D01*
X8899762Y-6223238D02*
X8909286Y-6213714D01*
X8909286Y-6213714D02*
X8928333Y-6204190D01*
X8928333Y-6204190D02*
X8956905Y-6204190D01*
X8956905Y-6204190D02*
X8975952Y-6213714D01*
X8975952Y-6213714D02*
X8985476Y-6232762D01*
X8985476Y-6232762D02*
X8985476Y-6337524D01*
X8985476Y-6232762D02*
X8995000Y-6213714D01*
X8995000Y-6213714D02*
X9014048Y-6204190D01*
X9014048Y-6204190D02*
X9042619Y-6204190D01*
X9042619Y-6204190D02*
X9061667Y-6213714D01*
X9061667Y-6213714D02*
X9071191Y-6232762D01*
X9071191Y-6232762D02*
X9071191Y-6337524D01*
X9166429Y-6337524D02*
X9166429Y-6204190D01*
X9166429Y-6223238D02*
X9175952Y-6213714D01*
X9175952Y-6213714D02*
X9195000Y-6204190D01*
X9195000Y-6204190D02*
X9223572Y-6204190D01*
X9223572Y-6204190D02*
X9242619Y-6213714D01*
X9242619Y-6213714D02*
X9252143Y-6232762D01*
X9252143Y-6232762D02*
X9252143Y-6337524D01*
X9252143Y-6232762D02*
X9261667Y-6213714D01*
X9261667Y-6213714D02*
X9280714Y-6204190D01*
X9280714Y-6204190D02*
X9309286Y-6204190D01*
X9309286Y-6204190D02*
X9328333Y-6213714D01*
X9328333Y-6213714D02*
X9337857Y-6232762D01*
X9337857Y-6232762D02*
X9337857Y-6337524D01*
X9728333Y-6128000D02*
X9556905Y-6385143D01*
X9985476Y-6137524D02*
X10004524Y-6137524D01*
X10004524Y-6137524D02*
X10023572Y-6147048D01*
X10023572Y-6147048D02*
X10033095Y-6156571D01*
X10033095Y-6156571D02*
X10042619Y-6175619D01*
X10042619Y-6175619D02*
X10052143Y-6213714D01*
X10052143Y-6213714D02*
X10052143Y-6261333D01*
X10052143Y-6261333D02*
X10042619Y-6299428D01*
X10042619Y-6299428D02*
X10033095Y-6318476D01*
X10033095Y-6318476D02*
X10023572Y-6328000D01*
X10023572Y-6328000D02*
X10004524Y-6337524D01*
X10004524Y-6337524D02*
X9985476Y-6337524D01*
X9985476Y-6337524D02*
X9966429Y-6328000D01*
X9966429Y-6328000D02*
X9956905Y-6318476D01*
X9956905Y-6318476D02*
X9947381Y-6299428D01*
X9947381Y-6299428D02*
X9937857Y-6261333D01*
X9937857Y-6261333D02*
X9937857Y-6213714D01*
X9937857Y-6213714D02*
X9947381Y-6175619D01*
X9947381Y-6175619D02*
X9956905Y-6156571D01*
X9956905Y-6156571D02*
X9966429Y-6147048D01*
X9966429Y-6147048D02*
X9985476Y-6137524D01*
X10137857Y-6318476D02*
X10147381Y-6328000D01*
X10147381Y-6328000D02*
X10137857Y-6337524D01*
X10137857Y-6337524D02*
X10128334Y-6328000D01*
X10128334Y-6328000D02*
X10137857Y-6318476D01*
X10137857Y-6318476D02*
X10137857Y-6337524D01*
X10271191Y-6137524D02*
X10290238Y-6137524D01*
X10290238Y-6137524D02*
X10309286Y-6147048D01*
X10309286Y-6147048D02*
X10318810Y-6156571D01*
X10318810Y-6156571D02*
X10328334Y-6175619D01*
X10328334Y-6175619D02*
X10337857Y-6213714D01*
X10337857Y-6213714D02*
X10337857Y-6261333D01*
X10337857Y-6261333D02*
X10328334Y-6299428D01*
X10328334Y-6299428D02*
X10318810Y-6318476D01*
X10318810Y-6318476D02*
X10309286Y-6328000D01*
X10309286Y-6328000D02*
X10290238Y-6337524D01*
X10290238Y-6337524D02*
X10271191Y-6337524D01*
X10271191Y-6337524D02*
X10252143Y-6328000D01*
X10252143Y-6328000D02*
X10242619Y-6318476D01*
X10242619Y-6318476D02*
X10233095Y-6299428D01*
X10233095Y-6299428D02*
X10223572Y-6261333D01*
X10223572Y-6261333D02*
X10223572Y-6213714D01*
X10223572Y-6213714D02*
X10233095Y-6175619D01*
X10233095Y-6175619D02*
X10242619Y-6156571D01*
X10242619Y-6156571D02*
X10252143Y-6147048D01*
X10252143Y-6147048D02*
X10271191Y-6137524D01*
X10404524Y-6137524D02*
X10528334Y-6137524D01*
X10528334Y-6137524D02*
X10461667Y-6213714D01*
X10461667Y-6213714D02*
X10490238Y-6213714D01*
X10490238Y-6213714D02*
X10509286Y-6223238D01*
X10509286Y-6223238D02*
X10518810Y-6232762D01*
X10518810Y-6232762D02*
X10528334Y-6251809D01*
X10528334Y-6251809D02*
X10528334Y-6299428D01*
X10528334Y-6299428D02*
X10518810Y-6318476D01*
X10518810Y-6318476D02*
X10509286Y-6328000D01*
X10509286Y-6328000D02*
X10490238Y-6337524D01*
X10490238Y-6337524D02*
X10433095Y-6337524D01*
X10433095Y-6337524D02*
X10414048Y-6328000D01*
X10414048Y-6328000D02*
X10404524Y-6318476D01*
X10718810Y-6337524D02*
X10604524Y-6337524D01*
X10661667Y-6337524D02*
X10661667Y-6137524D01*
X10661667Y-6137524D02*
X10642619Y-6166095D01*
X10642619Y-6166095D02*
X10623572Y-6185143D01*
X10623572Y-6185143D02*
X10604524Y-6194667D01*
X10899762Y-6137524D02*
X10804524Y-6137524D01*
X10804524Y-6137524D02*
X10795000Y-6232762D01*
X10795000Y-6232762D02*
X10804524Y-6223238D01*
X10804524Y-6223238D02*
X10823572Y-6213714D01*
X10823572Y-6213714D02*
X10871191Y-6213714D01*
X10871191Y-6213714D02*
X10890238Y-6223238D01*
X10890238Y-6223238D02*
X10899762Y-6232762D01*
X10899762Y-6232762D02*
X10909286Y-6251809D01*
X10909286Y-6251809D02*
X10909286Y-6299428D01*
X10909286Y-6299428D02*
X10899762Y-6318476D01*
X10899762Y-6318476D02*
X10890238Y-6328000D01*
X10890238Y-6328000D02*
X10871191Y-6337524D01*
X10871191Y-6337524D02*
X10823572Y-6337524D01*
X10823572Y-6337524D02*
X10804524Y-6328000D01*
X10804524Y-6328000D02*
X10795000Y-6318476D01*
X10985476Y-6137524D02*
X10985476Y-6175619D01*
X11061667Y-6137524D02*
X11061667Y-6175619D01*
X11356905Y-6413714D02*
X11347381Y-6404190D01*
X11347381Y-6404190D02*
X11328334Y-6375619D01*
X11328334Y-6375619D02*
X11318810Y-6356571D01*
X11318810Y-6356571D02*
X11309286Y-6328000D01*
X11309286Y-6328000D02*
X11299762Y-6280381D01*
X11299762Y-6280381D02*
X11299762Y-6242286D01*
X11299762Y-6242286D02*
X11309286Y-6194667D01*
X11309286Y-6194667D02*
X11318810Y-6166095D01*
X11318810Y-6166095D02*
X11328334Y-6147048D01*
X11328334Y-6147048D02*
X11347381Y-6118476D01*
X11347381Y-6118476D02*
X11356905Y-6108952D01*
X11423572Y-6156571D02*
X11433095Y-6147048D01*
X11433095Y-6147048D02*
X11452143Y-6137524D01*
X11452143Y-6137524D02*
X11499762Y-6137524D01*
X11499762Y-6137524D02*
X11518810Y-6147048D01*
X11518810Y-6147048D02*
X11528334Y-6156571D01*
X11528334Y-6156571D02*
X11537857Y-6175619D01*
X11537857Y-6175619D02*
X11537857Y-6194667D01*
X11537857Y-6194667D02*
X11528334Y-6223238D01*
X11528334Y-6223238D02*
X11414048Y-6337524D01*
X11414048Y-6337524D02*
X11537857Y-6337524D01*
X11775953Y-6337524D02*
X11775953Y-6137524D01*
X11861667Y-6337524D02*
X11861667Y-6232762D01*
X11861667Y-6232762D02*
X11852143Y-6213714D01*
X11852143Y-6213714D02*
X11833096Y-6204190D01*
X11833096Y-6204190D02*
X11804524Y-6204190D01*
X11804524Y-6204190D02*
X11785476Y-6213714D01*
X11785476Y-6213714D02*
X11775953Y-6223238D01*
X11985476Y-6337524D02*
X11966429Y-6328000D01*
X11966429Y-6328000D02*
X11956905Y-6318476D01*
X11956905Y-6318476D02*
X11947381Y-6299428D01*
X11947381Y-6299428D02*
X11947381Y-6242286D01*
X11947381Y-6242286D02*
X11956905Y-6223238D01*
X11956905Y-6223238D02*
X11966429Y-6213714D01*
X11966429Y-6213714D02*
X11985476Y-6204190D01*
X11985476Y-6204190D02*
X12014048Y-6204190D01*
X12014048Y-6204190D02*
X12033096Y-6213714D01*
X12033096Y-6213714D02*
X12042619Y-6223238D01*
X12042619Y-6223238D02*
X12052143Y-6242286D01*
X12052143Y-6242286D02*
X12052143Y-6299428D01*
X12052143Y-6299428D02*
X12042619Y-6318476D01*
X12042619Y-6318476D02*
X12033096Y-6328000D01*
X12033096Y-6328000D02*
X12014048Y-6337524D01*
X12014048Y-6337524D02*
X11985476Y-6337524D01*
X12166429Y-6337524D02*
X12147381Y-6328000D01*
X12147381Y-6328000D02*
X12137857Y-6308952D01*
X12137857Y-6308952D02*
X12137857Y-6137524D01*
X12318810Y-6328000D02*
X12299762Y-6337524D01*
X12299762Y-6337524D02*
X12261667Y-6337524D01*
X12261667Y-6337524D02*
X12242619Y-6328000D01*
X12242619Y-6328000D02*
X12233096Y-6308952D01*
X12233096Y-6308952D02*
X12233096Y-6232762D01*
X12233096Y-6232762D02*
X12242619Y-6213714D01*
X12242619Y-6213714D02*
X12261667Y-6204190D01*
X12261667Y-6204190D02*
X12299762Y-6204190D01*
X12299762Y-6204190D02*
X12318810Y-6213714D01*
X12318810Y-6213714D02*
X12328334Y-6232762D01*
X12328334Y-6232762D02*
X12328334Y-6251809D01*
X12328334Y-6251809D02*
X12233096Y-6270857D01*
X12404524Y-6328000D02*
X12423572Y-6337524D01*
X12423572Y-6337524D02*
X12461667Y-6337524D01*
X12461667Y-6337524D02*
X12480715Y-6328000D01*
X12480715Y-6328000D02*
X12490238Y-6308952D01*
X12490238Y-6308952D02*
X12490238Y-6299428D01*
X12490238Y-6299428D02*
X12480715Y-6280381D01*
X12480715Y-6280381D02*
X12461667Y-6270857D01*
X12461667Y-6270857D02*
X12433096Y-6270857D01*
X12433096Y-6270857D02*
X12414048Y-6261333D01*
X12414048Y-6261333D02*
X12404524Y-6242286D01*
X12404524Y-6242286D02*
X12404524Y-6232762D01*
X12404524Y-6232762D02*
X12414048Y-6213714D01*
X12414048Y-6213714D02*
X12433096Y-6204190D01*
X12433096Y-6204190D02*
X12461667Y-6204190D01*
X12461667Y-6204190D02*
X12480715Y-6213714D01*
X12556905Y-6413714D02*
X12566429Y-6404190D01*
X12566429Y-6404190D02*
X12585477Y-6375619D01*
X12585477Y-6375619D02*
X12595000Y-6356571D01*
X12595000Y-6356571D02*
X12604524Y-6328000D01*
X12604524Y-6328000D02*
X12614048Y-6280381D01*
X12614048Y-6280381D02*
X12614048Y-6242286D01*
X12614048Y-6242286D02*
X12604524Y-6194667D01*
X12604524Y-6194667D02*
X12595000Y-6166095D01*
X12595000Y-6166095D02*
X12585477Y-6147048D01*
X12585477Y-6147048D02*
X12566429Y-6118476D01*
X12566429Y-6118476D02*
X12556905Y-6108952D01*
X12918810Y-6413714D02*
X12909286Y-6404190D01*
X12909286Y-6404190D02*
X12890238Y-6375619D01*
X12890238Y-6375619D02*
X12880715Y-6356571D01*
X12880715Y-6356571D02*
X12871191Y-6328000D01*
X12871191Y-6328000D02*
X12861667Y-6280381D01*
X12861667Y-6280381D02*
X12861667Y-6242286D01*
X12861667Y-6242286D02*
X12871191Y-6194667D01*
X12871191Y-6194667D02*
X12880715Y-6166095D01*
X12880715Y-6166095D02*
X12890238Y-6147048D01*
X12890238Y-6147048D02*
X12909286Y-6118476D01*
X12909286Y-6118476D02*
X12918810Y-6108952D01*
X12995000Y-6204190D02*
X12995000Y-6337524D01*
X12995000Y-6223238D02*
X13004524Y-6213714D01*
X13004524Y-6213714D02*
X13023572Y-6204190D01*
X13023572Y-6204190D02*
X13052143Y-6204190D01*
X13052143Y-6204190D02*
X13071191Y-6213714D01*
X13071191Y-6213714D02*
X13080715Y-6232762D01*
X13080715Y-6232762D02*
X13080715Y-6337524D01*
X13204524Y-6337524D02*
X13185477Y-6328000D01*
X13185477Y-6328000D02*
X13175953Y-6318476D01*
X13175953Y-6318476D02*
X13166429Y-6299428D01*
X13166429Y-6299428D02*
X13166429Y-6242286D01*
X13166429Y-6242286D02*
X13175953Y-6223238D01*
X13175953Y-6223238D02*
X13185477Y-6213714D01*
X13185477Y-6213714D02*
X13204524Y-6204190D01*
X13204524Y-6204190D02*
X13233096Y-6204190D01*
X13233096Y-6204190D02*
X13252143Y-6213714D01*
X13252143Y-6213714D02*
X13261667Y-6223238D01*
X13261667Y-6223238D02*
X13271191Y-6242286D01*
X13271191Y-6242286D02*
X13271191Y-6299428D01*
X13271191Y-6299428D02*
X13261667Y-6318476D01*
X13261667Y-6318476D02*
X13252143Y-6328000D01*
X13252143Y-6328000D02*
X13233096Y-6337524D01*
X13233096Y-6337524D02*
X13204524Y-6337524D01*
X13328334Y-6204190D02*
X13404524Y-6204190D01*
X13356905Y-6137524D02*
X13356905Y-6308952D01*
X13356905Y-6308952D02*
X13366429Y-6328000D01*
X13366429Y-6328000D02*
X13385477Y-6337524D01*
X13385477Y-6337524D02*
X13404524Y-6337524D01*
X13623572Y-6204190D02*
X13623572Y-6404190D01*
X13623572Y-6213714D02*
X13642619Y-6204190D01*
X13642619Y-6204190D02*
X13680715Y-6204190D01*
X13680715Y-6204190D02*
X13699762Y-6213714D01*
X13699762Y-6213714D02*
X13709286Y-6223238D01*
X13709286Y-6223238D02*
X13718810Y-6242286D01*
X13718810Y-6242286D02*
X13718810Y-6299428D01*
X13718810Y-6299428D02*
X13709286Y-6318476D01*
X13709286Y-6318476D02*
X13699762Y-6328000D01*
X13699762Y-6328000D02*
X13680715Y-6337524D01*
X13680715Y-6337524D02*
X13642619Y-6337524D01*
X13642619Y-6337524D02*
X13623572Y-6328000D01*
X13833096Y-6337524D02*
X13814048Y-6328000D01*
X13814048Y-6328000D02*
X13804524Y-6308952D01*
X13804524Y-6308952D02*
X13804524Y-6137524D01*
X13995000Y-6337524D02*
X13995000Y-6232762D01*
X13995000Y-6232762D02*
X13985477Y-6213714D01*
X13985477Y-6213714D02*
X13966429Y-6204190D01*
X13966429Y-6204190D02*
X13928334Y-6204190D01*
X13928334Y-6204190D02*
X13909286Y-6213714D01*
X13995000Y-6328000D02*
X13975953Y-6337524D01*
X13975953Y-6337524D02*
X13928334Y-6337524D01*
X13928334Y-6337524D02*
X13909286Y-6328000D01*
X13909286Y-6328000D02*
X13899762Y-6308952D01*
X13899762Y-6308952D02*
X13899762Y-6289905D01*
X13899762Y-6289905D02*
X13909286Y-6270857D01*
X13909286Y-6270857D02*
X13928334Y-6261333D01*
X13928334Y-6261333D02*
X13975953Y-6261333D01*
X13975953Y-6261333D02*
X13995000Y-6251809D01*
X14061667Y-6204190D02*
X14137858Y-6204190D01*
X14090239Y-6137524D02*
X14090239Y-6308952D01*
X14090239Y-6308952D02*
X14099762Y-6328000D01*
X14099762Y-6328000D02*
X14118810Y-6337524D01*
X14118810Y-6337524D02*
X14137858Y-6337524D01*
X14280715Y-6328000D02*
X14261667Y-6337524D01*
X14261667Y-6337524D02*
X14223572Y-6337524D01*
X14223572Y-6337524D02*
X14204524Y-6328000D01*
X14204524Y-6328000D02*
X14195000Y-6308952D01*
X14195000Y-6308952D02*
X14195000Y-6232762D01*
X14195000Y-6232762D02*
X14204524Y-6213714D01*
X14204524Y-6213714D02*
X14223572Y-6204190D01*
X14223572Y-6204190D02*
X14261667Y-6204190D01*
X14261667Y-6204190D02*
X14280715Y-6213714D01*
X14280715Y-6213714D02*
X14290239Y-6232762D01*
X14290239Y-6232762D02*
X14290239Y-6251809D01*
X14290239Y-6251809D02*
X14195000Y-6270857D01*
X14461667Y-6337524D02*
X14461667Y-6137524D01*
X14461667Y-6328000D02*
X14442620Y-6337524D01*
X14442620Y-6337524D02*
X14404524Y-6337524D01*
X14404524Y-6337524D02*
X14385477Y-6328000D01*
X14385477Y-6328000D02*
X14375953Y-6318476D01*
X14375953Y-6318476D02*
X14366429Y-6299428D01*
X14366429Y-6299428D02*
X14366429Y-6242286D01*
X14366429Y-6242286D02*
X14375953Y-6223238D01*
X14375953Y-6223238D02*
X14385477Y-6213714D01*
X14385477Y-6213714D02*
X14404524Y-6204190D01*
X14404524Y-6204190D02*
X14442620Y-6204190D01*
X14442620Y-6204190D02*
X14461667Y-6213714D01*
X14537858Y-6413714D02*
X14547381Y-6404190D01*
X14547381Y-6404190D02*
X14566429Y-6375619D01*
X14566429Y-6375619D02*
X14575953Y-6356571D01*
X14575953Y-6356571D02*
X14585477Y-6328000D01*
X14585477Y-6328000D02*
X14595000Y-6280381D01*
X14595000Y-6280381D02*
X14595000Y-6242286D01*
X14595000Y-6242286D02*
X14585477Y-6194667D01*
X14585477Y-6194667D02*
X14575953Y-6166095D01*
X14575953Y-6166095D02*
X14566429Y-6147048D01*
X14566429Y-6147048D02*
X14547381Y-6118476D01*
X14547381Y-6118476D02*
X14537858Y-6108952D01*
D13*
X7795000Y-6509000D02*
G75*
G03*
X7795000Y-6509000I-45000J0D01*
G01*
D11*
X8080714Y-6401524D02*
X8099762Y-6401524D01*
X8099762Y-6401524D02*
X8118809Y-6411048D01*
X8118809Y-6411048D02*
X8128333Y-6420571D01*
X8128333Y-6420571D02*
X8137857Y-6439619D01*
X8137857Y-6439619D02*
X8147381Y-6477714D01*
X8147381Y-6477714D02*
X8147381Y-6525333D01*
X8147381Y-6525333D02*
X8137857Y-6563428D01*
X8137857Y-6563428D02*
X8128333Y-6582476D01*
X8128333Y-6582476D02*
X8118809Y-6592000D01*
X8118809Y-6592000D02*
X8099762Y-6601524D01*
X8099762Y-6601524D02*
X8080714Y-6601524D01*
X8080714Y-6601524D02*
X8061667Y-6592000D01*
X8061667Y-6592000D02*
X8052143Y-6582476D01*
X8052143Y-6582476D02*
X8042619Y-6563428D01*
X8042619Y-6563428D02*
X8033095Y-6525333D01*
X8033095Y-6525333D02*
X8033095Y-6477714D01*
X8033095Y-6477714D02*
X8042619Y-6439619D01*
X8042619Y-6439619D02*
X8052143Y-6420571D01*
X8052143Y-6420571D02*
X8061667Y-6411048D01*
X8061667Y-6411048D02*
X8080714Y-6401524D01*
X8233095Y-6582476D02*
X8242619Y-6592000D01*
X8242619Y-6592000D02*
X8233095Y-6601524D01*
X8233095Y-6601524D02*
X8223571Y-6592000D01*
X8223571Y-6592000D02*
X8233095Y-6582476D01*
X8233095Y-6582476D02*
X8233095Y-6601524D01*
X8337857Y-6601524D02*
X8375952Y-6601524D01*
X8375952Y-6601524D02*
X8395000Y-6592000D01*
X8395000Y-6592000D02*
X8404524Y-6582476D01*
X8404524Y-6582476D02*
X8423571Y-6553905D01*
X8423571Y-6553905D02*
X8433095Y-6515809D01*
X8433095Y-6515809D02*
X8433095Y-6439619D01*
X8433095Y-6439619D02*
X8423571Y-6420571D01*
X8423571Y-6420571D02*
X8414048Y-6411048D01*
X8414048Y-6411048D02*
X8395000Y-6401524D01*
X8395000Y-6401524D02*
X8356905Y-6401524D01*
X8356905Y-6401524D02*
X8337857Y-6411048D01*
X8337857Y-6411048D02*
X8328333Y-6420571D01*
X8328333Y-6420571D02*
X8318809Y-6439619D01*
X8318809Y-6439619D02*
X8318809Y-6487238D01*
X8318809Y-6487238D02*
X8328333Y-6506286D01*
X8328333Y-6506286D02*
X8337857Y-6515809D01*
X8337857Y-6515809D02*
X8356905Y-6525333D01*
X8356905Y-6525333D02*
X8395000Y-6525333D01*
X8395000Y-6525333D02*
X8414048Y-6515809D01*
X8414048Y-6515809D02*
X8423571Y-6506286D01*
X8423571Y-6506286D02*
X8433095Y-6487238D01*
X8556905Y-6401524D02*
X8575952Y-6401524D01*
X8575952Y-6401524D02*
X8595000Y-6411048D01*
X8595000Y-6411048D02*
X8604524Y-6420571D01*
X8604524Y-6420571D02*
X8614048Y-6439619D01*
X8614048Y-6439619D02*
X8623571Y-6477714D01*
X8623571Y-6477714D02*
X8623571Y-6525333D01*
X8623571Y-6525333D02*
X8614048Y-6563428D01*
X8614048Y-6563428D02*
X8604524Y-6582476D01*
X8604524Y-6582476D02*
X8595000Y-6592000D01*
X8595000Y-6592000D02*
X8575952Y-6601524D01*
X8575952Y-6601524D02*
X8556905Y-6601524D01*
X8556905Y-6601524D02*
X8537857Y-6592000D01*
X8537857Y-6592000D02*
X8528333Y-6582476D01*
X8528333Y-6582476D02*
X8518810Y-6563428D01*
X8518810Y-6563428D02*
X8509286Y-6525333D01*
X8509286Y-6525333D02*
X8509286Y-6477714D01*
X8509286Y-6477714D02*
X8518810Y-6439619D01*
X8518810Y-6439619D02*
X8528333Y-6420571D01*
X8528333Y-6420571D02*
X8537857Y-6411048D01*
X8537857Y-6411048D02*
X8556905Y-6401524D01*
X8747381Y-6401524D02*
X8766429Y-6401524D01*
X8766429Y-6401524D02*
X8785476Y-6411048D01*
X8785476Y-6411048D02*
X8795000Y-6420571D01*
X8795000Y-6420571D02*
X8804524Y-6439619D01*
X8804524Y-6439619D02*
X8814048Y-6477714D01*
X8814048Y-6477714D02*
X8814048Y-6525333D01*
X8814048Y-6525333D02*
X8804524Y-6563428D01*
X8804524Y-6563428D02*
X8795000Y-6582476D01*
X8795000Y-6582476D02*
X8785476Y-6592000D01*
X8785476Y-6592000D02*
X8766429Y-6601524D01*
X8766429Y-6601524D02*
X8747381Y-6601524D01*
X8747381Y-6601524D02*
X8728333Y-6592000D01*
X8728333Y-6592000D02*
X8718810Y-6582476D01*
X8718810Y-6582476D02*
X8709286Y-6563428D01*
X8709286Y-6563428D02*
X8699762Y-6525333D01*
X8699762Y-6525333D02*
X8699762Y-6477714D01*
X8699762Y-6477714D02*
X8709286Y-6439619D01*
X8709286Y-6439619D02*
X8718810Y-6420571D01*
X8718810Y-6420571D02*
X8728333Y-6411048D01*
X8728333Y-6411048D02*
X8747381Y-6401524D01*
X8899762Y-6601524D02*
X8899762Y-6468190D01*
X8899762Y-6487238D02*
X8909286Y-6477714D01*
X8909286Y-6477714D02*
X8928333Y-6468190D01*
X8928333Y-6468190D02*
X8956905Y-6468190D01*
X8956905Y-6468190D02*
X8975952Y-6477714D01*
X8975952Y-6477714D02*
X8985476Y-6496762D01*
X8985476Y-6496762D02*
X8985476Y-6601524D01*
X8985476Y-6496762D02*
X8995000Y-6477714D01*
X8995000Y-6477714D02*
X9014048Y-6468190D01*
X9014048Y-6468190D02*
X9042619Y-6468190D01*
X9042619Y-6468190D02*
X9061667Y-6477714D01*
X9061667Y-6477714D02*
X9071191Y-6496762D01*
X9071191Y-6496762D02*
X9071191Y-6601524D01*
X9166429Y-6601524D02*
X9166429Y-6468190D01*
X9166429Y-6487238D02*
X9175952Y-6477714D01*
X9175952Y-6477714D02*
X9195000Y-6468190D01*
X9195000Y-6468190D02*
X9223572Y-6468190D01*
X9223572Y-6468190D02*
X9242619Y-6477714D01*
X9242619Y-6477714D02*
X9252143Y-6496762D01*
X9252143Y-6496762D02*
X9252143Y-6601524D01*
X9252143Y-6496762D02*
X9261667Y-6477714D01*
X9261667Y-6477714D02*
X9280714Y-6468190D01*
X9280714Y-6468190D02*
X9309286Y-6468190D01*
X9309286Y-6468190D02*
X9328333Y-6477714D01*
X9328333Y-6477714D02*
X9337857Y-6496762D01*
X9337857Y-6496762D02*
X9337857Y-6601524D01*
X9728333Y-6392000D02*
X9556905Y-6649143D01*
X9985476Y-6401524D02*
X10004524Y-6401524D01*
X10004524Y-6401524D02*
X10023572Y-6411048D01*
X10023572Y-6411048D02*
X10033095Y-6420571D01*
X10033095Y-6420571D02*
X10042619Y-6439619D01*
X10042619Y-6439619D02*
X10052143Y-6477714D01*
X10052143Y-6477714D02*
X10052143Y-6525333D01*
X10052143Y-6525333D02*
X10042619Y-6563428D01*
X10042619Y-6563428D02*
X10033095Y-6582476D01*
X10033095Y-6582476D02*
X10023572Y-6592000D01*
X10023572Y-6592000D02*
X10004524Y-6601524D01*
X10004524Y-6601524D02*
X9985476Y-6601524D01*
X9985476Y-6601524D02*
X9966429Y-6592000D01*
X9966429Y-6592000D02*
X9956905Y-6582476D01*
X9956905Y-6582476D02*
X9947381Y-6563428D01*
X9947381Y-6563428D02*
X9937857Y-6525333D01*
X9937857Y-6525333D02*
X9937857Y-6477714D01*
X9937857Y-6477714D02*
X9947381Y-6439619D01*
X9947381Y-6439619D02*
X9956905Y-6420571D01*
X9956905Y-6420571D02*
X9966429Y-6411048D01*
X9966429Y-6411048D02*
X9985476Y-6401524D01*
X10137857Y-6582476D02*
X10147381Y-6592000D01*
X10147381Y-6592000D02*
X10137857Y-6601524D01*
X10137857Y-6601524D02*
X10128334Y-6592000D01*
X10128334Y-6592000D02*
X10137857Y-6582476D01*
X10137857Y-6582476D02*
X10137857Y-6601524D01*
X10271191Y-6401524D02*
X10290238Y-6401524D01*
X10290238Y-6401524D02*
X10309286Y-6411048D01*
X10309286Y-6411048D02*
X10318810Y-6420571D01*
X10318810Y-6420571D02*
X10328334Y-6439619D01*
X10328334Y-6439619D02*
X10337857Y-6477714D01*
X10337857Y-6477714D02*
X10337857Y-6525333D01*
X10337857Y-6525333D02*
X10328334Y-6563428D01*
X10328334Y-6563428D02*
X10318810Y-6582476D01*
X10318810Y-6582476D02*
X10309286Y-6592000D01*
X10309286Y-6592000D02*
X10290238Y-6601524D01*
X10290238Y-6601524D02*
X10271191Y-6601524D01*
X10271191Y-6601524D02*
X10252143Y-6592000D01*
X10252143Y-6592000D02*
X10242619Y-6582476D01*
X10242619Y-6582476D02*
X10233095Y-6563428D01*
X10233095Y-6563428D02*
X10223572Y-6525333D01*
X10223572Y-6525333D02*
X10223572Y-6477714D01*
X10223572Y-6477714D02*
X10233095Y-6439619D01*
X10233095Y-6439619D02*
X10242619Y-6420571D01*
X10242619Y-6420571D02*
X10252143Y-6411048D01*
X10252143Y-6411048D02*
X10271191Y-6401524D01*
X10404524Y-6401524D02*
X10528334Y-6401524D01*
X10528334Y-6401524D02*
X10461667Y-6477714D01*
X10461667Y-6477714D02*
X10490238Y-6477714D01*
X10490238Y-6477714D02*
X10509286Y-6487238D01*
X10509286Y-6487238D02*
X10518810Y-6496762D01*
X10518810Y-6496762D02*
X10528334Y-6515809D01*
X10528334Y-6515809D02*
X10528334Y-6563428D01*
X10528334Y-6563428D02*
X10518810Y-6582476D01*
X10518810Y-6582476D02*
X10509286Y-6592000D01*
X10509286Y-6592000D02*
X10490238Y-6601524D01*
X10490238Y-6601524D02*
X10433095Y-6601524D01*
X10433095Y-6601524D02*
X10414048Y-6592000D01*
X10414048Y-6592000D02*
X10404524Y-6582476D01*
X10709286Y-6401524D02*
X10614048Y-6401524D01*
X10614048Y-6401524D02*
X10604524Y-6496762D01*
X10604524Y-6496762D02*
X10614048Y-6487238D01*
X10614048Y-6487238D02*
X10633095Y-6477714D01*
X10633095Y-6477714D02*
X10680715Y-6477714D01*
X10680715Y-6477714D02*
X10699762Y-6487238D01*
X10699762Y-6487238D02*
X10709286Y-6496762D01*
X10709286Y-6496762D02*
X10718810Y-6515809D01*
X10718810Y-6515809D02*
X10718810Y-6563428D01*
X10718810Y-6563428D02*
X10709286Y-6582476D01*
X10709286Y-6582476D02*
X10699762Y-6592000D01*
X10699762Y-6592000D02*
X10680715Y-6601524D01*
X10680715Y-6601524D02*
X10633095Y-6601524D01*
X10633095Y-6601524D02*
X10614048Y-6592000D01*
X10614048Y-6592000D02*
X10604524Y-6582476D01*
X10890238Y-6468190D02*
X10890238Y-6601524D01*
X10842619Y-6392000D02*
X10795000Y-6534857D01*
X10795000Y-6534857D02*
X10918810Y-6534857D01*
X10985476Y-6401524D02*
X10985476Y-6439619D01*
X11061667Y-6401524D02*
X11061667Y-6439619D01*
X11356905Y-6677714D02*
X11347381Y-6668190D01*
X11347381Y-6668190D02*
X11328334Y-6639619D01*
X11328334Y-6639619D02*
X11318810Y-6620571D01*
X11318810Y-6620571D02*
X11309286Y-6592000D01*
X11309286Y-6592000D02*
X11299762Y-6544381D01*
X11299762Y-6544381D02*
X11299762Y-6506286D01*
X11299762Y-6506286D02*
X11309286Y-6458667D01*
X11309286Y-6458667D02*
X11318810Y-6430095D01*
X11318810Y-6430095D02*
X11328334Y-6411048D01*
X11328334Y-6411048D02*
X11347381Y-6382476D01*
X11347381Y-6382476D02*
X11356905Y-6372952D01*
X11423572Y-6420571D02*
X11433095Y-6411048D01*
X11433095Y-6411048D02*
X11452143Y-6401524D01*
X11452143Y-6401524D02*
X11499762Y-6401524D01*
X11499762Y-6401524D02*
X11518810Y-6411048D01*
X11518810Y-6411048D02*
X11528334Y-6420571D01*
X11528334Y-6420571D02*
X11537857Y-6439619D01*
X11537857Y-6439619D02*
X11537857Y-6458667D01*
X11537857Y-6458667D02*
X11528334Y-6487238D01*
X11528334Y-6487238D02*
X11414048Y-6601524D01*
X11414048Y-6601524D02*
X11537857Y-6601524D01*
X11775953Y-6601524D02*
X11775953Y-6401524D01*
X11861667Y-6601524D02*
X11861667Y-6496762D01*
X11861667Y-6496762D02*
X11852143Y-6477714D01*
X11852143Y-6477714D02*
X11833096Y-6468190D01*
X11833096Y-6468190D02*
X11804524Y-6468190D01*
X11804524Y-6468190D02*
X11785476Y-6477714D01*
X11785476Y-6477714D02*
X11775953Y-6487238D01*
X11985476Y-6601524D02*
X11966429Y-6592000D01*
X11966429Y-6592000D02*
X11956905Y-6582476D01*
X11956905Y-6582476D02*
X11947381Y-6563428D01*
X11947381Y-6563428D02*
X11947381Y-6506286D01*
X11947381Y-6506286D02*
X11956905Y-6487238D01*
X11956905Y-6487238D02*
X11966429Y-6477714D01*
X11966429Y-6477714D02*
X11985476Y-6468190D01*
X11985476Y-6468190D02*
X12014048Y-6468190D01*
X12014048Y-6468190D02*
X12033096Y-6477714D01*
X12033096Y-6477714D02*
X12042619Y-6487238D01*
X12042619Y-6487238D02*
X12052143Y-6506286D01*
X12052143Y-6506286D02*
X12052143Y-6563428D01*
X12052143Y-6563428D02*
X12042619Y-6582476D01*
X12042619Y-6582476D02*
X12033096Y-6592000D01*
X12033096Y-6592000D02*
X12014048Y-6601524D01*
X12014048Y-6601524D02*
X11985476Y-6601524D01*
X12166429Y-6601524D02*
X12147381Y-6592000D01*
X12147381Y-6592000D02*
X12137857Y-6572952D01*
X12137857Y-6572952D02*
X12137857Y-6401524D01*
X12318810Y-6592000D02*
X12299762Y-6601524D01*
X12299762Y-6601524D02*
X12261667Y-6601524D01*
X12261667Y-6601524D02*
X12242619Y-6592000D01*
X12242619Y-6592000D02*
X12233096Y-6572952D01*
X12233096Y-6572952D02*
X12233096Y-6496762D01*
X12233096Y-6496762D02*
X12242619Y-6477714D01*
X12242619Y-6477714D02*
X12261667Y-6468190D01*
X12261667Y-6468190D02*
X12299762Y-6468190D01*
X12299762Y-6468190D02*
X12318810Y-6477714D01*
X12318810Y-6477714D02*
X12328334Y-6496762D01*
X12328334Y-6496762D02*
X12328334Y-6515809D01*
X12328334Y-6515809D02*
X12233096Y-6534857D01*
X12404524Y-6592000D02*
X12423572Y-6601524D01*
X12423572Y-6601524D02*
X12461667Y-6601524D01*
X12461667Y-6601524D02*
X12480715Y-6592000D01*
X12480715Y-6592000D02*
X12490238Y-6572952D01*
X12490238Y-6572952D02*
X12490238Y-6563428D01*
X12490238Y-6563428D02*
X12480715Y-6544381D01*
X12480715Y-6544381D02*
X12461667Y-6534857D01*
X12461667Y-6534857D02*
X12433096Y-6534857D01*
X12433096Y-6534857D02*
X12414048Y-6525333D01*
X12414048Y-6525333D02*
X12404524Y-6506286D01*
X12404524Y-6506286D02*
X12404524Y-6496762D01*
X12404524Y-6496762D02*
X12414048Y-6477714D01*
X12414048Y-6477714D02*
X12433096Y-6468190D01*
X12433096Y-6468190D02*
X12461667Y-6468190D01*
X12461667Y-6468190D02*
X12480715Y-6477714D01*
X12556905Y-6677714D02*
X12566429Y-6668190D01*
X12566429Y-6668190D02*
X12585477Y-6639619D01*
X12585477Y-6639619D02*
X12595000Y-6620571D01*
X12595000Y-6620571D02*
X12604524Y-6592000D01*
X12604524Y-6592000D02*
X12614048Y-6544381D01*
X12614048Y-6544381D02*
X12614048Y-6506286D01*
X12614048Y-6506286D02*
X12604524Y-6458667D01*
X12604524Y-6458667D02*
X12595000Y-6430095D01*
X12595000Y-6430095D02*
X12585477Y-6411048D01*
X12585477Y-6411048D02*
X12566429Y-6382476D01*
X12566429Y-6382476D02*
X12556905Y-6372952D01*
X12918810Y-6677714D02*
X12909286Y-6668190D01*
X12909286Y-6668190D02*
X12890238Y-6639619D01*
X12890238Y-6639619D02*
X12880715Y-6620571D01*
X12880715Y-6620571D02*
X12871191Y-6592000D01*
X12871191Y-6592000D02*
X12861667Y-6544381D01*
X12861667Y-6544381D02*
X12861667Y-6506286D01*
X12861667Y-6506286D02*
X12871191Y-6458667D01*
X12871191Y-6458667D02*
X12880715Y-6430095D01*
X12880715Y-6430095D02*
X12890238Y-6411048D01*
X12890238Y-6411048D02*
X12909286Y-6382476D01*
X12909286Y-6382476D02*
X12918810Y-6372952D01*
X12995000Y-6468190D02*
X12995000Y-6601524D01*
X12995000Y-6487238D02*
X13004524Y-6477714D01*
X13004524Y-6477714D02*
X13023572Y-6468190D01*
X13023572Y-6468190D02*
X13052143Y-6468190D01*
X13052143Y-6468190D02*
X13071191Y-6477714D01*
X13071191Y-6477714D02*
X13080715Y-6496762D01*
X13080715Y-6496762D02*
X13080715Y-6601524D01*
X13204524Y-6601524D02*
X13185477Y-6592000D01*
X13185477Y-6592000D02*
X13175953Y-6582476D01*
X13175953Y-6582476D02*
X13166429Y-6563428D01*
X13166429Y-6563428D02*
X13166429Y-6506286D01*
X13166429Y-6506286D02*
X13175953Y-6487238D01*
X13175953Y-6487238D02*
X13185477Y-6477714D01*
X13185477Y-6477714D02*
X13204524Y-6468190D01*
X13204524Y-6468190D02*
X13233096Y-6468190D01*
X13233096Y-6468190D02*
X13252143Y-6477714D01*
X13252143Y-6477714D02*
X13261667Y-6487238D01*
X13261667Y-6487238D02*
X13271191Y-6506286D01*
X13271191Y-6506286D02*
X13271191Y-6563428D01*
X13271191Y-6563428D02*
X13261667Y-6582476D01*
X13261667Y-6582476D02*
X13252143Y-6592000D01*
X13252143Y-6592000D02*
X13233096Y-6601524D01*
X13233096Y-6601524D02*
X13204524Y-6601524D01*
X13328334Y-6468190D02*
X13404524Y-6468190D01*
X13356905Y-6401524D02*
X13356905Y-6572952D01*
X13356905Y-6572952D02*
X13366429Y-6592000D01*
X13366429Y-6592000D02*
X13385477Y-6601524D01*
X13385477Y-6601524D02*
X13404524Y-6601524D01*
X13623572Y-6468190D02*
X13623572Y-6668190D01*
X13623572Y-6477714D02*
X13642619Y-6468190D01*
X13642619Y-6468190D02*
X13680715Y-6468190D01*
X13680715Y-6468190D02*
X13699762Y-6477714D01*
X13699762Y-6477714D02*
X13709286Y-6487238D01*
X13709286Y-6487238D02*
X13718810Y-6506286D01*
X13718810Y-6506286D02*
X13718810Y-6563428D01*
X13718810Y-6563428D02*
X13709286Y-6582476D01*
X13709286Y-6582476D02*
X13699762Y-6592000D01*
X13699762Y-6592000D02*
X13680715Y-6601524D01*
X13680715Y-6601524D02*
X13642619Y-6601524D01*
X13642619Y-6601524D02*
X13623572Y-6592000D01*
X13833096Y-6601524D02*
X13814048Y-6592000D01*
X13814048Y-6592000D02*
X13804524Y-6572952D01*
X13804524Y-6572952D02*
X13804524Y-6401524D01*
X13995000Y-6601524D02*
X13995000Y-6496762D01*
X13995000Y-6496762D02*
X13985477Y-6477714D01*
X13985477Y-6477714D02*
X13966429Y-6468190D01*
X13966429Y-6468190D02*
X13928334Y-6468190D01*
X13928334Y-6468190D02*
X13909286Y-6477714D01*
X13995000Y-6592000D02*
X13975953Y-6601524D01*
X13975953Y-6601524D02*
X13928334Y-6601524D01*
X13928334Y-6601524D02*
X13909286Y-6592000D01*
X13909286Y-6592000D02*
X13899762Y-6572952D01*
X13899762Y-6572952D02*
X13899762Y-6553905D01*
X13899762Y-6553905D02*
X13909286Y-6534857D01*
X13909286Y-6534857D02*
X13928334Y-6525333D01*
X13928334Y-6525333D02*
X13975953Y-6525333D01*
X13975953Y-6525333D02*
X13995000Y-6515809D01*
X14061667Y-6468190D02*
X14137858Y-6468190D01*
X14090239Y-6401524D02*
X14090239Y-6572952D01*
X14090239Y-6572952D02*
X14099762Y-6592000D01*
X14099762Y-6592000D02*
X14118810Y-6601524D01*
X14118810Y-6601524D02*
X14137858Y-6601524D01*
X14280715Y-6592000D02*
X14261667Y-6601524D01*
X14261667Y-6601524D02*
X14223572Y-6601524D01*
X14223572Y-6601524D02*
X14204524Y-6592000D01*
X14204524Y-6592000D02*
X14195000Y-6572952D01*
X14195000Y-6572952D02*
X14195000Y-6496762D01*
X14195000Y-6496762D02*
X14204524Y-6477714D01*
X14204524Y-6477714D02*
X14223572Y-6468190D01*
X14223572Y-6468190D02*
X14261667Y-6468190D01*
X14261667Y-6468190D02*
X14280715Y-6477714D01*
X14280715Y-6477714D02*
X14290239Y-6496762D01*
X14290239Y-6496762D02*
X14290239Y-6515809D01*
X14290239Y-6515809D02*
X14195000Y-6534857D01*
X14461667Y-6601524D02*
X14461667Y-6401524D01*
X14461667Y-6592000D02*
X14442620Y-6601524D01*
X14442620Y-6601524D02*
X14404524Y-6601524D01*
X14404524Y-6601524D02*
X14385477Y-6592000D01*
X14385477Y-6592000D02*
X14375953Y-6582476D01*
X14375953Y-6582476D02*
X14366429Y-6563428D01*
X14366429Y-6563428D02*
X14366429Y-6506286D01*
X14366429Y-6506286D02*
X14375953Y-6487238D01*
X14375953Y-6487238D02*
X14385477Y-6477714D01*
X14385477Y-6477714D02*
X14404524Y-6468190D01*
X14404524Y-6468190D02*
X14442620Y-6468190D01*
X14442620Y-6468190D02*
X14461667Y-6477714D01*
X14537858Y-6677714D02*
X14547381Y-6668190D01*
X14547381Y-6668190D02*
X14566429Y-6639619D01*
X14566429Y-6639619D02*
X14575953Y-6620571D01*
X14575953Y-6620571D02*
X14585477Y-6592000D01*
X14585477Y-6592000D02*
X14595000Y-6544381D01*
X14595000Y-6544381D02*
X14595000Y-6506286D01*
X14595000Y-6506286D02*
X14585477Y-6458667D01*
X14585477Y-6458667D02*
X14575953Y-6430095D01*
X14575953Y-6430095D02*
X14566429Y-6411048D01*
X14566429Y-6411048D02*
X14547381Y-6382476D01*
X14547381Y-6382476D02*
X14537858Y-6372952D01*
X7695000Y-6673000D02*
X7695000Y-6873000D01*
X7595000Y-6773000D02*
X7795000Y-6773000D01*
X8033095Y-6684571D02*
X8042619Y-6675048D01*
X8042619Y-6675048D02*
X8061667Y-6665524D01*
X8061667Y-6665524D02*
X8109286Y-6665524D01*
X8109286Y-6665524D02*
X8128333Y-6675048D01*
X8128333Y-6675048D02*
X8137857Y-6684571D01*
X8137857Y-6684571D02*
X8147381Y-6703619D01*
X8147381Y-6703619D02*
X8147381Y-6722667D01*
X8147381Y-6722667D02*
X8137857Y-6751238D01*
X8137857Y-6751238D02*
X8023571Y-6865524D01*
X8023571Y-6865524D02*
X8147381Y-6865524D01*
X8233095Y-6846476D02*
X8242619Y-6856000D01*
X8242619Y-6856000D02*
X8233095Y-6865524D01*
X8233095Y-6865524D02*
X8223571Y-6856000D01*
X8223571Y-6856000D02*
X8233095Y-6846476D01*
X8233095Y-6846476D02*
X8233095Y-6865524D01*
X8433095Y-6865524D02*
X8318809Y-6865524D01*
X8375952Y-6865524D02*
X8375952Y-6665524D01*
X8375952Y-6665524D02*
X8356905Y-6694095D01*
X8356905Y-6694095D02*
X8337857Y-6713143D01*
X8337857Y-6713143D02*
X8318809Y-6722667D01*
X8556905Y-6665524D02*
X8575952Y-6665524D01*
X8575952Y-6665524D02*
X8595000Y-6675048D01*
X8595000Y-6675048D02*
X8604524Y-6684571D01*
X8604524Y-6684571D02*
X8614048Y-6703619D01*
X8614048Y-6703619D02*
X8623571Y-6741714D01*
X8623571Y-6741714D02*
X8623571Y-6789333D01*
X8623571Y-6789333D02*
X8614048Y-6827428D01*
X8614048Y-6827428D02*
X8604524Y-6846476D01*
X8604524Y-6846476D02*
X8595000Y-6856000D01*
X8595000Y-6856000D02*
X8575952Y-6865524D01*
X8575952Y-6865524D02*
X8556905Y-6865524D01*
X8556905Y-6865524D02*
X8537857Y-6856000D01*
X8537857Y-6856000D02*
X8528333Y-6846476D01*
X8528333Y-6846476D02*
X8518810Y-6827428D01*
X8518810Y-6827428D02*
X8509286Y-6789333D01*
X8509286Y-6789333D02*
X8509286Y-6741714D01*
X8509286Y-6741714D02*
X8518810Y-6703619D01*
X8518810Y-6703619D02*
X8528333Y-6684571D01*
X8528333Y-6684571D02*
X8537857Y-6675048D01*
X8537857Y-6675048D02*
X8556905Y-6665524D01*
X8747381Y-6665524D02*
X8766429Y-6665524D01*
X8766429Y-6665524D02*
X8785476Y-6675048D01*
X8785476Y-6675048D02*
X8795000Y-6684571D01*
X8795000Y-6684571D02*
X8804524Y-6703619D01*
X8804524Y-6703619D02*
X8814048Y-6741714D01*
X8814048Y-6741714D02*
X8814048Y-6789333D01*
X8814048Y-6789333D02*
X8804524Y-6827428D01*
X8804524Y-6827428D02*
X8795000Y-6846476D01*
X8795000Y-6846476D02*
X8785476Y-6856000D01*
X8785476Y-6856000D02*
X8766429Y-6865524D01*
X8766429Y-6865524D02*
X8747381Y-6865524D01*
X8747381Y-6865524D02*
X8728333Y-6856000D01*
X8728333Y-6856000D02*
X8718810Y-6846476D01*
X8718810Y-6846476D02*
X8709286Y-6827428D01*
X8709286Y-6827428D02*
X8699762Y-6789333D01*
X8699762Y-6789333D02*
X8699762Y-6741714D01*
X8699762Y-6741714D02*
X8709286Y-6703619D01*
X8709286Y-6703619D02*
X8718810Y-6684571D01*
X8718810Y-6684571D02*
X8728333Y-6675048D01*
X8728333Y-6675048D02*
X8747381Y-6665524D01*
X8899762Y-6865524D02*
X8899762Y-6732190D01*
X8899762Y-6751238D02*
X8909286Y-6741714D01*
X8909286Y-6741714D02*
X8928333Y-6732190D01*
X8928333Y-6732190D02*
X8956905Y-6732190D01*
X8956905Y-6732190D02*
X8975952Y-6741714D01*
X8975952Y-6741714D02*
X8985476Y-6760762D01*
X8985476Y-6760762D02*
X8985476Y-6865524D01*
X8985476Y-6760762D02*
X8995000Y-6741714D01*
X8995000Y-6741714D02*
X9014048Y-6732190D01*
X9014048Y-6732190D02*
X9042619Y-6732190D01*
X9042619Y-6732190D02*
X9061667Y-6741714D01*
X9061667Y-6741714D02*
X9071191Y-6760762D01*
X9071191Y-6760762D02*
X9071191Y-6865524D01*
X9166429Y-6865524D02*
X9166429Y-6732190D01*
X9166429Y-6751238D02*
X9175952Y-6741714D01*
X9175952Y-6741714D02*
X9195000Y-6732190D01*
X9195000Y-6732190D02*
X9223572Y-6732190D01*
X9223572Y-6732190D02*
X9242619Y-6741714D01*
X9242619Y-6741714D02*
X9252143Y-6760762D01*
X9252143Y-6760762D02*
X9252143Y-6865524D01*
X9252143Y-6760762D02*
X9261667Y-6741714D01*
X9261667Y-6741714D02*
X9280714Y-6732190D01*
X9280714Y-6732190D02*
X9309286Y-6732190D01*
X9309286Y-6732190D02*
X9328333Y-6741714D01*
X9328333Y-6741714D02*
X9337857Y-6760762D01*
X9337857Y-6760762D02*
X9337857Y-6865524D01*
X9728333Y-6656000D02*
X9556905Y-6913143D01*
X9985476Y-6665524D02*
X10004524Y-6665524D01*
X10004524Y-6665524D02*
X10023572Y-6675048D01*
X10023572Y-6675048D02*
X10033095Y-6684571D01*
X10033095Y-6684571D02*
X10042619Y-6703619D01*
X10042619Y-6703619D02*
X10052143Y-6741714D01*
X10052143Y-6741714D02*
X10052143Y-6789333D01*
X10052143Y-6789333D02*
X10042619Y-6827428D01*
X10042619Y-6827428D02*
X10033095Y-6846476D01*
X10033095Y-6846476D02*
X10023572Y-6856000D01*
X10023572Y-6856000D02*
X10004524Y-6865524D01*
X10004524Y-6865524D02*
X9985476Y-6865524D01*
X9985476Y-6865524D02*
X9966429Y-6856000D01*
X9966429Y-6856000D02*
X9956905Y-6846476D01*
X9956905Y-6846476D02*
X9947381Y-6827428D01*
X9947381Y-6827428D02*
X9937857Y-6789333D01*
X9937857Y-6789333D02*
X9937857Y-6741714D01*
X9937857Y-6741714D02*
X9947381Y-6703619D01*
X9947381Y-6703619D02*
X9956905Y-6684571D01*
X9956905Y-6684571D02*
X9966429Y-6675048D01*
X9966429Y-6675048D02*
X9985476Y-6665524D01*
X10137857Y-6846476D02*
X10147381Y-6856000D01*
X10147381Y-6856000D02*
X10137857Y-6865524D01*
X10137857Y-6865524D02*
X10128334Y-6856000D01*
X10128334Y-6856000D02*
X10137857Y-6846476D01*
X10137857Y-6846476D02*
X10137857Y-6865524D01*
X10271191Y-6665524D02*
X10290238Y-6665524D01*
X10290238Y-6665524D02*
X10309286Y-6675048D01*
X10309286Y-6675048D02*
X10318810Y-6684571D01*
X10318810Y-6684571D02*
X10328334Y-6703619D01*
X10328334Y-6703619D02*
X10337857Y-6741714D01*
X10337857Y-6741714D02*
X10337857Y-6789333D01*
X10337857Y-6789333D02*
X10328334Y-6827428D01*
X10328334Y-6827428D02*
X10318810Y-6846476D01*
X10318810Y-6846476D02*
X10309286Y-6856000D01*
X10309286Y-6856000D02*
X10290238Y-6865524D01*
X10290238Y-6865524D02*
X10271191Y-6865524D01*
X10271191Y-6865524D02*
X10252143Y-6856000D01*
X10252143Y-6856000D02*
X10242619Y-6846476D01*
X10242619Y-6846476D02*
X10233095Y-6827428D01*
X10233095Y-6827428D02*
X10223572Y-6789333D01*
X10223572Y-6789333D02*
X10223572Y-6741714D01*
X10223572Y-6741714D02*
X10233095Y-6703619D01*
X10233095Y-6703619D02*
X10242619Y-6684571D01*
X10242619Y-6684571D02*
X10252143Y-6675048D01*
X10252143Y-6675048D02*
X10271191Y-6665524D01*
X10452143Y-6751238D02*
X10433095Y-6741714D01*
X10433095Y-6741714D02*
X10423572Y-6732190D01*
X10423572Y-6732190D02*
X10414048Y-6713143D01*
X10414048Y-6713143D02*
X10414048Y-6703619D01*
X10414048Y-6703619D02*
X10423572Y-6684571D01*
X10423572Y-6684571D02*
X10433095Y-6675048D01*
X10433095Y-6675048D02*
X10452143Y-6665524D01*
X10452143Y-6665524D02*
X10490238Y-6665524D01*
X10490238Y-6665524D02*
X10509286Y-6675048D01*
X10509286Y-6675048D02*
X10518810Y-6684571D01*
X10518810Y-6684571D02*
X10528334Y-6703619D01*
X10528334Y-6703619D02*
X10528334Y-6713143D01*
X10528334Y-6713143D02*
X10518810Y-6732190D01*
X10518810Y-6732190D02*
X10509286Y-6741714D01*
X10509286Y-6741714D02*
X10490238Y-6751238D01*
X10490238Y-6751238D02*
X10452143Y-6751238D01*
X10452143Y-6751238D02*
X10433095Y-6760762D01*
X10433095Y-6760762D02*
X10423572Y-6770286D01*
X10423572Y-6770286D02*
X10414048Y-6789333D01*
X10414048Y-6789333D02*
X10414048Y-6827428D01*
X10414048Y-6827428D02*
X10423572Y-6846476D01*
X10423572Y-6846476D02*
X10433095Y-6856000D01*
X10433095Y-6856000D02*
X10452143Y-6865524D01*
X10452143Y-6865524D02*
X10490238Y-6865524D01*
X10490238Y-6865524D02*
X10509286Y-6856000D01*
X10509286Y-6856000D02*
X10518810Y-6846476D01*
X10518810Y-6846476D02*
X10528334Y-6827428D01*
X10528334Y-6827428D02*
X10528334Y-6789333D01*
X10528334Y-6789333D02*
X10518810Y-6770286D01*
X10518810Y-6770286D02*
X10509286Y-6760762D01*
X10509286Y-6760762D02*
X10490238Y-6751238D01*
X10604524Y-6684571D02*
X10614048Y-6675048D01*
X10614048Y-6675048D02*
X10633095Y-6665524D01*
X10633095Y-6665524D02*
X10680715Y-6665524D01*
X10680715Y-6665524D02*
X10699762Y-6675048D01*
X10699762Y-6675048D02*
X10709286Y-6684571D01*
X10709286Y-6684571D02*
X10718810Y-6703619D01*
X10718810Y-6703619D02*
X10718810Y-6722667D01*
X10718810Y-6722667D02*
X10709286Y-6751238D01*
X10709286Y-6751238D02*
X10595000Y-6865524D01*
X10595000Y-6865524D02*
X10718810Y-6865524D01*
X10785476Y-6665524D02*
X10918810Y-6665524D01*
X10918810Y-6665524D02*
X10833095Y-6865524D01*
X10985476Y-6665524D02*
X10985476Y-6703619D01*
X11061667Y-6665524D02*
X11061667Y-6703619D01*
X11356905Y-6941714D02*
X11347381Y-6932190D01*
X11347381Y-6932190D02*
X11328334Y-6903619D01*
X11328334Y-6903619D02*
X11318810Y-6884571D01*
X11318810Y-6884571D02*
X11309286Y-6856000D01*
X11309286Y-6856000D02*
X11299762Y-6808381D01*
X11299762Y-6808381D02*
X11299762Y-6770286D01*
X11299762Y-6770286D02*
X11309286Y-6722667D01*
X11309286Y-6722667D02*
X11318810Y-6694095D01*
X11318810Y-6694095D02*
X11328334Y-6675048D01*
X11328334Y-6675048D02*
X11347381Y-6646476D01*
X11347381Y-6646476D02*
X11356905Y-6636952D01*
X11423572Y-6684571D02*
X11433095Y-6675048D01*
X11433095Y-6675048D02*
X11452143Y-6665524D01*
X11452143Y-6665524D02*
X11499762Y-6665524D01*
X11499762Y-6665524D02*
X11518810Y-6675048D01*
X11518810Y-6675048D02*
X11528334Y-6684571D01*
X11528334Y-6684571D02*
X11537857Y-6703619D01*
X11537857Y-6703619D02*
X11537857Y-6722667D01*
X11537857Y-6722667D02*
X11528334Y-6751238D01*
X11528334Y-6751238D02*
X11414048Y-6865524D01*
X11414048Y-6865524D02*
X11537857Y-6865524D01*
X11775953Y-6865524D02*
X11775953Y-6665524D01*
X11861667Y-6865524D02*
X11861667Y-6760762D01*
X11861667Y-6760762D02*
X11852143Y-6741714D01*
X11852143Y-6741714D02*
X11833096Y-6732190D01*
X11833096Y-6732190D02*
X11804524Y-6732190D01*
X11804524Y-6732190D02*
X11785476Y-6741714D01*
X11785476Y-6741714D02*
X11775953Y-6751238D01*
X11985476Y-6865524D02*
X11966429Y-6856000D01*
X11966429Y-6856000D02*
X11956905Y-6846476D01*
X11956905Y-6846476D02*
X11947381Y-6827428D01*
X11947381Y-6827428D02*
X11947381Y-6770286D01*
X11947381Y-6770286D02*
X11956905Y-6751238D01*
X11956905Y-6751238D02*
X11966429Y-6741714D01*
X11966429Y-6741714D02*
X11985476Y-6732190D01*
X11985476Y-6732190D02*
X12014048Y-6732190D01*
X12014048Y-6732190D02*
X12033096Y-6741714D01*
X12033096Y-6741714D02*
X12042619Y-6751238D01*
X12042619Y-6751238D02*
X12052143Y-6770286D01*
X12052143Y-6770286D02*
X12052143Y-6827428D01*
X12052143Y-6827428D02*
X12042619Y-6846476D01*
X12042619Y-6846476D02*
X12033096Y-6856000D01*
X12033096Y-6856000D02*
X12014048Y-6865524D01*
X12014048Y-6865524D02*
X11985476Y-6865524D01*
X12166429Y-6865524D02*
X12147381Y-6856000D01*
X12147381Y-6856000D02*
X12137857Y-6836952D01*
X12137857Y-6836952D02*
X12137857Y-6665524D01*
X12318810Y-6856000D02*
X12299762Y-6865524D01*
X12299762Y-6865524D02*
X12261667Y-6865524D01*
X12261667Y-6865524D02*
X12242619Y-6856000D01*
X12242619Y-6856000D02*
X12233096Y-6836952D01*
X12233096Y-6836952D02*
X12233096Y-6760762D01*
X12233096Y-6760762D02*
X12242619Y-6741714D01*
X12242619Y-6741714D02*
X12261667Y-6732190D01*
X12261667Y-6732190D02*
X12299762Y-6732190D01*
X12299762Y-6732190D02*
X12318810Y-6741714D01*
X12318810Y-6741714D02*
X12328334Y-6760762D01*
X12328334Y-6760762D02*
X12328334Y-6779809D01*
X12328334Y-6779809D02*
X12233096Y-6798857D01*
X12404524Y-6856000D02*
X12423572Y-6865524D01*
X12423572Y-6865524D02*
X12461667Y-6865524D01*
X12461667Y-6865524D02*
X12480715Y-6856000D01*
X12480715Y-6856000D02*
X12490238Y-6836952D01*
X12490238Y-6836952D02*
X12490238Y-6827428D01*
X12490238Y-6827428D02*
X12480715Y-6808381D01*
X12480715Y-6808381D02*
X12461667Y-6798857D01*
X12461667Y-6798857D02*
X12433096Y-6798857D01*
X12433096Y-6798857D02*
X12414048Y-6789333D01*
X12414048Y-6789333D02*
X12404524Y-6770286D01*
X12404524Y-6770286D02*
X12404524Y-6760762D01*
X12404524Y-6760762D02*
X12414048Y-6741714D01*
X12414048Y-6741714D02*
X12433096Y-6732190D01*
X12433096Y-6732190D02*
X12461667Y-6732190D01*
X12461667Y-6732190D02*
X12480715Y-6741714D01*
X12556905Y-6941714D02*
X12566429Y-6932190D01*
X12566429Y-6932190D02*
X12585477Y-6903619D01*
X12585477Y-6903619D02*
X12595000Y-6884571D01*
X12595000Y-6884571D02*
X12604524Y-6856000D01*
X12604524Y-6856000D02*
X12614048Y-6808381D01*
X12614048Y-6808381D02*
X12614048Y-6770286D01*
X12614048Y-6770286D02*
X12604524Y-6722667D01*
X12604524Y-6722667D02*
X12595000Y-6694095D01*
X12595000Y-6694095D02*
X12585477Y-6675048D01*
X12585477Y-6675048D02*
X12566429Y-6646476D01*
X12566429Y-6646476D02*
X12556905Y-6636952D01*
X12918810Y-6941714D02*
X12909286Y-6932190D01*
X12909286Y-6932190D02*
X12890238Y-6903619D01*
X12890238Y-6903619D02*
X12880715Y-6884571D01*
X12880715Y-6884571D02*
X12871191Y-6856000D01*
X12871191Y-6856000D02*
X12861667Y-6808381D01*
X12861667Y-6808381D02*
X12861667Y-6770286D01*
X12861667Y-6770286D02*
X12871191Y-6722667D01*
X12871191Y-6722667D02*
X12880715Y-6694095D01*
X12880715Y-6694095D02*
X12890238Y-6675048D01*
X12890238Y-6675048D02*
X12909286Y-6646476D01*
X12909286Y-6646476D02*
X12918810Y-6636952D01*
X12995000Y-6732190D02*
X12995000Y-6865524D01*
X12995000Y-6751238D02*
X13004524Y-6741714D01*
X13004524Y-6741714D02*
X13023572Y-6732190D01*
X13023572Y-6732190D02*
X13052143Y-6732190D01*
X13052143Y-6732190D02*
X13071191Y-6741714D01*
X13071191Y-6741714D02*
X13080715Y-6760762D01*
X13080715Y-6760762D02*
X13080715Y-6865524D01*
X13204524Y-6865524D02*
X13185477Y-6856000D01*
X13185477Y-6856000D02*
X13175953Y-6846476D01*
X13175953Y-6846476D02*
X13166429Y-6827428D01*
X13166429Y-6827428D02*
X13166429Y-6770286D01*
X13166429Y-6770286D02*
X13175953Y-6751238D01*
X13175953Y-6751238D02*
X13185477Y-6741714D01*
X13185477Y-6741714D02*
X13204524Y-6732190D01*
X13204524Y-6732190D02*
X13233096Y-6732190D01*
X13233096Y-6732190D02*
X13252143Y-6741714D01*
X13252143Y-6741714D02*
X13261667Y-6751238D01*
X13261667Y-6751238D02*
X13271191Y-6770286D01*
X13271191Y-6770286D02*
X13271191Y-6827428D01*
X13271191Y-6827428D02*
X13261667Y-6846476D01*
X13261667Y-6846476D02*
X13252143Y-6856000D01*
X13252143Y-6856000D02*
X13233096Y-6865524D01*
X13233096Y-6865524D02*
X13204524Y-6865524D01*
X13328334Y-6732190D02*
X13404524Y-6732190D01*
X13356905Y-6665524D02*
X13356905Y-6836952D01*
X13356905Y-6836952D02*
X13366429Y-6856000D01*
X13366429Y-6856000D02*
X13385477Y-6865524D01*
X13385477Y-6865524D02*
X13404524Y-6865524D01*
X13623572Y-6732190D02*
X13623572Y-6932190D01*
X13623572Y-6741714D02*
X13642619Y-6732190D01*
X13642619Y-6732190D02*
X13680715Y-6732190D01*
X13680715Y-6732190D02*
X13699762Y-6741714D01*
X13699762Y-6741714D02*
X13709286Y-6751238D01*
X13709286Y-6751238D02*
X13718810Y-6770286D01*
X13718810Y-6770286D02*
X13718810Y-6827428D01*
X13718810Y-6827428D02*
X13709286Y-6846476D01*
X13709286Y-6846476D02*
X13699762Y-6856000D01*
X13699762Y-6856000D02*
X13680715Y-6865524D01*
X13680715Y-6865524D02*
X13642619Y-6865524D01*
X13642619Y-6865524D02*
X13623572Y-6856000D01*
X13833096Y-6865524D02*
X13814048Y-6856000D01*
X13814048Y-6856000D02*
X13804524Y-6836952D01*
X13804524Y-6836952D02*
X13804524Y-6665524D01*
X13995000Y-6865524D02*
X13995000Y-6760762D01*
X13995000Y-6760762D02*
X13985477Y-6741714D01*
X13985477Y-6741714D02*
X13966429Y-6732190D01*
X13966429Y-6732190D02*
X13928334Y-6732190D01*
X13928334Y-6732190D02*
X13909286Y-6741714D01*
X13995000Y-6856000D02*
X13975953Y-6865524D01*
X13975953Y-6865524D02*
X13928334Y-6865524D01*
X13928334Y-6865524D02*
X13909286Y-6856000D01*
X13909286Y-6856000D02*
X13899762Y-6836952D01*
X13899762Y-6836952D02*
X13899762Y-6817905D01*
X13899762Y-6817905D02*
X13909286Y-6798857D01*
X13909286Y-6798857D02*
X13928334Y-6789333D01*
X13928334Y-6789333D02*
X13975953Y-6789333D01*
X13975953Y-6789333D02*
X13995000Y-6779809D01*
X14061667Y-6732190D02*
X14137858Y-6732190D01*
X14090239Y-6665524D02*
X14090239Y-6836952D01*
X14090239Y-6836952D02*
X14099762Y-6856000D01*
X14099762Y-6856000D02*
X14118810Y-6865524D01*
X14118810Y-6865524D02*
X14137858Y-6865524D01*
X14280715Y-6856000D02*
X14261667Y-6865524D01*
X14261667Y-6865524D02*
X14223572Y-6865524D01*
X14223572Y-6865524D02*
X14204524Y-6856000D01*
X14204524Y-6856000D02*
X14195000Y-6836952D01*
X14195000Y-6836952D02*
X14195000Y-6760762D01*
X14195000Y-6760762D02*
X14204524Y-6741714D01*
X14204524Y-6741714D02*
X14223572Y-6732190D01*
X14223572Y-6732190D02*
X14261667Y-6732190D01*
X14261667Y-6732190D02*
X14280715Y-6741714D01*
X14280715Y-6741714D02*
X14290239Y-6760762D01*
X14290239Y-6760762D02*
X14290239Y-6779809D01*
X14290239Y-6779809D02*
X14195000Y-6798857D01*
X14461667Y-6865524D02*
X14461667Y-6665524D01*
X14461667Y-6856000D02*
X14442620Y-6865524D01*
X14442620Y-6865524D02*
X14404524Y-6865524D01*
X14404524Y-6865524D02*
X14385477Y-6856000D01*
X14385477Y-6856000D02*
X14375953Y-6846476D01*
X14375953Y-6846476D02*
X14366429Y-6827428D01*
X14366429Y-6827428D02*
X14366429Y-6770286D01*
X14366429Y-6770286D02*
X14375953Y-6751238D01*
X14375953Y-6751238D02*
X14385477Y-6741714D01*
X14385477Y-6741714D02*
X14404524Y-6732190D01*
X14404524Y-6732190D02*
X14442620Y-6732190D01*
X14442620Y-6732190D02*
X14461667Y-6741714D01*
X14537858Y-6941714D02*
X14547381Y-6932190D01*
X14547381Y-6932190D02*
X14566429Y-6903619D01*
X14566429Y-6903619D02*
X14575953Y-6884571D01*
X14575953Y-6884571D02*
X14585477Y-6856000D01*
X14585477Y-6856000D02*
X14595000Y-6808381D01*
X14595000Y-6808381D02*
X14595000Y-6770286D01*
X14595000Y-6770286D02*
X14585477Y-6722667D01*
X14585477Y-6722667D02*
X14575953Y-6694095D01*
X14575953Y-6694095D02*
X14566429Y-6675048D01*
X14566429Y-6675048D02*
X14547381Y-6646476D01*
X14547381Y-6646476D02*
X14537858Y-6636952D01*
M02*
