%TF.GenerationSoftware,KiCad,Pcbnew,7.0.1-0*%
%TF.CreationDate,2023-10-24T00:04:38+02:00*%
%TF.ProjectId,SMT-32,534d542d-3332-42e6-9b69-6361645f7063,rev?*%
%TF.SameCoordinates,Original*%
%TF.FileFunction,Copper,L4,Bot*%
%TF.FilePolarity,Positive*%
%FSLAX46Y46*%
G04 Gerber Fmt 4.6, Leading zero omitted, Abs format (unit mm)*
G04 Created by KiCad (PCBNEW 7.0.1-0) date 2023-10-24 00:04:38*
%MOMM*%
%LPD*%
G01*
G04 APERTURE LIST*
%TA.AperFunction,ComponentPad*%
%ADD10O,1.700000X1.700000*%
%TD*%
%TA.AperFunction,ComponentPad*%
%ADD11R,1.700000X1.700000*%
%TD*%
%TA.AperFunction,ComponentPad*%
%ADD12O,1.800000X1.150000*%
%TD*%
%TA.AperFunction,ComponentPad*%
%ADD13O,2.000000X1.450000*%
%TD*%
%TA.AperFunction,ViaPad*%
%ADD14C,0.800000*%
%TD*%
%TA.AperFunction,ViaPad*%
%ADD15C,1.000000*%
%TD*%
%TA.AperFunction,Conductor*%
%ADD16C,0.300000*%
%TD*%
G04 APERTURE END LIST*
D10*
%TO.P,J8,3,Pin_3*%
%TO.N,/Pin 2*%
X85852000Y-31242000D03*
%TO.P,J8,2,Pin_2*%
%TO.N,/Pin 3*%
X83312000Y-31242000D03*
D11*
%TO.P,J8,1,Pin_1*%
%TO.N,/Pin 4*%
X80772000Y-31242000D03*
%TD*%
%TO.P,J5,1,Pin_1*%
%TO.N,/ADC_12*%
X89916000Y-53086000D03*
D10*
%TO.P,J5,2,Pin_2*%
%TO.N,/ADC_11*%
X87376000Y-53086000D03*
%TO.P,J5,3,Pin_3*%
%TO.N,unconnected-(J5-Pin_3-Pad3)*%
X84836000Y-53086000D03*
%TD*%
D11*
%TO.P,J7,1,Pin_1*%
%TO.N,GND*%
X105180000Y-26100000D03*
D10*
%TO.P,J7,2,Pin_2*%
%TO.N,/SPI_2_MOSI*%
X107720000Y-26100000D03*
%TO.P,J7,3,Pin_3*%
%TO.N,/SPI_2_MISO*%
X110260000Y-26100000D03*
%TO.P,J7,4,Pin_4*%
%TO.N,/SPI_2_SCK*%
X112800000Y-26100000D03*
%TO.P,J7,5,Pin_5*%
%TO.N,+3.3V*%
X115340000Y-26100000D03*
%TD*%
D11*
%TO.P,J6,1,Pin_1*%
%TO.N,GND*%
X98820000Y-48400000D03*
D10*
%TO.P,J6,2,Pin_2*%
%TO.N,/SPI_1_MOSI*%
X96280000Y-48400000D03*
%TO.P,J6,3,Pin_3*%
%TO.N,/SPI_1_MISO*%
X93740000Y-48400000D03*
%TO.P,J6,4,Pin_4*%
%TO.N,/SPI_1_SCK*%
X91200000Y-48400000D03*
%TO.P,J6,5,Pin_5*%
%TO.N,+3.3V*%
X88660000Y-48400000D03*
%TD*%
D11*
%TO.P,J3,1,Pin_1*%
%TO.N,+3.3V*%
X88670000Y-26100000D03*
D10*
%TO.P,J3,2,Pin_2*%
%TO.N,URAT_1_TX*%
X86130000Y-26100000D03*
%TO.P,J3,3,Pin_3*%
%TO.N,URAT_1_RX*%
X83590000Y-26100000D03*
%TO.P,J3,4,Pin_4*%
%TO.N,GND*%
X81050000Y-26100000D03*
%TD*%
D11*
%TO.P,J4,1,Pin_1*%
%TO.N,+3.3V*%
X94996000Y-53086000D03*
D10*
%TO.P,J4,2,Pin_2*%
%TO.N,/I2C_SCL*%
X97536000Y-53086000D03*
%TO.P,J4,3,Pin_3*%
%TO.N,/I2C_SDA*%
X100076000Y-53086000D03*
%TO.P,J4,4,Pin_4*%
%TO.N,GND*%
X102616000Y-53086000D03*
%TD*%
D12*
%TO.P,J1,6,Shield*%
%TO.N,unconnected-(J1-Shield-Pad6)*%
X115050000Y-40725000D03*
D13*
X111250000Y-40575000D03*
X111250000Y-33125000D03*
D12*
X115050000Y-32975000D03*
%TD*%
D11*
%TO.P,J2,1,Pin_1*%
%TO.N,+3.3V*%
X100562000Y-26100000D03*
D10*
%TO.P,J2,2,Pin_2*%
%TO.N,/SWDIO*%
X98022000Y-26100000D03*
%TO.P,J2,3,Pin_3*%
%TO.N,/SWCLK*%
X95482000Y-26100000D03*
%TO.P,J2,4,Pin_4*%
%TO.N,GND*%
X92942000Y-26100000D03*
%TD*%
D14*
%TO.N,GND*%
X102700000Y-43050000D03*
%TO.N,/I2C_SDA*%
X95750000Y-40600000D03*
%TO.N,+3.3V*%
X102950000Y-35200000D03*
X91500000Y-31500000D03*
%TO.N,GND*%
X93550000Y-30850000D03*
D15*
%TO.N,+3.3V*%
X113350000Y-47100000D03*
X94900000Y-50750000D03*
X114500000Y-28950000D03*
X116250000Y-28950000D03*
X102800000Y-25650000D03*
X90550000Y-25100000D03*
X90450000Y-27450000D03*
X102150000Y-28550000D03*
D14*
X108650000Y-49550000D03*
D15*
X110000000Y-52100000D03*
X107550000Y-52100000D03*
X106350000Y-53750000D03*
X111600000Y-53700000D03*
D14*
X106500000Y-34450000D03*
%TO.N,GND*%
X101450000Y-45650000D03*
%TO.N,/Pin 3*%
X97700000Y-37450000D03*
%TO.N,/Pin 4*%
X96600000Y-38400000D03*
%TO.N,/SW_Boot0*%
X101900000Y-32850000D03*
X115700000Y-50550000D03*
%TO.N,GND*%
X80250000Y-40000000D03*
X113150000Y-35800000D03*
X111150000Y-50100000D03*
X114200000Y-51650000D03*
X101200000Y-50900000D03*
X103000000Y-50900000D03*
X98850000Y-50700000D03*
X80700000Y-28400000D03*
X96600000Y-29450000D03*
X104300000Y-28750000D03*
X109350000Y-44700000D03*
%TO.N,+3.3V*%
X82500000Y-44900000D03*
%TO.N,/SPI_2_SCK*%
X106850000Y-38900000D03*
%TO.N,/SPI_2_MISO*%
X104300000Y-38500000D03*
X107700000Y-30450000D03*
%TO.N,/SPI_2_MOSI*%
X102250000Y-38400000D03*
%TO.N,/BOOT0*%
X100076000Y-33274000D03*
X96774000Y-35814000D03*
%TO.N,URAT_1_TX*%
X96774000Y-31496000D03*
%TO.N,GND*%
X94234000Y-39624000D03*
%TO.N,/NRST*%
X95504000Y-39116000D03*
%TO.N,GND*%
X90170000Y-42418000D03*
%TO.N,/NRST*%
X82296000Y-40386000D03*
%TO.N,/ADC_11*%
X93218000Y-40894000D03*
%TO.N,+3.3V*%
X86614000Y-35052000D03*
%TO.N,/I2C_SDA*%
X98806000Y-45720000D03*
%TO.N,GND*%
X102950000Y-34000000D03*
X88200000Y-34400000D03*
X98350000Y-36100000D03*
X97400000Y-39750000D03*
X94400000Y-36200000D03*
X87900000Y-42700000D03*
X84200000Y-43500000D03*
X84500000Y-42200000D03*
X113500000Y-44700000D03*
%TO.N,+3.3V*%
X114700000Y-42200000D03*
%TD*%
D16*
%TO.N,/I2C_SDA*%
X96480000Y-40600000D02*
X96774000Y-40894000D01*
X95750000Y-40600000D02*
X96480000Y-40600000D01*
%TO.N,/SPI_2_MISO*%
X104300000Y-38100000D02*
X104300000Y-38500000D01*
%TO.N,URAT_1_TX*%
X93726000Y-28448000D02*
X86106000Y-28448000D01*
%TO.N,/SPI_2_MISO*%
X107700000Y-34700000D02*
X104300000Y-38100000D01*
%TO.N,/SPI_2_SCK*%
X112800000Y-26100000D02*
X112800000Y-28100000D01*
X108950000Y-36800000D02*
X106850000Y-38900000D01*
X112800000Y-28100000D02*
X108950000Y-31950000D01*
X108950000Y-31950000D02*
X108950000Y-36800000D01*
%TO.N,/Pin 3*%
X93960661Y-34700000D02*
X90750000Y-34700000D01*
X90750000Y-33854000D02*
X89338000Y-32442000D01*
X96710661Y-37450000D02*
X93960661Y-34700000D01*
X97700000Y-37450000D02*
X96710661Y-37450000D01*
X90750000Y-34700000D02*
X90750000Y-33854000D01*
%TO.N,/Pin 4*%
X96600000Y-38400000D02*
X96050000Y-37850000D01*
X96050000Y-37850000D02*
X91950000Y-37850000D01*
X91950000Y-37850000D02*
X91948000Y-37848000D01*
X91948000Y-37848000D02*
X91948000Y-37084000D01*
%TO.N,/SW_Boot0*%
X101900000Y-33050000D02*
X101900000Y-32850000D01*
X101200000Y-33750000D02*
X101900000Y-33050000D01*
X103689339Y-40900000D02*
X100400000Y-40900000D01*
X100400000Y-40900000D02*
X100400000Y-34550000D01*
X113339339Y-50550000D02*
X103689339Y-40900000D01*
X115700000Y-50550000D02*
X113339339Y-50550000D01*
X100400000Y-34550000D02*
X101200000Y-33750000D01*
%TO.N,/SPI_2_MISO*%
X107700000Y-30450000D02*
X107700000Y-34700000D01*
%TO.N,/SPI_2_MOSI*%
X102250000Y-37050000D02*
X105250000Y-34050000D01*
X105250000Y-34050000D02*
X105250000Y-30800000D01*
X102250000Y-38400000D02*
X102250000Y-37050000D01*
X105250000Y-30800000D02*
X107720000Y-28330000D01*
X107720000Y-28330000D02*
X107720000Y-26100000D01*
%TO.N,/BOOT0*%
X96774000Y-35814000D02*
X99314000Y-33274000D01*
X99314000Y-33274000D02*
X100076000Y-33274000D01*
%TO.N,URAT_1_TX*%
X96774000Y-31496000D02*
X93726000Y-28448000D01*
X86130000Y-28424000D02*
X86130000Y-26100000D01*
X86106000Y-28448000D02*
X86130000Y-28424000D01*
%TO.N,/NRST*%
X82296000Y-40386000D02*
X84328000Y-38354000D01*
X84328000Y-38354000D02*
X94742000Y-38354000D01*
X94742000Y-38354000D02*
X95504000Y-39116000D01*
%TO.N,/ADC_11*%
X93218000Y-40894000D02*
X93218000Y-41289107D01*
X93218000Y-41289107D02*
X87376000Y-47131107D01*
X87376000Y-47131107D02*
X87376000Y-53086000D01*
%TO.N,/Pin 4*%
X91948000Y-37084000D02*
X88392000Y-33528000D01*
X88392000Y-33528000D02*
X83058000Y-33528000D01*
X83058000Y-33528000D02*
X80772000Y-31242000D01*
%TO.N,/Pin 3*%
X89338000Y-32442000D02*
X84512000Y-32442000D01*
X84512000Y-32442000D02*
X83312000Y-31242000D01*
%TO.N,/I2C_SDA*%
X96774000Y-43688000D02*
X98806000Y-45720000D01*
X96774000Y-40894000D02*
X96774000Y-43688000D01*
%TD*%
M02*
