%TF.GenerationSoftware,KiCad,Pcbnew,7.0.1-0*%
%TF.CreationDate,2023-10-24T00:04:38+02:00*%
%TF.ProjectId,SMT-32,534d542d-3332-42e6-9b69-6361645f7063,rev?*%
%TF.SameCoordinates,Original*%
%TF.FileFunction,Copper,L1,Top*%
%TF.FilePolarity,Positive*%
%FSLAX46Y46*%
G04 Gerber Fmt 4.6, Leading zero omitted, Abs format (unit mm)*
G04 Created by KiCad (PCBNEW 7.0.1-0) date 2023-10-24 00:04:38*
%MOMM*%
%LPD*%
G01*
G04 APERTURE LIST*
G04 Aperture macros list*
%AMRoundRect*
0 Rectangle with rounded corners*
0 $1 Rounding radius*
0 $2 $3 $4 $5 $6 $7 $8 $9 X,Y pos of 4 corners*
0 Add a 4 corners polygon primitive as box body*
4,1,4,$2,$3,$4,$5,$6,$7,$8,$9,$2,$3,0*
0 Add four circle primitives for the rounded corners*
1,1,$1+$1,$2,$3*
1,1,$1+$1,$4,$5*
1,1,$1+$1,$6,$7*
1,1,$1+$1,$8,$9*
0 Add four rect primitives between the rounded corners*
20,1,$1+$1,$2,$3,$4,$5,0*
20,1,$1+$1,$4,$5,$6,$7,0*
20,1,$1+$1,$6,$7,$8,$9,0*
20,1,$1+$1,$8,$9,$2,$3,0*%
G04 Aperture macros list end*
%TA.AperFunction,SMDPad,CuDef*%
%ADD10R,1.200000X1.400000*%
%TD*%
%TA.AperFunction,SMDPad,CuDef*%
%ADD11RoundRect,0.140000X0.140000X0.170000X-0.140000X0.170000X-0.140000X-0.170000X0.140000X-0.170000X0*%
%TD*%
%TA.AperFunction,ComponentPad*%
%ADD12O,1.700000X1.700000*%
%TD*%
%TA.AperFunction,ComponentPad*%
%ADD13R,1.700000X1.700000*%
%TD*%
%TA.AperFunction,SMDPad,CuDef*%
%ADD14R,1.500000X2.000000*%
%TD*%
%TA.AperFunction,SMDPad,CuDef*%
%ADD15R,3.800000X2.000000*%
%TD*%
%TA.AperFunction,SMDPad,CuDef*%
%ADD16R,0.800000X1.000000*%
%TD*%
%TA.AperFunction,SMDPad,CuDef*%
%ADD17R,1.500000X0.700000*%
%TD*%
%TA.AperFunction,SMDPad,CuDef*%
%ADD18RoundRect,0.140000X-0.170000X0.140000X-0.170000X-0.140000X0.170000X-0.140000X0.170000X0.140000X0*%
%TD*%
%TA.AperFunction,SMDPad,CuDef*%
%ADD19RoundRect,0.225000X0.225000X0.250000X-0.225000X0.250000X-0.225000X-0.250000X0.225000X-0.250000X0*%
%TD*%
%TA.AperFunction,SMDPad,CuDef*%
%ADD20RoundRect,0.140000X0.170000X-0.140000X0.170000X0.140000X-0.170000X0.140000X-0.170000X-0.140000X0*%
%TD*%
%TA.AperFunction,SMDPad,CuDef*%
%ADD21RoundRect,0.218750X0.218750X0.256250X-0.218750X0.256250X-0.218750X-0.256250X0.218750X-0.256250X0*%
%TD*%
%TA.AperFunction,SMDPad,CuDef*%
%ADD22RoundRect,0.135000X-0.135000X-0.185000X0.135000X-0.185000X0.135000X0.185000X-0.135000X0.185000X0*%
%TD*%
%TA.AperFunction,SMDPad,CuDef*%
%ADD23RoundRect,0.250000X0.250000X0.475000X-0.250000X0.475000X-0.250000X-0.475000X0.250000X-0.475000X0*%
%TD*%
%TA.AperFunction,SMDPad,CuDef*%
%ADD24RoundRect,0.075000X-0.075000X-0.662500X0.075000X-0.662500X0.075000X0.662500X-0.075000X0.662500X0*%
%TD*%
%TA.AperFunction,SMDPad,CuDef*%
%ADD25RoundRect,0.075000X-0.662500X-0.075000X0.662500X-0.075000X0.662500X0.075000X-0.662500X0.075000X0*%
%TD*%
%TA.AperFunction,SMDPad,CuDef*%
%ADD26R,1.300000X0.450000*%
%TD*%
%TA.AperFunction,ComponentPad*%
%ADD27O,1.800000X1.150000*%
%TD*%
%TA.AperFunction,ComponentPad*%
%ADD28O,2.000000X1.450000*%
%TD*%
%TA.AperFunction,SMDPad,CuDef*%
%ADD29RoundRect,0.218750X-0.218750X-0.256250X0.218750X-0.256250X0.218750X0.256250X-0.218750X0.256250X0*%
%TD*%
%TA.AperFunction,SMDPad,CuDef*%
%ADD30RoundRect,0.135000X0.135000X0.185000X-0.135000X0.185000X-0.135000X-0.185000X0.135000X-0.185000X0*%
%TD*%
%TA.AperFunction,SMDPad,CuDef*%
%ADD31RoundRect,0.140000X-0.140000X-0.170000X0.140000X-0.170000X0.140000X0.170000X-0.140000X0.170000X0*%
%TD*%
%TA.AperFunction,SMDPad,CuDef*%
%ADD32RoundRect,0.135000X0.185000X-0.135000X0.185000X0.135000X-0.185000X0.135000X-0.185000X-0.135000X0*%
%TD*%
%TA.AperFunction,ViaPad*%
%ADD33C,0.800000*%
%TD*%
%TA.AperFunction,ViaPad*%
%ADD34C,1.000000*%
%TD*%
%TA.AperFunction,Conductor*%
%ADD35C,0.500000*%
%TD*%
%TA.AperFunction,Conductor*%
%ADD36C,1.000000*%
%TD*%
%TA.AperFunction,Conductor*%
%ADD37C,0.300000*%
%TD*%
%TA.AperFunction,Conductor*%
%ADD38C,0.200000*%
%TD*%
G04 APERTURE END LIST*
D10*
%TO.P,Y2,1,1*%
%TO.N,/HSE_IN*%
X85150000Y-37400000D03*
%TO.P,Y2,2,2*%
%TO.N,GND*%
X85150000Y-39600000D03*
%TO.P,Y2,3,3*%
%TO.N,/HES_OUT*%
X86850000Y-39600000D03*
%TO.P,Y2,4,4*%
%TO.N,GND*%
X86850000Y-37400000D03*
%TD*%
D11*
%TO.P,C7,2*%
%TO.N,GND*%
X88490000Y-43800000D03*
%TO.P,C7,1*%
%TO.N,+3.3VA*%
X89450000Y-43800000D03*
%TD*%
D12*
%TO.P,J8,3,Pin_3*%
%TO.N,/Pin 2*%
X85852000Y-31242000D03*
%TO.P,J8,2,Pin_2*%
%TO.N,/Pin 3*%
X83312000Y-31242000D03*
D13*
%TO.P,J8,1,Pin_1*%
%TO.N,/Pin 4*%
X80772000Y-31242000D03*
%TD*%
%TO.P,J5,1,Pin_1*%
%TO.N,/ADC_12*%
X89916000Y-53086000D03*
D12*
%TO.P,J5,2,Pin_2*%
%TO.N,/ADC_11*%
X87376000Y-53086000D03*
%TO.P,J5,3,Pin_3*%
%TO.N,unconnected-(J5-Pin_3-Pad3)*%
X84836000Y-53086000D03*
%TD*%
D14*
%TO.P,U2,3,VI*%
%TO.N,VBUS*%
X106700000Y-47500000D03*
D15*
%TO.P,U2,2,VO*%
%TO.N,+3.3V*%
X109000000Y-53800000D03*
D14*
X109000000Y-47500000D03*
%TO.P,U2,1,GND*%
%TO.N,GND*%
X111300000Y-47500000D03*
%TD*%
D13*
%TO.P,J7,1,Pin_1*%
%TO.N,GND*%
X105180000Y-26100000D03*
D12*
%TO.P,J7,2,Pin_2*%
%TO.N,/SPI_2_MOSI*%
X107720000Y-26100000D03*
%TO.P,J7,3,Pin_3*%
%TO.N,/SPI_2_MISO*%
X110260000Y-26100000D03*
%TO.P,J7,4,Pin_4*%
%TO.N,/SPI_2_SCK*%
X112800000Y-26100000D03*
%TO.P,J7,5,Pin_5*%
%TO.N,+3.3V*%
X115340000Y-26100000D03*
%TD*%
D13*
%TO.P,J6,1,Pin_1*%
%TO.N,GND*%
X98820000Y-48400000D03*
D12*
%TO.P,J6,2,Pin_2*%
%TO.N,/SPI_1_MOSI*%
X96280000Y-48400000D03*
%TO.P,J6,3,Pin_3*%
%TO.N,/SPI_1_MISO*%
X93740000Y-48400000D03*
%TO.P,J6,4,Pin_4*%
%TO.N,/SPI_1_SCK*%
X91200000Y-48400000D03*
%TO.P,J6,5,Pin_5*%
%TO.N,+3.3V*%
X88660000Y-48400000D03*
%TD*%
D13*
%TO.P,J3,1,Pin_1*%
%TO.N,+3.3V*%
X88670000Y-26100000D03*
D12*
%TO.P,J3,2,Pin_2*%
%TO.N,URAT_1_TX*%
X86130000Y-26100000D03*
%TO.P,J3,3,Pin_3*%
%TO.N,URAT_1_RX*%
X83590000Y-26100000D03*
%TO.P,J3,4,Pin_4*%
%TO.N,GND*%
X81050000Y-26100000D03*
%TD*%
D13*
%TO.P,J4,1,Pin_1*%
%TO.N,+3.3V*%
X94996000Y-53086000D03*
D12*
%TO.P,J4,2,Pin_2*%
%TO.N,/I2C_SCL*%
X97536000Y-53086000D03*
%TO.P,J4,3,Pin_3*%
%TO.N,/I2C_SDA*%
X100076000Y-53086000D03*
%TO.P,J4,4,Pin_4*%
%TO.N,GND*%
X102616000Y-53086000D03*
%TD*%
D16*
%TO.P,SW1,*%
%TO.N,*%
X114840000Y-46900000D03*
X117050000Y-54200000D03*
X117050000Y-46900000D03*
X114840000Y-54200000D03*
D17*
%TO.P,SW1,1,A*%
%TO.N,GND*%
X114190000Y-52800000D03*
%TO.P,SW1,2,B*%
%TO.N,/SW_Boot0*%
X114190000Y-49800000D03*
%TO.P,SW1,3,C*%
%TO.N,+3.3V*%
X114190000Y-48300000D03*
%TD*%
D11*
%TO.P,C8,1*%
%TO.N,+3.3V*%
X86480000Y-43500000D03*
%TO.P,C8,2*%
%TO.N,GND*%
X85520000Y-43500000D03*
%TD*%
D18*
%TO.P,C6,2*%
%TO.N,GND*%
X89916000Y-40076000D03*
%TO.P,C6,1*%
%TO.N,+3.3VA*%
X89916000Y-39116000D03*
%TD*%
D11*
%TO.P,C4,1*%
%TO.N,+3.3V*%
X98460000Y-44000000D03*
%TO.P,C4,2*%
%TO.N,GND*%
X97500000Y-44000000D03*
%TD*%
D18*
%TO.P,C11,1*%
%TO.N,/HES_OUT*%
X88500000Y-39060000D03*
%TO.P,C11,2*%
%TO.N,GND*%
X88500000Y-40020000D03*
%TD*%
D19*
%TO.P,C5,1*%
%TO.N,+3.3V*%
X103575000Y-47150000D03*
%TO.P,C5,2*%
%TO.N,GND*%
X102025000Y-47150000D03*
%TD*%
D20*
%TO.P,C3,1*%
%TO.N,+3.3V*%
X101800000Y-35380000D03*
%TO.P,C3,2*%
%TO.N,GND*%
X101800000Y-34420000D03*
%TD*%
D21*
%TO.P,FB1,1*%
%TO.N,+3.3VA*%
X86925000Y-45450000D03*
%TO.P,FB1,2*%
%TO.N,+3.3V*%
X85350000Y-45450000D03*
%TD*%
D22*
%TO.P,R3,2*%
%TO.N,GND*%
X112120000Y-44600000D03*
%TO.P,R3,1*%
%TO.N,/PWR_LED_K*%
X111100000Y-44600000D03*
%TD*%
D23*
%TO.P,C13,2*%
%TO.N,GND*%
X101850000Y-49200000D03*
%TO.P,C13,1*%
%TO.N,+3.3V*%
X103750000Y-49200000D03*
%TD*%
D18*
%TO.P,C10,1*%
%TO.N,/HSE_IN*%
X88500000Y-37040000D03*
%TO.P,C10,2*%
%TO.N,GND*%
X88500000Y-38000000D03*
%TD*%
%TO.P,C9,1*%
%TO.N,/NRST*%
X86000000Y-41300000D03*
%TO.P,C9,2*%
%TO.N,GND*%
X86000000Y-42260000D03*
%TD*%
D20*
%TO.P,C1,1*%
%TO.N,+3.3V*%
X89750000Y-35510000D03*
%TO.P,C1,2*%
%TO.N,GND*%
X89750000Y-34550000D03*
%TD*%
D24*
%TO.P,U1,48,VDD*%
%TO.N,+3.3V*%
X93000000Y-34000000D03*
%TO.P,U1,47,VSS*%
%TO.N,GND*%
X93500000Y-34000000D03*
%TO.P,U1,46,PB9*%
%TO.N,unconnected-(U1-PB9-Pad46)*%
X94000000Y-34000000D03*
%TO.P,U1,45,PB8*%
%TO.N,unconnected-(U1-PB8-Pad45)*%
X94500000Y-34000000D03*
%TO.P,U1,44,BOOT0*%
%TO.N,/BOOT0*%
X95000000Y-34000000D03*
%TO.P,U1,43,PB7*%
%TO.N,URAT_1_RX*%
X95500000Y-34000000D03*
%TO.P,U1,42,PB6*%
%TO.N,URAT_1_TX*%
X96000000Y-34000000D03*
%TO.P,U1,41,PB5*%
%TO.N,unconnected-(U1-PB5-Pad41)*%
X96500000Y-34000000D03*
%TO.P,U1,40,PB4*%
%TO.N,unconnected-(U1-PB4-Pad40)*%
X97000000Y-34000000D03*
%TO.P,U1,39,PB3*%
%TO.N,unconnected-(U1-PB3-Pad39)*%
X97500000Y-34000000D03*
%TO.P,U1,38,PA15*%
%TO.N,unconnected-(U1-PA15-Pad38)*%
X98000000Y-34000000D03*
%TO.P,U1,37,PA14*%
%TO.N,/SWCLK*%
X98500000Y-34000000D03*
D25*
%TO.P,U1,36,VDD*%
%TO.N,+3.3V*%
X99912500Y-35412500D03*
%TO.P,U1,35,VSS*%
%TO.N,GND*%
X99912500Y-35912500D03*
%TO.P,U1,34,PA13*%
%TO.N,/SWDIO*%
X99912500Y-36412500D03*
%TO.P,U1,33,PA12*%
%TO.N,/USB_D +*%
X99912500Y-36912500D03*
%TO.P,U1,32,PA11*%
%TO.N,/USB_D -*%
X99912500Y-37412500D03*
%TO.P,U1,31,PA10*%
%TO.N,unconnected-(U1-PA10-Pad31)*%
X99912500Y-37912500D03*
%TO.P,U1,30,PA9*%
%TO.N,unconnected-(U1-PA9-Pad30)*%
X99912500Y-38412500D03*
%TO.P,U1,29,PA8*%
%TO.N,unconnected-(U1-PA8-Pad29)*%
X99912500Y-38912500D03*
%TO.P,U1,28,PB15*%
%TO.N,/SPI_2_MOSI*%
X99912500Y-39412500D03*
%TO.P,U1,27,PB14*%
%TO.N,/SPI_2_MISO*%
X99912500Y-39912500D03*
%TO.P,U1,26,PB13*%
%TO.N,/SPI_2_SCK*%
X99912500Y-40412500D03*
%TO.P,U1,25,PB12*%
%TO.N,unconnected-(U1-PB12-Pad25)*%
X99912500Y-40912500D03*
D24*
%TO.P,U1,24,VDD*%
%TO.N,+3.3V*%
X98500000Y-42325000D03*
%TO.P,U1,23,VSS*%
%TO.N,GND*%
X98000000Y-42325000D03*
%TO.P,U1,22,PB11*%
%TO.N,/I2C_SDA*%
X97500000Y-42325000D03*
%TO.P,U1,21,PB10*%
%TO.N,/I2C_SCL*%
X97000000Y-42325000D03*
%TO.P,U1,20,PB2*%
%TO.N,unconnected-(U1-PB2-Pad20)*%
X96500000Y-42325000D03*
%TO.P,U1,19,PB1*%
%TO.N,unconnected-(U1-PB1-Pad19)*%
X96000000Y-42325000D03*
%TO.P,U1,18,PB0*%
%TO.N,unconnected-(U1-PB0-Pad18)*%
X95500000Y-42325000D03*
%TO.P,U1,17,PA7*%
%TO.N,/SPI_1_MOSI*%
X95000000Y-42325000D03*
%TO.P,U1,16,PA6*%
%TO.N,/SPI_1_MISO*%
X94500000Y-42325000D03*
%TO.P,U1,15,PA5*%
%TO.N,/SPI_1_SCK*%
X94000000Y-42325000D03*
%TO.P,U1,14,PA4*%
%TO.N,unconnected-(U1-PA4-Pad14)*%
X93500000Y-42325000D03*
%TO.P,U1,13,PA3*%
%TO.N,unconnected-(U1-PA3-Pad13)*%
X93000000Y-42325000D03*
D25*
%TO.P,U1,12,PA2*%
%TO.N,/ADC_12*%
X91587500Y-40912500D03*
%TO.P,U1,11,PA1*%
%TO.N,/ADC_11*%
X91587500Y-40412500D03*
%TO.P,U1,10,PA0*%
%TO.N,unconnected-(U1-PA0-Pad10)*%
X91587500Y-39912500D03*
%TO.P,U1,9,VDDA*%
%TO.N,+3.3VA*%
X91587500Y-39412500D03*
%TO.P,U1,8,VSSA*%
%TO.N,GND*%
X91587500Y-38912500D03*
%TO.P,U1,7,NRST*%
%TO.N,/NRST*%
X91587500Y-38412500D03*
%TO.P,U1,6,PD1*%
%TO.N,/HES_OUT*%
X91587500Y-37912500D03*
%TO.P,U1,5,PD0*%
%TO.N,/HSE_IN*%
X91587500Y-37412500D03*
%TO.P,U1,4,PC15*%
%TO.N,/Pin 4*%
X91587500Y-36912500D03*
%TO.P,U1,3,PC14*%
%TO.N,/Pin 3*%
X91587500Y-36412500D03*
%TO.P,U1,2,PC13*%
%TO.N,/Pin 2*%
X91587500Y-35912500D03*
%TO.P,U1,1,VBAT*%
%TO.N,+3.3V*%
X91587500Y-35412500D03*
%TD*%
D26*
%TO.P,J1,1,VBUS*%
%TO.N,VBUS*%
X111200000Y-38150000D03*
%TO.P,J1,2,D-*%
%TO.N,/USB_D -*%
X111200000Y-37500000D03*
%TO.P,J1,3,D+*%
%TO.N,/USB_D +*%
X111200000Y-36850000D03*
%TO.P,J1,4,ID*%
%TO.N,unconnected-(J1-ID-Pad4)*%
X111200000Y-36200000D03*
%TO.P,J1,5,GND*%
%TO.N,GND*%
X111200000Y-35550000D03*
D27*
%TO.P,J1,6,Shield*%
%TO.N,unconnected-(J1-Shield-Pad6)*%
X115050000Y-40725000D03*
D28*
X111250000Y-40575000D03*
X111250000Y-33125000D03*
D27*
X115050000Y-32975000D03*
%TD*%
D29*
%TO.P,D1,2,A*%
%TO.N,+3.3V*%
X112600000Y-43100000D03*
%TO.P,D1,1,K*%
%TO.N,/PWR_LED_K*%
X111025000Y-43100000D03*
%TD*%
D13*
%TO.P,J2,1,Pin_1*%
%TO.N,+3.3V*%
X100562000Y-26100000D03*
D12*
%TO.P,J2,2,Pin_2*%
%TO.N,/SWDIO*%
X98022000Y-26100000D03*
%TO.P,J2,3,Pin_3*%
%TO.N,/SWCLK*%
X95482000Y-26100000D03*
%TO.P,J2,4,Pin_4*%
%TO.N,GND*%
X92942000Y-26100000D03*
%TD*%
D23*
%TO.P,C12,2*%
%TO.N,GND*%
X104800000Y-44900000D03*
%TO.P,C12,1*%
%TO.N,VBUS*%
X106700000Y-44900000D03*
%TD*%
D30*
%TO.P,R1,2*%
%TO.N,/BOOT0*%
X99564000Y-31750000D03*
%TO.P,R1,1*%
%TO.N,/SW_Boot0*%
X100584000Y-31750000D03*
%TD*%
D31*
%TO.P,C2,1*%
%TO.N,+3.3V*%
X93020000Y-32000000D03*
%TO.P,C2,2*%
%TO.N,GND*%
X93980000Y-32000000D03*
%TD*%
D32*
%TO.P,R2,1*%
%TO.N,/USB_D +*%
X107050000Y-36720000D03*
%TO.P,R2,2*%
%TO.N,+3.3V*%
X107050000Y-35700000D03*
%TD*%
D33*
%TO.N,GND*%
X102700000Y-43050000D03*
%TO.N,/I2C_SDA*%
X95750000Y-40600000D03*
%TO.N,+3.3V*%
X102950000Y-35200000D03*
X91500000Y-31500000D03*
%TO.N,GND*%
X93550000Y-30850000D03*
D34*
%TO.N,+3.3V*%
X113350000Y-47100000D03*
X94900000Y-50750000D03*
X114500000Y-28950000D03*
X116250000Y-28950000D03*
X102800000Y-25650000D03*
X90550000Y-25100000D03*
X90450000Y-27450000D03*
X102150000Y-28550000D03*
D33*
X108650000Y-49550000D03*
D34*
X110000000Y-52100000D03*
X107550000Y-52100000D03*
X106350000Y-53750000D03*
X111600000Y-53700000D03*
D33*
X106500000Y-34450000D03*
%TO.N,GND*%
X101450000Y-45650000D03*
%TO.N,/Pin 3*%
X97700000Y-37450000D03*
%TO.N,/Pin 4*%
X96600000Y-38400000D03*
%TO.N,/SW_Boot0*%
X101900000Y-32850000D03*
X115700000Y-50550000D03*
%TO.N,GND*%
X80250000Y-40000000D03*
X113150000Y-35800000D03*
X111150000Y-50100000D03*
X114200000Y-51650000D03*
X101200000Y-50900000D03*
X103000000Y-50900000D03*
X98850000Y-50700000D03*
X80700000Y-28400000D03*
X96600000Y-29450000D03*
X104300000Y-28750000D03*
X109350000Y-44700000D03*
%TO.N,+3.3V*%
X82500000Y-44900000D03*
%TO.N,/SPI_2_SCK*%
X106850000Y-38900000D03*
%TO.N,/SPI_2_MISO*%
X104300000Y-38500000D03*
X107700000Y-30450000D03*
%TO.N,/SPI_2_MOSI*%
X102250000Y-38400000D03*
%TO.N,/BOOT0*%
X100076000Y-33274000D03*
X96774000Y-35814000D03*
%TO.N,URAT_1_TX*%
X96774000Y-31496000D03*
%TO.N,GND*%
X94234000Y-39624000D03*
%TO.N,/NRST*%
X95504000Y-39116000D03*
%TO.N,GND*%
X90170000Y-42418000D03*
%TO.N,/NRST*%
X82296000Y-40386000D03*
%TO.N,/ADC_11*%
X93218000Y-40894000D03*
%TO.N,+3.3V*%
X86614000Y-35052000D03*
%TO.N,/I2C_SDA*%
X98806000Y-45720000D03*
%TO.N,GND*%
X102950000Y-34000000D03*
X88200000Y-34400000D03*
X98350000Y-36100000D03*
X97400000Y-39750000D03*
X94400000Y-36200000D03*
X87900000Y-42700000D03*
X84200000Y-43500000D03*
X84500000Y-42200000D03*
X113500000Y-44700000D03*
%TO.N,+3.3V*%
X114700000Y-42200000D03*
%TD*%
D35*
%TO.N,VBUS*%
X106700000Y-44900000D02*
X106700000Y-40950000D01*
X106700000Y-40950000D02*
X109475000Y-38175000D01*
X109475000Y-38175000D02*
X111200000Y-38175000D01*
D36*
%TO.N,+3.3V*%
X108650000Y-50100000D02*
X108650000Y-51000000D01*
X108650000Y-49550000D02*
X108650000Y-50100000D01*
X108650000Y-50100000D02*
X108650000Y-50750000D01*
X108650000Y-50750000D02*
X110000000Y-52100000D01*
X108650000Y-51000000D02*
X107550000Y-52100000D01*
%TO.N,GND*%
X104550000Y-44900000D02*
X102700000Y-43050000D01*
X104800000Y-44900000D02*
X104550000Y-44900000D01*
%TO.N,VBUS*%
X106700000Y-47500000D02*
X106700000Y-44900000D01*
D37*
%TO.N,GND*%
X88490000Y-43800000D02*
X88490000Y-43290000D01*
X88490000Y-43290000D02*
X87900000Y-42700000D01*
X97500000Y-44000000D02*
X97500000Y-43957035D01*
X97500000Y-43957035D02*
X98000000Y-43457035D01*
X98000000Y-43457035D02*
X98000000Y-42325000D01*
%TO.N,/I2C_SDA*%
X96613541Y-40600000D02*
X95750000Y-40600000D01*
X97500000Y-41486459D02*
X96613541Y-40600000D01*
%TO.N,/SWDIO*%
X103600000Y-36300000D02*
X104750000Y-35150000D01*
X102798161Y-36412500D02*
X102910661Y-36300000D01*
X102910661Y-36300000D02*
X103600000Y-36300000D01*
X99912500Y-36412500D02*
X102798161Y-36412500D01*
X104750000Y-35050000D02*
X104150000Y-34450000D01*
X103700000Y-31778000D02*
X98022000Y-26100000D01*
X104750000Y-35150000D02*
X104750000Y-35050000D01*
X104150000Y-34450000D02*
X104150000Y-32400000D01*
X104150000Y-32400000D02*
X103700000Y-31950000D01*
X103700000Y-31950000D02*
X103700000Y-31778000D01*
%TO.N,+3.3V*%
X102770000Y-35380000D02*
X102950000Y-35200000D01*
X101800000Y-35380000D02*
X102770000Y-35380000D01*
X103575000Y-45625000D02*
X103575000Y-47150000D01*
D36*
X107550000Y-52100000D02*
X106650000Y-52100000D01*
X106650000Y-52100000D02*
X103750000Y-49200000D01*
D37*
%TO.N,GND*%
X85900000Y-38450000D02*
X84000000Y-38450000D01*
X84000000Y-38450000D02*
X82800000Y-38450000D01*
X85150000Y-39600000D02*
X84000000Y-38450000D01*
%TO.N,+3.3V*%
X86480000Y-43500000D02*
X86480000Y-44320000D01*
X86480000Y-44320000D02*
X85350000Y-45450000D01*
X84800000Y-44900000D02*
X82500000Y-44900000D01*
X92000000Y-32000000D02*
X91500000Y-31500000D01*
X93020000Y-32000000D02*
X92000000Y-32000000D01*
X91587500Y-35412500D02*
X89847500Y-35412500D01*
X89847500Y-35412500D02*
X89750000Y-35510000D01*
X93000000Y-34000000D02*
X93000000Y-32020000D01*
X93000000Y-32020000D02*
X93020000Y-32000000D01*
%TO.N,GND*%
X93980000Y-31280000D02*
X93550000Y-30850000D01*
X93980000Y-32000000D02*
X93980000Y-31280000D01*
%TO.N,+3.3V*%
X89750000Y-35510000D02*
X87072000Y-35510000D01*
X87072000Y-35510000D02*
X86614000Y-35052000D01*
%TO.N,/SPI_2_MISO*%
X104300000Y-39200000D02*
X104300000Y-38500000D01*
D35*
%TO.N,GND*%
X88500000Y-40020000D02*
X88500000Y-42100000D01*
X88500000Y-42100000D02*
X87900000Y-42700000D01*
%TO.N,+3.3V*%
X113350000Y-47100000D02*
X113350000Y-47460000D01*
X113350000Y-47460000D02*
X114190000Y-48300000D01*
D36*
X94900000Y-50750000D02*
X94900000Y-52990000D01*
X94900000Y-52990000D02*
X94996000Y-53086000D01*
X115340000Y-26100000D02*
X115340000Y-28110000D01*
X115340000Y-28110000D02*
X114500000Y-28950000D01*
X116250000Y-28950000D02*
X116250000Y-27010000D01*
X116250000Y-27010000D02*
X115340000Y-26100000D01*
X102800000Y-25650000D02*
X101012000Y-25650000D01*
X101012000Y-25650000D02*
X100562000Y-26100000D01*
X100562000Y-26100000D02*
X100562000Y-26962000D01*
X100562000Y-26962000D02*
X102150000Y-28550000D01*
X90450000Y-27450000D02*
X90020000Y-27450000D01*
X90020000Y-27450000D02*
X88670000Y-26100000D01*
X90550000Y-25100000D02*
X89670000Y-25100000D01*
X89670000Y-25100000D02*
X88670000Y-26100000D01*
X109000000Y-49200000D02*
X108650000Y-49550000D01*
X109000000Y-47500000D02*
X109000000Y-49200000D01*
X109000000Y-53800000D02*
X109000000Y-53550000D01*
X109000000Y-53550000D02*
X107550000Y-52100000D01*
X109000000Y-53800000D02*
X109000000Y-53100000D01*
X109000000Y-53100000D02*
X110000000Y-52100000D01*
X106350000Y-53750000D02*
X111550000Y-53750000D01*
X111550000Y-53750000D02*
X111600000Y-53700000D01*
X110000000Y-52100000D02*
X107550000Y-52100000D01*
D37*
%TO.N,/SPI_2_MISO*%
X103650000Y-39250000D02*
X103950000Y-39550000D01*
X103100000Y-39250000D02*
X103650000Y-39250000D01*
X103950000Y-39550000D02*
X104300000Y-39200000D01*
X99912500Y-39912500D02*
X102437500Y-39912500D01*
X102437500Y-39912500D02*
X103100000Y-39250000D01*
%TO.N,/SPI_2_SCK*%
X105950000Y-38900000D02*
X106850000Y-38900000D01*
D35*
%TO.N,+3.3V*%
X107050000Y-35000000D02*
X106500000Y-34450000D01*
X107050000Y-35700000D02*
X107050000Y-35000000D01*
D36*
X109000000Y-48950000D02*
X109000000Y-47500000D01*
D37*
X103575000Y-47150000D02*
X103575000Y-49025000D01*
X103575000Y-49025000D02*
X103750000Y-49200000D01*
X98460000Y-44000000D02*
X99360000Y-44900000D01*
X99360000Y-44900000D02*
X102850000Y-44900000D01*
X102850000Y-44900000D02*
X103575000Y-45625000D01*
%TO.N,GND*%
X102025000Y-46225000D02*
X101450000Y-45650000D01*
X102025000Y-47150000D02*
X102025000Y-46225000D01*
D38*
%TO.N,/USB_D -*%
X111200000Y-37500000D02*
X111087500Y-37387500D01*
X111087500Y-37387500D02*
X99937500Y-37387500D01*
D37*
%TO.N,/Pin 3*%
X91587500Y-36412500D02*
X93551839Y-36412500D01*
X93551839Y-36412500D02*
X94439339Y-37300000D01*
X97550000Y-37300000D02*
X97700000Y-37450000D01*
X94439339Y-37300000D02*
X97550000Y-37300000D01*
%TO.N,/Pin 4*%
X92919339Y-37519339D02*
X93200000Y-37800000D01*
X93200000Y-37800000D02*
X96000000Y-37800000D01*
X92919339Y-37084000D02*
X92919339Y-37519339D01*
X96000000Y-37800000D02*
X96600000Y-38400000D01*
%TO.N,/SW_Boot0*%
X101684000Y-32850000D02*
X100584000Y-31750000D01*
X101900000Y-32850000D02*
X101684000Y-32850000D01*
X114950000Y-49800000D02*
X115700000Y-50550000D01*
X114190000Y-49800000D02*
X114950000Y-49800000D01*
%TO.N,GND*%
X81250000Y-40000000D02*
X80250000Y-40000000D01*
X82800000Y-38450000D02*
X81250000Y-40000000D01*
X86850000Y-37500000D02*
X85900000Y-38450000D01*
X112900000Y-35550000D02*
X113150000Y-35800000D01*
X111200000Y-35550000D02*
X112900000Y-35550000D01*
D36*
X111300000Y-49950000D02*
X111150000Y-50100000D01*
X111300000Y-47500000D02*
X111300000Y-49950000D01*
X114190000Y-51660000D02*
X114200000Y-51650000D01*
X114190000Y-52800000D02*
X114190000Y-51660000D01*
X101850000Y-50900000D02*
X101200000Y-50900000D01*
X101850000Y-50900000D02*
X103000000Y-50900000D01*
X101850000Y-49200000D02*
X101850000Y-50900000D01*
X101850000Y-50900000D02*
X101850000Y-52320000D01*
X101850000Y-52320000D02*
X102616000Y-53086000D01*
X98820000Y-50670000D02*
X98850000Y-50700000D01*
X98820000Y-48400000D02*
X98820000Y-50670000D01*
X81050000Y-28050000D02*
X80700000Y-28400000D01*
X81050000Y-26100000D02*
X81050000Y-28050000D01*
X93250000Y-26100000D02*
X96600000Y-29450000D01*
X92942000Y-26100000D02*
X93250000Y-26100000D01*
X105180000Y-27870000D02*
X104300000Y-28750000D01*
X105180000Y-26100000D02*
X105180000Y-27870000D01*
X111300000Y-47500000D02*
X111300000Y-46650000D01*
X111300000Y-46650000D02*
X109350000Y-44700000D01*
D37*
%TO.N,+3.3V*%
X84800000Y-44900000D02*
X85350000Y-45450000D01*
%TO.N,+3.3VA*%
X86925000Y-45450000D02*
X87842965Y-45450000D01*
X87842965Y-45450000D02*
X89450000Y-43842965D01*
X89450000Y-43842965D02*
X89450000Y-43800000D01*
X89160000Y-39618000D02*
X89160000Y-43510000D01*
X89160000Y-43510000D02*
X89450000Y-43800000D01*
%TO.N,/SPI_2_SCK*%
X104437500Y-40412500D02*
X105950000Y-38900000D01*
X99912500Y-40412500D02*
X104437500Y-40412500D01*
%TO.N,/SPI_2_MISO*%
X110260000Y-26100000D02*
X110260000Y-27340000D01*
X107700000Y-29900000D02*
X107700000Y-30450000D01*
X110260000Y-27340000D02*
X108600000Y-29000000D01*
X108600000Y-29000000D02*
X107700000Y-29900000D01*
%TO.N,/SPI_2_MOSI*%
X102200000Y-38400000D02*
X102250000Y-38400000D01*
X101187500Y-39412500D02*
X102200000Y-38400000D01*
X99912500Y-39412500D02*
X101187500Y-39412500D01*
D38*
%TO.N,/USB_D +*%
X99937500Y-36937500D02*
X111112500Y-36937500D01*
X111112500Y-36937500D02*
X111200000Y-36850000D01*
D37*
%TO.N,/BOOT0*%
X100076000Y-32262000D02*
X99564000Y-31750000D01*
X95975459Y-35814000D02*
X96774000Y-35814000D01*
X95000000Y-34000000D02*
X95000000Y-34838541D01*
X95000000Y-34838541D02*
X95975459Y-35814000D01*
X100076000Y-33274000D02*
X100076000Y-32262000D01*
%TO.N,URAT_1_TX*%
X96774000Y-32004000D02*
X96774000Y-31496000D01*
X96000000Y-32778000D02*
X96774000Y-32004000D01*
%TO.N,/NRST*%
X83058000Y-41300000D02*
X86000000Y-41300000D01*
%TO.N,GND*%
X93522500Y-38912500D02*
X94234000Y-39624000D01*
X91587500Y-38912500D02*
X93522500Y-38912500D01*
%TO.N,/NRST*%
X94800500Y-38412500D02*
X95504000Y-39116000D01*
X91587500Y-38412500D02*
X94800500Y-38412500D01*
%TO.N,GND*%
X89916000Y-42164000D02*
X90170000Y-42418000D01*
X89916000Y-40894000D02*
X89916000Y-42164000D01*
%TO.N,+3.3VA*%
X89916000Y-39116000D02*
X89662000Y-39116000D01*
X89662000Y-39116000D02*
X89160000Y-39618000D01*
%TO.N,GND*%
X89916000Y-40076000D02*
X89916000Y-40894000D01*
%TO.N,/ADC_12*%
X91587500Y-40912500D02*
X90659500Y-40912500D01*
X90659500Y-40912500D02*
X90424000Y-41148000D01*
X87460000Y-49106000D02*
X89916000Y-51562000D01*
X90424000Y-41148000D02*
X90932000Y-41656000D01*
X90932000Y-41656000D02*
X91587500Y-41656000D01*
X91587500Y-41656000D02*
X91587500Y-44810500D01*
X91587500Y-44810500D02*
X90678000Y-45720000D01*
X90678000Y-45720000D02*
X89642943Y-45720000D01*
X89642943Y-45720000D02*
X87460000Y-47902943D01*
X87460000Y-47902943D02*
X87460000Y-49106000D01*
X89916000Y-51562000D02*
X89916000Y-53086000D01*
%TO.N,+3.3VA*%
X91587500Y-39412500D02*
X90212500Y-39412500D01*
X90212500Y-39412500D02*
X89916000Y-39116000D01*
%TO.N,/NRST*%
X83058000Y-41300000D02*
X83058000Y-41148000D01*
X83058000Y-41148000D02*
X82296000Y-40386000D01*
%TO.N,/ADC_11*%
X92736500Y-40412500D02*
X93218000Y-40894000D01*
X91587500Y-40412500D02*
X92736500Y-40412500D01*
%TO.N,/SPI_1_SCK*%
X94000000Y-42325000D02*
X94000000Y-43414000D01*
X93472000Y-43688000D02*
X92964000Y-44196000D01*
X94000000Y-43414000D02*
X93726000Y-43688000D01*
X93726000Y-43688000D02*
X93472000Y-43688000D01*
X92964000Y-44196000D02*
X92964000Y-46636000D01*
X92964000Y-46636000D02*
X91200000Y-48400000D01*
%TO.N,/Pin 4*%
X91587500Y-36912500D02*
X92747839Y-36912500D01*
X92747839Y-36912500D02*
X92919339Y-37084000D01*
%TO.N,/Pin 2*%
X91587500Y-35912500D02*
X92426041Y-35912500D01*
X88755541Y-31242000D02*
X85852000Y-31242000D01*
X92426041Y-35912500D02*
X92675000Y-35663541D01*
X92675000Y-35663541D02*
X92675000Y-35161459D01*
X92675000Y-35161459D02*
X88755541Y-31242000D01*
%TO.N,URAT_1_RX*%
X90932000Y-29972000D02*
X89916000Y-28956000D01*
X95500000Y-34000000D02*
X95500000Y-30984000D01*
X95500000Y-30984000D02*
X94488000Y-29972000D01*
X94488000Y-29972000D02*
X90932000Y-29972000D01*
X89916000Y-28956000D02*
X86446000Y-28956000D01*
X86446000Y-28956000D02*
X83590000Y-26100000D01*
%TO.N,URAT_1_TX*%
X96000000Y-34000000D02*
X96000000Y-32778000D01*
%TO.N,/SWCLK*%
X98500000Y-34000000D02*
X98500000Y-29118000D01*
X98500000Y-29118000D02*
X95482000Y-26100000D01*
%TO.N,/I2C_SDA*%
X97500000Y-42325000D02*
X97500000Y-41486459D01*
X100076000Y-46990000D02*
X100076000Y-53086000D01*
X98806000Y-45720000D02*
X100076000Y-46990000D01*
%TO.N,/I2C_SCL*%
X97000000Y-42325000D02*
X97000000Y-43497035D01*
X97000000Y-43497035D02*
X96774000Y-43723035D01*
X96774000Y-43723035D02*
X96774000Y-44958000D01*
X96774000Y-44958000D02*
X97536000Y-45720000D01*
X97536000Y-45720000D02*
X97536000Y-53086000D01*
%TO.N,/SPI_1_MOSI*%
X95000000Y-42325000D02*
X95000000Y-43163541D01*
X95270459Y-43434000D02*
X95504000Y-43434000D01*
X95000000Y-43163541D02*
X95270459Y-43434000D01*
X95504000Y-43434000D02*
X95504000Y-44450000D01*
X96280000Y-45226000D02*
X96280000Y-48400000D01*
X95504000Y-44450000D02*
X96280000Y-45226000D01*
%TO.N,/SPI_1_MISO*%
X94500000Y-42325000D02*
X94500000Y-47640000D01*
X94500000Y-47640000D02*
X93740000Y-48400000D01*
D35*
%TO.N,GND*%
X102530000Y-34420000D02*
X102950000Y-34000000D01*
X101800000Y-34420000D02*
X102530000Y-34420000D01*
X88350000Y-34550000D02*
X88200000Y-34400000D01*
X89750000Y-34550000D02*
X88350000Y-34550000D01*
D37*
X98537500Y-35912500D02*
X98350000Y-36100000D01*
X99912500Y-35912500D02*
X98537500Y-35912500D01*
X98000000Y-40350000D02*
X97400000Y-39750000D01*
X98000000Y-42325000D02*
X98000000Y-40350000D01*
X93500000Y-35300000D02*
X94400000Y-36200000D01*
X93500000Y-34000000D02*
X93500000Y-35300000D01*
X88500000Y-38000000D02*
X87450000Y-38000000D01*
X87450000Y-38000000D02*
X86850000Y-37400000D01*
X86850000Y-37400000D02*
X86850000Y-37500000D01*
X85520000Y-43500000D02*
X84200000Y-43500000D01*
X84560000Y-42260000D02*
X84500000Y-42200000D01*
X86000000Y-42260000D02*
X84560000Y-42260000D01*
%TO.N,/HES_OUT*%
X88500000Y-39060000D02*
X89647500Y-37912500D01*
X89647500Y-37912500D02*
X91587500Y-37912500D01*
%TO.N,GND*%
X113400000Y-44600000D02*
X113500000Y-44700000D01*
X112120000Y-44600000D02*
X113400000Y-44600000D01*
%TO.N,+3.3V*%
X113800000Y-43100000D02*
X114700000Y-42200000D01*
X112600000Y-43100000D02*
X113800000Y-43100000D01*
%TO.N,/PWR_LED_K*%
X111100000Y-44600000D02*
X111100000Y-43175000D01*
X111100000Y-43175000D02*
X111025000Y-43100000D01*
%TO.N,+3.3V*%
X98460000Y-44000000D02*
X98500000Y-43960000D01*
X98500000Y-43960000D02*
X98500000Y-42325000D01*
X89740000Y-35540000D02*
X89867500Y-35412500D01*
%TO.N,/HES_OUT*%
X88500000Y-39060000D02*
X87390000Y-39060000D01*
X87390000Y-39060000D02*
X86850000Y-39600000D01*
%TO.N,/HSE_IN*%
X88500000Y-37040000D02*
X87810000Y-36350000D01*
X87810000Y-36350000D02*
X86100000Y-36350000D01*
X86100000Y-36350000D02*
X85150000Y-37300000D01*
X85150000Y-37300000D02*
X85150000Y-37400000D01*
X88500000Y-37040000D02*
X88872500Y-37412500D01*
X88872500Y-37412500D02*
X91587500Y-37412500D01*
%TO.N,+3.3V*%
X101800000Y-35380000D02*
X99945000Y-35380000D01*
X99945000Y-35380000D02*
X99912500Y-35412500D01*
%TD*%
M02*
