%TF.GenerationSoftware,KiCad,Pcbnew,7.0.1-0*%
%TF.CreationDate,2023-10-24T00:04:38+02:00*%
%TF.ProjectId,SMT-32,534d542d-3332-42e6-9b69-6361645f7063,rev?*%
%TF.SameCoordinates,Original*%
%TF.FileFunction,Soldermask,Top*%
%TF.FilePolarity,Negative*%
%FSLAX46Y46*%
G04 Gerber Fmt 4.6, Leading zero omitted, Abs format (unit mm)*
G04 Created by KiCad (PCBNEW 7.0.1-0) date 2023-10-24 00:04:38*
%MOMM*%
%LPD*%
G01*
G04 APERTURE LIST*
G04 Aperture macros list*
%AMRoundRect*
0 Rectangle with rounded corners*
0 $1 Rounding radius*
0 $2 $3 $4 $5 $6 $7 $8 $9 X,Y pos of 4 corners*
0 Add a 4 corners polygon primitive as box body*
4,1,4,$2,$3,$4,$5,$6,$7,$8,$9,$2,$3,0*
0 Add four circle primitives for the rounded corners*
1,1,$1+$1,$2,$3*
1,1,$1+$1,$4,$5*
1,1,$1+$1,$6,$7*
1,1,$1+$1,$8,$9*
0 Add four rect primitives between the rounded corners*
20,1,$1+$1,$2,$3,$4,$5,0*
20,1,$1+$1,$4,$5,$6,$7,0*
20,1,$1+$1,$6,$7,$8,$9,0*
20,1,$1+$1,$8,$9,$2,$3,0*%
G04 Aperture macros list end*
%ADD10R,1.200000X1.400000*%
%ADD11RoundRect,0.140000X0.140000X0.170000X-0.140000X0.170000X-0.140000X-0.170000X0.140000X-0.170000X0*%
%ADD12O,1.700000X1.700000*%
%ADD13R,1.700000X1.700000*%
%ADD14R,1.500000X2.000000*%
%ADD15R,3.800000X2.000000*%
%ADD16R,0.800000X1.000000*%
%ADD17C,0.900000*%
%ADD18R,1.500000X0.700000*%
%ADD19RoundRect,0.140000X-0.170000X0.140000X-0.170000X-0.140000X0.170000X-0.140000X0.170000X0.140000X0*%
%ADD20C,2.100000*%
%ADD21RoundRect,0.225000X0.225000X0.250000X-0.225000X0.250000X-0.225000X-0.250000X0.225000X-0.250000X0*%
%ADD22RoundRect,0.140000X0.170000X-0.140000X0.170000X0.140000X-0.170000X0.140000X-0.170000X-0.140000X0*%
%ADD23RoundRect,0.218750X0.218750X0.256250X-0.218750X0.256250X-0.218750X-0.256250X0.218750X-0.256250X0*%
%ADD24RoundRect,0.135000X-0.135000X-0.185000X0.135000X-0.185000X0.135000X0.185000X-0.135000X0.185000X0*%
%ADD25RoundRect,0.250000X0.250000X0.475000X-0.250000X0.475000X-0.250000X-0.475000X0.250000X-0.475000X0*%
%ADD26RoundRect,0.075000X-0.075000X-0.662500X0.075000X-0.662500X0.075000X0.662500X-0.075000X0.662500X0*%
%ADD27RoundRect,0.075000X-0.662500X-0.075000X0.662500X-0.075000X0.662500X0.075000X-0.662500X0.075000X0*%
%ADD28O,0.800000X0.800000*%
%ADD29R,1.300000X0.450000*%
%ADD30O,1.800000X1.150000*%
%ADD31O,2.000000X1.450000*%
%ADD32RoundRect,0.218750X-0.218750X-0.256250X0.218750X-0.256250X0.218750X0.256250X-0.218750X0.256250X0*%
%ADD33RoundRect,0.135000X0.135000X0.185000X-0.135000X0.185000X-0.135000X-0.185000X0.135000X-0.185000X0*%
%ADD34RoundRect,0.140000X-0.140000X-0.170000X0.140000X-0.170000X0.140000X0.170000X-0.140000X0.170000X0*%
%ADD35RoundRect,0.135000X0.185000X-0.135000X0.185000X0.135000X-0.185000X0.135000X-0.185000X-0.135000X0*%
G04 APERTURE END LIST*
D10*
%TO.C,Y2*%
X85150000Y-37400000D03*
X85150000Y-39600000D03*
X86850000Y-39600000D03*
X86850000Y-37400000D03*
%TD*%
D11*
%TO.C,C7*%
X88490000Y-43800000D03*
X89450000Y-43800000D03*
%TD*%
D12*
%TO.C,J8*%
X85852000Y-31242000D03*
X83312000Y-31242000D03*
D13*
X80772000Y-31242000D03*
%TD*%
%TO.C,J5*%
X89916000Y-53086000D03*
D12*
X87376000Y-53086000D03*
X84836000Y-53086000D03*
%TD*%
D14*
%TO.C,U2*%
X106700000Y-47500000D03*
D15*
X109000000Y-53800000D03*
D14*
X109000000Y-47500000D03*
X111300000Y-47500000D03*
%TD*%
D13*
%TO.C,J7*%
X105180000Y-26100000D03*
D12*
X107720000Y-26100000D03*
X110260000Y-26100000D03*
X112800000Y-26100000D03*
X115340000Y-26100000D03*
%TD*%
D13*
%TO.C,J6*%
X98820000Y-48400000D03*
D12*
X96280000Y-48400000D03*
X93740000Y-48400000D03*
X91200000Y-48400000D03*
X88660000Y-48400000D03*
%TD*%
D13*
%TO.C,J3*%
X88670000Y-26100000D03*
D12*
X86130000Y-26100000D03*
X83590000Y-26100000D03*
X81050000Y-26100000D03*
%TD*%
D13*
%TO.C,J4*%
X94996000Y-53086000D03*
D12*
X97536000Y-53086000D03*
X100076000Y-53086000D03*
X102616000Y-53086000D03*
%TD*%
D16*
%TO.C,SW1*%
X114840000Y-46900000D03*
X117050000Y-54200000D03*
X117050000Y-46900000D03*
X114840000Y-54200000D03*
D17*
X115950000Y-49050000D03*
X115950000Y-52050000D03*
D18*
X114190000Y-52800000D03*
X114190000Y-49800000D03*
X114190000Y-48300000D03*
%TD*%
D11*
%TO.C,C8*%
X86480000Y-43500000D03*
X85520000Y-43500000D03*
%TD*%
D19*
%TO.C,C6*%
X89916000Y-40076000D03*
X89916000Y-39116000D03*
%TD*%
D20*
%TO.C,H1*%
X81026000Y-36068000D03*
%TD*%
D11*
%TO.C,C4*%
X98460000Y-44000000D03*
X97500000Y-44000000D03*
%TD*%
D19*
%TO.C,C11*%
X88500000Y-39060000D03*
X88500000Y-40020000D03*
%TD*%
D21*
%TO.C,C5*%
X103575000Y-47150000D03*
X102025000Y-47150000D03*
%TD*%
D22*
%TO.C,C3*%
X101800000Y-35380000D03*
X101800000Y-34420000D03*
%TD*%
D23*
%TO.C,FB1*%
X86925000Y-45450000D03*
X85350000Y-45450000D03*
%TD*%
D24*
%TO.C,R3*%
X112120000Y-44600000D03*
X111100000Y-44600000D03*
%TD*%
D25*
%TO.C,C13*%
X101850000Y-49200000D03*
X103750000Y-49200000D03*
%TD*%
D19*
%TO.C,C10*%
X88500000Y-37040000D03*
X88500000Y-38000000D03*
%TD*%
%TO.C,C9*%
X86000000Y-41300000D03*
X86000000Y-42260000D03*
%TD*%
D22*
%TO.C,C1*%
X89750000Y-35510000D03*
X89750000Y-34550000D03*
%TD*%
D26*
%TO.C,U1*%
X93000000Y-34000000D03*
X93500000Y-34000000D03*
X94000000Y-34000000D03*
X94500000Y-34000000D03*
X95000000Y-34000000D03*
X95500000Y-34000000D03*
X96000000Y-34000000D03*
X96500000Y-34000000D03*
X97000000Y-34000000D03*
X97500000Y-34000000D03*
X98000000Y-34000000D03*
X98500000Y-34000000D03*
D27*
X99912500Y-35412500D03*
X99912500Y-35912500D03*
X99912500Y-36412500D03*
X99912500Y-36912500D03*
X99912500Y-37412500D03*
X99912500Y-37912500D03*
X99912500Y-38412500D03*
X99912500Y-38912500D03*
X99912500Y-39412500D03*
X99912500Y-39912500D03*
X99912500Y-40412500D03*
X99912500Y-40912500D03*
D26*
X98500000Y-42325000D03*
X98000000Y-42325000D03*
X97500000Y-42325000D03*
X97000000Y-42325000D03*
X96500000Y-42325000D03*
X96000000Y-42325000D03*
X95500000Y-42325000D03*
X95000000Y-42325000D03*
X94500000Y-42325000D03*
X94000000Y-42325000D03*
X93500000Y-42325000D03*
X93000000Y-42325000D03*
D27*
X91587500Y-40912500D03*
X91587500Y-40412500D03*
X91587500Y-39912500D03*
X91587500Y-39412500D03*
X91587500Y-38912500D03*
X91587500Y-38412500D03*
X91587500Y-37912500D03*
X91587500Y-37412500D03*
X91587500Y-36912500D03*
X91587500Y-36412500D03*
X91587500Y-35912500D03*
X91587500Y-35412500D03*
%TD*%
D28*
%TO.C,J1*%
X112300000Y-39350000D03*
X112300000Y-34350000D03*
D29*
X111200000Y-38150000D03*
X111200000Y-37500000D03*
X111200000Y-36850000D03*
X111200000Y-36200000D03*
X111200000Y-35550000D03*
D30*
X115050000Y-40725000D03*
D31*
X111250000Y-40575000D03*
X111250000Y-33125000D03*
D30*
X115050000Y-32975000D03*
%TD*%
D32*
%TO.C,D1*%
X112600000Y-43100000D03*
X111025000Y-43100000D03*
%TD*%
D13*
%TO.C,J2*%
X100562000Y-26100000D03*
D12*
X98022000Y-26100000D03*
X95482000Y-26100000D03*
X92942000Y-26100000D03*
%TD*%
D25*
%TO.C,C12*%
X104800000Y-44900000D03*
X106700000Y-44900000D03*
%TD*%
D33*
%TO.C,R1*%
X99564000Y-31750000D03*
X100584000Y-31750000D03*
%TD*%
D20*
%TO.C,H2*%
X81026000Y-48006000D03*
%TD*%
D34*
%TO.C,C2*%
X93020000Y-32000000D03*
X93980000Y-32000000D03*
%TD*%
D35*
%TO.C,R2*%
X107050000Y-36720000D03*
X107050000Y-35700000D03*
%TD*%
M02*
