%TF.GenerationSoftware,KiCad,Pcbnew,7.0.1-0*%
%TF.CreationDate,2023-10-24T00:06:01+02:00*%
%TF.ProjectId,SMT-32,534d542d-3332-42e6-9b69-6361645f7063,rev?*%
%TF.SameCoordinates,Original*%
%TF.FileFunction,Drillmap*%
%TF.FilePolarity,Positive*%
%FSLAX45Y45*%
G04 Gerber Fmt 4.5, Leading zero omitted, Abs format (unit mm)*
G04 Created by KiCad (PCBNEW 7.0.1-0) date 2023-10-24 00:06:01*
%MOMM*%
%LPD*%
G01*
G04 APERTURE LIST*
%ADD10C,0.100000*%
%ADD11C,0.200000*%
%ADD12C,0.040000*%
%ADD13C,0.055000*%
%ADD14C,0.085000*%
G04 APERTURE END LIST*
D10*
X7800000Y-2345000D02*
X11800000Y-2345000D01*
X11800000Y-5600000D01*
X7800000Y-5600000D01*
X7800000Y-2345000D01*
D11*
D12*
X8005000Y-3980000D02*
X8045000Y-4020000D01*
X8045000Y-3980000D02*
X8005000Y-4020000D01*
X8050000Y-2820000D02*
X8090000Y-2860000D01*
X8090000Y-2820000D02*
X8050000Y-2860000D01*
X8209600Y-4018600D02*
X8249600Y-4058600D01*
X8249600Y-4018600D02*
X8209600Y-4058600D01*
X8230000Y-4470000D02*
X8270000Y-4510000D01*
X8270000Y-4470000D02*
X8230000Y-4510000D01*
X8400000Y-4330000D02*
X8440000Y-4370000D01*
X8440000Y-4330000D02*
X8400000Y-4370000D01*
X8430000Y-4200000D02*
X8470000Y-4240000D01*
X8470000Y-4200000D02*
X8430000Y-4240000D01*
X8641400Y-3485200D02*
X8681400Y-3525200D01*
X8681400Y-3485200D02*
X8641400Y-3525200D01*
X8770000Y-4250000D02*
X8810000Y-4290000D01*
X8810000Y-4250000D02*
X8770000Y-4290000D01*
X8800000Y-3420000D02*
X8840000Y-3460000D01*
X8840000Y-3420000D02*
X8800000Y-3460000D01*
X8997000Y-4221800D02*
X9037000Y-4261800D01*
X9037000Y-4221800D02*
X8997000Y-4261800D01*
X9025000Y-2725000D02*
X9065000Y-2765000D01*
X9065000Y-2725000D02*
X9025000Y-2765000D01*
X9035000Y-2490000D02*
X9075000Y-2530000D01*
X9075000Y-2490000D02*
X9035000Y-2530000D01*
X9130000Y-3130000D02*
X9170000Y-3170000D01*
X9170000Y-3130000D02*
X9130000Y-3170000D01*
X9301800Y-4069400D02*
X9341800Y-4109400D01*
X9341800Y-4069400D02*
X9301800Y-4109400D01*
X9335000Y-3065000D02*
X9375000Y-3105000D01*
X9375000Y-3065000D02*
X9335000Y-3105000D01*
X9403400Y-3942400D02*
X9443400Y-3982400D01*
X9443400Y-3942400D02*
X9403400Y-3982400D01*
X9420000Y-3600000D02*
X9460000Y-3640000D01*
X9460000Y-3600000D02*
X9420000Y-3640000D01*
X9470000Y-5055000D02*
X9510000Y-5095000D01*
X9510000Y-5055000D02*
X9470000Y-5095000D01*
X9530400Y-3891600D02*
X9570400Y-3931600D01*
X9570400Y-3891600D02*
X9530400Y-3931600D01*
X9555000Y-4040000D02*
X9595000Y-4080000D01*
X9595000Y-4040000D02*
X9555000Y-4080000D01*
X9640000Y-2925000D02*
X9680000Y-2965000D01*
X9680000Y-2925000D02*
X9640000Y-2965000D01*
X9640000Y-3820000D02*
X9680000Y-3860000D01*
X9680000Y-3820000D02*
X9640000Y-3860000D01*
X9657400Y-3129600D02*
X9697400Y-3169600D01*
X9697400Y-3129600D02*
X9657400Y-3169600D01*
X9657400Y-3561400D02*
X9697400Y-3601400D01*
X9697400Y-3561400D02*
X9657400Y-3601400D01*
X9720000Y-3955000D02*
X9760000Y-3995000D01*
X9760000Y-3955000D02*
X9720000Y-3995000D01*
X9750000Y-3725000D02*
X9790000Y-3765000D01*
X9790000Y-3725000D02*
X9750000Y-3765000D01*
X9815000Y-3590000D02*
X9855000Y-3630000D01*
X9855000Y-3590000D02*
X9815000Y-3630000D01*
X9860600Y-4552000D02*
X9900600Y-4592000D01*
X9900600Y-4552000D02*
X9860600Y-4592000D01*
X9865000Y-5050000D02*
X9905000Y-5090000D01*
X9905000Y-5050000D02*
X9865000Y-5090000D01*
X9987600Y-3307400D02*
X10027600Y-3347400D01*
X10027600Y-3307400D02*
X9987600Y-3347400D01*
X10100000Y-5070000D02*
X10140000Y-5110000D01*
X10140000Y-5070000D02*
X10100000Y-5110000D01*
X10125000Y-4545000D02*
X10165000Y-4585000D01*
X10165000Y-4545000D02*
X10125000Y-4585000D01*
X10170000Y-3265000D02*
X10210000Y-3305000D01*
X10210000Y-3265000D02*
X10170000Y-3305000D01*
X10195000Y-2835000D02*
X10235000Y-2875000D01*
X10235000Y-2835000D02*
X10195000Y-2875000D01*
X10205000Y-3820000D02*
X10245000Y-3860000D01*
X10245000Y-3820000D02*
X10205000Y-3860000D01*
X10250000Y-4285000D02*
X10290000Y-4325000D01*
X10290000Y-4285000D02*
X10250000Y-4325000D01*
X10260000Y-2545000D02*
X10300000Y-2585000D01*
X10300000Y-2545000D02*
X10260000Y-2585000D01*
X10275000Y-3380000D02*
X10315000Y-3420000D01*
X10315000Y-3380000D02*
X10275000Y-3420000D01*
X10275000Y-3500000D02*
X10315000Y-3540000D01*
X10315000Y-3500000D02*
X10275000Y-3540000D01*
X10280000Y-5070000D02*
X10320000Y-5110000D01*
X10320000Y-5070000D02*
X10280000Y-5110000D01*
X10410000Y-2855000D02*
X10450000Y-2895000D01*
X10450000Y-2855000D02*
X10410000Y-2895000D01*
X10410000Y-3830000D02*
X10450000Y-3870000D01*
X10450000Y-3830000D02*
X10410000Y-3870000D01*
X10615000Y-5355000D02*
X10655000Y-5395000D01*
X10655000Y-5355000D02*
X10615000Y-5395000D01*
X10630000Y-3425000D02*
X10670000Y-3465000D01*
X10670000Y-3425000D02*
X10630000Y-3465000D01*
X10665000Y-3870000D02*
X10705000Y-3910000D01*
X10705000Y-3870000D02*
X10665000Y-3910000D01*
X10735000Y-5190000D02*
X10775000Y-5230000D01*
X10775000Y-5190000D02*
X10735000Y-5230000D01*
X10750000Y-3025000D02*
X10790000Y-3065000D01*
X10790000Y-3025000D02*
X10750000Y-3065000D01*
X10845000Y-4935000D02*
X10885000Y-4975000D01*
X10885000Y-4935000D02*
X10845000Y-4975000D01*
X10915000Y-4450000D02*
X10955000Y-4490000D01*
X10955000Y-4450000D02*
X10915000Y-4490000D01*
X10980000Y-5190000D02*
X11020000Y-5230000D01*
X11020000Y-5190000D02*
X10980000Y-5230000D01*
X11095000Y-4990000D02*
X11135000Y-5030000D01*
X11135000Y-4990000D02*
X11095000Y-5030000D01*
X11140000Y-5350000D02*
X11180000Y-5390000D01*
X11180000Y-5350000D02*
X11140000Y-5390000D01*
X11295000Y-3560000D02*
X11335000Y-3600000D01*
X11335000Y-3560000D02*
X11295000Y-3600000D01*
X11315000Y-4690000D02*
X11355000Y-4730000D01*
X11355000Y-4690000D02*
X11315000Y-4730000D01*
X11330000Y-4450000D02*
X11370000Y-4490000D01*
X11370000Y-4450000D02*
X11330000Y-4490000D01*
X11400000Y-5145000D02*
X11440000Y-5185000D01*
X11440000Y-5145000D02*
X11400000Y-5185000D01*
X11430000Y-2875000D02*
X11470000Y-2915000D01*
X11470000Y-2875000D02*
X11430000Y-2915000D01*
X11450000Y-4200000D02*
X11490000Y-4240000D01*
X11490000Y-4200000D02*
X11450000Y-4240000D01*
X11550000Y-5035000D02*
X11590000Y-5075000D01*
X11590000Y-5035000D02*
X11550000Y-5075000D01*
X11605000Y-2875000D02*
X11645000Y-2915000D01*
X11645000Y-2875000D02*
X11605000Y-2915000D01*
D13*
X11532500Y-3297500D02*
G75*
G03*
X11532500Y-3297500I-27500J0D01*
G01*
D11*
X11472500Y-3325000D02*
X11537500Y-3325000D01*
X11537500Y-3325000D02*
G75*
G03*
X11537500Y-3270000I0J27500D01*
G01*
X11537500Y-3270000D02*
X11472500Y-3270000D01*
X11472500Y-3270000D02*
G75*
G03*
X11472500Y-3325000I0J-27500D01*
G01*
D13*
X11532500Y-4072500D02*
G75*
G03*
X11532500Y-4072500I-27500J0D01*
G01*
D11*
X11472500Y-4100000D02*
X11537500Y-4100000D01*
X11537500Y-4100000D02*
G75*
G03*
X11537500Y-4045000I0J27500D01*
G01*
X11537500Y-4045000D02*
X11472500Y-4045000D01*
X11472500Y-4045000D02*
G75*
G03*
X11472500Y-4100000I0J-27500D01*
G01*
D14*
X11125000Y-3270000D02*
X11125000Y-3355000D01*
X11082500Y-3312500D02*
X11167500Y-3312500D01*
D11*
X11097500Y-3355000D02*
X11152500Y-3355000D01*
X11152500Y-3355000D02*
G75*
G03*
X11152500Y-3270000I0J42500D01*
G01*
X11152500Y-3270000D02*
X11097500Y-3270000D01*
X11097500Y-3270000D02*
G75*
G03*
X11097500Y-3355000I0J-42500D01*
G01*
D14*
X11125000Y-4015000D02*
X11125000Y-4100000D01*
X11082500Y-4057500D02*
X11167500Y-4057500D01*
D11*
X11097500Y-4100000D02*
X11152500Y-4100000D01*
X11152500Y-4100000D02*
G75*
G03*
X11152500Y-4015000I0J42500D01*
G01*
X11152500Y-4015000D02*
X11097500Y-4015000D01*
X11097500Y-4015000D02*
G75*
G03*
X11097500Y-4100000I0J-42500D01*
G01*
D10*
X8112556Y-3159556D02*
X8112556Y-3088844D01*
X8041844Y-3088844D01*
X8041844Y-3159556D01*
X8112556Y-3159556D01*
X8140356Y-2645356D02*
X8140356Y-2574644D01*
X8069644Y-2574644D01*
X8069644Y-2645356D01*
X8140356Y-2645356D01*
X8366556Y-3159556D02*
X8366556Y-3088844D01*
X8295844Y-3088844D01*
X8295844Y-3159556D01*
X8366556Y-3159556D01*
X8394356Y-2645356D02*
X8394356Y-2574644D01*
X8323644Y-2574644D01*
X8323644Y-2645356D01*
X8394356Y-2645356D01*
X8518956Y-5343956D02*
X8518956Y-5273244D01*
X8448244Y-5273244D01*
X8448244Y-5343956D01*
X8518956Y-5343956D01*
X8620556Y-3159556D02*
X8620556Y-3088844D01*
X8549844Y-3088844D01*
X8549844Y-3159556D01*
X8620556Y-3159556D01*
X8648356Y-2645356D02*
X8648356Y-2574644D01*
X8577644Y-2574644D01*
X8577644Y-2645356D01*
X8648356Y-2645356D01*
X8772956Y-5343956D02*
X8772956Y-5273244D01*
X8702244Y-5273244D01*
X8702244Y-5343956D01*
X8772956Y-5343956D01*
X8901356Y-4875356D02*
X8901356Y-4804644D01*
X8830644Y-4804644D01*
X8830644Y-4875356D01*
X8901356Y-4875356D01*
X8902356Y-2645356D02*
X8902356Y-2574644D01*
X8831644Y-2574644D01*
X8831644Y-2645356D01*
X8902356Y-2645356D01*
X9026956Y-5343956D02*
X9026956Y-5273244D01*
X8956244Y-5273244D01*
X8956244Y-5343956D01*
X9026956Y-5343956D01*
X9155356Y-4875356D02*
X9155356Y-4804644D01*
X9084644Y-4804644D01*
X9084644Y-4875356D01*
X9155356Y-4875356D01*
X9329556Y-2645356D02*
X9329556Y-2574644D01*
X9258844Y-2574644D01*
X9258844Y-2645356D01*
X9329556Y-2645356D01*
X9409356Y-4875356D02*
X9409356Y-4804644D01*
X9338644Y-4804644D01*
X9338644Y-4875356D01*
X9409356Y-4875356D01*
X9534956Y-5343956D02*
X9534956Y-5273244D01*
X9464244Y-5273244D01*
X9464244Y-5343956D01*
X9534956Y-5343956D01*
X9583556Y-2645356D02*
X9583556Y-2574644D01*
X9512844Y-2574644D01*
X9512844Y-2645356D01*
X9583556Y-2645356D01*
X9663356Y-4875356D02*
X9663356Y-4804644D01*
X9592644Y-4804644D01*
X9592644Y-4875356D01*
X9663356Y-4875356D01*
X9788956Y-5343956D02*
X9788956Y-5273244D01*
X9718244Y-5273244D01*
X9718244Y-5343956D01*
X9788956Y-5343956D01*
X9837556Y-2645356D02*
X9837556Y-2574644D01*
X9766844Y-2574644D01*
X9766844Y-2645356D01*
X9837556Y-2645356D01*
X9917356Y-4875356D02*
X9917356Y-4804644D01*
X9846644Y-4804644D01*
X9846644Y-4875356D01*
X9917356Y-4875356D01*
X10042956Y-5343956D02*
X10042956Y-5273244D01*
X9972244Y-5273244D01*
X9972244Y-5343956D01*
X10042956Y-5343956D01*
X10091556Y-2645356D02*
X10091556Y-2574644D01*
X10020844Y-2574644D01*
X10020844Y-2645356D01*
X10091556Y-2645356D01*
X10296956Y-5343956D02*
X10296956Y-5273244D01*
X10226244Y-5273244D01*
X10226244Y-5343956D01*
X10296956Y-5343956D01*
X10553356Y-2645356D02*
X10553356Y-2574644D01*
X10482644Y-2574644D01*
X10482644Y-2645356D01*
X10553356Y-2645356D01*
X10807356Y-2645356D02*
X10807356Y-2574644D01*
X10736644Y-2574644D01*
X10736644Y-2645356D01*
X10807356Y-2645356D01*
X11061356Y-2645356D02*
X11061356Y-2574644D01*
X10990644Y-2574644D01*
X10990644Y-2645356D01*
X11061356Y-2645356D01*
X11315356Y-2645356D02*
X11315356Y-2574644D01*
X11244644Y-2574644D01*
X11244644Y-2645356D01*
X11315356Y-2645356D01*
X11569356Y-2645356D02*
X11569356Y-2574644D01*
X11498644Y-2574644D01*
X11498644Y-2645356D01*
X11569356Y-2645356D01*
D11*
X8042619Y-5917524D02*
X8042619Y-5717524D01*
X8042619Y-5717524D02*
X8090238Y-5717524D01*
X8090238Y-5717524D02*
X8118809Y-5727048D01*
X8118809Y-5727048D02*
X8137857Y-5746095D01*
X8137857Y-5746095D02*
X8147381Y-5765143D01*
X8147381Y-5765143D02*
X8156905Y-5803238D01*
X8156905Y-5803238D02*
X8156905Y-5831809D01*
X8156905Y-5831809D02*
X8147381Y-5869905D01*
X8147381Y-5869905D02*
X8137857Y-5888952D01*
X8137857Y-5888952D02*
X8118809Y-5908000D01*
X8118809Y-5908000D02*
X8090238Y-5917524D01*
X8090238Y-5917524D02*
X8042619Y-5917524D01*
X8242619Y-5917524D02*
X8242619Y-5784190D01*
X8242619Y-5822286D02*
X8252143Y-5803238D01*
X8252143Y-5803238D02*
X8261667Y-5793714D01*
X8261667Y-5793714D02*
X8280714Y-5784190D01*
X8280714Y-5784190D02*
X8299762Y-5784190D01*
X8366428Y-5917524D02*
X8366428Y-5784190D01*
X8366428Y-5717524D02*
X8356905Y-5727048D01*
X8356905Y-5727048D02*
X8366428Y-5736571D01*
X8366428Y-5736571D02*
X8375952Y-5727048D01*
X8375952Y-5727048D02*
X8366428Y-5717524D01*
X8366428Y-5717524D02*
X8366428Y-5736571D01*
X8490238Y-5917524D02*
X8471190Y-5908000D01*
X8471190Y-5908000D02*
X8461667Y-5888952D01*
X8461667Y-5888952D02*
X8461667Y-5717524D01*
X8595000Y-5917524D02*
X8575952Y-5908000D01*
X8575952Y-5908000D02*
X8566429Y-5888952D01*
X8566429Y-5888952D02*
X8566429Y-5717524D01*
X8823571Y-5917524D02*
X8823571Y-5717524D01*
X8823571Y-5717524D02*
X8890238Y-5860381D01*
X8890238Y-5860381D02*
X8956905Y-5717524D01*
X8956905Y-5717524D02*
X8956905Y-5917524D01*
X9137857Y-5917524D02*
X9137857Y-5812762D01*
X9137857Y-5812762D02*
X9128333Y-5793714D01*
X9128333Y-5793714D02*
X9109286Y-5784190D01*
X9109286Y-5784190D02*
X9071190Y-5784190D01*
X9071190Y-5784190D02*
X9052143Y-5793714D01*
X9137857Y-5908000D02*
X9118810Y-5917524D01*
X9118810Y-5917524D02*
X9071190Y-5917524D01*
X9071190Y-5917524D02*
X9052143Y-5908000D01*
X9052143Y-5908000D02*
X9042619Y-5888952D01*
X9042619Y-5888952D02*
X9042619Y-5869905D01*
X9042619Y-5869905D02*
X9052143Y-5850857D01*
X9052143Y-5850857D02*
X9071190Y-5841333D01*
X9071190Y-5841333D02*
X9118810Y-5841333D01*
X9118810Y-5841333D02*
X9137857Y-5831809D01*
X9233095Y-5784190D02*
X9233095Y-5984190D01*
X9233095Y-5793714D02*
X9252143Y-5784190D01*
X9252143Y-5784190D02*
X9290238Y-5784190D01*
X9290238Y-5784190D02*
X9309286Y-5793714D01*
X9309286Y-5793714D02*
X9318810Y-5803238D01*
X9318810Y-5803238D02*
X9328333Y-5822286D01*
X9328333Y-5822286D02*
X9328333Y-5879428D01*
X9328333Y-5879428D02*
X9318810Y-5898476D01*
X9318810Y-5898476D02*
X9309286Y-5908000D01*
X9309286Y-5908000D02*
X9290238Y-5917524D01*
X9290238Y-5917524D02*
X9252143Y-5917524D01*
X9252143Y-5917524D02*
X9233095Y-5908000D01*
X9414048Y-5898476D02*
X9423571Y-5908000D01*
X9423571Y-5908000D02*
X9414048Y-5917524D01*
X9414048Y-5917524D02*
X9404524Y-5908000D01*
X9404524Y-5908000D02*
X9414048Y-5898476D01*
X9414048Y-5898476D02*
X9414048Y-5917524D01*
X9414048Y-5793714D02*
X9423571Y-5803238D01*
X9423571Y-5803238D02*
X9414048Y-5812762D01*
X9414048Y-5812762D02*
X9404524Y-5803238D01*
X9404524Y-5803238D02*
X9414048Y-5793714D01*
X9414048Y-5793714D02*
X9414048Y-5812762D01*
D12*
X7755000Y-6225000D02*
X7795000Y-6265000D01*
X7795000Y-6225000D02*
X7755000Y-6265000D01*
D11*
X8080714Y-6137524D02*
X8099762Y-6137524D01*
X8099762Y-6137524D02*
X8118809Y-6147048D01*
X8118809Y-6147048D02*
X8128333Y-6156571D01*
X8128333Y-6156571D02*
X8137857Y-6175619D01*
X8137857Y-6175619D02*
X8147381Y-6213714D01*
X8147381Y-6213714D02*
X8147381Y-6261333D01*
X8147381Y-6261333D02*
X8137857Y-6299428D01*
X8137857Y-6299428D02*
X8128333Y-6318476D01*
X8128333Y-6318476D02*
X8118809Y-6328000D01*
X8118809Y-6328000D02*
X8099762Y-6337524D01*
X8099762Y-6337524D02*
X8080714Y-6337524D01*
X8080714Y-6337524D02*
X8061667Y-6328000D01*
X8061667Y-6328000D02*
X8052143Y-6318476D01*
X8052143Y-6318476D02*
X8042619Y-6299428D01*
X8042619Y-6299428D02*
X8033095Y-6261333D01*
X8033095Y-6261333D02*
X8033095Y-6213714D01*
X8033095Y-6213714D02*
X8042619Y-6175619D01*
X8042619Y-6175619D02*
X8052143Y-6156571D01*
X8052143Y-6156571D02*
X8061667Y-6147048D01*
X8061667Y-6147048D02*
X8080714Y-6137524D01*
X8233095Y-6318476D02*
X8242619Y-6328000D01*
X8242619Y-6328000D02*
X8233095Y-6337524D01*
X8233095Y-6337524D02*
X8223571Y-6328000D01*
X8223571Y-6328000D02*
X8233095Y-6318476D01*
X8233095Y-6318476D02*
X8233095Y-6337524D01*
X8414048Y-6204190D02*
X8414048Y-6337524D01*
X8366428Y-6128000D02*
X8318809Y-6270857D01*
X8318809Y-6270857D02*
X8442619Y-6270857D01*
X8556905Y-6137524D02*
X8575952Y-6137524D01*
X8575952Y-6137524D02*
X8595000Y-6147048D01*
X8595000Y-6147048D02*
X8604524Y-6156571D01*
X8604524Y-6156571D02*
X8614048Y-6175619D01*
X8614048Y-6175619D02*
X8623571Y-6213714D01*
X8623571Y-6213714D02*
X8623571Y-6261333D01*
X8623571Y-6261333D02*
X8614048Y-6299428D01*
X8614048Y-6299428D02*
X8604524Y-6318476D01*
X8604524Y-6318476D02*
X8595000Y-6328000D01*
X8595000Y-6328000D02*
X8575952Y-6337524D01*
X8575952Y-6337524D02*
X8556905Y-6337524D01*
X8556905Y-6337524D02*
X8537857Y-6328000D01*
X8537857Y-6328000D02*
X8528333Y-6318476D01*
X8528333Y-6318476D02*
X8518810Y-6299428D01*
X8518810Y-6299428D02*
X8509286Y-6261333D01*
X8509286Y-6261333D02*
X8509286Y-6213714D01*
X8509286Y-6213714D02*
X8518810Y-6175619D01*
X8518810Y-6175619D02*
X8528333Y-6156571D01*
X8528333Y-6156571D02*
X8537857Y-6147048D01*
X8537857Y-6147048D02*
X8556905Y-6137524D01*
X8747381Y-6137524D02*
X8766429Y-6137524D01*
X8766429Y-6137524D02*
X8785476Y-6147048D01*
X8785476Y-6147048D02*
X8795000Y-6156571D01*
X8795000Y-6156571D02*
X8804524Y-6175619D01*
X8804524Y-6175619D02*
X8814048Y-6213714D01*
X8814048Y-6213714D02*
X8814048Y-6261333D01*
X8814048Y-6261333D02*
X8804524Y-6299428D01*
X8804524Y-6299428D02*
X8795000Y-6318476D01*
X8795000Y-6318476D02*
X8785476Y-6328000D01*
X8785476Y-6328000D02*
X8766429Y-6337524D01*
X8766429Y-6337524D02*
X8747381Y-6337524D01*
X8747381Y-6337524D02*
X8728333Y-6328000D01*
X8728333Y-6328000D02*
X8718810Y-6318476D01*
X8718810Y-6318476D02*
X8709286Y-6299428D01*
X8709286Y-6299428D02*
X8699762Y-6261333D01*
X8699762Y-6261333D02*
X8699762Y-6213714D01*
X8699762Y-6213714D02*
X8709286Y-6175619D01*
X8709286Y-6175619D02*
X8718810Y-6156571D01*
X8718810Y-6156571D02*
X8728333Y-6147048D01*
X8728333Y-6147048D02*
X8747381Y-6137524D01*
X8899762Y-6337524D02*
X8899762Y-6204190D01*
X8899762Y-6223238D02*
X8909286Y-6213714D01*
X8909286Y-6213714D02*
X8928333Y-6204190D01*
X8928333Y-6204190D02*
X8956905Y-6204190D01*
X8956905Y-6204190D02*
X8975952Y-6213714D01*
X8975952Y-6213714D02*
X8985476Y-6232762D01*
X8985476Y-6232762D02*
X8985476Y-6337524D01*
X8985476Y-6232762D02*
X8995000Y-6213714D01*
X8995000Y-6213714D02*
X9014048Y-6204190D01*
X9014048Y-6204190D02*
X9042619Y-6204190D01*
X9042619Y-6204190D02*
X9061667Y-6213714D01*
X9061667Y-6213714D02*
X9071191Y-6232762D01*
X9071191Y-6232762D02*
X9071191Y-6337524D01*
X9166429Y-6337524D02*
X9166429Y-6204190D01*
X9166429Y-6223238D02*
X9175952Y-6213714D01*
X9175952Y-6213714D02*
X9195000Y-6204190D01*
X9195000Y-6204190D02*
X9223572Y-6204190D01*
X9223572Y-6204190D02*
X9242619Y-6213714D01*
X9242619Y-6213714D02*
X9252143Y-6232762D01*
X9252143Y-6232762D02*
X9252143Y-6337524D01*
X9252143Y-6232762D02*
X9261667Y-6213714D01*
X9261667Y-6213714D02*
X9280714Y-6204190D01*
X9280714Y-6204190D02*
X9309286Y-6204190D01*
X9309286Y-6204190D02*
X9328333Y-6213714D01*
X9328333Y-6213714D02*
X9337857Y-6232762D01*
X9337857Y-6232762D02*
X9337857Y-6337524D01*
X9728333Y-6128000D02*
X9556905Y-6385143D01*
X9985476Y-6137524D02*
X10004524Y-6137524D01*
X10004524Y-6137524D02*
X10023572Y-6147048D01*
X10023572Y-6147048D02*
X10033095Y-6156571D01*
X10033095Y-6156571D02*
X10042619Y-6175619D01*
X10042619Y-6175619D02*
X10052143Y-6213714D01*
X10052143Y-6213714D02*
X10052143Y-6261333D01*
X10052143Y-6261333D02*
X10042619Y-6299428D01*
X10042619Y-6299428D02*
X10033095Y-6318476D01*
X10033095Y-6318476D02*
X10023572Y-6328000D01*
X10023572Y-6328000D02*
X10004524Y-6337524D01*
X10004524Y-6337524D02*
X9985476Y-6337524D01*
X9985476Y-6337524D02*
X9966429Y-6328000D01*
X9966429Y-6328000D02*
X9956905Y-6318476D01*
X9956905Y-6318476D02*
X9947381Y-6299428D01*
X9947381Y-6299428D02*
X9937857Y-6261333D01*
X9937857Y-6261333D02*
X9937857Y-6213714D01*
X9937857Y-6213714D02*
X9947381Y-6175619D01*
X9947381Y-6175619D02*
X9956905Y-6156571D01*
X9956905Y-6156571D02*
X9966429Y-6147048D01*
X9966429Y-6147048D02*
X9985476Y-6137524D01*
X10137857Y-6318476D02*
X10147381Y-6328000D01*
X10147381Y-6328000D02*
X10137857Y-6337524D01*
X10137857Y-6337524D02*
X10128334Y-6328000D01*
X10128334Y-6328000D02*
X10137857Y-6318476D01*
X10137857Y-6318476D02*
X10137857Y-6337524D01*
X10271191Y-6137524D02*
X10290238Y-6137524D01*
X10290238Y-6137524D02*
X10309286Y-6147048D01*
X10309286Y-6147048D02*
X10318810Y-6156571D01*
X10318810Y-6156571D02*
X10328334Y-6175619D01*
X10328334Y-6175619D02*
X10337857Y-6213714D01*
X10337857Y-6213714D02*
X10337857Y-6261333D01*
X10337857Y-6261333D02*
X10328334Y-6299428D01*
X10328334Y-6299428D02*
X10318810Y-6318476D01*
X10318810Y-6318476D02*
X10309286Y-6328000D01*
X10309286Y-6328000D02*
X10290238Y-6337524D01*
X10290238Y-6337524D02*
X10271191Y-6337524D01*
X10271191Y-6337524D02*
X10252143Y-6328000D01*
X10252143Y-6328000D02*
X10242619Y-6318476D01*
X10242619Y-6318476D02*
X10233095Y-6299428D01*
X10233095Y-6299428D02*
X10223572Y-6261333D01*
X10223572Y-6261333D02*
X10223572Y-6213714D01*
X10223572Y-6213714D02*
X10233095Y-6175619D01*
X10233095Y-6175619D02*
X10242619Y-6156571D01*
X10242619Y-6156571D02*
X10252143Y-6147048D01*
X10252143Y-6147048D02*
X10271191Y-6137524D01*
X10528334Y-6337524D02*
X10414048Y-6337524D01*
X10471191Y-6337524D02*
X10471191Y-6137524D01*
X10471191Y-6137524D02*
X10452143Y-6166095D01*
X10452143Y-6166095D02*
X10433095Y-6185143D01*
X10433095Y-6185143D02*
X10414048Y-6194667D01*
X10709286Y-6137524D02*
X10614048Y-6137524D01*
X10614048Y-6137524D02*
X10604524Y-6232762D01*
X10604524Y-6232762D02*
X10614048Y-6223238D01*
X10614048Y-6223238D02*
X10633095Y-6213714D01*
X10633095Y-6213714D02*
X10680715Y-6213714D01*
X10680715Y-6213714D02*
X10699762Y-6223238D01*
X10699762Y-6223238D02*
X10709286Y-6232762D01*
X10709286Y-6232762D02*
X10718810Y-6251809D01*
X10718810Y-6251809D02*
X10718810Y-6299428D01*
X10718810Y-6299428D02*
X10709286Y-6318476D01*
X10709286Y-6318476D02*
X10699762Y-6328000D01*
X10699762Y-6328000D02*
X10680715Y-6337524D01*
X10680715Y-6337524D02*
X10633095Y-6337524D01*
X10633095Y-6337524D02*
X10614048Y-6328000D01*
X10614048Y-6328000D02*
X10604524Y-6318476D01*
X10785476Y-6137524D02*
X10918810Y-6137524D01*
X10918810Y-6137524D02*
X10833095Y-6337524D01*
X10985476Y-6137524D02*
X10985476Y-6175619D01*
X11061667Y-6137524D02*
X11061667Y-6175619D01*
X11356905Y-6413714D02*
X11347381Y-6404190D01*
X11347381Y-6404190D02*
X11328334Y-6375619D01*
X11328334Y-6375619D02*
X11318810Y-6356571D01*
X11318810Y-6356571D02*
X11309286Y-6328000D01*
X11309286Y-6328000D02*
X11299762Y-6280381D01*
X11299762Y-6280381D02*
X11299762Y-6242286D01*
X11299762Y-6242286D02*
X11309286Y-6194667D01*
X11309286Y-6194667D02*
X11318810Y-6166095D01*
X11318810Y-6166095D02*
X11328334Y-6147048D01*
X11328334Y-6147048D02*
X11347381Y-6118476D01*
X11347381Y-6118476D02*
X11356905Y-6108952D01*
X11518810Y-6137524D02*
X11480714Y-6137524D01*
X11480714Y-6137524D02*
X11461667Y-6147048D01*
X11461667Y-6147048D02*
X11452143Y-6156571D01*
X11452143Y-6156571D02*
X11433095Y-6185143D01*
X11433095Y-6185143D02*
X11423572Y-6223238D01*
X11423572Y-6223238D02*
X11423572Y-6299428D01*
X11423572Y-6299428D02*
X11433095Y-6318476D01*
X11433095Y-6318476D02*
X11442619Y-6328000D01*
X11442619Y-6328000D02*
X11461667Y-6337524D01*
X11461667Y-6337524D02*
X11499762Y-6337524D01*
X11499762Y-6337524D02*
X11518810Y-6328000D01*
X11518810Y-6328000D02*
X11528334Y-6318476D01*
X11528334Y-6318476D02*
X11537857Y-6299428D01*
X11537857Y-6299428D02*
X11537857Y-6251809D01*
X11537857Y-6251809D02*
X11528334Y-6232762D01*
X11528334Y-6232762D02*
X11518810Y-6223238D01*
X11518810Y-6223238D02*
X11499762Y-6213714D01*
X11499762Y-6213714D02*
X11461667Y-6213714D01*
X11461667Y-6213714D02*
X11442619Y-6223238D01*
X11442619Y-6223238D02*
X11433095Y-6232762D01*
X11433095Y-6232762D02*
X11423572Y-6251809D01*
X11661667Y-6137524D02*
X11680715Y-6137524D01*
X11680715Y-6137524D02*
X11699762Y-6147048D01*
X11699762Y-6147048D02*
X11709286Y-6156571D01*
X11709286Y-6156571D02*
X11718810Y-6175619D01*
X11718810Y-6175619D02*
X11728334Y-6213714D01*
X11728334Y-6213714D02*
X11728334Y-6261333D01*
X11728334Y-6261333D02*
X11718810Y-6299428D01*
X11718810Y-6299428D02*
X11709286Y-6318476D01*
X11709286Y-6318476D02*
X11699762Y-6328000D01*
X11699762Y-6328000D02*
X11680715Y-6337524D01*
X11680715Y-6337524D02*
X11661667Y-6337524D01*
X11661667Y-6337524D02*
X11642619Y-6328000D01*
X11642619Y-6328000D02*
X11633095Y-6318476D01*
X11633095Y-6318476D02*
X11623572Y-6299428D01*
X11623572Y-6299428D02*
X11614048Y-6261333D01*
X11614048Y-6261333D02*
X11614048Y-6213714D01*
X11614048Y-6213714D02*
X11623572Y-6175619D01*
X11623572Y-6175619D02*
X11633095Y-6156571D01*
X11633095Y-6156571D02*
X11642619Y-6147048D01*
X11642619Y-6147048D02*
X11661667Y-6137524D01*
X11966429Y-6337524D02*
X11966429Y-6137524D01*
X12052143Y-6337524D02*
X12052143Y-6232762D01*
X12052143Y-6232762D02*
X12042619Y-6213714D01*
X12042619Y-6213714D02*
X12023572Y-6204190D01*
X12023572Y-6204190D02*
X11995000Y-6204190D01*
X11995000Y-6204190D02*
X11975953Y-6213714D01*
X11975953Y-6213714D02*
X11966429Y-6223238D01*
X12175953Y-6337524D02*
X12156905Y-6328000D01*
X12156905Y-6328000D02*
X12147381Y-6318476D01*
X12147381Y-6318476D02*
X12137857Y-6299428D01*
X12137857Y-6299428D02*
X12137857Y-6242286D01*
X12137857Y-6242286D02*
X12147381Y-6223238D01*
X12147381Y-6223238D02*
X12156905Y-6213714D01*
X12156905Y-6213714D02*
X12175953Y-6204190D01*
X12175953Y-6204190D02*
X12204524Y-6204190D01*
X12204524Y-6204190D02*
X12223572Y-6213714D01*
X12223572Y-6213714D02*
X12233096Y-6223238D01*
X12233096Y-6223238D02*
X12242619Y-6242286D01*
X12242619Y-6242286D02*
X12242619Y-6299428D01*
X12242619Y-6299428D02*
X12233096Y-6318476D01*
X12233096Y-6318476D02*
X12223572Y-6328000D01*
X12223572Y-6328000D02*
X12204524Y-6337524D01*
X12204524Y-6337524D02*
X12175953Y-6337524D01*
X12356905Y-6337524D02*
X12337857Y-6328000D01*
X12337857Y-6328000D02*
X12328334Y-6308952D01*
X12328334Y-6308952D02*
X12328334Y-6137524D01*
X12509286Y-6328000D02*
X12490238Y-6337524D01*
X12490238Y-6337524D02*
X12452143Y-6337524D01*
X12452143Y-6337524D02*
X12433096Y-6328000D01*
X12433096Y-6328000D02*
X12423572Y-6308952D01*
X12423572Y-6308952D02*
X12423572Y-6232762D01*
X12423572Y-6232762D02*
X12433096Y-6213714D01*
X12433096Y-6213714D02*
X12452143Y-6204190D01*
X12452143Y-6204190D02*
X12490238Y-6204190D01*
X12490238Y-6204190D02*
X12509286Y-6213714D01*
X12509286Y-6213714D02*
X12518810Y-6232762D01*
X12518810Y-6232762D02*
X12518810Y-6251809D01*
X12518810Y-6251809D02*
X12423572Y-6270857D01*
X12595000Y-6328000D02*
X12614048Y-6337524D01*
X12614048Y-6337524D02*
X12652143Y-6337524D01*
X12652143Y-6337524D02*
X12671191Y-6328000D01*
X12671191Y-6328000D02*
X12680715Y-6308952D01*
X12680715Y-6308952D02*
X12680715Y-6299428D01*
X12680715Y-6299428D02*
X12671191Y-6280381D01*
X12671191Y-6280381D02*
X12652143Y-6270857D01*
X12652143Y-6270857D02*
X12623572Y-6270857D01*
X12623572Y-6270857D02*
X12604524Y-6261333D01*
X12604524Y-6261333D02*
X12595000Y-6242286D01*
X12595000Y-6242286D02*
X12595000Y-6232762D01*
X12595000Y-6232762D02*
X12604524Y-6213714D01*
X12604524Y-6213714D02*
X12623572Y-6204190D01*
X12623572Y-6204190D02*
X12652143Y-6204190D01*
X12652143Y-6204190D02*
X12671191Y-6213714D01*
X12747381Y-6413714D02*
X12756905Y-6404190D01*
X12756905Y-6404190D02*
X12775953Y-6375619D01*
X12775953Y-6375619D02*
X12785477Y-6356571D01*
X12785477Y-6356571D02*
X12795000Y-6328000D01*
X12795000Y-6328000D02*
X12804524Y-6280381D01*
X12804524Y-6280381D02*
X12804524Y-6242286D01*
X12804524Y-6242286D02*
X12795000Y-6194667D01*
X12795000Y-6194667D02*
X12785477Y-6166095D01*
X12785477Y-6166095D02*
X12775953Y-6147048D01*
X12775953Y-6147048D02*
X12756905Y-6118476D01*
X12756905Y-6118476D02*
X12747381Y-6108952D01*
D13*
X7795000Y-6509000D02*
G75*
G03*
X7795000Y-6509000I-27500J0D01*
G01*
D11*
X8080714Y-6401524D02*
X8099762Y-6401524D01*
X8099762Y-6401524D02*
X8118809Y-6411048D01*
X8118809Y-6411048D02*
X8128333Y-6420571D01*
X8128333Y-6420571D02*
X8137857Y-6439619D01*
X8137857Y-6439619D02*
X8147381Y-6477714D01*
X8147381Y-6477714D02*
X8147381Y-6525333D01*
X8147381Y-6525333D02*
X8137857Y-6563428D01*
X8137857Y-6563428D02*
X8128333Y-6582476D01*
X8128333Y-6582476D02*
X8118809Y-6592000D01*
X8118809Y-6592000D02*
X8099762Y-6601524D01*
X8099762Y-6601524D02*
X8080714Y-6601524D01*
X8080714Y-6601524D02*
X8061667Y-6592000D01*
X8061667Y-6592000D02*
X8052143Y-6582476D01*
X8052143Y-6582476D02*
X8042619Y-6563428D01*
X8042619Y-6563428D02*
X8033095Y-6525333D01*
X8033095Y-6525333D02*
X8033095Y-6477714D01*
X8033095Y-6477714D02*
X8042619Y-6439619D01*
X8042619Y-6439619D02*
X8052143Y-6420571D01*
X8052143Y-6420571D02*
X8061667Y-6411048D01*
X8061667Y-6411048D02*
X8080714Y-6401524D01*
X8233095Y-6582476D02*
X8242619Y-6592000D01*
X8242619Y-6592000D02*
X8233095Y-6601524D01*
X8233095Y-6601524D02*
X8223571Y-6592000D01*
X8223571Y-6592000D02*
X8233095Y-6582476D01*
X8233095Y-6582476D02*
X8233095Y-6601524D01*
X8423571Y-6401524D02*
X8328333Y-6401524D01*
X8328333Y-6401524D02*
X8318809Y-6496762D01*
X8318809Y-6496762D02*
X8328333Y-6487238D01*
X8328333Y-6487238D02*
X8347381Y-6477714D01*
X8347381Y-6477714D02*
X8395000Y-6477714D01*
X8395000Y-6477714D02*
X8414048Y-6487238D01*
X8414048Y-6487238D02*
X8423571Y-6496762D01*
X8423571Y-6496762D02*
X8433095Y-6515809D01*
X8433095Y-6515809D02*
X8433095Y-6563428D01*
X8433095Y-6563428D02*
X8423571Y-6582476D01*
X8423571Y-6582476D02*
X8414048Y-6592000D01*
X8414048Y-6592000D02*
X8395000Y-6601524D01*
X8395000Y-6601524D02*
X8347381Y-6601524D01*
X8347381Y-6601524D02*
X8328333Y-6592000D01*
X8328333Y-6592000D02*
X8318809Y-6582476D01*
X8614048Y-6401524D02*
X8518810Y-6401524D01*
X8518810Y-6401524D02*
X8509286Y-6496762D01*
X8509286Y-6496762D02*
X8518810Y-6487238D01*
X8518810Y-6487238D02*
X8537857Y-6477714D01*
X8537857Y-6477714D02*
X8585476Y-6477714D01*
X8585476Y-6477714D02*
X8604524Y-6487238D01*
X8604524Y-6487238D02*
X8614048Y-6496762D01*
X8614048Y-6496762D02*
X8623571Y-6515809D01*
X8623571Y-6515809D02*
X8623571Y-6563428D01*
X8623571Y-6563428D02*
X8614048Y-6582476D01*
X8614048Y-6582476D02*
X8604524Y-6592000D01*
X8604524Y-6592000D02*
X8585476Y-6601524D01*
X8585476Y-6601524D02*
X8537857Y-6601524D01*
X8537857Y-6601524D02*
X8518810Y-6592000D01*
X8518810Y-6592000D02*
X8509286Y-6582476D01*
X8747381Y-6401524D02*
X8766429Y-6401524D01*
X8766429Y-6401524D02*
X8785476Y-6411048D01*
X8785476Y-6411048D02*
X8795000Y-6420571D01*
X8795000Y-6420571D02*
X8804524Y-6439619D01*
X8804524Y-6439619D02*
X8814048Y-6477714D01*
X8814048Y-6477714D02*
X8814048Y-6525333D01*
X8814048Y-6525333D02*
X8804524Y-6563428D01*
X8804524Y-6563428D02*
X8795000Y-6582476D01*
X8795000Y-6582476D02*
X8785476Y-6592000D01*
X8785476Y-6592000D02*
X8766429Y-6601524D01*
X8766429Y-6601524D02*
X8747381Y-6601524D01*
X8747381Y-6601524D02*
X8728333Y-6592000D01*
X8728333Y-6592000D02*
X8718810Y-6582476D01*
X8718810Y-6582476D02*
X8709286Y-6563428D01*
X8709286Y-6563428D02*
X8699762Y-6525333D01*
X8699762Y-6525333D02*
X8699762Y-6477714D01*
X8699762Y-6477714D02*
X8709286Y-6439619D01*
X8709286Y-6439619D02*
X8718810Y-6420571D01*
X8718810Y-6420571D02*
X8728333Y-6411048D01*
X8728333Y-6411048D02*
X8747381Y-6401524D01*
X8899762Y-6601524D02*
X8899762Y-6468190D01*
X8899762Y-6487238D02*
X8909286Y-6477714D01*
X8909286Y-6477714D02*
X8928333Y-6468190D01*
X8928333Y-6468190D02*
X8956905Y-6468190D01*
X8956905Y-6468190D02*
X8975952Y-6477714D01*
X8975952Y-6477714D02*
X8985476Y-6496762D01*
X8985476Y-6496762D02*
X8985476Y-6601524D01*
X8985476Y-6496762D02*
X8995000Y-6477714D01*
X8995000Y-6477714D02*
X9014048Y-6468190D01*
X9014048Y-6468190D02*
X9042619Y-6468190D01*
X9042619Y-6468190D02*
X9061667Y-6477714D01*
X9061667Y-6477714D02*
X9071191Y-6496762D01*
X9071191Y-6496762D02*
X9071191Y-6601524D01*
X9166429Y-6601524D02*
X9166429Y-6468190D01*
X9166429Y-6487238D02*
X9175952Y-6477714D01*
X9175952Y-6477714D02*
X9195000Y-6468190D01*
X9195000Y-6468190D02*
X9223572Y-6468190D01*
X9223572Y-6468190D02*
X9242619Y-6477714D01*
X9242619Y-6477714D02*
X9252143Y-6496762D01*
X9252143Y-6496762D02*
X9252143Y-6601524D01*
X9252143Y-6496762D02*
X9261667Y-6477714D01*
X9261667Y-6477714D02*
X9280714Y-6468190D01*
X9280714Y-6468190D02*
X9309286Y-6468190D01*
X9309286Y-6468190D02*
X9328333Y-6477714D01*
X9328333Y-6477714D02*
X9337857Y-6496762D01*
X9337857Y-6496762D02*
X9337857Y-6601524D01*
X9728333Y-6392000D02*
X9556905Y-6649143D01*
X9985476Y-6401524D02*
X10004524Y-6401524D01*
X10004524Y-6401524D02*
X10023572Y-6411048D01*
X10023572Y-6411048D02*
X10033095Y-6420571D01*
X10033095Y-6420571D02*
X10042619Y-6439619D01*
X10042619Y-6439619D02*
X10052143Y-6477714D01*
X10052143Y-6477714D02*
X10052143Y-6525333D01*
X10052143Y-6525333D02*
X10042619Y-6563428D01*
X10042619Y-6563428D02*
X10033095Y-6582476D01*
X10033095Y-6582476D02*
X10023572Y-6592000D01*
X10023572Y-6592000D02*
X10004524Y-6601524D01*
X10004524Y-6601524D02*
X9985476Y-6601524D01*
X9985476Y-6601524D02*
X9966429Y-6592000D01*
X9966429Y-6592000D02*
X9956905Y-6582476D01*
X9956905Y-6582476D02*
X9947381Y-6563428D01*
X9947381Y-6563428D02*
X9937857Y-6525333D01*
X9937857Y-6525333D02*
X9937857Y-6477714D01*
X9937857Y-6477714D02*
X9947381Y-6439619D01*
X9947381Y-6439619D02*
X9956905Y-6420571D01*
X9956905Y-6420571D02*
X9966429Y-6411048D01*
X9966429Y-6411048D02*
X9985476Y-6401524D01*
X10137857Y-6582476D02*
X10147381Y-6592000D01*
X10147381Y-6592000D02*
X10137857Y-6601524D01*
X10137857Y-6601524D02*
X10128334Y-6592000D01*
X10128334Y-6592000D02*
X10137857Y-6582476D01*
X10137857Y-6582476D02*
X10137857Y-6601524D01*
X10271191Y-6401524D02*
X10290238Y-6401524D01*
X10290238Y-6401524D02*
X10309286Y-6411048D01*
X10309286Y-6411048D02*
X10318810Y-6420571D01*
X10318810Y-6420571D02*
X10328334Y-6439619D01*
X10328334Y-6439619D02*
X10337857Y-6477714D01*
X10337857Y-6477714D02*
X10337857Y-6525333D01*
X10337857Y-6525333D02*
X10328334Y-6563428D01*
X10328334Y-6563428D02*
X10318810Y-6582476D01*
X10318810Y-6582476D02*
X10309286Y-6592000D01*
X10309286Y-6592000D02*
X10290238Y-6601524D01*
X10290238Y-6601524D02*
X10271191Y-6601524D01*
X10271191Y-6601524D02*
X10252143Y-6592000D01*
X10252143Y-6592000D02*
X10242619Y-6582476D01*
X10242619Y-6582476D02*
X10233095Y-6563428D01*
X10233095Y-6563428D02*
X10223572Y-6525333D01*
X10223572Y-6525333D02*
X10223572Y-6477714D01*
X10223572Y-6477714D02*
X10233095Y-6439619D01*
X10233095Y-6439619D02*
X10242619Y-6420571D01*
X10242619Y-6420571D02*
X10252143Y-6411048D01*
X10252143Y-6411048D02*
X10271191Y-6401524D01*
X10414048Y-6420571D02*
X10423572Y-6411048D01*
X10423572Y-6411048D02*
X10442619Y-6401524D01*
X10442619Y-6401524D02*
X10490238Y-6401524D01*
X10490238Y-6401524D02*
X10509286Y-6411048D01*
X10509286Y-6411048D02*
X10518810Y-6420571D01*
X10518810Y-6420571D02*
X10528334Y-6439619D01*
X10528334Y-6439619D02*
X10528334Y-6458667D01*
X10528334Y-6458667D02*
X10518810Y-6487238D01*
X10518810Y-6487238D02*
X10404524Y-6601524D01*
X10404524Y-6601524D02*
X10528334Y-6601524D01*
X10718810Y-6601524D02*
X10604524Y-6601524D01*
X10661667Y-6601524D02*
X10661667Y-6401524D01*
X10661667Y-6401524D02*
X10642619Y-6430095D01*
X10642619Y-6430095D02*
X10623572Y-6449143D01*
X10623572Y-6449143D02*
X10604524Y-6458667D01*
X10785476Y-6401524D02*
X10918810Y-6401524D01*
X10918810Y-6401524D02*
X10833095Y-6601524D01*
X10985476Y-6401524D02*
X10985476Y-6439619D01*
X11061667Y-6401524D02*
X11061667Y-6439619D01*
X11356905Y-6677714D02*
X11347381Y-6668190D01*
X11347381Y-6668190D02*
X11328334Y-6639619D01*
X11328334Y-6639619D02*
X11318810Y-6620571D01*
X11318810Y-6620571D02*
X11309286Y-6592000D01*
X11309286Y-6592000D02*
X11299762Y-6544381D01*
X11299762Y-6544381D02*
X11299762Y-6506286D01*
X11299762Y-6506286D02*
X11309286Y-6458667D01*
X11309286Y-6458667D02*
X11318810Y-6430095D01*
X11318810Y-6430095D02*
X11328334Y-6411048D01*
X11328334Y-6411048D02*
X11347381Y-6382476D01*
X11347381Y-6382476D02*
X11356905Y-6372952D01*
X11471191Y-6401524D02*
X11490238Y-6401524D01*
X11490238Y-6401524D02*
X11509286Y-6411048D01*
X11509286Y-6411048D02*
X11518810Y-6420571D01*
X11518810Y-6420571D02*
X11528334Y-6439619D01*
X11528334Y-6439619D02*
X11537857Y-6477714D01*
X11537857Y-6477714D02*
X11537857Y-6525333D01*
X11537857Y-6525333D02*
X11528334Y-6563428D01*
X11528334Y-6563428D02*
X11518810Y-6582476D01*
X11518810Y-6582476D02*
X11509286Y-6592000D01*
X11509286Y-6592000D02*
X11490238Y-6601524D01*
X11490238Y-6601524D02*
X11471191Y-6601524D01*
X11471191Y-6601524D02*
X11452143Y-6592000D01*
X11452143Y-6592000D02*
X11442619Y-6582476D01*
X11442619Y-6582476D02*
X11433095Y-6563428D01*
X11433095Y-6563428D02*
X11423572Y-6525333D01*
X11423572Y-6525333D02*
X11423572Y-6477714D01*
X11423572Y-6477714D02*
X11433095Y-6439619D01*
X11433095Y-6439619D02*
X11442619Y-6420571D01*
X11442619Y-6420571D02*
X11452143Y-6411048D01*
X11452143Y-6411048D02*
X11471191Y-6401524D01*
X11775953Y-6601524D02*
X11775953Y-6401524D01*
X11861667Y-6601524D02*
X11861667Y-6496762D01*
X11861667Y-6496762D02*
X11852143Y-6477714D01*
X11852143Y-6477714D02*
X11833096Y-6468190D01*
X11833096Y-6468190D02*
X11804524Y-6468190D01*
X11804524Y-6468190D02*
X11785476Y-6477714D01*
X11785476Y-6477714D02*
X11775953Y-6487238D01*
X11985476Y-6601524D02*
X11966429Y-6592000D01*
X11966429Y-6592000D02*
X11956905Y-6582476D01*
X11956905Y-6582476D02*
X11947381Y-6563428D01*
X11947381Y-6563428D02*
X11947381Y-6506286D01*
X11947381Y-6506286D02*
X11956905Y-6487238D01*
X11956905Y-6487238D02*
X11966429Y-6477714D01*
X11966429Y-6477714D02*
X11985476Y-6468190D01*
X11985476Y-6468190D02*
X12014048Y-6468190D01*
X12014048Y-6468190D02*
X12033096Y-6477714D01*
X12033096Y-6477714D02*
X12042619Y-6487238D01*
X12042619Y-6487238D02*
X12052143Y-6506286D01*
X12052143Y-6506286D02*
X12052143Y-6563428D01*
X12052143Y-6563428D02*
X12042619Y-6582476D01*
X12042619Y-6582476D02*
X12033096Y-6592000D01*
X12033096Y-6592000D02*
X12014048Y-6601524D01*
X12014048Y-6601524D02*
X11985476Y-6601524D01*
X12166429Y-6601524D02*
X12147381Y-6592000D01*
X12147381Y-6592000D02*
X12137857Y-6572952D01*
X12137857Y-6572952D02*
X12137857Y-6401524D01*
X12318810Y-6592000D02*
X12299762Y-6601524D01*
X12299762Y-6601524D02*
X12261667Y-6601524D01*
X12261667Y-6601524D02*
X12242619Y-6592000D01*
X12242619Y-6592000D02*
X12233096Y-6572952D01*
X12233096Y-6572952D02*
X12233096Y-6496762D01*
X12233096Y-6496762D02*
X12242619Y-6477714D01*
X12242619Y-6477714D02*
X12261667Y-6468190D01*
X12261667Y-6468190D02*
X12299762Y-6468190D01*
X12299762Y-6468190D02*
X12318810Y-6477714D01*
X12318810Y-6477714D02*
X12328334Y-6496762D01*
X12328334Y-6496762D02*
X12328334Y-6515809D01*
X12328334Y-6515809D02*
X12233096Y-6534857D01*
X12404524Y-6592000D02*
X12423572Y-6601524D01*
X12423572Y-6601524D02*
X12461667Y-6601524D01*
X12461667Y-6601524D02*
X12480715Y-6592000D01*
X12480715Y-6592000D02*
X12490238Y-6572952D01*
X12490238Y-6572952D02*
X12490238Y-6563428D01*
X12490238Y-6563428D02*
X12480715Y-6544381D01*
X12480715Y-6544381D02*
X12461667Y-6534857D01*
X12461667Y-6534857D02*
X12433096Y-6534857D01*
X12433096Y-6534857D02*
X12414048Y-6525333D01*
X12414048Y-6525333D02*
X12404524Y-6506286D01*
X12404524Y-6506286D02*
X12404524Y-6496762D01*
X12404524Y-6496762D02*
X12414048Y-6477714D01*
X12414048Y-6477714D02*
X12433096Y-6468190D01*
X12433096Y-6468190D02*
X12461667Y-6468190D01*
X12461667Y-6468190D02*
X12480715Y-6477714D01*
X12728334Y-6525333D02*
X12880715Y-6525333D01*
X12804524Y-6601524D02*
X12804524Y-6449143D01*
X13118810Y-6420571D02*
X13128334Y-6411048D01*
X13128334Y-6411048D02*
X13147381Y-6401524D01*
X13147381Y-6401524D02*
X13195000Y-6401524D01*
X13195000Y-6401524D02*
X13214048Y-6411048D01*
X13214048Y-6411048D02*
X13223572Y-6420571D01*
X13223572Y-6420571D02*
X13233096Y-6439619D01*
X13233096Y-6439619D02*
X13233096Y-6458667D01*
X13233096Y-6458667D02*
X13223572Y-6487238D01*
X13223572Y-6487238D02*
X13109286Y-6601524D01*
X13109286Y-6601524D02*
X13233096Y-6601524D01*
X13461667Y-6592000D02*
X13480715Y-6601524D01*
X13480715Y-6601524D02*
X13518810Y-6601524D01*
X13518810Y-6601524D02*
X13537858Y-6592000D01*
X13537858Y-6592000D02*
X13547381Y-6572952D01*
X13547381Y-6572952D02*
X13547381Y-6563428D01*
X13547381Y-6563428D02*
X13537858Y-6544381D01*
X13537858Y-6544381D02*
X13518810Y-6534857D01*
X13518810Y-6534857D02*
X13490239Y-6534857D01*
X13490239Y-6534857D02*
X13471191Y-6525333D01*
X13471191Y-6525333D02*
X13461667Y-6506286D01*
X13461667Y-6506286D02*
X13461667Y-6496762D01*
X13461667Y-6496762D02*
X13471191Y-6477714D01*
X13471191Y-6477714D02*
X13490239Y-6468190D01*
X13490239Y-6468190D02*
X13518810Y-6468190D01*
X13518810Y-6468190D02*
X13537858Y-6477714D01*
X13661667Y-6601524D02*
X13642620Y-6592000D01*
X13642620Y-6592000D02*
X13633096Y-6572952D01*
X13633096Y-6572952D02*
X13633096Y-6401524D01*
X13766429Y-6601524D02*
X13747381Y-6592000D01*
X13747381Y-6592000D02*
X13737858Y-6582476D01*
X13737858Y-6582476D02*
X13728334Y-6563428D01*
X13728334Y-6563428D02*
X13728334Y-6506286D01*
X13728334Y-6506286D02*
X13737858Y-6487238D01*
X13737858Y-6487238D02*
X13747381Y-6477714D01*
X13747381Y-6477714D02*
X13766429Y-6468190D01*
X13766429Y-6468190D02*
X13795001Y-6468190D01*
X13795001Y-6468190D02*
X13814048Y-6477714D01*
X13814048Y-6477714D02*
X13823572Y-6487238D01*
X13823572Y-6487238D02*
X13833096Y-6506286D01*
X13833096Y-6506286D02*
X13833096Y-6563428D01*
X13833096Y-6563428D02*
X13823572Y-6582476D01*
X13823572Y-6582476D02*
X13814048Y-6592000D01*
X13814048Y-6592000D02*
X13795001Y-6601524D01*
X13795001Y-6601524D02*
X13766429Y-6601524D01*
X13890239Y-6468190D02*
X13966429Y-6468190D01*
X13918810Y-6401524D02*
X13918810Y-6572952D01*
X13918810Y-6572952D02*
X13928334Y-6592000D01*
X13928334Y-6592000D02*
X13947381Y-6601524D01*
X13947381Y-6601524D02*
X13966429Y-6601524D01*
X14023572Y-6592000D02*
X14042620Y-6601524D01*
X14042620Y-6601524D02*
X14080715Y-6601524D01*
X14080715Y-6601524D02*
X14099762Y-6592000D01*
X14099762Y-6592000D02*
X14109286Y-6572952D01*
X14109286Y-6572952D02*
X14109286Y-6563428D01*
X14109286Y-6563428D02*
X14099762Y-6544381D01*
X14099762Y-6544381D02*
X14080715Y-6534857D01*
X14080715Y-6534857D02*
X14052143Y-6534857D01*
X14052143Y-6534857D02*
X14033096Y-6525333D01*
X14033096Y-6525333D02*
X14023572Y-6506286D01*
X14023572Y-6506286D02*
X14023572Y-6496762D01*
X14023572Y-6496762D02*
X14033096Y-6477714D01*
X14033096Y-6477714D02*
X14052143Y-6468190D01*
X14052143Y-6468190D02*
X14080715Y-6468190D01*
X14080715Y-6468190D02*
X14099762Y-6477714D01*
X14175953Y-6677714D02*
X14185477Y-6668190D01*
X14185477Y-6668190D02*
X14204524Y-6639619D01*
X14204524Y-6639619D02*
X14214048Y-6620571D01*
X14214048Y-6620571D02*
X14223572Y-6592000D01*
X14223572Y-6592000D02*
X14233096Y-6544381D01*
X14233096Y-6544381D02*
X14233096Y-6506286D01*
X14233096Y-6506286D02*
X14223572Y-6458667D01*
X14223572Y-6458667D02*
X14214048Y-6430095D01*
X14214048Y-6430095D02*
X14204524Y-6411048D01*
X14204524Y-6411048D02*
X14185477Y-6382476D01*
X14185477Y-6382476D02*
X14175953Y-6372952D01*
D14*
X7752500Y-6730500D02*
X7752500Y-6815500D01*
X7710000Y-6773000D02*
X7795000Y-6773000D01*
D11*
X8080714Y-6665524D02*
X8099762Y-6665524D01*
X8099762Y-6665524D02*
X8118809Y-6675048D01*
X8118809Y-6675048D02*
X8128333Y-6684571D01*
X8128333Y-6684571D02*
X8137857Y-6703619D01*
X8137857Y-6703619D02*
X8147381Y-6741714D01*
X8147381Y-6741714D02*
X8147381Y-6789333D01*
X8147381Y-6789333D02*
X8137857Y-6827428D01*
X8137857Y-6827428D02*
X8128333Y-6846476D01*
X8128333Y-6846476D02*
X8118809Y-6856000D01*
X8118809Y-6856000D02*
X8099762Y-6865524D01*
X8099762Y-6865524D02*
X8080714Y-6865524D01*
X8080714Y-6865524D02*
X8061667Y-6856000D01*
X8061667Y-6856000D02*
X8052143Y-6846476D01*
X8052143Y-6846476D02*
X8042619Y-6827428D01*
X8042619Y-6827428D02*
X8033095Y-6789333D01*
X8033095Y-6789333D02*
X8033095Y-6741714D01*
X8033095Y-6741714D02*
X8042619Y-6703619D01*
X8042619Y-6703619D02*
X8052143Y-6684571D01*
X8052143Y-6684571D02*
X8061667Y-6675048D01*
X8061667Y-6675048D02*
X8080714Y-6665524D01*
X8233095Y-6846476D02*
X8242619Y-6856000D01*
X8242619Y-6856000D02*
X8233095Y-6865524D01*
X8233095Y-6865524D02*
X8223571Y-6856000D01*
X8223571Y-6856000D02*
X8233095Y-6846476D01*
X8233095Y-6846476D02*
X8233095Y-6865524D01*
X8356905Y-6751238D02*
X8337857Y-6741714D01*
X8337857Y-6741714D02*
X8328333Y-6732190D01*
X8328333Y-6732190D02*
X8318809Y-6713143D01*
X8318809Y-6713143D02*
X8318809Y-6703619D01*
X8318809Y-6703619D02*
X8328333Y-6684571D01*
X8328333Y-6684571D02*
X8337857Y-6675048D01*
X8337857Y-6675048D02*
X8356905Y-6665524D01*
X8356905Y-6665524D02*
X8395000Y-6665524D01*
X8395000Y-6665524D02*
X8414048Y-6675048D01*
X8414048Y-6675048D02*
X8423571Y-6684571D01*
X8423571Y-6684571D02*
X8433095Y-6703619D01*
X8433095Y-6703619D02*
X8433095Y-6713143D01*
X8433095Y-6713143D02*
X8423571Y-6732190D01*
X8423571Y-6732190D02*
X8414048Y-6741714D01*
X8414048Y-6741714D02*
X8395000Y-6751238D01*
X8395000Y-6751238D02*
X8356905Y-6751238D01*
X8356905Y-6751238D02*
X8337857Y-6760762D01*
X8337857Y-6760762D02*
X8328333Y-6770286D01*
X8328333Y-6770286D02*
X8318809Y-6789333D01*
X8318809Y-6789333D02*
X8318809Y-6827428D01*
X8318809Y-6827428D02*
X8328333Y-6846476D01*
X8328333Y-6846476D02*
X8337857Y-6856000D01*
X8337857Y-6856000D02*
X8356905Y-6865524D01*
X8356905Y-6865524D02*
X8395000Y-6865524D01*
X8395000Y-6865524D02*
X8414048Y-6856000D01*
X8414048Y-6856000D02*
X8423571Y-6846476D01*
X8423571Y-6846476D02*
X8433095Y-6827428D01*
X8433095Y-6827428D02*
X8433095Y-6789333D01*
X8433095Y-6789333D02*
X8423571Y-6770286D01*
X8423571Y-6770286D02*
X8414048Y-6760762D01*
X8414048Y-6760762D02*
X8395000Y-6751238D01*
X8614048Y-6665524D02*
X8518810Y-6665524D01*
X8518810Y-6665524D02*
X8509286Y-6760762D01*
X8509286Y-6760762D02*
X8518810Y-6751238D01*
X8518810Y-6751238D02*
X8537857Y-6741714D01*
X8537857Y-6741714D02*
X8585476Y-6741714D01*
X8585476Y-6741714D02*
X8604524Y-6751238D01*
X8604524Y-6751238D02*
X8614048Y-6760762D01*
X8614048Y-6760762D02*
X8623571Y-6779809D01*
X8623571Y-6779809D02*
X8623571Y-6827428D01*
X8623571Y-6827428D02*
X8614048Y-6846476D01*
X8614048Y-6846476D02*
X8604524Y-6856000D01*
X8604524Y-6856000D02*
X8585476Y-6865524D01*
X8585476Y-6865524D02*
X8537857Y-6865524D01*
X8537857Y-6865524D02*
X8518810Y-6856000D01*
X8518810Y-6856000D02*
X8509286Y-6846476D01*
X8747381Y-6665524D02*
X8766429Y-6665524D01*
X8766429Y-6665524D02*
X8785476Y-6675048D01*
X8785476Y-6675048D02*
X8795000Y-6684571D01*
X8795000Y-6684571D02*
X8804524Y-6703619D01*
X8804524Y-6703619D02*
X8814048Y-6741714D01*
X8814048Y-6741714D02*
X8814048Y-6789333D01*
X8814048Y-6789333D02*
X8804524Y-6827428D01*
X8804524Y-6827428D02*
X8795000Y-6846476D01*
X8795000Y-6846476D02*
X8785476Y-6856000D01*
X8785476Y-6856000D02*
X8766429Y-6865524D01*
X8766429Y-6865524D02*
X8747381Y-6865524D01*
X8747381Y-6865524D02*
X8728333Y-6856000D01*
X8728333Y-6856000D02*
X8718810Y-6846476D01*
X8718810Y-6846476D02*
X8709286Y-6827428D01*
X8709286Y-6827428D02*
X8699762Y-6789333D01*
X8699762Y-6789333D02*
X8699762Y-6741714D01*
X8699762Y-6741714D02*
X8709286Y-6703619D01*
X8709286Y-6703619D02*
X8718810Y-6684571D01*
X8718810Y-6684571D02*
X8728333Y-6675048D01*
X8728333Y-6675048D02*
X8747381Y-6665524D01*
X8899762Y-6865524D02*
X8899762Y-6732190D01*
X8899762Y-6751238D02*
X8909286Y-6741714D01*
X8909286Y-6741714D02*
X8928333Y-6732190D01*
X8928333Y-6732190D02*
X8956905Y-6732190D01*
X8956905Y-6732190D02*
X8975952Y-6741714D01*
X8975952Y-6741714D02*
X8985476Y-6760762D01*
X8985476Y-6760762D02*
X8985476Y-6865524D01*
X8985476Y-6760762D02*
X8995000Y-6741714D01*
X8995000Y-6741714D02*
X9014048Y-6732190D01*
X9014048Y-6732190D02*
X9042619Y-6732190D01*
X9042619Y-6732190D02*
X9061667Y-6741714D01*
X9061667Y-6741714D02*
X9071191Y-6760762D01*
X9071191Y-6760762D02*
X9071191Y-6865524D01*
X9166429Y-6865524D02*
X9166429Y-6732190D01*
X9166429Y-6751238D02*
X9175952Y-6741714D01*
X9175952Y-6741714D02*
X9195000Y-6732190D01*
X9195000Y-6732190D02*
X9223572Y-6732190D01*
X9223572Y-6732190D02*
X9242619Y-6741714D01*
X9242619Y-6741714D02*
X9252143Y-6760762D01*
X9252143Y-6760762D02*
X9252143Y-6865524D01*
X9252143Y-6760762D02*
X9261667Y-6741714D01*
X9261667Y-6741714D02*
X9280714Y-6732190D01*
X9280714Y-6732190D02*
X9309286Y-6732190D01*
X9309286Y-6732190D02*
X9328333Y-6741714D01*
X9328333Y-6741714D02*
X9337857Y-6760762D01*
X9337857Y-6760762D02*
X9337857Y-6865524D01*
X9728333Y-6656000D02*
X9556905Y-6913143D01*
X9985476Y-6665524D02*
X10004524Y-6665524D01*
X10004524Y-6665524D02*
X10023572Y-6675048D01*
X10023572Y-6675048D02*
X10033095Y-6684571D01*
X10033095Y-6684571D02*
X10042619Y-6703619D01*
X10042619Y-6703619D02*
X10052143Y-6741714D01*
X10052143Y-6741714D02*
X10052143Y-6789333D01*
X10052143Y-6789333D02*
X10042619Y-6827428D01*
X10042619Y-6827428D02*
X10033095Y-6846476D01*
X10033095Y-6846476D02*
X10023572Y-6856000D01*
X10023572Y-6856000D02*
X10004524Y-6865524D01*
X10004524Y-6865524D02*
X9985476Y-6865524D01*
X9985476Y-6865524D02*
X9966429Y-6856000D01*
X9966429Y-6856000D02*
X9956905Y-6846476D01*
X9956905Y-6846476D02*
X9947381Y-6827428D01*
X9947381Y-6827428D02*
X9937857Y-6789333D01*
X9937857Y-6789333D02*
X9937857Y-6741714D01*
X9937857Y-6741714D02*
X9947381Y-6703619D01*
X9947381Y-6703619D02*
X9956905Y-6684571D01*
X9956905Y-6684571D02*
X9966429Y-6675048D01*
X9966429Y-6675048D02*
X9985476Y-6665524D01*
X10137857Y-6846476D02*
X10147381Y-6856000D01*
X10147381Y-6856000D02*
X10137857Y-6865524D01*
X10137857Y-6865524D02*
X10128334Y-6856000D01*
X10128334Y-6856000D02*
X10137857Y-6846476D01*
X10137857Y-6846476D02*
X10137857Y-6865524D01*
X10271191Y-6665524D02*
X10290238Y-6665524D01*
X10290238Y-6665524D02*
X10309286Y-6675048D01*
X10309286Y-6675048D02*
X10318810Y-6684571D01*
X10318810Y-6684571D02*
X10328334Y-6703619D01*
X10328334Y-6703619D02*
X10337857Y-6741714D01*
X10337857Y-6741714D02*
X10337857Y-6789333D01*
X10337857Y-6789333D02*
X10328334Y-6827428D01*
X10328334Y-6827428D02*
X10318810Y-6846476D01*
X10318810Y-6846476D02*
X10309286Y-6856000D01*
X10309286Y-6856000D02*
X10290238Y-6865524D01*
X10290238Y-6865524D02*
X10271191Y-6865524D01*
X10271191Y-6865524D02*
X10252143Y-6856000D01*
X10252143Y-6856000D02*
X10242619Y-6846476D01*
X10242619Y-6846476D02*
X10233095Y-6827428D01*
X10233095Y-6827428D02*
X10223572Y-6789333D01*
X10223572Y-6789333D02*
X10223572Y-6741714D01*
X10223572Y-6741714D02*
X10233095Y-6703619D01*
X10233095Y-6703619D02*
X10242619Y-6684571D01*
X10242619Y-6684571D02*
X10252143Y-6675048D01*
X10252143Y-6675048D02*
X10271191Y-6665524D01*
X10404524Y-6665524D02*
X10528334Y-6665524D01*
X10528334Y-6665524D02*
X10461667Y-6741714D01*
X10461667Y-6741714D02*
X10490238Y-6741714D01*
X10490238Y-6741714D02*
X10509286Y-6751238D01*
X10509286Y-6751238D02*
X10518810Y-6760762D01*
X10518810Y-6760762D02*
X10528334Y-6779809D01*
X10528334Y-6779809D02*
X10528334Y-6827428D01*
X10528334Y-6827428D02*
X10518810Y-6846476D01*
X10518810Y-6846476D02*
X10509286Y-6856000D01*
X10509286Y-6856000D02*
X10490238Y-6865524D01*
X10490238Y-6865524D02*
X10433095Y-6865524D01*
X10433095Y-6865524D02*
X10414048Y-6856000D01*
X10414048Y-6856000D02*
X10404524Y-6846476D01*
X10595000Y-6665524D02*
X10718810Y-6665524D01*
X10718810Y-6665524D02*
X10652143Y-6741714D01*
X10652143Y-6741714D02*
X10680715Y-6741714D01*
X10680715Y-6741714D02*
X10699762Y-6751238D01*
X10699762Y-6751238D02*
X10709286Y-6760762D01*
X10709286Y-6760762D02*
X10718810Y-6779809D01*
X10718810Y-6779809D02*
X10718810Y-6827428D01*
X10718810Y-6827428D02*
X10709286Y-6846476D01*
X10709286Y-6846476D02*
X10699762Y-6856000D01*
X10699762Y-6856000D02*
X10680715Y-6865524D01*
X10680715Y-6865524D02*
X10623572Y-6865524D01*
X10623572Y-6865524D02*
X10604524Y-6856000D01*
X10604524Y-6856000D02*
X10595000Y-6846476D01*
X10899762Y-6665524D02*
X10804524Y-6665524D01*
X10804524Y-6665524D02*
X10795000Y-6760762D01*
X10795000Y-6760762D02*
X10804524Y-6751238D01*
X10804524Y-6751238D02*
X10823572Y-6741714D01*
X10823572Y-6741714D02*
X10871191Y-6741714D01*
X10871191Y-6741714D02*
X10890238Y-6751238D01*
X10890238Y-6751238D02*
X10899762Y-6760762D01*
X10899762Y-6760762D02*
X10909286Y-6779809D01*
X10909286Y-6779809D02*
X10909286Y-6827428D01*
X10909286Y-6827428D02*
X10899762Y-6846476D01*
X10899762Y-6846476D02*
X10890238Y-6856000D01*
X10890238Y-6856000D02*
X10871191Y-6865524D01*
X10871191Y-6865524D02*
X10823572Y-6865524D01*
X10823572Y-6865524D02*
X10804524Y-6856000D01*
X10804524Y-6856000D02*
X10795000Y-6846476D01*
X10985476Y-6665524D02*
X10985476Y-6703619D01*
X11061667Y-6665524D02*
X11061667Y-6703619D01*
X11356905Y-6941714D02*
X11347381Y-6932190D01*
X11347381Y-6932190D02*
X11328334Y-6903619D01*
X11328334Y-6903619D02*
X11318810Y-6884571D01*
X11318810Y-6884571D02*
X11309286Y-6856000D01*
X11309286Y-6856000D02*
X11299762Y-6808381D01*
X11299762Y-6808381D02*
X11299762Y-6770286D01*
X11299762Y-6770286D02*
X11309286Y-6722667D01*
X11309286Y-6722667D02*
X11318810Y-6694095D01*
X11318810Y-6694095D02*
X11328334Y-6675048D01*
X11328334Y-6675048D02*
X11347381Y-6646476D01*
X11347381Y-6646476D02*
X11356905Y-6636952D01*
X11471191Y-6665524D02*
X11490238Y-6665524D01*
X11490238Y-6665524D02*
X11509286Y-6675048D01*
X11509286Y-6675048D02*
X11518810Y-6684571D01*
X11518810Y-6684571D02*
X11528334Y-6703619D01*
X11528334Y-6703619D02*
X11537857Y-6741714D01*
X11537857Y-6741714D02*
X11537857Y-6789333D01*
X11537857Y-6789333D02*
X11528334Y-6827428D01*
X11528334Y-6827428D02*
X11518810Y-6846476D01*
X11518810Y-6846476D02*
X11509286Y-6856000D01*
X11509286Y-6856000D02*
X11490238Y-6865524D01*
X11490238Y-6865524D02*
X11471191Y-6865524D01*
X11471191Y-6865524D02*
X11452143Y-6856000D01*
X11452143Y-6856000D02*
X11442619Y-6846476D01*
X11442619Y-6846476D02*
X11433095Y-6827428D01*
X11433095Y-6827428D02*
X11423572Y-6789333D01*
X11423572Y-6789333D02*
X11423572Y-6741714D01*
X11423572Y-6741714D02*
X11433095Y-6703619D01*
X11433095Y-6703619D02*
X11442619Y-6684571D01*
X11442619Y-6684571D02*
X11452143Y-6675048D01*
X11452143Y-6675048D02*
X11471191Y-6665524D01*
X11775953Y-6865524D02*
X11775953Y-6665524D01*
X11861667Y-6865524D02*
X11861667Y-6760762D01*
X11861667Y-6760762D02*
X11852143Y-6741714D01*
X11852143Y-6741714D02*
X11833096Y-6732190D01*
X11833096Y-6732190D02*
X11804524Y-6732190D01*
X11804524Y-6732190D02*
X11785476Y-6741714D01*
X11785476Y-6741714D02*
X11775953Y-6751238D01*
X11985476Y-6865524D02*
X11966429Y-6856000D01*
X11966429Y-6856000D02*
X11956905Y-6846476D01*
X11956905Y-6846476D02*
X11947381Y-6827428D01*
X11947381Y-6827428D02*
X11947381Y-6770286D01*
X11947381Y-6770286D02*
X11956905Y-6751238D01*
X11956905Y-6751238D02*
X11966429Y-6741714D01*
X11966429Y-6741714D02*
X11985476Y-6732190D01*
X11985476Y-6732190D02*
X12014048Y-6732190D01*
X12014048Y-6732190D02*
X12033096Y-6741714D01*
X12033096Y-6741714D02*
X12042619Y-6751238D01*
X12042619Y-6751238D02*
X12052143Y-6770286D01*
X12052143Y-6770286D02*
X12052143Y-6827428D01*
X12052143Y-6827428D02*
X12042619Y-6846476D01*
X12042619Y-6846476D02*
X12033096Y-6856000D01*
X12033096Y-6856000D02*
X12014048Y-6865524D01*
X12014048Y-6865524D02*
X11985476Y-6865524D01*
X12166429Y-6865524D02*
X12147381Y-6856000D01*
X12147381Y-6856000D02*
X12137857Y-6836952D01*
X12137857Y-6836952D02*
X12137857Y-6665524D01*
X12318810Y-6856000D02*
X12299762Y-6865524D01*
X12299762Y-6865524D02*
X12261667Y-6865524D01*
X12261667Y-6865524D02*
X12242619Y-6856000D01*
X12242619Y-6856000D02*
X12233096Y-6836952D01*
X12233096Y-6836952D02*
X12233096Y-6760762D01*
X12233096Y-6760762D02*
X12242619Y-6741714D01*
X12242619Y-6741714D02*
X12261667Y-6732190D01*
X12261667Y-6732190D02*
X12299762Y-6732190D01*
X12299762Y-6732190D02*
X12318810Y-6741714D01*
X12318810Y-6741714D02*
X12328334Y-6760762D01*
X12328334Y-6760762D02*
X12328334Y-6779809D01*
X12328334Y-6779809D02*
X12233096Y-6798857D01*
X12404524Y-6856000D02*
X12423572Y-6865524D01*
X12423572Y-6865524D02*
X12461667Y-6865524D01*
X12461667Y-6865524D02*
X12480715Y-6856000D01*
X12480715Y-6856000D02*
X12490238Y-6836952D01*
X12490238Y-6836952D02*
X12490238Y-6827428D01*
X12490238Y-6827428D02*
X12480715Y-6808381D01*
X12480715Y-6808381D02*
X12461667Y-6798857D01*
X12461667Y-6798857D02*
X12433096Y-6798857D01*
X12433096Y-6798857D02*
X12414048Y-6789333D01*
X12414048Y-6789333D02*
X12404524Y-6770286D01*
X12404524Y-6770286D02*
X12404524Y-6760762D01*
X12404524Y-6760762D02*
X12414048Y-6741714D01*
X12414048Y-6741714D02*
X12433096Y-6732190D01*
X12433096Y-6732190D02*
X12461667Y-6732190D01*
X12461667Y-6732190D02*
X12480715Y-6741714D01*
X12728334Y-6789333D02*
X12880715Y-6789333D01*
X12804524Y-6865524D02*
X12804524Y-6713143D01*
X13118810Y-6684571D02*
X13128334Y-6675048D01*
X13128334Y-6675048D02*
X13147381Y-6665524D01*
X13147381Y-6665524D02*
X13195000Y-6665524D01*
X13195000Y-6665524D02*
X13214048Y-6675048D01*
X13214048Y-6675048D02*
X13223572Y-6684571D01*
X13223572Y-6684571D02*
X13233096Y-6703619D01*
X13233096Y-6703619D02*
X13233096Y-6722667D01*
X13233096Y-6722667D02*
X13223572Y-6751238D01*
X13223572Y-6751238D02*
X13109286Y-6865524D01*
X13109286Y-6865524D02*
X13233096Y-6865524D01*
X13461667Y-6856000D02*
X13480715Y-6865524D01*
X13480715Y-6865524D02*
X13518810Y-6865524D01*
X13518810Y-6865524D02*
X13537858Y-6856000D01*
X13537858Y-6856000D02*
X13547381Y-6836952D01*
X13547381Y-6836952D02*
X13547381Y-6827428D01*
X13547381Y-6827428D02*
X13537858Y-6808381D01*
X13537858Y-6808381D02*
X13518810Y-6798857D01*
X13518810Y-6798857D02*
X13490239Y-6798857D01*
X13490239Y-6798857D02*
X13471191Y-6789333D01*
X13471191Y-6789333D02*
X13461667Y-6770286D01*
X13461667Y-6770286D02*
X13461667Y-6760762D01*
X13461667Y-6760762D02*
X13471191Y-6741714D01*
X13471191Y-6741714D02*
X13490239Y-6732190D01*
X13490239Y-6732190D02*
X13518810Y-6732190D01*
X13518810Y-6732190D02*
X13537858Y-6741714D01*
X13661667Y-6865524D02*
X13642620Y-6856000D01*
X13642620Y-6856000D02*
X13633096Y-6836952D01*
X13633096Y-6836952D02*
X13633096Y-6665524D01*
X13766429Y-6865524D02*
X13747381Y-6856000D01*
X13747381Y-6856000D02*
X13737858Y-6846476D01*
X13737858Y-6846476D02*
X13728334Y-6827428D01*
X13728334Y-6827428D02*
X13728334Y-6770286D01*
X13728334Y-6770286D02*
X13737858Y-6751238D01*
X13737858Y-6751238D02*
X13747381Y-6741714D01*
X13747381Y-6741714D02*
X13766429Y-6732190D01*
X13766429Y-6732190D02*
X13795001Y-6732190D01*
X13795001Y-6732190D02*
X13814048Y-6741714D01*
X13814048Y-6741714D02*
X13823572Y-6751238D01*
X13823572Y-6751238D02*
X13833096Y-6770286D01*
X13833096Y-6770286D02*
X13833096Y-6827428D01*
X13833096Y-6827428D02*
X13823572Y-6846476D01*
X13823572Y-6846476D02*
X13814048Y-6856000D01*
X13814048Y-6856000D02*
X13795001Y-6865524D01*
X13795001Y-6865524D02*
X13766429Y-6865524D01*
X13890239Y-6732190D02*
X13966429Y-6732190D01*
X13918810Y-6665524D02*
X13918810Y-6836952D01*
X13918810Y-6836952D02*
X13928334Y-6856000D01*
X13928334Y-6856000D02*
X13947381Y-6865524D01*
X13947381Y-6865524D02*
X13966429Y-6865524D01*
X14023572Y-6856000D02*
X14042620Y-6865524D01*
X14042620Y-6865524D02*
X14080715Y-6865524D01*
X14080715Y-6865524D02*
X14099762Y-6856000D01*
X14099762Y-6856000D02*
X14109286Y-6836952D01*
X14109286Y-6836952D02*
X14109286Y-6827428D01*
X14109286Y-6827428D02*
X14099762Y-6808381D01*
X14099762Y-6808381D02*
X14080715Y-6798857D01*
X14080715Y-6798857D02*
X14052143Y-6798857D01*
X14052143Y-6798857D02*
X14033096Y-6789333D01*
X14033096Y-6789333D02*
X14023572Y-6770286D01*
X14023572Y-6770286D02*
X14023572Y-6760762D01*
X14023572Y-6760762D02*
X14033096Y-6741714D01*
X14033096Y-6741714D02*
X14052143Y-6732190D01*
X14052143Y-6732190D02*
X14080715Y-6732190D01*
X14080715Y-6732190D02*
X14099762Y-6741714D01*
X14175953Y-6941714D02*
X14185477Y-6932190D01*
X14185477Y-6932190D02*
X14204524Y-6903619D01*
X14204524Y-6903619D02*
X14214048Y-6884571D01*
X14214048Y-6884571D02*
X14223572Y-6856000D01*
X14223572Y-6856000D02*
X14233096Y-6808381D01*
X14233096Y-6808381D02*
X14233096Y-6770286D01*
X14233096Y-6770286D02*
X14223572Y-6722667D01*
X14223572Y-6722667D02*
X14214048Y-6694095D01*
X14214048Y-6694095D02*
X14204524Y-6675048D01*
X14204524Y-6675048D02*
X14185477Y-6646476D01*
X14185477Y-6646476D02*
X14175953Y-6636952D01*
D10*
X7780356Y-7072356D02*
X7780356Y-7001644D01*
X7709644Y-7001644D01*
X7709644Y-7072356D01*
X7780356Y-7072356D01*
D11*
X8147381Y-7129524D02*
X8033095Y-7129524D01*
X8090238Y-7129524D02*
X8090238Y-6929524D01*
X8090238Y-6929524D02*
X8071190Y-6958095D01*
X8071190Y-6958095D02*
X8052143Y-6977143D01*
X8052143Y-6977143D02*
X8033095Y-6986667D01*
X8233095Y-7110476D02*
X8242619Y-7120000D01*
X8242619Y-7120000D02*
X8233095Y-7129524D01*
X8233095Y-7129524D02*
X8223571Y-7120000D01*
X8223571Y-7120000D02*
X8233095Y-7110476D01*
X8233095Y-7110476D02*
X8233095Y-7129524D01*
X8366428Y-6929524D02*
X8385476Y-6929524D01*
X8385476Y-6929524D02*
X8404524Y-6939048D01*
X8404524Y-6939048D02*
X8414048Y-6948571D01*
X8414048Y-6948571D02*
X8423571Y-6967619D01*
X8423571Y-6967619D02*
X8433095Y-7005714D01*
X8433095Y-7005714D02*
X8433095Y-7053333D01*
X8433095Y-7053333D02*
X8423571Y-7091428D01*
X8423571Y-7091428D02*
X8414048Y-7110476D01*
X8414048Y-7110476D02*
X8404524Y-7120000D01*
X8404524Y-7120000D02*
X8385476Y-7129524D01*
X8385476Y-7129524D02*
X8366428Y-7129524D01*
X8366428Y-7129524D02*
X8347381Y-7120000D01*
X8347381Y-7120000D02*
X8337857Y-7110476D01*
X8337857Y-7110476D02*
X8328333Y-7091428D01*
X8328333Y-7091428D02*
X8318809Y-7053333D01*
X8318809Y-7053333D02*
X8318809Y-7005714D01*
X8318809Y-7005714D02*
X8328333Y-6967619D01*
X8328333Y-6967619D02*
X8337857Y-6948571D01*
X8337857Y-6948571D02*
X8347381Y-6939048D01*
X8347381Y-6939048D02*
X8366428Y-6929524D01*
X8556905Y-6929524D02*
X8575952Y-6929524D01*
X8575952Y-6929524D02*
X8595000Y-6939048D01*
X8595000Y-6939048D02*
X8604524Y-6948571D01*
X8604524Y-6948571D02*
X8614048Y-6967619D01*
X8614048Y-6967619D02*
X8623571Y-7005714D01*
X8623571Y-7005714D02*
X8623571Y-7053333D01*
X8623571Y-7053333D02*
X8614048Y-7091428D01*
X8614048Y-7091428D02*
X8604524Y-7110476D01*
X8604524Y-7110476D02*
X8595000Y-7120000D01*
X8595000Y-7120000D02*
X8575952Y-7129524D01*
X8575952Y-7129524D02*
X8556905Y-7129524D01*
X8556905Y-7129524D02*
X8537857Y-7120000D01*
X8537857Y-7120000D02*
X8528333Y-7110476D01*
X8528333Y-7110476D02*
X8518810Y-7091428D01*
X8518810Y-7091428D02*
X8509286Y-7053333D01*
X8509286Y-7053333D02*
X8509286Y-7005714D01*
X8509286Y-7005714D02*
X8518810Y-6967619D01*
X8518810Y-6967619D02*
X8528333Y-6948571D01*
X8528333Y-6948571D02*
X8537857Y-6939048D01*
X8537857Y-6939048D02*
X8556905Y-6929524D01*
X8747381Y-6929524D02*
X8766429Y-6929524D01*
X8766429Y-6929524D02*
X8785476Y-6939048D01*
X8785476Y-6939048D02*
X8795000Y-6948571D01*
X8795000Y-6948571D02*
X8804524Y-6967619D01*
X8804524Y-6967619D02*
X8814048Y-7005714D01*
X8814048Y-7005714D02*
X8814048Y-7053333D01*
X8814048Y-7053333D02*
X8804524Y-7091428D01*
X8804524Y-7091428D02*
X8795000Y-7110476D01*
X8795000Y-7110476D02*
X8785476Y-7120000D01*
X8785476Y-7120000D02*
X8766429Y-7129524D01*
X8766429Y-7129524D02*
X8747381Y-7129524D01*
X8747381Y-7129524D02*
X8728333Y-7120000D01*
X8728333Y-7120000D02*
X8718810Y-7110476D01*
X8718810Y-7110476D02*
X8709286Y-7091428D01*
X8709286Y-7091428D02*
X8699762Y-7053333D01*
X8699762Y-7053333D02*
X8699762Y-7005714D01*
X8699762Y-7005714D02*
X8709286Y-6967619D01*
X8709286Y-6967619D02*
X8718810Y-6948571D01*
X8718810Y-6948571D02*
X8728333Y-6939048D01*
X8728333Y-6939048D02*
X8747381Y-6929524D01*
X8899762Y-7129524D02*
X8899762Y-6996190D01*
X8899762Y-7015238D02*
X8909286Y-7005714D01*
X8909286Y-7005714D02*
X8928333Y-6996190D01*
X8928333Y-6996190D02*
X8956905Y-6996190D01*
X8956905Y-6996190D02*
X8975952Y-7005714D01*
X8975952Y-7005714D02*
X8985476Y-7024762D01*
X8985476Y-7024762D02*
X8985476Y-7129524D01*
X8985476Y-7024762D02*
X8995000Y-7005714D01*
X8995000Y-7005714D02*
X9014048Y-6996190D01*
X9014048Y-6996190D02*
X9042619Y-6996190D01*
X9042619Y-6996190D02*
X9061667Y-7005714D01*
X9061667Y-7005714D02*
X9071191Y-7024762D01*
X9071191Y-7024762D02*
X9071191Y-7129524D01*
X9166429Y-7129524D02*
X9166429Y-6996190D01*
X9166429Y-7015238D02*
X9175952Y-7005714D01*
X9175952Y-7005714D02*
X9195000Y-6996190D01*
X9195000Y-6996190D02*
X9223572Y-6996190D01*
X9223572Y-6996190D02*
X9242619Y-7005714D01*
X9242619Y-7005714D02*
X9252143Y-7024762D01*
X9252143Y-7024762D02*
X9252143Y-7129524D01*
X9252143Y-7024762D02*
X9261667Y-7005714D01*
X9261667Y-7005714D02*
X9280714Y-6996190D01*
X9280714Y-6996190D02*
X9309286Y-6996190D01*
X9309286Y-6996190D02*
X9328333Y-7005714D01*
X9328333Y-7005714D02*
X9337857Y-7024762D01*
X9337857Y-7024762D02*
X9337857Y-7129524D01*
X9728333Y-6920000D02*
X9556905Y-7177143D01*
X9985476Y-6929524D02*
X10004524Y-6929524D01*
X10004524Y-6929524D02*
X10023572Y-6939048D01*
X10023572Y-6939048D02*
X10033095Y-6948571D01*
X10033095Y-6948571D02*
X10042619Y-6967619D01*
X10042619Y-6967619D02*
X10052143Y-7005714D01*
X10052143Y-7005714D02*
X10052143Y-7053333D01*
X10052143Y-7053333D02*
X10042619Y-7091428D01*
X10042619Y-7091428D02*
X10033095Y-7110476D01*
X10033095Y-7110476D02*
X10023572Y-7120000D01*
X10023572Y-7120000D02*
X10004524Y-7129524D01*
X10004524Y-7129524D02*
X9985476Y-7129524D01*
X9985476Y-7129524D02*
X9966429Y-7120000D01*
X9966429Y-7120000D02*
X9956905Y-7110476D01*
X9956905Y-7110476D02*
X9947381Y-7091428D01*
X9947381Y-7091428D02*
X9937857Y-7053333D01*
X9937857Y-7053333D02*
X9937857Y-7005714D01*
X9937857Y-7005714D02*
X9947381Y-6967619D01*
X9947381Y-6967619D02*
X9956905Y-6948571D01*
X9956905Y-6948571D02*
X9966429Y-6939048D01*
X9966429Y-6939048D02*
X9985476Y-6929524D01*
X10137857Y-7110476D02*
X10147381Y-7120000D01*
X10147381Y-7120000D02*
X10137857Y-7129524D01*
X10137857Y-7129524D02*
X10128334Y-7120000D01*
X10128334Y-7120000D02*
X10137857Y-7110476D01*
X10137857Y-7110476D02*
X10137857Y-7129524D01*
X10271191Y-6929524D02*
X10290238Y-6929524D01*
X10290238Y-6929524D02*
X10309286Y-6939048D01*
X10309286Y-6939048D02*
X10318810Y-6948571D01*
X10318810Y-6948571D02*
X10328334Y-6967619D01*
X10328334Y-6967619D02*
X10337857Y-7005714D01*
X10337857Y-7005714D02*
X10337857Y-7053333D01*
X10337857Y-7053333D02*
X10328334Y-7091428D01*
X10328334Y-7091428D02*
X10318810Y-7110476D01*
X10318810Y-7110476D02*
X10309286Y-7120000D01*
X10309286Y-7120000D02*
X10290238Y-7129524D01*
X10290238Y-7129524D02*
X10271191Y-7129524D01*
X10271191Y-7129524D02*
X10252143Y-7120000D01*
X10252143Y-7120000D02*
X10242619Y-7110476D01*
X10242619Y-7110476D02*
X10233095Y-7091428D01*
X10233095Y-7091428D02*
X10223572Y-7053333D01*
X10223572Y-7053333D02*
X10223572Y-7005714D01*
X10223572Y-7005714D02*
X10233095Y-6967619D01*
X10233095Y-6967619D02*
X10242619Y-6948571D01*
X10242619Y-6948571D02*
X10252143Y-6939048D01*
X10252143Y-6939048D02*
X10271191Y-6929524D01*
X10404524Y-6929524D02*
X10528334Y-6929524D01*
X10528334Y-6929524D02*
X10461667Y-7005714D01*
X10461667Y-7005714D02*
X10490238Y-7005714D01*
X10490238Y-7005714D02*
X10509286Y-7015238D01*
X10509286Y-7015238D02*
X10518810Y-7024762D01*
X10518810Y-7024762D02*
X10528334Y-7043809D01*
X10528334Y-7043809D02*
X10528334Y-7091428D01*
X10528334Y-7091428D02*
X10518810Y-7110476D01*
X10518810Y-7110476D02*
X10509286Y-7120000D01*
X10509286Y-7120000D02*
X10490238Y-7129524D01*
X10490238Y-7129524D02*
X10433095Y-7129524D01*
X10433095Y-7129524D02*
X10414048Y-7120000D01*
X10414048Y-7120000D02*
X10404524Y-7110476D01*
X10623572Y-7129524D02*
X10661667Y-7129524D01*
X10661667Y-7129524D02*
X10680715Y-7120000D01*
X10680715Y-7120000D02*
X10690238Y-7110476D01*
X10690238Y-7110476D02*
X10709286Y-7081905D01*
X10709286Y-7081905D02*
X10718810Y-7043809D01*
X10718810Y-7043809D02*
X10718810Y-6967619D01*
X10718810Y-6967619D02*
X10709286Y-6948571D01*
X10709286Y-6948571D02*
X10699762Y-6939048D01*
X10699762Y-6939048D02*
X10680715Y-6929524D01*
X10680715Y-6929524D02*
X10642619Y-6929524D01*
X10642619Y-6929524D02*
X10623572Y-6939048D01*
X10623572Y-6939048D02*
X10614048Y-6948571D01*
X10614048Y-6948571D02*
X10604524Y-6967619D01*
X10604524Y-6967619D02*
X10604524Y-7015238D01*
X10604524Y-7015238D02*
X10614048Y-7034286D01*
X10614048Y-7034286D02*
X10623572Y-7043809D01*
X10623572Y-7043809D02*
X10642619Y-7053333D01*
X10642619Y-7053333D02*
X10680715Y-7053333D01*
X10680715Y-7053333D02*
X10699762Y-7043809D01*
X10699762Y-7043809D02*
X10709286Y-7034286D01*
X10709286Y-7034286D02*
X10718810Y-7015238D01*
X10890238Y-6996190D02*
X10890238Y-7129524D01*
X10842619Y-6920000D02*
X10795000Y-7062857D01*
X10795000Y-7062857D02*
X10918810Y-7062857D01*
X10985476Y-6929524D02*
X10985476Y-6967619D01*
X11061667Y-6929524D02*
X11061667Y-6967619D01*
X11356905Y-7205714D02*
X11347381Y-7196190D01*
X11347381Y-7196190D02*
X11328334Y-7167619D01*
X11328334Y-7167619D02*
X11318810Y-7148571D01*
X11318810Y-7148571D02*
X11309286Y-7120000D01*
X11309286Y-7120000D02*
X11299762Y-7072381D01*
X11299762Y-7072381D02*
X11299762Y-7034286D01*
X11299762Y-7034286D02*
X11309286Y-6986667D01*
X11309286Y-6986667D02*
X11318810Y-6958095D01*
X11318810Y-6958095D02*
X11328334Y-6939048D01*
X11328334Y-6939048D02*
X11347381Y-6910476D01*
X11347381Y-6910476D02*
X11356905Y-6900952D01*
X11423572Y-6948571D02*
X11433095Y-6939048D01*
X11433095Y-6939048D02*
X11452143Y-6929524D01*
X11452143Y-6929524D02*
X11499762Y-6929524D01*
X11499762Y-6929524D02*
X11518810Y-6939048D01*
X11518810Y-6939048D02*
X11528334Y-6948571D01*
X11528334Y-6948571D02*
X11537857Y-6967619D01*
X11537857Y-6967619D02*
X11537857Y-6986667D01*
X11537857Y-6986667D02*
X11528334Y-7015238D01*
X11528334Y-7015238D02*
X11414048Y-7129524D01*
X11414048Y-7129524D02*
X11537857Y-7129524D01*
X11652143Y-7015238D02*
X11633095Y-7005714D01*
X11633095Y-7005714D02*
X11623572Y-6996190D01*
X11623572Y-6996190D02*
X11614048Y-6977143D01*
X11614048Y-6977143D02*
X11614048Y-6967619D01*
X11614048Y-6967619D02*
X11623572Y-6948571D01*
X11623572Y-6948571D02*
X11633095Y-6939048D01*
X11633095Y-6939048D02*
X11652143Y-6929524D01*
X11652143Y-6929524D02*
X11690238Y-6929524D01*
X11690238Y-6929524D02*
X11709286Y-6939048D01*
X11709286Y-6939048D02*
X11718810Y-6948571D01*
X11718810Y-6948571D02*
X11728334Y-6967619D01*
X11728334Y-6967619D02*
X11728334Y-6977143D01*
X11728334Y-6977143D02*
X11718810Y-6996190D01*
X11718810Y-6996190D02*
X11709286Y-7005714D01*
X11709286Y-7005714D02*
X11690238Y-7015238D01*
X11690238Y-7015238D02*
X11652143Y-7015238D01*
X11652143Y-7015238D02*
X11633095Y-7024762D01*
X11633095Y-7024762D02*
X11623572Y-7034286D01*
X11623572Y-7034286D02*
X11614048Y-7053333D01*
X11614048Y-7053333D02*
X11614048Y-7091428D01*
X11614048Y-7091428D02*
X11623572Y-7110476D01*
X11623572Y-7110476D02*
X11633095Y-7120000D01*
X11633095Y-7120000D02*
X11652143Y-7129524D01*
X11652143Y-7129524D02*
X11690238Y-7129524D01*
X11690238Y-7129524D02*
X11709286Y-7120000D01*
X11709286Y-7120000D02*
X11718810Y-7110476D01*
X11718810Y-7110476D02*
X11728334Y-7091428D01*
X11728334Y-7091428D02*
X11728334Y-7053333D01*
X11728334Y-7053333D02*
X11718810Y-7034286D01*
X11718810Y-7034286D02*
X11709286Y-7024762D01*
X11709286Y-7024762D02*
X11690238Y-7015238D01*
X11966429Y-7129524D02*
X11966429Y-6929524D01*
X12052143Y-7129524D02*
X12052143Y-7024762D01*
X12052143Y-7024762D02*
X12042619Y-7005714D01*
X12042619Y-7005714D02*
X12023572Y-6996190D01*
X12023572Y-6996190D02*
X11995000Y-6996190D01*
X11995000Y-6996190D02*
X11975953Y-7005714D01*
X11975953Y-7005714D02*
X11966429Y-7015238D01*
X12175953Y-7129524D02*
X12156905Y-7120000D01*
X12156905Y-7120000D02*
X12147381Y-7110476D01*
X12147381Y-7110476D02*
X12137857Y-7091428D01*
X12137857Y-7091428D02*
X12137857Y-7034286D01*
X12137857Y-7034286D02*
X12147381Y-7015238D01*
X12147381Y-7015238D02*
X12156905Y-7005714D01*
X12156905Y-7005714D02*
X12175953Y-6996190D01*
X12175953Y-6996190D02*
X12204524Y-6996190D01*
X12204524Y-6996190D02*
X12223572Y-7005714D01*
X12223572Y-7005714D02*
X12233096Y-7015238D01*
X12233096Y-7015238D02*
X12242619Y-7034286D01*
X12242619Y-7034286D02*
X12242619Y-7091428D01*
X12242619Y-7091428D02*
X12233096Y-7110476D01*
X12233096Y-7110476D02*
X12223572Y-7120000D01*
X12223572Y-7120000D02*
X12204524Y-7129524D01*
X12204524Y-7129524D02*
X12175953Y-7129524D01*
X12356905Y-7129524D02*
X12337857Y-7120000D01*
X12337857Y-7120000D02*
X12328334Y-7100952D01*
X12328334Y-7100952D02*
X12328334Y-6929524D01*
X12509286Y-7120000D02*
X12490238Y-7129524D01*
X12490238Y-7129524D02*
X12452143Y-7129524D01*
X12452143Y-7129524D02*
X12433096Y-7120000D01*
X12433096Y-7120000D02*
X12423572Y-7100952D01*
X12423572Y-7100952D02*
X12423572Y-7024762D01*
X12423572Y-7024762D02*
X12433096Y-7005714D01*
X12433096Y-7005714D02*
X12452143Y-6996190D01*
X12452143Y-6996190D02*
X12490238Y-6996190D01*
X12490238Y-6996190D02*
X12509286Y-7005714D01*
X12509286Y-7005714D02*
X12518810Y-7024762D01*
X12518810Y-7024762D02*
X12518810Y-7043809D01*
X12518810Y-7043809D02*
X12423572Y-7062857D01*
X12595000Y-7120000D02*
X12614048Y-7129524D01*
X12614048Y-7129524D02*
X12652143Y-7129524D01*
X12652143Y-7129524D02*
X12671191Y-7120000D01*
X12671191Y-7120000D02*
X12680715Y-7100952D01*
X12680715Y-7100952D02*
X12680715Y-7091428D01*
X12680715Y-7091428D02*
X12671191Y-7072381D01*
X12671191Y-7072381D02*
X12652143Y-7062857D01*
X12652143Y-7062857D02*
X12623572Y-7062857D01*
X12623572Y-7062857D02*
X12604524Y-7053333D01*
X12604524Y-7053333D02*
X12595000Y-7034286D01*
X12595000Y-7034286D02*
X12595000Y-7024762D01*
X12595000Y-7024762D02*
X12604524Y-7005714D01*
X12604524Y-7005714D02*
X12623572Y-6996190D01*
X12623572Y-6996190D02*
X12652143Y-6996190D01*
X12652143Y-6996190D02*
X12671191Y-7005714D01*
X12747381Y-7205714D02*
X12756905Y-7196190D01*
X12756905Y-7196190D02*
X12775953Y-7167619D01*
X12775953Y-7167619D02*
X12785477Y-7148571D01*
X12785477Y-7148571D02*
X12795000Y-7120000D01*
X12795000Y-7120000D02*
X12804524Y-7072381D01*
X12804524Y-7072381D02*
X12804524Y-7034286D01*
X12804524Y-7034286D02*
X12795000Y-6986667D01*
X12795000Y-6986667D02*
X12785477Y-6958095D01*
X12785477Y-6958095D02*
X12775953Y-6939048D01*
X12775953Y-6939048D02*
X12756905Y-6910476D01*
X12756905Y-6910476D02*
X12747381Y-6900952D01*
M02*
